<svg class="main-svg" xmlns="http://www.w3.org/2000/svg" xmlns:xlink="http://www.w3.org/1999/xlink" width="1170" height="555" style="" viewBox="0 0 1170 555"><rect x="0" y="0" width="1170" height="555" style="fill: rgb(255, 255, 255); fill-opacity: 1;"/><defs id="defs-a86fba"><g class="clips"><clipPath id="clipa86fbaxyplot" class="plotclip"><rect width="753" height="409"/></clipPath><clipPath class="axesclip" id="clipa86fbax"><rect x="87" y="0" width="753" height="555"/></clipPath><clipPath class="axesclip" id="clipa86fbay"><rect x="0" y="60" width="1170" height="409"/></clipPath><clipPath class="axesclip" id="clipa86fbaxy"><rect x="87" y="60" width="753" height="409"/></clipPath></g><g class="gradients"/><g class="patterns"/></defs><g class="bglayer"><rect class="bg" x="87" y="60" width="753" height="409" style="fill: rgb(229, 236, 246); fill-opacity: 1; stroke-width: 0;"/></g><g class="layer-below"><g class="imagelayer"/><g class="shapelayer"/></g><g class="cartesianlayer"><g class="subplot xy"><g class="layer-subplot"><g class="shapelayer"/><g class="imagelayer"/></g><g class="minor-gridlayer"><g class="x"/><g class="y"/></g><g class="gridlayer"><g class="x"><path class="xgrid crisp" transform="translate(300.33000000000004,0)" d="M0,60v409" style="stroke: rgb(255, 255, 255); stroke-opacity: 1; stroke-width: 1px;"/><path class="xgrid crisp" transform="translate(463.5,0)" d="M0,60v409" style="stroke: rgb(255, 255, 255); stroke-opacity: 1; stroke-width: 1px;"/><path class="xgrid crisp" transform="translate(626.67,0)" d="M0,60v409" style="stroke: rgb(255, 255, 255); stroke-opacity: 1; stroke-width: 1px;"/><path class="xgrid crisp" transform="translate(789.85,0)" d="M0,60v409" style="stroke: rgb(255, 255, 255); stroke-opacity: 1; stroke-width: 1px;"/></g><g class="y"><path class="ygrid crisp" transform="translate(0,375.18)" d="M87,0h753" style="stroke: rgb(255, 255, 255); stroke-opacity: 1; stroke-width: 1px;"/><path class="ygrid crisp" transform="translate(0,309.87)" d="M87,0h753" style="stroke: rgb(255, 255, 255); stroke-opacity: 1; stroke-width: 1px;"/><path class="ygrid crisp" transform="translate(0,244.57)" d="M87,0h753" style="stroke: rgb(255, 255, 255); stroke-opacity: 1; stroke-width: 1px;"/><path class="ygrid crisp" transform="translate(0,179.26)" d="M87,0h753" style="stroke: rgb(255, 255, 255); stroke-opacity: 1; stroke-width: 1px;"/><path class="ygrid crisp" transform="translate(0,113.95)" d="M87,0h753" style="stroke: rgb(255, 255, 255); stroke-opacity: 1; stroke-width: 1px;"/></g></g><g class="zerolinelayer"><path class="xzl zl crisp" transform="translate(137.15,0)" d="M0,60v409" style="stroke: rgb(255, 255, 255); stroke-opacity: 1; stroke-width: 2px;"/><path class="yzl zl crisp" transform="translate(0,440.49)" d="M87,0h753" style="stroke: rgb(255, 255, 255); stroke-opacity: 1; stroke-width: 2px;"/></g><path class="xlines-below"/><path class="ylines-below"/><g class="overlines-below"/><g class="xaxislayer-below"/><g class="yaxislayer-below"/><g class="overaxes-below"/><g class="plot" transform="translate(87,60)" clip-path="url(#clipa86fbaxyplot)"><g class="scatterlayer mlayer"><g class="trace scatter traceae81e5" style="stroke-miterlimit: 2; opacity: 1;"><g class="fills"/><g class="errorbars"/><g class="lines"/><g class="points"><path class="point" transform="translate(702.85,313.78)" d="M0,0L20,-10V10Z" style="opacity: 0.5; stroke-width: 0px; fill: rgb(255, 20, 147); fill-opacity: 1;"/><path class="point" transform="translate(702.85,318.03)" d="M0,0L20,-10V10Z" style="opacity: 0.5; stroke-width: 0px; fill: rgb(255, 20, 147); fill-opacity: 1;"/><path class="point" transform="translate(702.85,358.7)" d="M0,0L20,-10V10Z" style="opacity: 0.5; stroke-width: 0px; fill: rgb(255, 20, 147); fill-opacity: 1;"/><path class="point" transform="translate(702.85,365.63)" d="M0,0L20,-10V10Z" style="opacity: 0.5; stroke-width: 0px; fill: rgb(255, 20, 147); fill-opacity: 1;"/><path class="point" transform="translate(376.5,349.42)" d="M0,0L20,-10V10Z" style="opacity: 0.5; stroke-width: 0px; fill: rgb(255, 20, 147); fill-opacity: 1;"/><path class="point" transform="translate(376.5,346.49)" d="M0,0L20,-10V10Z" style="opacity: 0.5; stroke-width: 0px; fill: rgb(255, 20, 147); fill-opacity: 1;"/><path class="point" transform="translate(376.5,362.39)" d="M0,0L20,-10V10Z" style="opacity: 0.5; stroke-width: 0px; fill: rgb(255, 20, 147); fill-opacity: 1;"/><path class="point" transform="translate(376.5,367.86)" d="M0,0L20,-10V10Z" style="opacity: 0.5; stroke-width: 0px; fill: rgb(255, 20, 147); fill-opacity: 1;"/><path class="point" transform="translate(82.79,358.91)" d="M0,0L20,-10V10Z" style="opacity: 0.5; stroke-width: 0px; fill: rgb(255, 20, 147); fill-opacity: 1;"/><path class="point" transform="translate(82.79,360.37)" d="M0,0L20,-10V10Z" style="opacity: 0.5; stroke-width: 0px; fill: rgb(255, 20, 147); fill-opacity: 1;"/><path class="point" transform="translate(82.79,362.58)" d="M0,0L20,-10V10Z" style="opacity: 0.5; stroke-width: 0px; fill: rgb(255, 20, 147); fill-opacity: 1;"/><path class="point" transform="translate(82.79,368.74)" d="M0,0L20,-10V10Z" style="opacity: 0.5; stroke-width: 0px; fill: rgb(255, 20, 147); fill-opacity: 1;"/><path class="point" transform="translate(50.15,298.4)" d="M0,0L20,-10V10Z" style="opacity: 0.5; stroke-width: 0px; fill: rgb(255, 20, 147); fill-opacity: 1;"/><path class="point" transform="translate(50.15,312.59)" d="M0,0L20,-10V10Z" style="opacity: 0.5; stroke-width: 0px; fill: rgb(255, 20, 147); fill-opacity: 1;"/><path class="point" transform="translate(50.15,334.9)" d="M0,0L20,-10V10Z" style="opacity: 0.5; stroke-width: 0px; fill: rgb(255, 20, 147); fill-opacity: 1;"/><path class="point" transform="translate(50.15,358.25)" d="M0,0L20,-10V10Z" style="opacity: 0.5; stroke-width: 0px; fill: rgb(255, 20, 147); fill-opacity: 1;"/><path class="point" transform="translate(702.85,337.4)" d="M0,0L20,-10V10Z" style="opacity: 0.5; stroke-width: 0px; fill: rgb(255, 20, 147); fill-opacity: 1;"/><path class="point" transform="translate(702.85,360.85)" d="M0,0L20,-10V10Z" style="opacity: 0.5; stroke-width: 0px; fill: rgb(255, 20, 147); fill-opacity: 1;"/><path class="point" transform="translate(702.85,366.33)" d="M0,0L20,-10V10Z" style="opacity: 0.5; stroke-width: 0px; fill: rgb(255, 20, 147); fill-opacity: 1;"/><path class="point" transform="translate(376.5,345.87)" d="M0,0L20,-10V10Z" style="opacity: 0.5; stroke-width: 0px; fill: rgb(255, 20, 147); fill-opacity: 1;"/><path class="point" transform="translate(376.5,357.68)" d="M0,0L20,-10V10Z" style="opacity: 0.5; stroke-width: 0px; fill: rgb(255, 20, 147); fill-opacity: 1;"/><path class="point" transform="translate(376.5,362.67)" d="M0,0L20,-10V10Z" style="opacity: 0.5; stroke-width: 0px; fill: rgb(255, 20, 147); fill-opacity: 1;"/><path class="point" transform="translate(376.5,367.09)" d="M0,0L20,-10V10Z" style="opacity: 0.5; stroke-width: 0px; fill: rgb(255, 20, 147); fill-opacity: 1;"/><path class="point" transform="translate(82.79,359.4)" d="M0,0L20,-10V10Z" style="opacity: 0.5; stroke-width: 0px; fill: rgb(255, 20, 147); fill-opacity: 1;"/><path class="point" transform="translate(82.79,360.53)" d="M0,0L20,-10V10Z" style="opacity: 0.5; stroke-width: 0px; fill: rgb(255, 20, 147); fill-opacity: 1;"/><path class="point" transform="translate(82.79,362.51)" d="M0,0L20,-10V10Z" style="opacity: 0.5; stroke-width: 0px; fill: rgb(255, 20, 147); fill-opacity: 1;"/><path class="point" transform="translate(82.79,368.73)" d="M0,0L20,-10V10Z" style="opacity: 0.5; stroke-width: 0px; fill: rgb(255, 20, 147); fill-opacity: 1;"/><path class="point" transform="translate(50.15,297.01)" d="M0,0L20,-10V10Z" style="opacity: 0.5; stroke-width: 0px; fill: rgb(255, 20, 147); fill-opacity: 1;"/><path class="point" transform="translate(50.15,311.99)" d="M0,0L20,-10V10Z" style="opacity: 0.5; stroke-width: 0px; fill: rgb(255, 20, 147); fill-opacity: 1;"/><path class="point" transform="translate(50.15,334.82)" d="M0,0L20,-10V10Z" style="opacity: 0.5; stroke-width: 0px; fill: rgb(255, 20, 147); fill-opacity: 1;"/><path class="point" transform="translate(50.15,358.23)" d="M0,0L20,-10V10Z" style="opacity: 0.5; stroke-width: 0px; fill: rgb(255, 20, 147); fill-opacity: 1;"/><path class="point" transform="translate(702.85,340.41)" d="M0,0L20,-10V10Z" style="opacity: 0.5; stroke-width: 0px; fill: rgb(255, 20, 147); fill-opacity: 1;"/><path class="point" transform="translate(702.85,320.19)" d="M0,0L20,-10V10Z" style="opacity: 0.5; stroke-width: 0px; fill: rgb(255, 20, 147); fill-opacity: 1;"/><path class="point" transform="translate(50.15,358.25)" d="M0,0L20,-10V10Z" style="opacity: 0.5; stroke-width: 0px; fill: rgb(255, 20, 147); fill-opacity: 1;"/><path class="point" transform="translate(50.15,358.26)" d="M0,0L20,-10V10Z" style="opacity: 0.5; stroke-width: 0px; fill: rgb(255, 20, 147); fill-opacity: 1;"/><path class="point" transform="translate(50.15,334.94)" d="M0,0L20,-10V10Z" style="opacity: 0.5; stroke-width: 0px; fill: rgb(255, 20, 147); fill-opacity: 1;"/><path class="point" transform="translate(702.85,360.5)" d="M0,0L20,-10V10Z" style="opacity: 0.5; stroke-width: 0px; fill: rgb(255, 20, 147); fill-opacity: 1;"/><path class="point" transform="translate(702.85,365.83)" d="M0,0L20,-10V10Z" style="opacity: 0.5; stroke-width: 0px; fill: rgb(255, 20, 147); fill-opacity: 1;"/><path class="point" transform="translate(376.5,345.84)" d="M0,0L20,-10V10Z" style="opacity: 0.5; stroke-width: 0px; fill: rgb(255, 20, 147); fill-opacity: 1;"/><path class="point" transform="translate(376.5,352.23)" d="M0,0L20,-10V10Z" style="opacity: 0.5; stroke-width: 0px; fill: rgb(255, 20, 147); fill-opacity: 1;"/><path class="point" transform="translate(376.5,361.55)" d="M0,0L20,-10V10Z" style="opacity: 0.5; stroke-width: 0px; fill: rgb(255, 20, 147); fill-opacity: 1;"/><path class="point" transform="translate(376.5,367.49)" d="M0,0L20,-10V10Z" style="opacity: 0.5; stroke-width: 0px; fill: rgb(255, 20, 147); fill-opacity: 1;"/><path class="point" transform="translate(82.79,358.88)" d="M0,0L20,-10V10Z" style="opacity: 0.5; stroke-width: 0px; fill: rgb(255, 20, 147); fill-opacity: 1;"/><path class="point" transform="translate(82.79,360.29)" d="M0,0L20,-10V10Z" style="opacity: 0.5; stroke-width: 0px; fill: rgb(255, 20, 147); fill-opacity: 1;"/><path class="point" transform="translate(82.79,362.53)" d="M0,0L20,-10V10Z" style="opacity: 0.5; stroke-width: 0px; fill: rgb(255, 20, 147); fill-opacity: 1;"/><path class="point" transform="translate(82.79,368.62)" d="M0,0L20,-10V10Z" style="opacity: 0.5; stroke-width: 0px; fill: rgb(255, 20, 147); fill-opacity: 1;"/><path class="point" transform="translate(50.15,299.12)" d="M0,0L20,-10V10Z" style="opacity: 0.5; stroke-width: 0px; fill: rgb(255, 20, 147); fill-opacity: 1;"/><path class="point" transform="translate(50.15,312.91)" d="M0,0L20,-10V10Z" style="opacity: 0.5; stroke-width: 0px; fill: rgb(255, 20, 147); fill-opacity: 1;"/><path class="point" transform="translate(50.15,334.95)" d="M0,0L20,-10V10Z" style="opacity: 0.5; stroke-width: 0px; fill: rgb(255, 20, 147); fill-opacity: 1;"/><path class="point" transform="translate(702.85,331.15)" d="M0,0L20,-10V10Z" style="opacity: 0.5; stroke-width: 0px; fill: rgb(255, 20, 147); fill-opacity: 1;"/><path class="point" transform="translate(702.85,284.18)" d="M0,0L20,-10V10Z" style="opacity: 0.5; stroke-width: 0px; fill: rgb(255, 20, 147); fill-opacity: 1;"/><path class="point" transform="translate(376.5,368.68)" d="M0,0L20,-10V10Z" style="opacity: 0.5; stroke-width: 0px; fill: rgb(255, 20, 147); fill-opacity: 1;"/><path class="point" transform="translate(50.15,298.96)" d="M0,0L20,-10V10Z" style="opacity: 0.5; stroke-width: 0px; fill: rgb(255, 20, 147); fill-opacity: 1;"/><path class="point" transform="translate(82.79,368.68)" d="M0,0L20,-10V10Z" style="opacity: 0.5; stroke-width: 0px; fill: rgb(255, 20, 147); fill-opacity: 1;"/><path class="point" transform="translate(82.79,362.61)" d="M0,0L20,-10V10Z" style="opacity: 0.5; stroke-width: 0px; fill: rgb(255, 20, 147); fill-opacity: 1;"/><path class="point" transform="translate(82.79,360.27)" d="M0,0L20,-10V10Z" style="opacity: 0.5; stroke-width: 0px; fill: rgb(255, 20, 147); fill-opacity: 1;"/><path class="point" transform="translate(82.79,359.22)" d="M0,0L20,-10V10Z" style="opacity: 0.5; stroke-width: 0px; fill: rgb(255, 20, 147); fill-opacity: 1;"/><path class="point" transform="translate(50.15,312.83)" d="M0,0L20,-10V10Z" style="opacity: 0.5; stroke-width: 0px; fill: rgb(255, 20, 147); fill-opacity: 1;"/><path class="point" transform="translate(376.5,360.83)" d="M0,0L20,-10V10Z" style="opacity: 0.5; stroke-width: 0px; fill: rgb(255, 20, 147); fill-opacity: 1;"/><path class="point" transform="translate(376.5,341.39)" d="M0,0L20,-10V10Z" style="opacity: 0.5; stroke-width: 0px; fill: rgb(255, 20, 147); fill-opacity: 1;"/><path class="point" transform="translate(702.85,364.52)" d="M0,0L20,-10V10Z" style="opacity: 0.5; stroke-width: 0px; fill: rgb(255, 20, 147); fill-opacity: 1;"/><path class="point" transform="translate(702.85,358.98)" d="M0,0L20,-10V10Z" style="opacity: 0.5; stroke-width: 0px; fill: rgb(255, 20, 147); fill-opacity: 1;"/><path class="point" transform="translate(702.85,340.32)" d="M0,0L20,-10V10Z" style="opacity: 0.5; stroke-width: 0px; fill: rgb(255, 20, 147); fill-opacity: 1;"/><path class="point" transform="translate(376.5,351.57)" d="M0,0L20,-10V10Z" style="opacity: 0.5; stroke-width: 0px; fill: rgb(255, 20, 147); fill-opacity: 1;"/></g><g class="text"/></g><g class="trace scatter trace7f0134" style="stroke-miterlimit: 2; opacity: 1;"><g class="fills"/><g class="errorbars"/><g class="lines"/><g class="points"><path class="point" transform="translate(376.5,372.06)" d="M0,0L-20,-10V10Z" style="opacity: 0.5; stroke-width: 0px; fill: rgb(51, 0, 255); fill-opacity: 1;"/><path class="point" transform="translate(50.15,269.58)" d="M0,0L-20,-10V10Z" style="opacity: 0.5; stroke-width: 0px; fill: rgb(51, 0, 255); fill-opacity: 1;"/><path class="point" transform="translate(50.15,98.8)" d="M0,0L-20,-10V10Z" style="opacity: 0.5; stroke-width: 0px; fill: rgb(51, 0, 255); fill-opacity: 1;"/><path class="point" transform="translate(82.79,375.51)" d="M0,0L-20,-10V10Z" style="opacity: 0.5; stroke-width: 0px; fill: rgb(51, 0, 255); fill-opacity: 1;"/><path class="point" transform="translate(82.79,374.39)" d="M0,0L-20,-10V10Z" style="opacity: 0.5; stroke-width: 0px; fill: rgb(51, 0, 255); fill-opacity: 1;"/><path class="point" transform="translate(82.79,370.5)" d="M0,0L-20,-10V10Z" style="opacity: 0.5; stroke-width: 0px; fill: rgb(51, 0, 255); fill-opacity: 1;"/><path class="point" transform="translate(82.79,369.46)" d="M0,0L-20,-10V10Z" style="opacity: 0.5; stroke-width: 0px; fill: rgb(51, 0, 255); fill-opacity: 1;"/><path class="point" transform="translate(376.5,356.86)" d="M0,0L-20,-10V10Z" style="opacity: 0.5; stroke-width: 0px; fill: rgb(51, 0, 255); fill-opacity: 1;"/><path class="point" transform="translate(376.5,372.16)" d="M0,0L-20,-10V10Z" style="opacity: 0.5; stroke-width: 0px; fill: rgb(51, 0, 255); fill-opacity: 1;"/><path class="point" transform="translate(376.5,359.08)" d="M0,0L-20,-10V10Z" style="opacity: 0.5; stroke-width: 0px; fill: rgb(51, 0, 255); fill-opacity: 1;"/><path class="point" transform="translate(702.85,369.85)" d="M0,0L-20,-10V10Z" style="opacity: 0.5; stroke-width: 0px; fill: rgb(51, 0, 255); fill-opacity: 1;"/><path class="point" transform="translate(702.85,366.13)" d="M0,0L-20,-10V10Z" style="opacity: 0.5; stroke-width: 0px; fill: rgb(51, 0, 255); fill-opacity: 1;"/><path class="point" transform="translate(702.85,333.08)" d="M0,0L-20,-10V10Z" style="opacity: 0.5; stroke-width: 0px; fill: rgb(51, 0, 255); fill-opacity: 1;"/><path class="point" transform="translate(50.15,372.78)" d="M0,0L-20,-10V10Z" style="opacity: 0.5; stroke-width: 0px; fill: rgb(51, 0, 255); fill-opacity: 1;"/><path class="point" transform="translate(50.15,374.8)" d="M0,0L-20,-10V10Z" style="opacity: 0.5; stroke-width: 0px; fill: rgb(51, 0, 255); fill-opacity: 1;"/><path class="point" transform="translate(376.5,369.55)" d="M0,0L-20,-10V10Z" style="opacity: 0.5; stroke-width: 0px; fill: rgb(51, 0, 255); fill-opacity: 1;"/><path class="point" transform="translate(702.85,347.51)" d="M0,0L-20,-10V10Z" style="opacity: 0.5; stroke-width: 0px; fill: rgb(51, 0, 255); fill-opacity: 1;"/><path class="point" transform="translate(702.85,360.24)" d="M0,0L-20,-10V10Z" style="opacity: 0.5; stroke-width: 0px; fill: rgb(51, 0, 255); fill-opacity: 1;"/><path class="point" transform="translate(702.85,360.56)" d="M0,0L-20,-10V10Z" style="opacity: 0.5; stroke-width: 0px; fill: rgb(51, 0, 255); fill-opacity: 1;"/><path class="point" transform="translate(702.85,374.28)" d="M0,0L-20,-10V10Z" style="opacity: 0.5; stroke-width: 0px; fill: rgb(51, 0, 255); fill-opacity: 1;"/><path class="point" transform="translate(376.5,358.02)" d="M0,0L-20,-10V10Z" style="opacity: 0.5; stroke-width: 0px; fill: rgb(51, 0, 255); fill-opacity: 1;"/><path class="point" transform="translate(376.5,358.78)" d="M0,0L-20,-10V10Z" style="opacity: 0.5; stroke-width: 0px; fill: rgb(51, 0, 255); fill-opacity: 1;"/><path class="point" transform="translate(702.85,335.26)" d="M0,0L-20,-10V10Z" style="opacity: 0.5; stroke-width: 0px; fill: rgb(51, 0, 255); fill-opacity: 1;"/><path class="point" transform="translate(376.5,375.48)" d="M0,0L-20,-10V10Z" style="opacity: 0.5; stroke-width: 0px; fill: rgb(51, 0, 255); fill-opacity: 1;"/><path class="point" transform="translate(82.79,367.65)" d="M0,0L-20,-10V10Z" style="opacity: 0.5; stroke-width: 0px; fill: rgb(51, 0, 255); fill-opacity: 1;"/><path class="point" transform="translate(82.79,369.22)" d="M0,0L-20,-10V10Z" style="opacity: 0.5; stroke-width: 0px; fill: rgb(51, 0, 255); fill-opacity: 1;"/><path class="point" transform="translate(82.79,373.08)" d="M0,0L-20,-10V10Z" style="opacity: 0.5; stroke-width: 0px; fill: rgb(51, 0, 255); fill-opacity: 1;"/><path class="point" transform="translate(82.79,374.65)" d="M0,0L-20,-10V10Z" style="opacity: 0.5; stroke-width: 0px; fill: rgb(51, 0, 255); fill-opacity: 1;"/><path class="point" transform="translate(50.15,32.95)" d="M0,0L-20,-10V10Z" style="opacity: 0.5; stroke-width: 0px; fill: rgb(51, 0, 255); fill-opacity: 1;"/><path class="point" transform="translate(50.15,235.96)" d="M0,0L-20,-10V10Z" style="opacity: 0.5; stroke-width: 0px; fill: rgb(51, 0, 255); fill-opacity: 1;"/><path class="point" transform="translate(50.15,372.49)" d="M0,0L-20,-10V10Z" style="opacity: 0.5; stroke-width: 0px; fill: rgb(51, 0, 255); fill-opacity: 1;"/><path class="point" transform="translate(50.15,371.78)" d="M0,0L-20,-10V10Z" style="opacity: 0.5; stroke-width: 0px; fill: rgb(51, 0, 255); fill-opacity: 1;"/><path class="point" transform="translate(50.15,373.26)" d="M0,0L-20,-10V10Z" style="opacity: 0.5; stroke-width: 0px; fill: rgb(51, 0, 255); fill-opacity: 1;"/><path class="point" transform="translate(50.15,375.47)" d="M0,0L-20,-10V10Z" style="opacity: 0.5; stroke-width: 0px; fill: rgb(51, 0, 255); fill-opacity: 1;"/><path class="point" transform="translate(50.15,375.54)" d="M0,0L-20,-10V10Z" style="opacity: 0.5; stroke-width: 0px; fill: rgb(51, 0, 255); fill-opacity: 1;"/><path class="point" transform="translate(702.85,288.36)" d="M0,0L-20,-10V10Z" style="opacity: 0.5; stroke-width: 0px; fill: rgb(51, 0, 255); fill-opacity: 1;"/><path class="point" transform="translate(702.85,344.11)" d="M0,0L-20,-10V10Z" style="opacity: 0.5; stroke-width: 0px; fill: rgb(51, 0, 255); fill-opacity: 1;"/><path class="point" transform="translate(702.85,366.65)" d="M0,0L-20,-10V10Z" style="opacity: 0.5; stroke-width: 0px; fill: rgb(51, 0, 255); fill-opacity: 1;"/><path class="point" transform="translate(702.85,369.73)" d="M0,0L-20,-10V10Z" style="opacity: 0.5; stroke-width: 0px; fill: rgb(51, 0, 255); fill-opacity: 1;"/><path class="point" transform="translate(376.5,350.52)" d="M0,0L-20,-10V10Z" style="opacity: 0.5; stroke-width: 0px; fill: rgb(51, 0, 255); fill-opacity: 1;"/><path class="point" transform="translate(376.5,357.55)" d="M0,0L-20,-10V10Z" style="opacity: 0.5; stroke-width: 0px; fill: rgb(51, 0, 255); fill-opacity: 1;"/><path class="point" transform="translate(376.5,362.24)" d="M0,0L-20,-10V10Z" style="opacity: 0.5; stroke-width: 0px; fill: rgb(51, 0, 255); fill-opacity: 1;"/><path class="point" transform="translate(376.5,373.59)" d="M0,0L-20,-10V10Z" style="opacity: 0.5; stroke-width: 0px; fill: rgb(51, 0, 255); fill-opacity: 1;"/><path class="point" transform="translate(82.79,370.63)" d="M0,0L-20,-10V10Z" style="opacity: 0.5; stroke-width: 0px; fill: rgb(51, 0, 255); fill-opacity: 1;"/><path class="point" transform="translate(82.79,373.99)" d="M0,0L-20,-10V10Z" style="opacity: 0.5; stroke-width: 0px; fill: rgb(51, 0, 255); fill-opacity: 1;"/><path class="point" transform="translate(82.79,376.05)" d="M0,0L-20,-10V10Z" style="opacity: 0.5; stroke-width: 0px; fill: rgb(51, 0, 255); fill-opacity: 1;"/><path class="point" transform="translate(50.15,145.64)" d="M0,0L-20,-10V10Z" style="opacity: 0.5; stroke-width: 0px; fill: rgb(51, 0, 255); fill-opacity: 1;"/><path class="point" transform="translate(50.15,284.41)" d="M0,0L-20,-10V10Z" style="opacity: 0.5; stroke-width: 0px; fill: rgb(51, 0, 255); fill-opacity: 1;"/><path class="point" transform="translate(82.79,370.06)" d="M0,0L-20,-10V10Z" style="opacity: 0.5; stroke-width: 0px; fill: rgb(51, 0, 255); fill-opacity: 1;"/><path class="point" transform="translate(50.15,373.29)" d="M0,0L-20,-10V10Z" style="opacity: 0.5; stroke-width: 0px; fill: rgb(51, 0, 255); fill-opacity: 1;"/><path class="point" transform="translate(376.5,372.07)" d="M0,0L-20,-10V10Z" style="opacity: 0.5; stroke-width: 0px; fill: rgb(51, 0, 255); fill-opacity: 1;"/><path class="point" transform="translate(702.85,255.86)" d="M0,0L-20,-10V10Z" style="opacity: 0.5; stroke-width: 0px; fill: rgb(51, 0, 255); fill-opacity: 1;"/><path class="point" transform="translate(82.79,375.92)" d="M0,0L-20,-10V10Z" style="opacity: 0.5; stroke-width: 0px; fill: rgb(51, 0, 255); fill-opacity: 1;"/><path class="point" transform="translate(82.79,373.85)" d="M0,0L-20,-10V10Z" style="opacity: 0.5; stroke-width: 0px; fill: rgb(51, 0, 255); fill-opacity: 1;"/><path class="point" transform="translate(82.79,370.78)" d="M0,0L-20,-10V10Z" style="opacity: 0.5; stroke-width: 0px; fill: rgb(51, 0, 255); fill-opacity: 1;"/><path class="point" transform="translate(82.79,369.91)" d="M0,0L-20,-10V10Z" style="opacity: 0.5; stroke-width: 0px; fill: rgb(51, 0, 255); fill-opacity: 1;"/><path class="point" transform="translate(376.5,372.72)" d="M0,0L-20,-10V10Z" style="opacity: 0.5; stroke-width: 0px; fill: rgb(51, 0, 255); fill-opacity: 1;"/><path class="point" transform="translate(50.15,171.65)" d="M0,0L-20,-10V10Z" style="opacity: 0.5; stroke-width: 0px; fill: rgb(51, 0, 255); fill-opacity: 1;"/><path class="point" transform="translate(376.5,357.66)" d="M0,0L-20,-10V10Z" style="opacity: 0.5; stroke-width: 0px; fill: rgb(51, 0, 255); fill-opacity: 1;"/><path class="point" transform="translate(702.85,368.67)" d="M0,0L-20,-10V10Z" style="opacity: 0.5; stroke-width: 0px; fill: rgb(51, 0, 255); fill-opacity: 1;"/><path class="point" transform="translate(702.85,331.73)" d="M0,0L-20,-10V10Z" style="opacity: 0.5; stroke-width: 0px; fill: rgb(51, 0, 255); fill-opacity: 1;"/><path class="point" transform="translate(50.15,287.22)" d="M0,0L-20,-10V10Z" style="opacity: 0.5; stroke-width: 0px; fill: rgb(51, 0, 255); fill-opacity: 1;"/><path class="point" transform="translate(702.85,370.05)" d="M0,0L-20,-10V10Z" style="opacity: 0.5; stroke-width: 0px; fill: rgb(51, 0, 255); fill-opacity: 1;"/><path class="point" transform="translate(376.5,346.47)" d="M0,0L-20,-10V10Z" style="opacity: 0.5; stroke-width: 0px; fill: rgb(51, 0, 255); fill-opacity: 1;"/></g><g class="text"/></g><g class="trace scatter trace74b521" style="stroke-miterlimit: 2; opacity: 1;"><g class="fills"/><g class="errorbars"/><g class="lines"/><g class="points"><path class="point" transform="translate(702.85,372.85)" d="M10,10H-10V-10H10Z" style="opacity: 0.5; stroke-width: 0px; fill: rgb(44, 160, 44); fill-opacity: 1;"/><path class="point" transform="translate(702.85,370.36)" d="M10,10H-10V-10H10Z" style="opacity: 0.5; stroke-width: 0px; fill: rgb(44, 160, 44); fill-opacity: 1;"/><path class="point" transform="translate(376.5,350.07)" d="M10,10H-10V-10H10Z" style="opacity: 0.5; stroke-width: 0px; fill: rgb(44, 160, 44); fill-opacity: 1;"/><path class="point" transform="translate(376.5,362.74)" d="M10,10H-10V-10H10Z" style="opacity: 0.5; stroke-width: 0px; fill: rgb(44, 160, 44); fill-opacity: 1;"/><path class="point" transform="translate(50.15,372)" d="M10,10H-10V-10H10Z" style="opacity: 0.5; stroke-width: 0px; fill: rgb(44, 160, 44); fill-opacity: 1;"/><path class="point" transform="translate(376.5,371.35)" d="M10,10H-10V-10H10Z" style="opacity: 0.5; stroke-width: 0px; fill: rgb(44, 160, 44); fill-opacity: 1;"/><path class="point" transform="translate(82.79,368.92)" d="M10,10H-10V-10H10Z" style="opacity: 0.5; stroke-width: 0px; fill: rgb(44, 160, 44); fill-opacity: 1;"/><path class="point" transform="translate(82.79,369.63)" d="M10,10H-10V-10H10Z" style="opacity: 0.5; stroke-width: 0px; fill: rgb(44, 160, 44); fill-opacity: 1;"/><path class="point" transform="translate(82.79,373.46)" d="M10,10H-10V-10H10Z" style="opacity: 0.5; stroke-width: 0px; fill: rgb(44, 160, 44); fill-opacity: 1;"/><path class="point" transform="translate(82.79,374.74)" d="M10,10H-10V-10H10Z" style="opacity: 0.5; stroke-width: 0px; fill: rgb(44, 160, 44); fill-opacity: 1;"/><path class="point" transform="translate(50.15,156.8)" d="M10,10H-10V-10H10Z" style="opacity: 0.5; stroke-width: 0px; fill: rgb(44, 160, 44); fill-opacity: 1;"/><path class="point" transform="translate(50.15,284.18)" d="M10,10H-10V-10H10Z" style="opacity: 0.5; stroke-width: 0px; fill: rgb(44, 160, 44); fill-opacity: 1;"/><path class="point" transform="translate(50.15,367.95)" d="M10,10H-10V-10H10Z" style="opacity: 0.5; stroke-width: 0px; fill: rgb(44, 160, 44); fill-opacity: 1;"/><path class="point" transform="translate(376.5,374.96)" d="M10,10H-10V-10H10Z" style="opacity: 0.5; stroke-width: 0px; fill: rgb(44, 160, 44); fill-opacity: 1;"/><path class="point" transform="translate(50.15,361.72)" d="M10,10H-10V-10H10Z" style="opacity: 0.5; stroke-width: 0px; fill: rgb(44, 160, 44); fill-opacity: 1;"/><path class="point" transform="translate(702.85,322.45)" d="M10,10H-10V-10H10Z" style="opacity: 0.5; stroke-width: 0px; fill: rgb(44, 160, 44); fill-opacity: 1;"/><path class="point" transform="translate(702.85,351.53)" d="M10,10H-10V-10H10Z" style="opacity: 0.5; stroke-width: 0px; fill: rgb(44, 160, 44); fill-opacity: 1;"/><path class="point" transform="translate(702.85,364.9)" d="M10,10H-10V-10H10Z" style="opacity: 0.5; stroke-width: 0px; fill: rgb(44, 160, 44); fill-opacity: 1;"/><path class="point" transform="translate(702.85,367.54)" d="M10,10H-10V-10H10Z" style="opacity: 0.5; stroke-width: 0px; fill: rgb(44, 160, 44); fill-opacity: 1;"/><path class="point" transform="translate(376.5,358.94)" d="M10,10H-10V-10H10Z" style="opacity: 0.5; stroke-width: 0px; fill: rgb(44, 160, 44); fill-opacity: 1;"/><path class="point" transform="translate(376.5,358.84)" d="M10,10H-10V-10H10Z" style="opacity: 0.5; stroke-width: 0px; fill: rgb(44, 160, 44); fill-opacity: 1;"/><path class="point" transform="translate(376.5,372.97)" d="M10,10H-10V-10H10Z" style="opacity: 0.5; stroke-width: 0px; fill: rgb(44, 160, 44); fill-opacity: 1;"/><path class="point" transform="translate(376.5,374.25)" d="M10,10H-10V-10H10Z" style="opacity: 0.5; stroke-width: 0px; fill: rgb(44, 160, 44); fill-opacity: 1;"/><path class="point" transform="translate(82.79,366.78)" d="M10,10H-10V-10H10Z" style="opacity: 0.5; stroke-width: 0px; fill: rgb(44, 160, 44); fill-opacity: 1;"/><path class="point" transform="translate(82.79,368.36)" d="M10,10H-10V-10H10Z" style="opacity: 0.5; stroke-width: 0px; fill: rgb(44, 160, 44); fill-opacity: 1;"/><path class="point" transform="translate(82.79,372.43)" d="M10,10H-10V-10H10Z" style="opacity: 0.5; stroke-width: 0px; fill: rgb(44, 160, 44); fill-opacity: 1;"/><path class="point" transform="translate(82.79,373.94)" d="M10,10H-10V-10H10Z" style="opacity: 0.5; stroke-width: 0px; fill: rgb(44, 160, 44); fill-opacity: 1;"/><path class="point" transform="translate(50.15,137.97)" d="M10,10H-10V-10H10Z" style="opacity: 0.5; stroke-width: 0px; fill: rgb(44, 160, 44); fill-opacity: 1;"/><path class="point" transform="translate(50.15,273.19)" d="M10,10H-10V-10H10Z" style="opacity: 0.5; stroke-width: 0px; fill: rgb(44, 160, 44); fill-opacity: 1;"/><path class="point" transform="translate(702.85,280.42)" d="M10,10H-10V-10H10Z" style="opacity: 0.5; stroke-width: 0px; fill: rgb(44, 160, 44); fill-opacity: 1;"/><path class="point" transform="translate(702.85,338.17)" d="M10,10H-10V-10H10Z" style="opacity: 0.5; stroke-width: 0px; fill: rgb(44, 160, 44); fill-opacity: 1;"/><path class="point" transform="translate(702.85,296.78)" d="M10,10H-10V-10H10Z" style="opacity: 0.5; stroke-width: 0px; fill: rgb(44, 160, 44); fill-opacity: 1;"/><path class="point" transform="translate(50.15,372.87)" d="M10,10H-10V-10H10Z" style="opacity: 0.5; stroke-width: 0px; fill: rgb(44, 160, 44); fill-opacity: 1;"/><path class="point" transform="translate(50.15,283.49)" d="M10,10H-10V-10H10Z" style="opacity: 0.5; stroke-width: 0px; fill: rgb(44, 160, 44); fill-opacity: 1;"/><path class="point" transform="translate(702.85,314.38)" d="M10,10H-10V-10H10Z" style="opacity: 0.5; stroke-width: 0px; fill: rgb(44, 160, 44); fill-opacity: 1;"/><path class="point" transform="translate(702.85,313.73)" d="M10,10H-10V-10H10Z" style="opacity: 0.5; stroke-width: 0px; fill: rgb(44, 160, 44); fill-opacity: 1;"/><path class="point" transform="translate(702.85,369.5)" d="M10,10H-10V-10H10Z" style="opacity: 0.5; stroke-width: 0px; fill: rgb(44, 160, 44); fill-opacity: 1;"/><path class="point" transform="translate(702.85,371.61)" d="M10,10H-10V-10H10Z" style="opacity: 0.5; stroke-width: 0px; fill: rgb(44, 160, 44); fill-opacity: 1;"/><path class="point" transform="translate(376.5,346.82)" d="M10,10H-10V-10H10Z" style="opacity: 0.5; stroke-width: 0px; fill: rgb(44, 160, 44); fill-opacity: 1;"/><path class="point" transform="translate(376.5,358.72)" d="M10,10H-10V-10H10Z" style="opacity: 0.5; stroke-width: 0px; fill: rgb(44, 160, 44); fill-opacity: 1;"/><path class="point" transform="translate(376.5,373.65)" d="M10,10H-10V-10H10Z" style="opacity: 0.5; stroke-width: 0px; fill: rgb(44, 160, 44); fill-opacity: 1;"/><path class="point" transform="translate(376.5,373.33)" d="M10,10H-10V-10H10Z" style="opacity: 0.5; stroke-width: 0px; fill: rgb(44, 160, 44); fill-opacity: 1;"/><path class="point" transform="translate(82.79,370.16)" d="M10,10H-10V-10H10Z" style="opacity: 0.5; stroke-width: 0px; fill: rgb(44, 160, 44); fill-opacity: 1;"/><path class="point" transform="translate(82.79,371.12)" d="M10,10H-10V-10H10Z" style="opacity: 0.5; stroke-width: 0px; fill: rgb(44, 160, 44); fill-opacity: 1;"/><path class="point" transform="translate(82.79,374.14)" d="M10,10H-10V-10H10Z" style="opacity: 0.5; stroke-width: 0px; fill: rgb(44, 160, 44); fill-opacity: 1;"/><path class="point" transform="translate(82.79,375.15)" d="M10,10H-10V-10H10Z" style="opacity: 0.5; stroke-width: 0px; fill: rgb(44, 160, 44); fill-opacity: 1;"/><path class="point" transform="translate(50.15,180.88)" d="M10,10H-10V-10H10Z" style="opacity: 0.5; stroke-width: 0px; fill: rgb(44, 160, 44); fill-opacity: 1;"/><path class="point" transform="translate(50.15,373.54)" d="M10,10H-10V-10H10Z" style="opacity: 0.5; stroke-width: 0px; fill: rgb(44, 160, 44); fill-opacity: 1;"/><path class="point" transform="translate(50.15,372.03)" d="M10,10H-10V-10H10Z" style="opacity: 0.5; stroke-width: 0px; fill: rgb(44, 160, 44); fill-opacity: 1;"/><path class="point" transform="translate(50.15,373.17)" d="M10,10H-10V-10H10Z" style="opacity: 0.5; stroke-width: 0px; fill: rgb(44, 160, 44); fill-opacity: 1;"/><path class="point" transform="translate(702.85,336.99)" d="M10,10H-10V-10H10Z" style="opacity: 0.5; stroke-width: 0px; fill: rgb(44, 160, 44); fill-opacity: 1;"/><path class="point" transform="translate(702.85,367.84)" d="M10,10H-10V-10H10Z" style="opacity: 0.5; stroke-width: 0px; fill: rgb(44, 160, 44); fill-opacity: 1;"/><path class="point" transform="translate(702.85,369.44)" d="M10,10H-10V-10H10Z" style="opacity: 0.5; stroke-width: 0px; fill: rgb(44, 160, 44); fill-opacity: 1;"/><path class="point" transform="translate(376.5,344.49)" d="M10,10H-10V-10H10Z" style="opacity: 0.5; stroke-width: 0px; fill: rgb(44, 160, 44); fill-opacity: 1;"/><path class="point" transform="translate(376.5,357.96)" d="M10,10H-10V-10H10Z" style="opacity: 0.5; stroke-width: 0px; fill: rgb(44, 160, 44); fill-opacity: 1;"/><path class="point" transform="translate(376.5,370.11)" d="M10,10H-10V-10H10Z" style="opacity: 0.5; stroke-width: 0px; fill: rgb(44, 160, 44); fill-opacity: 1;"/><path class="point" transform="translate(376.5,373.59)" d="M10,10H-10V-10H10Z" style="opacity: 0.5; stroke-width: 0px; fill: rgb(44, 160, 44); fill-opacity: 1;"/><path class="point" transform="translate(82.79,369.6)" d="M10,10H-10V-10H10Z" style="opacity: 0.5; stroke-width: 0px; fill: rgb(44, 160, 44); fill-opacity: 1;"/><path class="point" transform="translate(82.79,370.87)" d="M10,10H-10V-10H10Z" style="opacity: 0.5; stroke-width: 0px; fill: rgb(44, 160, 44); fill-opacity: 1;"/><path class="point" transform="translate(82.79,373.97)" d="M10,10H-10V-10H10Z" style="opacity: 0.5; stroke-width: 0px; fill: rgb(44, 160, 44); fill-opacity: 1;"/><path class="point" transform="translate(82.79,375.2)" d="M10,10H-10V-10H10Z" style="opacity: 0.5; stroke-width: 0px; fill: rgb(44, 160, 44); fill-opacity: 1;"/><path class="point" transform="translate(50.15,187.06)" d="M10,10H-10V-10H10Z" style="opacity: 0.5; stroke-width: 0px; fill: rgb(44, 160, 44); fill-opacity: 1;"/><path class="point" transform="translate(50.15,369.77)" d="M10,10H-10V-10H10Z" style="opacity: 0.5; stroke-width: 0px; fill: rgb(44, 160, 44); fill-opacity: 1;"/></g><g class="text"/></g></g></g><g class="overplot"/><path class="xlines-above crisp" d="M0,0" style="fill: none;"/><path class="ylines-above crisp" d="M0,0" style="fill: none;"/><g class="overlines-above"/><g class="xaxislayer-above"><g class="xtick"><text text-anchor="middle" x="0" y="500" transform="translate(137.15,0)" style="font-family: CMU; font-size: 30px; fill: rgb(42, 63, 95); fill-opacity: 1; white-space: pre; opacity: 1;">0</text></g><g class="xtick"><text text-anchor="middle" x="0" y="500" style="font-family: CMU; font-size: 30px; fill: rgb(42, 63, 95); fill-opacity: 1; white-space: pre; opacity: 1;" transform="translate(300.33000000000004,0)">0.05</text></g><g class="xtick"><text text-anchor="middle" x="0" y="500" style="font-family: CMU; font-size: 30px; fill: rgb(42, 63, 95); fill-opacity: 1; white-space: pre; opacity: 1;" transform="translate(463.5,0)">0.1</text></g><g class="xtick"><text text-anchor="middle" x="0" y="500" style="font-family: CMU; font-size: 30px; fill: rgb(42, 63, 95); fill-opacity: 1; white-space: pre; opacity: 1;" transform="translate(626.67,0)">0.15</text></g><g class="xtick"><text text-anchor="middle" x="0" y="500" style="font-family: CMU; font-size: 30px; fill: rgb(42, 63, 95); fill-opacity: 1; white-space: pre; opacity: 1;" transform="translate(789.85,0)">0.2</text></g></g><g class="yaxislayer-above"><g class="ytick"><text text-anchor="end" x="86" y="10.5" transform="translate(0,440.49)" style="font-family: CMU; font-size: 30px; fill: rgb(42, 63, 95); fill-opacity: 1; white-space: pre; opacity: 1;">0</text></g><g class="ytick"><text text-anchor="end" x="86" y="10.5" style="font-family: CMU; font-size: 30px; fill: rgb(42, 63, 95); fill-opacity: 1; white-space: pre; opacity: 1;" transform="translate(0,375.18)">0.5</text></g><g class="ytick"><text text-anchor="end" x="86" y="10.5" style="font-family: CMU; font-size: 30px; fill: rgb(42, 63, 95); fill-opacity: 1; white-space: pre; opacity: 1;" transform="translate(0,309.87)">1</text></g><g class="ytick"><text text-anchor="end" x="86" y="10.5" style="font-family: CMU; font-size: 30px; fill: rgb(42, 63, 95); fill-opacity: 1; white-space: pre; opacity: 1;" transform="translate(0,244.57)">1.5</text></g><g class="ytick"><text text-anchor="end" x="86" y="10.5" style="font-family: CMU; font-size: 30px; fill: rgb(42, 63, 95); fill-opacity: 1; white-space: pre; opacity: 1;" transform="translate(0,179.26)">2</text></g><g class="ytick"><text text-anchor="end" x="86" y="10.5" style="font-family: CMU; font-size: 30px; fill: rgb(42, 63, 95); fill-opacity: 1; white-space: pre; opacity: 1;" transform="translate(0,113.95)">2.5</text></g></g><g class="overaxes-above"/></g></g><g class="polarlayer"/><g class="smithlayer"/><g class="ternarylayer"/><g class="geolayer"/><g class="funnelarealayer"/><g class="pielayer"/><g class="iciclelayer"/><g class="treemaplayer"/><g class="sunburstlayer"/><g class="glimages"/><defs id="topdefs-a86fba"><g class="clips"/><clipPath id="legenda86fba"><rect width="303" height="183" x="0" y="0"/></clipPath></defs><g class="layer-above"><g class="imagelayer"/><g class="shapelayer"/></g><g class="infolayer"><g class="legend" pointer-events="all" transform="translate(855.0600000000001,60)"><rect class="bg" shape-rendering="crispEdges" width="303" height="183" x="0" y="0" style="stroke: rgb(68, 68, 68); stroke-opacity: 1; fill: rgb(255, 255, 255); fill-opacity: 1; stroke-width: 0px;"/><g class="scrollbox" transform="" clip-path="url(#legenda86fba)"><text class="legendtitletext" text-anchor="start" x="2" y="46.800000000000004" style="font-family: CMU; font-size: 36px; fill: rgb(42, 63, 95); fill-opacity: 1; white-space: pre;">Estimator, Estimator</text><g class="groups" transform=""><g class="traces" transform="translate(0,72.80000000000001)" style="opacity: 1;"><text class="legendtext" text-anchor="start" x="40" y="11.7" style="font-family: CMU; font-size: 30px; fill: rgb(42, 63, 95); fill-opacity: 1; white-space: pre;">Lin2015, Lin2015</text><g class="layers" style="opacity: 1;"><g class="legendfill"/><g class="legendlines"/><g class="legendsymbols"><g class="legendpoints"><path class="scatterpts" transform="translate(20,0)" d="M0,0L16,-8V8Z" style="opacity: 0.5; stroke-width: 0px; fill: rgb(255, 20, 147); fill-opacity: 1;"/></g></g></g><rect class="legendtoggle" x="0" y="-21" width="258.328125" height="42" style="fill: rgb(0, 0, 0); fill-opacity: 0;"/></g></g><g class="groups" transform=""><g class="traces" transform="translate(0,114.80000000000001)" style="opacity: 1;"><text class="legendtext" text-anchor="start" x="40" y="11.7" style="font-family: CMU; font-size: 30px; fill: rgb(42, 63, 95); fill-opacity: 1; white-space: pre;">LLS, LLS</text><g class="layers" style="opacity: 1;"><g class="legendfill"/><g class="legendlines"/><g class="legendsymbols"><g class="legendpoints"><path class="scatterpts" transform="translate(20,0)" d="M0,0L-16,-8V8Z" style="opacity: 0.5; stroke-width: 0px; fill: rgb(51, 0, 255); fill-opacity: 1;"/></g></g></g><rect class="legendtoggle" x="0" y="-21" width="258.328125" height="42" style="fill: rgb(0, 0, 0); fill-opacity: 0;"/></g></g><g class="groups" transform=""><g class="traces" transform="translate(0,156.8)" style="opacity: 1;"><text class="legendtext" text-anchor="start" x="40" y="11.7" style="font-family: CMU; font-size: 30px; fill: rgb(42, 63, 95); fill-opacity: 1; white-space: pre;">GLS, GLS</text><g class="layers" style="opacity: 1;"><g class="legendfill"/><g class="legendlines"/><g class="legendsymbols"><g class="legendpoints"><path class="scatterpts" transform="translate(20,0)" d="M8,8H-8V-8H8Z" style="opacity: 0.5; stroke-width: 0px; fill: rgb(44, 160, 44); fill-opacity: 1;"/></g></g></g><rect class="legendtoggle" x="0" y="-21" width="258.328125" height="42" style="fill: rgb(0, 0, 0); fill-opacity: 0;"/></g></g></g><rect class="scrollbar" rx="20" ry="3" width="0" height="0" x="0" y="0" style="fill: rgb(128, 139, 164); fill-opacity: 1;"/></g><g class="g-gtitle"><text class="gtitle" x="58.5" y="30" text-anchor="start" dy="0em" style="font-family: CMU; font-size: 30px; fill: rgb(42, 63, 95); opacity: 1; font-weight: normal; white-space: pre;">model_3 rmsd_geodesic hyperboloid</text></g><g class="g-xtitle"><text class="xtitle" x="463.5" y="542" text-anchor="middle" style="font-family: CMU; font-size: 30px; fill: rgb(42, 63, 95); opacity: 1; font-weight: normal; white-space: pre;">Noise Factor</text></g><g class="g-ytitle" transform="translate(13.5,0)"><text class="ytitle" transform="rotate(-90,13,264.5)" x="13" y="264.5" text-anchor="middle" style="font-family: CMU; font-size: 30px; fill: rgb(42, 63, 95); opacity: 1; font-weight: normal; white-space: pre;">RMSD, geod dist</text></g></g></svg>