<svg class="main-svg" xmlns="http://www.w3.org/2000/svg" xmlns:xlink="http://www.w3.org/1999/xlink" width="1170" height="555" style="" viewBox="0 0 1170 555"><rect x="0" y="0" width="1170" height="555" style="fill: rgb(255, 255, 255); fill-opacity: 1;"/><defs id="defs-31e98f"><g class="clips"><clipPath id="clip31e98fxyplot" class="plotclip"><rect width="753" height="409"/></clipPath><clipPath class="axesclip" id="clip31e98fx"><rect x="87" y="0" width="753" height="555"/></clipPath><clipPath class="axesclip" id="clip31e98fy"><rect x="0" y="60" width="1170" height="409"/></clipPath><clipPath class="axesclip" id="clip31e98fxy"><rect x="87" y="60" width="753" height="409"/></clipPath></g><g class="gradients"/><g class="patterns"/></defs><g class="bglayer"><rect class="bg" x="87" y="60" width="753" height="409" style="fill: rgb(229, 236, 246); fill-opacity: 1; stroke-width: 0;"/></g><g class="layer-below"><g class="imagelayer"/><g class="shapelayer"/></g><g class="cartesianlayer"><g class="subplot xy"><g class="layer-subplot"><g class="shapelayer"/><g class="imagelayer"/></g><g class="minor-gridlayer"><g class="x"/><g class="y"/></g><g class="gridlayer"><g class="x"><path class="xgrid crisp" transform="translate(300.33000000000004,0)" d="M0,60v409" style="stroke: rgb(255, 255, 255); stroke-opacity: 1; stroke-width: 1px;"/><path class="xgrid crisp" transform="translate(463.5,0)" d="M0,60v409" style="stroke: rgb(255, 255, 255); stroke-opacity: 1; stroke-width: 1px;"/><path class="xgrid crisp" transform="translate(626.67,0)" d="M0,60v409" style="stroke: rgb(255, 255, 255); stroke-opacity: 1; stroke-width: 1px;"/><path class="xgrid crisp" transform="translate(789.85,0)" d="M0,60v409" style="stroke: rgb(255, 255, 255); stroke-opacity: 1; stroke-width: 1px;"/></g><g class="y"><path class="ygrid crisp" transform="translate(0,388.47)" d="M87,0h753" style="stroke: rgb(255, 255, 255); stroke-opacity: 1; stroke-width: 1px;"/><path class="ygrid crisp" transform="translate(0,337.04)" d="M87,0h753" style="stroke: rgb(255, 255, 255); stroke-opacity: 1; stroke-width: 1px;"/><path class="ygrid crisp" transform="translate(0,285.61)" d="M87,0h753" style="stroke: rgb(255, 255, 255); stroke-opacity: 1; stroke-width: 1px;"/><path class="ygrid crisp" transform="translate(0,234.18)" d="M87,0h753" style="stroke: rgb(255, 255, 255); stroke-opacity: 1; stroke-width: 1px;"/><path class="ygrid crisp" transform="translate(0,182.74)" d="M87,0h753" style="stroke: rgb(255, 255, 255); stroke-opacity: 1; stroke-width: 1px;"/><path class="ygrid crisp" transform="translate(0,131.31)" d="M87,0h753" style="stroke: rgb(255, 255, 255); stroke-opacity: 1; stroke-width: 1px;"/><path class="ygrid crisp" transform="translate(0,79.88)" d="M87,0h753" style="stroke: rgb(255, 255, 255); stroke-opacity: 1; stroke-width: 1px;"/></g></g><g class="zerolinelayer"><path class="xzl zl crisp" transform="translate(137.15,0)" d="M0,60v409" style="stroke: rgb(255, 255, 255); stroke-opacity: 1; stroke-width: 2px;"/><path class="yzl zl crisp" transform="translate(0,439.91)" d="M87,0h753" style="stroke: rgb(255, 255, 255); stroke-opacity: 1; stroke-width: 2px;"/></g><path class="xlines-below"/><path class="ylines-below"/><g class="overlines-below"/><g class="xaxislayer-below"/><g class="yaxislayer-below"/><g class="overaxes-below"/><g class="plot" transform="translate(87,60)" clip-path="url(#clip31e98fxyplot)"><g class="scatterlayer mlayer"><g class="trace scatter tracef412e2" style="stroke-miterlimit: 2; opacity: 1;"><g class="fills"/><g class="errorbars"/><g class="lines"/><g class="points"><path class="point" transform="translate(702.85,313.69)" d="M0,0L20,-10V10Z" style="opacity: 0.5; stroke-width: 0px; fill: rgb(255, 20, 147); fill-opacity: 1;"/><path class="point" transform="translate(702.85,322.68)" d="M0,0L20,-10V10Z" style="opacity: 0.5; stroke-width: 0px; fill: rgb(255, 20, 147); fill-opacity: 1;"/><path class="point" transform="translate(702.85,362.1)" d="M0,0L20,-10V10Z" style="opacity: 0.5; stroke-width: 0px; fill: rgb(255, 20, 147); fill-opacity: 1;"/><path class="point" transform="translate(376.5,314.96)" d="M0,0L20,-10V10Z" style="opacity: 0.5; stroke-width: 0px; fill: rgb(255, 20, 147); fill-opacity: 1;"/><path class="point" transform="translate(376.5,325.55)" d="M0,0L20,-10V10Z" style="opacity: 0.5; stroke-width: 0px; fill: rgb(255, 20, 147); fill-opacity: 1;"/><path class="point" transform="translate(376.5,342.97)" d="M0,0L20,-10V10Z" style="opacity: 0.5; stroke-width: 0px; fill: rgb(255, 20, 147); fill-opacity: 1;"/><path class="point" transform="translate(376.5,361.95)" d="M0,0L20,-10V10Z" style="opacity: 0.5; stroke-width: 0px; fill: rgb(255, 20, 147); fill-opacity: 1;"/><path class="point" transform="translate(82.79,314.75)" d="M0,0L20,-10V10Z" style="opacity: 0.5; stroke-width: 0px; fill: rgb(255, 20, 147); fill-opacity: 1;"/><path class="point" transform="translate(82.79,326.29)" d="M0,0L20,-10V10Z" style="opacity: 0.5; stroke-width: 0px; fill: rgb(255, 20, 147); fill-opacity: 1;"/><path class="point" transform="translate(82.79,344.06)" d="M0,0L20,-10V10Z" style="opacity: 0.5; stroke-width: 0px; fill: rgb(255, 20, 147); fill-opacity: 1;"/><path class="point" transform="translate(82.79,362.38)" d="M0,0L20,-10V10Z" style="opacity: 0.5; stroke-width: 0px; fill: rgb(255, 20, 147); fill-opacity: 1;"/><path class="point" transform="translate(50.15,315.26)" d="M0,0L20,-10V10Z" style="opacity: 0.5; stroke-width: 0px; fill: rgb(255, 20, 147); fill-opacity: 1;"/><path class="point" transform="translate(50.15,326.44)" d="M0,0L20,-10V10Z" style="opacity: 0.5; stroke-width: 0px; fill: rgb(255, 20, 147); fill-opacity: 1;"/><path class="point" transform="translate(50.15,344.01)" d="M0,0L20,-10V10Z" style="opacity: 0.5; stroke-width: 0px; fill: rgb(255, 20, 147); fill-opacity: 1;"/><path class="point" transform="translate(50.15,362.39)" d="M0,0L20,-10V10Z" style="opacity: 0.5; stroke-width: 0px; fill: rgb(255, 20, 147); fill-opacity: 1;"/><path class="point" transform="translate(702.85,323.74)" d="M0,0L20,-10V10Z" style="opacity: 0.5; stroke-width: 0px; fill: rgb(255, 20, 147); fill-opacity: 1;"/><path class="point" transform="translate(702.85,344.53)" d="M0,0L20,-10V10Z" style="opacity: 0.5; stroke-width: 0px; fill: rgb(255, 20, 147); fill-opacity: 1;"/><path class="point" transform="translate(702.85,359.74)" d="M0,0L20,-10V10Z" style="opacity: 0.5; stroke-width: 0px; fill: rgb(255, 20, 147); fill-opacity: 1;"/><path class="point" transform="translate(376.5,317.95)" d="M0,0L20,-10V10Z" style="opacity: 0.5; stroke-width: 0px; fill: rgb(255, 20, 147); fill-opacity: 1;"/><path class="point" transform="translate(376.5,328.36)" d="M0,0L20,-10V10Z" style="opacity: 0.5; stroke-width: 0px; fill: rgb(255, 20, 147); fill-opacity: 1;"/><path class="point" transform="translate(376.5,344.3)" d="M0,0L20,-10V10Z" style="opacity: 0.5; stroke-width: 0px; fill: rgb(255, 20, 147); fill-opacity: 1;"/><path class="point" transform="translate(376.5,362.71)" d="M0,0L20,-10V10Z" style="opacity: 0.5; stroke-width: 0px; fill: rgb(255, 20, 147); fill-opacity: 1;"/><path class="point" transform="translate(82.79,314.72)" d="M0,0L20,-10V10Z" style="opacity: 0.5; stroke-width: 0px; fill: rgb(255, 20, 147); fill-opacity: 1;"/><path class="point" transform="translate(82.79,325.78)" d="M0,0L20,-10V10Z" style="opacity: 0.5; stroke-width: 0px; fill: rgb(255, 20, 147); fill-opacity: 1;"/><path class="point" transform="translate(82.79,344.01)" d="M0,0L20,-10V10Z" style="opacity: 0.5; stroke-width: 0px; fill: rgb(255, 20, 147); fill-opacity: 1;"/><path class="point" transform="translate(82.79,362.42)" d="M0,0L20,-10V10Z" style="opacity: 0.5; stroke-width: 0px; fill: rgb(255, 20, 147); fill-opacity: 1;"/><path class="point" transform="translate(50.15,314.16)" d="M0,0L20,-10V10Z" style="opacity: 0.5; stroke-width: 0px; fill: rgb(255, 20, 147); fill-opacity: 1;"/><path class="point" transform="translate(50.15,325.96)" d="M0,0L20,-10V10Z" style="opacity: 0.5; stroke-width: 0px; fill: rgb(255, 20, 147); fill-opacity: 1;"/><path class="point" transform="translate(50.15,343.94)" d="M0,0L20,-10V10Z" style="opacity: 0.5; stroke-width: 0px; fill: rgb(255, 20, 147); fill-opacity: 1;"/><path class="point" transform="translate(50.15,362.38)" d="M0,0L20,-10V10Z" style="opacity: 0.5; stroke-width: 0px; fill: rgb(255, 20, 147); fill-opacity: 1;"/><path class="point" transform="translate(702.85,325.03)" d="M0,0L20,-10V10Z" style="opacity: 0.5; stroke-width: 0px; fill: rgb(255, 20, 147); fill-opacity: 1;"/><path class="point" transform="translate(702.85,343.75)" d="M0,0L20,-10V10Z" style="opacity: 0.5; stroke-width: 0px; fill: rgb(255, 20, 147); fill-opacity: 1;"/><path class="point" transform="translate(702.85,316)" d="M0,0L20,-10V10Z" style="opacity: 0.5; stroke-width: 0px; fill: rgb(255, 20, 147); fill-opacity: 1;"/><path class="point" transform="translate(702.85,315.61)" d="M0,0L20,-10V10Z" style="opacity: 0.5; stroke-width: 0px; fill: rgb(255, 20, 147); fill-opacity: 1;"/><path class="point" transform="translate(702.85,324.45)" d="M0,0L20,-10V10Z" style="opacity: 0.5; stroke-width: 0px; fill: rgb(255, 20, 147); fill-opacity: 1;"/><path class="point" transform="translate(50.15,362.4)" d="M0,0L20,-10V10Z" style="opacity: 0.5; stroke-width: 0px; fill: rgb(255, 20, 147); fill-opacity: 1;"/><path class="point" transform="translate(702.85,361.62)" d="M0,0L20,-10V10Z" style="opacity: 0.5; stroke-width: 0px; fill: rgb(255, 20, 147); fill-opacity: 1;"/><path class="point" transform="translate(376.5,315.6)" d="M0,0L20,-10V10Z" style="opacity: 0.5; stroke-width: 0px; fill: rgb(255, 20, 147); fill-opacity: 1;"/><path class="point" transform="translate(376.5,324.85)" d="M0,0L20,-10V10Z" style="opacity: 0.5; stroke-width: 0px; fill: rgb(255, 20, 147); fill-opacity: 1;"/><path class="point" transform="translate(376.5,343.94)" d="M0,0L20,-10V10Z" style="opacity: 0.5; stroke-width: 0px; fill: rgb(255, 20, 147); fill-opacity: 1;"/><path class="point" transform="translate(376.5,362.1)" d="M0,0L20,-10V10Z" style="opacity: 0.5; stroke-width: 0px; fill: rgb(255, 20, 147); fill-opacity: 1;"/><path class="point" transform="translate(82.79,315.57)" d="M0,0L20,-10V10Z" style="opacity: 0.5; stroke-width: 0px; fill: rgb(255, 20, 147); fill-opacity: 1;"/><path class="point" transform="translate(82.79,326.69)" d="M0,0L20,-10V10Z" style="opacity: 0.5; stroke-width: 0px; fill: rgb(255, 20, 147); fill-opacity: 1;"/><path class="point" transform="translate(82.79,362.36)" d="M0,0L20,-10V10Z" style="opacity: 0.5; stroke-width: 0px; fill: rgb(255, 20, 147); fill-opacity: 1;"/><path class="point" transform="translate(50.15,315.83)" d="M0,0L20,-10V10Z" style="opacity: 0.5; stroke-width: 0px; fill: rgb(255, 20, 147); fill-opacity: 1;"/><path class="point" transform="translate(50.15,326.68)" d="M0,0L20,-10V10Z" style="opacity: 0.5; stroke-width: 0px; fill: rgb(255, 20, 147); fill-opacity: 1;"/><path class="point" transform="translate(50.15,344.04)" d="M0,0L20,-10V10Z" style="opacity: 0.5; stroke-width: 0px; fill: rgb(255, 20, 147); fill-opacity: 1;"/><path class="point" transform="translate(50.15,362.4)" d="M0,0L20,-10V10Z" style="opacity: 0.5; stroke-width: 0px; fill: rgb(255, 20, 147); fill-opacity: 1;"/><path class="point" transform="translate(702.85,315.85)" d="M0,0L20,-10V10Z" style="opacity: 0.5; stroke-width: 0px; fill: rgb(255, 20, 147); fill-opacity: 1;"/><path class="point" transform="translate(82.79,344.09)" d="M0,0L20,-10V10Z" style="opacity: 0.5; stroke-width: 0px; fill: rgb(255, 20, 147); fill-opacity: 1;"/><path class="point" transform="translate(702.85,343.8)" d="M0,0L20,-10V10Z" style="opacity: 0.5; stroke-width: 0px; fill: rgb(255, 20, 147); fill-opacity: 1;"/><path class="point" transform="translate(82.79,315.63)" d="M0,0L20,-10V10Z" style="opacity: 0.5; stroke-width: 0px; fill: rgb(255, 20, 147); fill-opacity: 1;"/><path class="point" transform="translate(702.85,344.02)" d="M0,0L20,-10V10Z" style="opacity: 0.5; stroke-width: 0px; fill: rgb(255, 20, 147); fill-opacity: 1;"/><path class="point" transform="translate(50.15,326.63)" d="M0,0L20,-10V10Z" style="opacity: 0.5; stroke-width: 0px; fill: rgb(255, 20, 147); fill-opacity: 1;"/><path class="point" transform="translate(50.15,315.7)" d="M0,0L20,-10V10Z" style="opacity: 0.5; stroke-width: 0px; fill: rgb(255, 20, 147); fill-opacity: 1;"/><path class="point" transform="translate(82.79,362.39)" d="M0,0L20,-10V10Z" style="opacity: 0.5; stroke-width: 0px; fill: rgb(255, 20, 147); fill-opacity: 1;"/><path class="point" transform="translate(82.79,344.11)" d="M0,0L20,-10V10Z" style="opacity: 0.5; stroke-width: 0px; fill: rgb(255, 20, 147); fill-opacity: 1;"/><path class="point" transform="translate(82.79,326.59)" d="M0,0L20,-10V10Z" style="opacity: 0.5; stroke-width: 0px; fill: rgb(255, 20, 147); fill-opacity: 1;"/><path class="point" transform="translate(50.15,344.04)" d="M0,0L20,-10V10Z" style="opacity: 0.5; stroke-width: 0px; fill: rgb(255, 20, 147); fill-opacity: 1;"/><path class="point" transform="translate(376.5,361.58)" d="M0,0L20,-10V10Z" style="opacity: 0.5; stroke-width: 0px; fill: rgb(255, 20, 147); fill-opacity: 1;"/><path class="point" transform="translate(376.5,343.27)" d="M0,0L20,-10V10Z" style="opacity: 0.5; stroke-width: 0px; fill: rgb(255, 20, 147); fill-opacity: 1;"/><path class="point" transform="translate(376.5,325.58)" d="M0,0L20,-10V10Z" style="opacity: 0.5; stroke-width: 0px; fill: rgb(255, 20, 147); fill-opacity: 1;"/><path class="point" transform="translate(376.5,312.92)" d="M0,0L20,-10V10Z" style="opacity: 0.5; stroke-width: 0px; fill: rgb(255, 20, 147); fill-opacity: 1;"/><path class="point" transform="translate(702.85,361.07)" d="M0,0L20,-10V10Z" style="opacity: 0.5; stroke-width: 0px; fill: rgb(255, 20, 147); fill-opacity: 1;"/></g><g class="text"/></g><g class="trace scatter traceb3f4a0" style="stroke-miterlimit: 2; opacity: 1;"><g class="fills"/><g class="errorbars"/><g class="lines"/><g class="points"><path class="point" transform="translate(82.79,200.35)" d="M0,0L-20,-10V10Z" style="opacity: 0.5; stroke-width: 0px; fill: rgb(51, 0, 255); fill-opacity: 1;"/><path class="point" transform="translate(50.15,375.43)" d="M0,0L-20,-10V10Z" style="opacity: 0.5; stroke-width: 0px; fill: rgb(51, 0, 255); fill-opacity: 1;"/><path class="point" transform="translate(50.15,292.72)" d="M0,0L-20,-10V10Z" style="opacity: 0.5; stroke-width: 0px; fill: rgb(51, 0, 255); fill-opacity: 1;"/><path class="point" transform="translate(50.15,190.9)" d="M0,0L-20,-10V10Z" style="opacity: 0.5; stroke-width: 0px; fill: rgb(51, 0, 255); fill-opacity: 1;"/><path class="point" transform="translate(82.79,373.82)" d="M0,0L-20,-10V10Z" style="opacity: 0.5; stroke-width: 0px; fill: rgb(51, 0, 255); fill-opacity: 1;"/><path class="point" transform="translate(82.79,375.46)" d="M0,0L-20,-10V10Z" style="opacity: 0.5; stroke-width: 0px; fill: rgb(51, 0, 255); fill-opacity: 1;"/><path class="point" transform="translate(82.79,293.75)" d="M0,0L-20,-10V10Z" style="opacity: 0.5; stroke-width: 0px; fill: rgb(51, 0, 255); fill-opacity: 1;"/><path class="point" transform="translate(376.5,373.66)" d="M0,0L-20,-10V10Z" style="opacity: 0.5; stroke-width: 0px; fill: rgb(51, 0, 255); fill-opacity: 1;"/><path class="point" transform="translate(376.5,373.33)" d="M0,0L-20,-10V10Z" style="opacity: 0.5; stroke-width: 0px; fill: rgb(51, 0, 255); fill-opacity: 1;"/><path class="point" transform="translate(702.85,32.95)" d="M0,0L-20,-10V10Z" style="opacity: 0.5; stroke-width: 0px; fill: rgb(51, 0, 255); fill-opacity: 1;"/><path class="point" transform="translate(376.5,276.47)" d="M0,0L-20,-10V10Z" style="opacity: 0.5; stroke-width: 0px; fill: rgb(51, 0, 255); fill-opacity: 1;"/><path class="point" transform="translate(376.5,240.83)" d="M0,0L-20,-10V10Z" style="opacity: 0.5; stroke-width: 0px; fill: rgb(51, 0, 255); fill-opacity: 1;"/><path class="point" transform="translate(702.85,372.65)" d="M0,0L-20,-10V10Z" style="opacity: 0.5; stroke-width: 0px; fill: rgb(51, 0, 255); fill-opacity: 1;"/><path class="point" transform="translate(702.85,370.94)" d="M0,0L-20,-10V10Z" style="opacity: 0.5; stroke-width: 0px; fill: rgb(51, 0, 255); fill-opacity: 1;"/><path class="point" transform="translate(50.15,373.83)" d="M0,0L-20,-10V10Z" style="opacity: 0.5; stroke-width: 0px; fill: rgb(51, 0, 255); fill-opacity: 1;"/><path class="point" transform="translate(50.15,373.05)" d="M0,0L-20,-10V10Z" style="opacity: 0.5; stroke-width: 0px; fill: rgb(51, 0, 255); fill-opacity: 1;"/><path class="point" transform="translate(702.85,137.6)" d="M0,0L-20,-10V10Z" style="opacity: 0.5; stroke-width: 0px; fill: rgb(51, 0, 255); fill-opacity: 1;"/><path class="point" transform="translate(702.85,370.95)" d="M0,0L-20,-10V10Z" style="opacity: 0.5; stroke-width: 0px; fill: rgb(51, 0, 255); fill-opacity: 1;"/><path class="point" transform="translate(702.85,371.96)" d="M0,0L-20,-10V10Z" style="opacity: 0.5; stroke-width: 0px; fill: rgb(51, 0, 255); fill-opacity: 1;"/><path class="point" transform="translate(376.5,137.56)" d="M0,0L-20,-10V10Z" style="opacity: 0.5; stroke-width: 0px; fill: rgb(51, 0, 255); fill-opacity: 1;"/><path class="point" transform="translate(376.5,276.36)" d="M0,0L-20,-10V10Z" style="opacity: 0.5; stroke-width: 0px; fill: rgb(51, 0, 255); fill-opacity: 1;"/><path class="point" transform="translate(376.5,373.01)" d="M0,0L-20,-10V10Z" style="opacity: 0.5; stroke-width: 0px; fill: rgb(51, 0, 255); fill-opacity: 1;"/><path class="point" transform="translate(376.5,372.82)" d="M0,0L-20,-10V10Z" style="opacity: 0.5; stroke-width: 0px; fill: rgb(51, 0, 255); fill-opacity: 1;"/><path class="point" transform="translate(82.79,106.16)" d="M0,0L-20,-10V10Z" style="opacity: 0.5; stroke-width: 0px; fill: rgb(51, 0, 255); fill-opacity: 1;"/><path class="point" transform="translate(82.79,272.02)" d="M0,0L-20,-10V10Z" style="opacity: 0.5; stroke-width: 0px; fill: rgb(51, 0, 255); fill-opacity: 1;"/><path class="point" transform="translate(82.79,373.59)" d="M0,0L-20,-10V10Z" style="opacity: 0.5; stroke-width: 0px; fill: rgb(51, 0, 255); fill-opacity: 1;"/><path class="point" transform="translate(82.79,373.05)" d="M0,0L-20,-10V10Z" style="opacity: 0.5; stroke-width: 0px; fill: rgb(51, 0, 255); fill-opacity: 1;"/><path class="point" transform="translate(50.15,121.32)" d="M0,0L-20,-10V10Z" style="opacity: 0.5; stroke-width: 0px; fill: rgb(51, 0, 255); fill-opacity: 1;"/><path class="point" transform="translate(50.15,270.39)" d="M0,0L-20,-10V10Z" style="opacity: 0.5; stroke-width: 0px; fill: rgb(51, 0, 255); fill-opacity: 1;"/><path class="point" transform="translate(50.15,373.61)" d="M0,0L-20,-10V10Z" style="opacity: 0.5; stroke-width: 0px; fill: rgb(51, 0, 255); fill-opacity: 1;"/><path class="point" transform="translate(702.85,53.12)" d="M0,0L-20,-10V10Z" style="opacity: 0.5; stroke-width: 0px; fill: rgb(51, 0, 255); fill-opacity: 1;"/><path class="point" transform="translate(702.85,243.97)" d="M0,0L-20,-10V10Z" style="opacity: 0.5; stroke-width: 0px; fill: rgb(51, 0, 255); fill-opacity: 1;"/><path class="point" transform="translate(50.15,375.95)" d="M0,0L-20,-10V10Z" style="opacity: 0.5; stroke-width: 0px; fill: rgb(51, 0, 255); fill-opacity: 1;"/><path class="point" transform="translate(50.15,374.22)" d="M0,0L-20,-10V10Z" style="opacity: 0.5; stroke-width: 0px; fill: rgb(51, 0, 255); fill-opacity: 1;"/><path class="point" transform="translate(50.15,376.01)" d="M0,0L-20,-10V10Z" style="opacity: 0.5; stroke-width: 0px; fill: rgb(51, 0, 255); fill-opacity: 1;"/><path class="point" transform="translate(50.15,307.33)" d="M0,0L-20,-10V10Z" style="opacity: 0.5; stroke-width: 0px; fill: rgb(51, 0, 255); fill-opacity: 1;"/><path class="point" transform="translate(702.85,268.04)" d="M0,0L-20,-10V10Z" style="opacity: 0.5; stroke-width: 0px; fill: rgb(51, 0, 255); fill-opacity: 1;"/><path class="point" transform="translate(702.85,370.81)" d="M0,0L-20,-10V10Z" style="opacity: 0.5; stroke-width: 0px; fill: rgb(51, 0, 255); fill-opacity: 1;"/><path class="point" transform="translate(702.85,372.09)" d="M0,0L-20,-10V10Z" style="opacity: 0.5; stroke-width: 0px; fill: rgb(51, 0, 255); fill-opacity: 1;"/><path class="point" transform="translate(376.5,259.06)" d="M0,0L-20,-10V10Z" style="opacity: 0.5; stroke-width: 0px; fill: rgb(51, 0, 255); fill-opacity: 1;"/><path class="point" transform="translate(376.5,311.52)" d="M0,0L-20,-10V10Z" style="opacity: 0.5; stroke-width: 0px; fill: rgb(51, 0, 255); fill-opacity: 1;"/><path class="point" transform="translate(376.5,373.49)" d="M0,0L-20,-10V10Z" style="opacity: 0.5; stroke-width: 0px; fill: rgb(51, 0, 255); fill-opacity: 1;"/><path class="point" transform="translate(376.5,373.5)" d="M0,0L-20,-10V10Z" style="opacity: 0.5; stroke-width: 0px; fill: rgb(51, 0, 255); fill-opacity: 1;"/><path class="point" transform="translate(82.79,196.96)" d="M0,0L-20,-10V10Z" style="opacity: 0.5; stroke-width: 0px; fill: rgb(51, 0, 255); fill-opacity: 1;"/><path class="point" transform="translate(82.79,308.76)" d="M0,0L-20,-10V10Z" style="opacity: 0.5; stroke-width: 0px; fill: rgb(51, 0, 255); fill-opacity: 1;"/><path class="point" transform="translate(82.79,376.05)" d="M0,0L-20,-10V10Z" style="opacity: 0.5; stroke-width: 0px; fill: rgb(51, 0, 255); fill-opacity: 1;"/><path class="point" transform="translate(82.79,374.22)" d="M0,0L-20,-10V10Z" style="opacity: 0.5; stroke-width: 0px; fill: rgb(51, 0, 255); fill-opacity: 1;"/><path class="point" transform="translate(50.15,212.6)" d="M0,0L-20,-10V10Z" style="opacity: 0.5; stroke-width: 0px; fill: rgb(51, 0, 255); fill-opacity: 1;"/><path class="point" transform="translate(50.15,304.21)" d="M0,0L-20,-10V10Z" style="opacity: 0.5; stroke-width: 0px; fill: rgb(51, 0, 255); fill-opacity: 1;"/><path class="point" transform="translate(702.85,258.02)" d="M0,0L-20,-10V10Z" style="opacity: 0.5; stroke-width: 0px; fill: rgb(51, 0, 255); fill-opacity: 1;"/><path class="point" transform="translate(50.15,374.23)" d="M0,0L-20,-10V10Z" style="opacity: 0.5; stroke-width: 0px; fill: rgb(51, 0, 255); fill-opacity: 1;"/><path class="point" transform="translate(376.5,373.57)" d="M0,0L-20,-10V10Z" style="opacity: 0.5; stroke-width: 0px; fill: rgb(51, 0, 255); fill-opacity: 1;"/><path class="point" transform="translate(702.85,186.79)" d="M0,0L-20,-10V10Z" style="opacity: 0.5; stroke-width: 0px; fill: rgb(51, 0, 255); fill-opacity: 1;"/><path class="point" transform="translate(82.79,374.21)" d="M0,0L-20,-10V10Z" style="opacity: 0.5; stroke-width: 0px; fill: rgb(51, 0, 255); fill-opacity: 1;"/><path class="point" transform="translate(82.79,375.89)" d="M0,0L-20,-10V10Z" style="opacity: 0.5; stroke-width: 0px; fill: rgb(51, 0, 255); fill-opacity: 1;"/><path class="point" transform="translate(82.79,308.43)" d="M0,0L-20,-10V10Z" style="opacity: 0.5; stroke-width: 0px; fill: rgb(51, 0, 255); fill-opacity: 1;"/><path class="point" transform="translate(82.79,213.55)" d="M0,0L-20,-10V10Z" style="opacity: 0.5; stroke-width: 0px; fill: rgb(51, 0, 255); fill-opacity: 1;"/><path class="point" transform="translate(50.15,214.93)" d="M0,0L-20,-10V10Z" style="opacity: 0.5; stroke-width: 0px; fill: rgb(51, 0, 255); fill-opacity: 1;"/><path class="point" transform="translate(376.5,374.12)" d="M0,0L-20,-10V10Z" style="opacity: 0.5; stroke-width: 0px; fill: rgb(51, 0, 255); fill-opacity: 1;"/><path class="point" transform="translate(376.5,205.25)" d="M0,0L-20,-10V10Z" style="opacity: 0.5; stroke-width: 0px; fill: rgb(51, 0, 255); fill-opacity: 1;"/><path class="point" transform="translate(702.85,371.52)" d="M0,0L-20,-10V10Z" style="opacity: 0.5; stroke-width: 0px; fill: rgb(51, 0, 255); fill-opacity: 1;"/><path class="point" transform="translate(702.85,369.84)" d="M0,0L-20,-10V10Z" style="opacity: 0.5; stroke-width: 0px; fill: rgb(51, 0, 255); fill-opacity: 1;"/><path class="point" transform="translate(702.85,272.57)" d="M0,0L-20,-10V10Z" style="opacity: 0.5; stroke-width: 0px; fill: rgb(51, 0, 255); fill-opacity: 1;"/><path class="point" transform="translate(376.5,288.18)" d="M0,0L-20,-10V10Z" style="opacity: 0.5; stroke-width: 0px; fill: rgb(51, 0, 255); fill-opacity: 1;"/></g><g class="text"/></g><g class="trace scatter traceac7987" style="stroke-miterlimit: 2; opacity: 1;"><g class="fills"/><g class="errorbars"/><g class="lines"/><g class="points"><path class="point" transform="translate(82.79,370)" d="M10,10H-10V-10H10Z" style="opacity: 0.5; stroke-width: 0px; fill: rgb(44, 160, 44); fill-opacity: 1;"/><path class="point" transform="translate(50.15,373.22)" d="M10,10H-10V-10H10Z" style="opacity: 0.5; stroke-width: 0px; fill: rgb(44, 160, 44); fill-opacity: 1;"/><path class="point" transform="translate(50.15,370.03)" d="M10,10H-10V-10H10Z" style="opacity: 0.5; stroke-width: 0px; fill: rgb(44, 160, 44); fill-opacity: 1;"/><path class="point" transform="translate(50.15,304.05)" d="M10,10H-10V-10H10Z" style="opacity: 0.5; stroke-width: 0px; fill: rgb(44, 160, 44); fill-opacity: 1;"/><path class="point" transform="translate(50.15,203.75)" d="M10,10H-10V-10H10Z" style="opacity: 0.5; stroke-width: 0px; fill: rgb(44, 160, 44); fill-opacity: 1;"/><path class="point" transform="translate(82.79,373.22)" d="M10,10H-10V-10H10Z" style="opacity: 0.5; stroke-width: 0px; fill: rgb(44, 160, 44); fill-opacity: 1;"/><path class="point" transform="translate(82.79,203.25)" d="M10,10H-10V-10H10Z" style="opacity: 0.5; stroke-width: 0px; fill: rgb(44, 160, 44); fill-opacity: 1;"/><path class="point" transform="translate(82.79,305.17)" d="M10,10H-10V-10H10Z" style="opacity: 0.5; stroke-width: 0px; fill: rgb(44, 160, 44); fill-opacity: 1;"/><path class="point" transform="translate(376.5,372.89)" d="M10,10H-10V-10H10Z" style="opacity: 0.5; stroke-width: 0px; fill: rgb(44, 160, 44); fill-opacity: 1;"/><path class="point" transform="translate(376.5,368.76)" d="M10,10H-10V-10H10Z" style="opacity: 0.5; stroke-width: 0px; fill: rgb(44, 160, 44); fill-opacity: 1;"/><path class="point" transform="translate(376.5,307.96)" d="M10,10H-10V-10H10Z" style="opacity: 0.5; stroke-width: 0px; fill: rgb(44, 160, 44); fill-opacity: 1;"/><path class="point" transform="translate(702.85,249.09)" d="M10,10H-10V-10H10Z" style="opacity: 0.5; stroke-width: 0px; fill: rgb(44, 160, 44); fill-opacity: 1;"/><path class="point" transform="translate(702.85,372.11)" d="M10,10H-10V-10H10Z" style="opacity: 0.5; stroke-width: 0px; fill: rgb(44, 160, 44); fill-opacity: 1;"/><path class="point" transform="translate(376.5,235.81)" d="M10,10H-10V-10H10Z" style="opacity: 0.5; stroke-width: 0px; fill: rgb(44, 160, 44); fill-opacity: 1;"/><path class="point" transform="translate(376.5,364.99)" d="M10,10H-10V-10H10Z" style="opacity: 0.5; stroke-width: 0px; fill: rgb(44, 160, 44); fill-opacity: 1;"/><path class="point" transform="translate(702.85,296.63)" d="M10,10H-10V-10H10Z" style="opacity: 0.5; stroke-width: 0px; fill: rgb(44, 160, 44); fill-opacity: 1;"/><path class="point" transform="translate(702.85,363.73)" d="M10,10H-10V-10H10Z" style="opacity: 0.5; stroke-width: 0px; fill: rgb(44, 160, 44); fill-opacity: 1;"/><path class="point" transform="translate(702.85,370.7)" d="M10,10H-10V-10H10Z" style="opacity: 0.5; stroke-width: 0px; fill: rgb(44, 160, 44); fill-opacity: 1;"/><path class="point" transform="translate(376.5,119.12)" d="M10,10H-10V-10H10Z" style="opacity: 0.5; stroke-width: 0px; fill: rgb(44, 160, 44); fill-opacity: 1;"/><path class="point" transform="translate(376.5,299.34)" d="M10,10H-10V-10H10Z" style="opacity: 0.5; stroke-width: 0px; fill: rgb(44, 160, 44); fill-opacity: 1;"/><path class="point" transform="translate(376.5,371.53)" d="M10,10H-10V-10H10Z" style="opacity: 0.5; stroke-width: 0px; fill: rgb(44, 160, 44); fill-opacity: 1;"/><path class="point" transform="translate(82.79,189.32)" d="M10,10H-10V-10H10Z" style="opacity: 0.5; stroke-width: 0px; fill: rgb(44, 160, 44); fill-opacity: 1;"/><path class="point" transform="translate(82.79,297.57)" d="M10,10H-10V-10H10Z" style="opacity: 0.5; stroke-width: 0px; fill: rgb(44, 160, 44); fill-opacity: 1;"/><path class="point" transform="translate(82.79,365.11)" d="M10,10H-10V-10H10Z" style="opacity: 0.5; stroke-width: 0px; fill: rgb(44, 160, 44); fill-opacity: 1;"/><path class="point" transform="translate(82.79,371.47)" d="M10,10H-10V-10H10Z" style="opacity: 0.5; stroke-width: 0px; fill: rgb(44, 160, 44); fill-opacity: 1;"/><path class="point" transform="translate(50.15,195.94)" d="M10,10H-10V-10H10Z" style="opacity: 0.5; stroke-width: 0px; fill: rgb(44, 160, 44); fill-opacity: 1;"/><path class="point" transform="translate(50.15,295.41)" d="M10,10H-10V-10H10Z" style="opacity: 0.5; stroke-width: 0px; fill: rgb(44, 160, 44); fill-opacity: 1;"/><path class="point" transform="translate(50.15,365.13)" d="M10,10H-10V-10H10Z" style="opacity: 0.5; stroke-width: 0px; fill: rgb(44, 160, 44); fill-opacity: 1;"/><path class="point" transform="translate(702.85,287.68)" d="M10,10H-10V-10H10Z" style="opacity: 0.5; stroke-width: 0px; fill: rgb(44, 160, 44); fill-opacity: 1;"/><path class="point" transform="translate(702.85,367.47)" d="M10,10H-10V-10H10Z" style="opacity: 0.5; stroke-width: 0px; fill: rgb(44, 160, 44); fill-opacity: 1;"/><path class="point" transform="translate(50.15,374.14)" d="M10,10H-10V-10H10Z" style="opacity: 0.5; stroke-width: 0px; fill: rgb(44, 160, 44); fill-opacity: 1;"/><path class="point" transform="translate(702.85,183.33)" d="M10,10H-10V-10H10Z" style="opacity: 0.5; stroke-width: 0px; fill: rgb(44, 160, 44); fill-opacity: 1;"/><path class="point" transform="translate(50.15,373.91)" d="M10,10H-10V-10H10Z" style="opacity: 0.5; stroke-width: 0px; fill: rgb(44, 160, 44); fill-opacity: 1;"/><path class="point" transform="translate(702.85,222.11)" d="M10,10H-10V-10H10Z" style="opacity: 0.5; stroke-width: 0px; fill: rgb(44, 160, 44); fill-opacity: 1;"/><path class="point" transform="translate(702.85,319.16)" d="M10,10H-10V-10H10Z" style="opacity: 0.5; stroke-width: 0px; fill: rgb(44, 160, 44); fill-opacity: 1;"/><path class="point" transform="translate(702.85,370.68)" d="M10,10H-10V-10H10Z" style="opacity: 0.5; stroke-width: 0px; fill: rgb(44, 160, 44); fill-opacity: 1;"/><path class="point" transform="translate(702.85,371.88)" d="M10,10H-10V-10H10Z" style="opacity: 0.5; stroke-width: 0px; fill: rgb(44, 160, 44); fill-opacity: 1;"/><path class="point" transform="translate(376.5,219.59)" d="M10,10H-10V-10H10Z" style="opacity: 0.5; stroke-width: 0px; fill: rgb(44, 160, 44); fill-opacity: 1;"/><path class="point" transform="translate(376.5,304.4)" d="M10,10H-10V-10H10Z" style="opacity: 0.5; stroke-width: 0px; fill: rgb(44, 160, 44); fill-opacity: 1;"/><path class="point" transform="translate(376.5,373.05)" d="M10,10H-10V-10H10Z" style="opacity: 0.5; stroke-width: 0px; fill: rgb(44, 160, 44); fill-opacity: 1;"/><path class="point" transform="translate(376.5,373.46)" d="M10,10H-10V-10H10Z" style="opacity: 0.5; stroke-width: 0px; fill: rgb(44, 160, 44); fill-opacity: 1;"/><path class="point" transform="translate(82.79,219.35)" d="M10,10H-10V-10H10Z" style="opacity: 0.5; stroke-width: 0px; fill: rgb(44, 160, 44); fill-opacity: 1;"/><path class="point" transform="translate(82.79,304.88)" d="M10,10H-10V-10H10Z" style="opacity: 0.5; stroke-width: 0px; fill: rgb(44, 160, 44); fill-opacity: 1;"/><path class="point" transform="translate(82.79,374.38)" d="M10,10H-10V-10H10Z" style="opacity: 0.5; stroke-width: 0px; fill: rgb(44, 160, 44); fill-opacity: 1;"/><path class="point" transform="translate(82.79,374.14)" d="M10,10H-10V-10H10Z" style="opacity: 0.5; stroke-width: 0px; fill: rgb(44, 160, 44); fill-opacity: 1;"/><path class="point" transform="translate(50.15,222.77)" d="M10,10H-10V-10H10Z" style="opacity: 0.5; stroke-width: 0px; fill: rgb(44, 160, 44); fill-opacity: 1;"/><path class="point" transform="translate(50.15,307.11)" d="M10,10H-10V-10H10Z" style="opacity: 0.5; stroke-width: 0px; fill: rgb(44, 160, 44); fill-opacity: 1;"/><path class="point" transform="translate(50.15,374.43)" d="M10,10H-10V-10H10Z" style="opacity: 0.5; stroke-width: 0px; fill: rgb(44, 160, 44); fill-opacity: 1;"/><path class="point" transform="translate(702.85,169.87)" d="M10,10H-10V-10H10Z" style="opacity: 0.5; stroke-width: 0px; fill: rgb(44, 160, 44); fill-opacity: 1;"/><path class="point" transform="translate(702.85,293.4)" d="M10,10H-10V-10H10Z" style="opacity: 0.5; stroke-width: 0px; fill: rgb(44, 160, 44); fill-opacity: 1;"/><path class="point" transform="translate(702.85,369.25)" d="M10,10H-10V-10H10Z" style="opacity: 0.5; stroke-width: 0px; fill: rgb(44, 160, 44); fill-opacity: 1;"/><path class="point" transform="translate(702.85,371.9)" d="M10,10H-10V-10H10Z" style="opacity: 0.5; stroke-width: 0px; fill: rgb(44, 160, 44); fill-opacity: 1;"/><path class="point" transform="translate(376.5,315.07)" d="M10,10H-10V-10H10Z" style="opacity: 0.5; stroke-width: 0px; fill: rgb(44, 160, 44); fill-opacity: 1;"/><path class="point" transform="translate(376.5,372.13)" d="M10,10H-10V-10H10Z" style="opacity: 0.5; stroke-width: 0px; fill: rgb(44, 160, 44); fill-opacity: 1;"/><path class="point" transform="translate(376.5,373.57)" d="M10,10H-10V-10H10Z" style="opacity: 0.5; stroke-width: 0px; fill: rgb(44, 160, 44); fill-opacity: 1;"/><path class="point" transform="translate(82.79,224.39)" d="M10,10H-10V-10H10Z" style="opacity: 0.5; stroke-width: 0px; fill: rgb(44, 160, 44); fill-opacity: 1;"/><path class="point" transform="translate(82.79,373.11)" d="M10,10H-10V-10H10Z" style="opacity: 0.5; stroke-width: 0px; fill: rgb(44, 160, 44); fill-opacity: 1;"/><path class="point" transform="translate(82.79,373.9)" d="M10,10H-10V-10H10Z" style="opacity: 0.5; stroke-width: 0px; fill: rgb(44, 160, 44); fill-opacity: 1;"/><path class="point" transform="translate(50.15,223.82)" d="M10,10H-10V-10H10Z" style="opacity: 0.5; stroke-width: 0px; fill: rgb(44, 160, 44); fill-opacity: 1;"/><path class="point" transform="translate(50.15,373.24)" d="M10,10H-10V-10H10Z" style="opacity: 0.5; stroke-width: 0px; fill: rgb(44, 160, 44); fill-opacity: 1;"/><path class="point" transform="translate(50.15,371.47)" d="M10,10H-10V-10H10Z" style="opacity: 0.5; stroke-width: 0px; fill: rgb(44, 160, 44); fill-opacity: 1;"/></g><g class="text"/></g></g></g><g class="overplot"/><path class="xlines-above crisp" d="M0,0" style="fill: none;"/><path class="ylines-above crisp" d="M0,0" style="fill: none;"/><g class="overlines-above"/><g class="xaxislayer-above"><g class="xtick"><text text-anchor="middle" x="0" y="500" transform="translate(137.15,0)" style="font-family: CMU; font-size: 30px; fill: rgb(42, 63, 95); fill-opacity: 1; white-space: pre; opacity: 1;">0</text></g><g class="xtick"><text text-anchor="middle" x="0" y="500" style="font-family: CMU; font-size: 30px; fill: rgb(42, 63, 95); fill-opacity: 1; white-space: pre; opacity: 1;" transform="translate(300.33000000000004,0)">0.05</text></g><g class="xtick"><text text-anchor="middle" x="0" y="500" style="font-family: CMU; font-size: 30px; fill: rgb(42, 63, 95); fill-opacity: 1; white-space: pre; opacity: 1;" transform="translate(463.5,0)">0.1</text></g><g class="xtick"><text text-anchor="middle" x="0" y="500" style="font-family: CMU; font-size: 30px; fill: rgb(42, 63, 95); fill-opacity: 1; white-space: pre; opacity: 1;" transform="translate(626.67,0)">0.15</text></g><g class="xtick"><text text-anchor="middle" x="0" y="500" style="font-family: CMU; font-size: 30px; fill: rgb(42, 63, 95); fill-opacity: 1; white-space: pre; opacity: 1;" transform="translate(789.85,0)">0.2</text></g></g><g class="yaxislayer-above"><g class="ytick"><text text-anchor="end" x="86" y="10.5" transform="translate(0,439.91)" style="font-family: CMU; font-size: 30px; fill: rgb(42, 63, 95); fill-opacity: 1; white-space: pre; opacity: 1;">0</text></g><g class="ytick"><text text-anchor="end" x="86" y="10.5" style="font-family: CMU; font-size: 30px; fill: rgb(42, 63, 95); fill-opacity: 1; white-space: pre; opacity: 1;" transform="translate(0,388.47)">0.5</text></g><g class="ytick"><text text-anchor="end" x="86" y="10.5" style="font-family: CMU; font-size: 30px; fill: rgb(42, 63, 95); fill-opacity: 1; white-space: pre; opacity: 1;" transform="translate(0,337.04)">1</text></g><g class="ytick"><text text-anchor="end" x="86" y="10.5" style="font-family: CMU; font-size: 30px; fill: rgb(42, 63, 95); fill-opacity: 1; white-space: pre; opacity: 1;" transform="translate(0,285.61)">1.5</text></g><g class="ytick"><text text-anchor="end" x="86" y="10.5" style="font-family: CMU; font-size: 30px; fill: rgb(42, 63, 95); fill-opacity: 1; white-space: pre; opacity: 1;" transform="translate(0,234.18)">2</text></g><g class="ytick"><text text-anchor="end" x="86" y="10.5" style="font-family: CMU; font-size: 30px; fill: rgb(42, 63, 95); fill-opacity: 1; white-space: pre; opacity: 1;" transform="translate(0,182.74)">2.5</text></g><g class="ytick"><text text-anchor="end" x="86" y="10.5" style="font-family: CMU; font-size: 30px; fill: rgb(42, 63, 95); fill-opacity: 1; white-space: pre; opacity: 1;" transform="translate(0,131.31)">3</text></g><g class="ytick"><text text-anchor="end" x="86" y="10.5" style="font-family: CMU; font-size: 30px; fill: rgb(42, 63, 95); fill-opacity: 1; white-space: pre; opacity: 1;" transform="translate(0,79.88)">3.5</text></g></g><g class="overaxes-above"/></g></g><g class="polarlayer"/><g class="smithlayer"/><g class="ternarylayer"/><g class="geolayer"/><g class="funnelarealayer"/><g class="pielayer"/><g class="iciclelayer"/><g class="treemaplayer"/><g class="sunburstlayer"/><g class="glimages"/><defs id="topdefs-31e98f"><g class="clips"/><clipPath id="legend31e98f"><rect width="303" height="183" x="0" y="0"/></clipPath></defs><g class="layer-above"><g class="imagelayer"/><g class="shapelayer"/></g><g class="infolayer"><g class="legend" pointer-events="all" transform="translate(855.0600000000001,60)"><rect class="bg" shape-rendering="crispEdges" width="303" height="183" x="0" y="0" style="stroke: rgb(68, 68, 68); stroke-opacity: 1; fill: rgb(255, 255, 255); fill-opacity: 1; stroke-width: 0px;"/><g class="scrollbox" transform="" clip-path="url(#legend31e98f)"><text class="legendtitletext" text-anchor="start" x="2" y="46.800000000000004" style="font-family: CMU; font-size: 36px; fill: rgb(42, 63, 95); fill-opacity: 1; white-space: pre;">Estimator, Estimator</text><g class="groups" transform=""><g class="traces" transform="translate(0,72.80000000000001)" style="opacity: 1;"><text class="legendtext" text-anchor="start" x="40" y="11.7" style="font-family: CMU; font-size: 30px; fill: rgb(42, 63, 95); fill-opacity: 1; white-space: pre;">Lin2015, Lin2015</text><g class="layers" style="opacity: 1;"><g class="legendfill"/><g class="legendlines"/><g class="legendsymbols"><g class="legendpoints"><path class="scatterpts" transform="translate(20,0)" d="M0,0L16,-8V8Z" style="opacity: 0.5; stroke-width: 0px; fill: rgb(255, 20, 147); fill-opacity: 1;"/></g></g></g><rect class="legendtoggle" x="0" y="-21" width="258.328125" height="42" style="fill: rgb(0, 0, 0); fill-opacity: 0;"/></g></g><g class="groups" transform=""><g class="traces" transform="translate(0,114.80000000000001)" style="opacity: 1;"><text class="legendtext" text-anchor="start" x="40" y="11.7" style="font-family: CMU; font-size: 30px; fill: rgb(42, 63, 95); fill-opacity: 1; white-space: pre;">LLS, LLS</text><g class="layers" style="opacity: 1;"><g class="legendfill"/><g class="legendlines"/><g class="legendsymbols"><g class="legendpoints"><path class="scatterpts" transform="translate(20,0)" d="M0,0L-16,-8V8Z" style="opacity: 0.5; stroke-width: 0px; fill: rgb(51, 0, 255); fill-opacity: 1;"/></g></g></g><rect class="legendtoggle" x="0" y="-21" width="258.328125" height="42" style="fill: rgb(0, 0, 0); fill-opacity: 0;"/></g></g><g class="groups" transform=""><g class="traces" transform="translate(0,156.8)" style="opacity: 1;"><text class="legendtext" text-anchor="start" x="40" y="11.7" style="font-family: CMU; font-size: 30px; fill: rgb(42, 63, 95); fill-opacity: 1; white-space: pre;">GLS, GLS</text><g class="layers" style="opacity: 1;"><g class="legendfill"/><g class="legendlines"/><g class="legendsymbols"><g class="legendpoints"><path class="scatterpts" transform="translate(20,0)" d="M8,8H-8V-8H8Z" style="opacity: 0.5; stroke-width: 0px; fill: rgb(44, 160, 44); fill-opacity: 1;"/></g></g></g><rect class="legendtoggle" x="0" y="-21" width="258.328125" height="42" style="fill: rgb(0, 0, 0); fill-opacity: 0;"/></g></g></g><rect class="scrollbar" rx="20" ry="3" width="0" height="0" x="0" y="0" style="fill: rgb(128, 139, 164); fill-opacity: 1;"/></g><g class="g-gtitle"><text class="gtitle" x="58.5" y="30" text-anchor="start" dy="0em" style="font-family: CMU; font-size: 30px; fill: rgb(42, 63, 95); opacity: 1; font-weight: normal; white-space: pre;">model_1 rmsd_geodesic hyperboloid</text></g><g class="g-xtitle"><text class="xtitle" x="463.5" y="542" text-anchor="middle" style="font-family: CMU; font-size: 30px; fill: rgb(42, 63, 95); opacity: 1; font-weight: normal; white-space: pre;">Noise Factor</text></g><g class="g-ytitle" transform="translate(13.5,0)"><text class="ytitle" transform="rotate(-90,13,264.5)" x="13" y="264.5" text-anchor="middle" style="font-family: CMU; font-size: 30px; fill: rgb(42, 63, 95); opacity: 1; font-weight: normal; white-space: pre;">RMSD, geod dist</text></g></g></svg>