<svg class="main-svg" xmlns="http://www.w3.org/2000/svg" xmlns:xlink="http://www.w3.org/1999/xlink" width="1170" height="555" style="" viewBox="0 0 1170 555"><rect x="0" y="0" width="1170" height="555" style="fill: rgb(255, 255, 255); fill-opacity: 1;"/><defs id="defs-e03403"><g class="clips"><clipPath id="clipe03403xyplot" class="plotclip"><rect width="738" height="409"/></clipPath><clipPath class="axesclip" id="clipe03403x"><rect x="102" y="0" width="738" height="555"/></clipPath><clipPath class="axesclip" id="clipe03403y"><rect x="0" y="60" width="1170" height="409"/></clipPath><clipPath class="axesclip" id="clipe03403xy"><rect x="102" y="60" width="738" height="409"/></clipPath></g><g class="gradients"/><g class="patterns"/></defs><g class="bglayer"><rect class="bg" x="102" y="60" width="738" height="409" style="fill: rgb(229, 236, 246); fill-opacity: 1; stroke-width: 0;"/></g><g class="layer-below"><g class="imagelayer"/><g class="shapelayer"/></g><g class="cartesianlayer"><g class="subplot xy"><g class="layer-subplot"><g class="shapelayer"/><g class="imagelayer"/></g><g class="minor-gridlayer"><g class="x"/><g class="y"/></g><g class="gridlayer"><g class="x"><path class="xgrid crisp" transform="translate(311.2,0)" d="M0,60v409" style="stroke: rgb(255, 255, 255); stroke-opacity: 1; stroke-width: 1px;"/><path class="xgrid crisp" transform="translate(471,0)" d="M0,60v409" style="stroke: rgb(255, 255, 255); stroke-opacity: 1; stroke-width: 1px;"/><path class="xgrid crisp" transform="translate(630.8,0)" d="M0,60v409" style="stroke: rgb(255, 255, 255); stroke-opacity: 1; stroke-width: 1px;"/><path class="xgrid crisp" transform="translate(790.6,0)" d="M0,60v409" style="stroke: rgb(255, 255, 255); stroke-opacity: 1; stroke-width: 1px;"/></g><g class="y"><path class="ygrid crisp" transform="translate(0,377.52)" d="M102,0h738" style="stroke: rgb(255, 255, 255); stroke-opacity: 1; stroke-width: 1px;"/><path class="ygrid crisp" transform="translate(0,318.65)" d="M102,0h738" style="stroke: rgb(255, 255, 255); stroke-opacity: 1; stroke-width: 1px;"/><path class="ygrid crisp" transform="translate(0,259.78)" d="M102,0h738" style="stroke: rgb(255, 255, 255); stroke-opacity: 1; stroke-width: 1px;"/><path class="ygrid crisp" transform="translate(0,200.9)" d="M102,0h738" style="stroke: rgb(255, 255, 255); stroke-opacity: 1; stroke-width: 1px;"/><path class="ygrid crisp" transform="translate(0,142.03)" d="M102,0h738" style="stroke: rgb(255, 255, 255); stroke-opacity: 1; stroke-width: 1px;"/><path class="ygrid crisp" transform="translate(0,83.15)" d="M102,0h738" style="stroke: rgb(255, 255, 255); stroke-opacity: 1; stroke-width: 1px;"/></g></g><g class="zerolinelayer"><path class="xzl zl crisp" transform="translate(151.4,0)" d="M0,60v409" style="stroke: rgb(255, 255, 255); stroke-opacity: 1; stroke-width: 2px;"/><path class="yzl zl crisp" transform="translate(0,436.4)" d="M102,0h738" style="stroke: rgb(255, 255, 255); stroke-opacity: 1; stroke-width: 2px;"/></g><path class="xlines-below"/><path class="ylines-below"/><g class="overlines-below"/><g class="xaxislayer-below"/><g class="yaxislayer-below"/><g class="overaxes-below"/><g class="plot" transform="translate(102,60)" clip-path="url(#clipe03403xyplot)"><g class="scatterlayer mlayer"><g class="trace scatter tracedb20bf" style="stroke-miterlimit: 2; opacity: 1;"><g class="fills"/><g class="errorbars"/><g class="lines"/><g class="points"><path class="point" transform="translate(688.6,62.21)" d="M0,0L20,-10V10Z" style="opacity: 0.5; stroke-width: 0px; fill: rgb(255, 20, 147); fill-opacity: 1;"/><path class="point" transform="translate(688.6,32.95)" d="M0,0L20,-10V10Z" style="opacity: 0.5; stroke-width: 0px; fill: rgb(255, 20, 147); fill-opacity: 1;"/><path class="point" transform="translate(688.6,309.75)" d="M0,0L20,-10V10Z" style="opacity: 0.5; stroke-width: 0px; fill: rgb(255, 20, 147); fill-opacity: 1;"/><path class="point" transform="translate(369,218.75)" d="M0,0L20,-10V10Z" style="opacity: 0.5; stroke-width: 0px; fill: rgb(255, 20, 147); fill-opacity: 1;"/><path class="point" transform="translate(369,244.21)" d="M0,0L20,-10V10Z" style="opacity: 0.5; stroke-width: 0px; fill: rgb(255, 20, 147); fill-opacity: 1;"/><path class="point" transform="translate(369,298.84)" d="M0,0L20,-10V10Z" style="opacity: 0.5; stroke-width: 0px; fill: rgb(255, 20, 147); fill-opacity: 1;"/><path class="point" transform="translate(369,314.7)" d="M0,0L20,-10V10Z" style="opacity: 0.5; stroke-width: 0px; fill: rgb(255, 20, 147); fill-opacity: 1;"/><path class="point" transform="translate(81.36,360.13)" d="M0,0L20,-10V10Z" style="opacity: 0.5; stroke-width: 0px; fill: rgb(255, 20, 147); fill-opacity: 1;"/><path class="point" transform="translate(81.36,361.9)" d="M0,0L20,-10V10Z" style="opacity: 0.5; stroke-width: 0px; fill: rgb(255, 20, 147); fill-opacity: 1;"/><path class="point" transform="translate(81.36,366.68)" d="M0,0L20,-10V10Z" style="opacity: 0.5; stroke-width: 0px; fill: rgb(255, 20, 147); fill-opacity: 1;"/><path class="point" transform="translate(81.36,371.5)" d="M0,0L20,-10V10Z" style="opacity: 0.5; stroke-width: 0px; fill: rgb(255, 20, 147); fill-opacity: 1;"/><path class="point" transform="translate(49.4,371.45)" d="M0,0L20,-10V10Z" style="opacity: 0.5; stroke-width: 0px; fill: rgb(255, 20, 147); fill-opacity: 1;"/><path class="point" transform="translate(49.4,370.99)" d="M0,0L20,-10V10Z" style="opacity: 0.5; stroke-width: 0px; fill: rgb(255, 20, 147); fill-opacity: 1;"/><path class="point" transform="translate(49.4,374.68)" d="M0,0L20,-10V10Z" style="opacity: 0.5; stroke-width: 0px; fill: rgb(255, 20, 147); fill-opacity: 1;"/><path class="point" transform="translate(688.6,80.07)" d="M0,0L20,-10V10Z" style="opacity: 0.5; stroke-width: 0px; fill: rgb(255, 20, 147); fill-opacity: 1;"/><path class="point" transform="translate(688.6,118.94)" d="M0,0L20,-10V10Z" style="opacity: 0.5; stroke-width: 0px; fill: rgb(255, 20, 147); fill-opacity: 1;"/><path class="point" transform="translate(688.6,68.79)" d="M0,0L20,-10V10Z" style="opacity: 0.5; stroke-width: 0px; fill: rgb(255, 20, 147); fill-opacity: 1;"/><path class="point" transform="translate(688.6,220.05)" d="M0,0L20,-10V10Z" style="opacity: 0.5; stroke-width: 0px; fill: rgb(255, 20, 147); fill-opacity: 1;"/><path class="point" transform="translate(688.6,301.96)" d="M0,0L20,-10V10Z" style="opacity: 0.5; stroke-width: 0px; fill: rgb(255, 20, 147); fill-opacity: 1;"/><path class="point" transform="translate(369,264.66)" d="M0,0L20,-10V10Z" style="opacity: 0.5; stroke-width: 0px; fill: rgb(255, 20, 147); fill-opacity: 1;"/><path class="point" transform="translate(369,234.01)" d="M0,0L20,-10V10Z" style="opacity: 0.5; stroke-width: 0px; fill: rgb(255, 20, 147); fill-opacity: 1;"/><path class="point" transform="translate(369,310.56)" d="M0,0L20,-10V10Z" style="opacity: 0.5; stroke-width: 0px; fill: rgb(255, 20, 147); fill-opacity: 1;"/><path class="point" transform="translate(369,339.52)" d="M0,0L20,-10V10Z" style="opacity: 0.5; stroke-width: 0px; fill: rgb(255, 20, 147); fill-opacity: 1;"/><path class="point" transform="translate(81.36,361.18)" d="M0,0L20,-10V10Z" style="opacity: 0.5; stroke-width: 0px; fill: rgb(255, 20, 147); fill-opacity: 1;"/><path class="point" transform="translate(81.36,359.03)" d="M0,0L20,-10V10Z" style="opacity: 0.5; stroke-width: 0px; fill: rgb(255, 20, 147); fill-opacity: 1;"/><path class="point" transform="translate(81.36,370.56)" d="M0,0L20,-10V10Z" style="opacity: 0.5; stroke-width: 0px; fill: rgb(255, 20, 147); fill-opacity: 1;"/><path class="point" transform="translate(81.36,374.94)" d="M0,0L20,-10V10Z" style="opacity: 0.5; stroke-width: 0px; fill: rgb(255, 20, 147); fill-opacity: 1;"/><path class="point" transform="translate(49.4,369.96)" d="M0,0L20,-10V10Z" style="opacity: 0.5; stroke-width: 0px; fill: rgb(255, 20, 147); fill-opacity: 1;"/><path class="point" transform="translate(49.4,369.36)" d="M0,0L20,-10V10Z" style="opacity: 0.5; stroke-width: 0px; fill: rgb(255, 20, 147); fill-opacity: 1;"/><path class="point" transform="translate(49.4,374.16)" d="M0,0L20,-10V10Z" style="opacity: 0.5; stroke-width: 0px; fill: rgb(255, 20, 147); fill-opacity: 1;"/><path class="point" transform="translate(49.4,375.85)" d="M0,0L20,-10V10Z" style="opacity: 0.5; stroke-width: 0px; fill: rgb(255, 20, 147); fill-opacity: 1;"/><path class="point" transform="translate(688.6,194.66)" d="M0,0L20,-10V10Z" style="opacity: 0.5; stroke-width: 0px; fill: rgb(255, 20, 147); fill-opacity: 1;"/><path class="point" transform="translate(49.4,375.98)" d="M0,0L20,-10V10Z" style="opacity: 0.5; stroke-width: 0px; fill: rgb(255, 20, 147); fill-opacity: 1;"/><path class="point" transform="translate(688.6,106.97)" d="M0,0L20,-10V10Z" style="opacity: 0.5; stroke-width: 0px; fill: rgb(255, 20, 147); fill-opacity: 1;"/><path class="point" transform="translate(688.6,115.25)" d="M0,0L20,-10V10Z" style="opacity: 0.5; stroke-width: 0px; fill: rgb(255, 20, 147); fill-opacity: 1;"/><path class="point" transform="translate(49.4,376.03)" d="M0,0L20,-10V10Z" style="opacity: 0.5; stroke-width: 0px; fill: rgb(255, 20, 147); fill-opacity: 1;"/><path class="point" transform="translate(688.6,173.65)" d="M0,0L20,-10V10Z" style="opacity: 0.5; stroke-width: 0px; fill: rgb(255, 20, 147); fill-opacity: 1;"/><path class="point" transform="translate(688.6,239.64)" d="M0,0L20,-10V10Z" style="opacity: 0.5; stroke-width: 0px; fill: rgb(255, 20, 147); fill-opacity: 1;"/><path class="point" transform="translate(369,243.76)" d="M0,0L20,-10V10Z" style="opacity: 0.5; stroke-width: 0px; fill: rgb(255, 20, 147); fill-opacity: 1;"/><path class="point" transform="translate(369,211.53)" d="M0,0L20,-10V10Z" style="opacity: 0.5; stroke-width: 0px; fill: rgb(255, 20, 147); fill-opacity: 1;"/><path class="point" transform="translate(369,242.6)" d="M0,0L20,-10V10Z" style="opacity: 0.5; stroke-width: 0px; fill: rgb(255, 20, 147); fill-opacity: 1;"/><path class="point" transform="translate(369,320.12)" d="M0,0L20,-10V10Z" style="opacity: 0.5; stroke-width: 0px; fill: rgb(255, 20, 147); fill-opacity: 1;"/><path class="point" transform="translate(81.36,362.7)" d="M0,0L20,-10V10Z" style="opacity: 0.5; stroke-width: 0px; fill: rgb(255, 20, 147); fill-opacity: 1;"/><path class="point" transform="translate(81.36,367.06)" d="M0,0L20,-10V10Z" style="opacity: 0.5; stroke-width: 0px; fill: rgb(255, 20, 147); fill-opacity: 1;"/><path class="point" transform="translate(81.36,370.84)" d="M0,0L20,-10V10Z" style="opacity: 0.5; stroke-width: 0px; fill: rgb(255, 20, 147); fill-opacity: 1;"/><path class="point" transform="translate(49.4,372.3)" d="M0,0L20,-10V10Z" style="opacity: 0.5; stroke-width: 0px; fill: rgb(255, 20, 147); fill-opacity: 1;"/><path class="point" transform="translate(49.4,371.92)" d="M0,0L20,-10V10Z" style="opacity: 0.5; stroke-width: 0px; fill: rgb(255, 20, 147); fill-opacity: 1;"/><path class="point" transform="translate(49.4,374.98)" d="M0,0L20,-10V10Z" style="opacity: 0.5; stroke-width: 0px; fill: rgb(255, 20, 147); fill-opacity: 1;"/><path class="point" transform="translate(49.4,376.05)" d="M0,0L20,-10V10Z" style="opacity: 0.5; stroke-width: 0px; fill: rgb(255, 20, 147); fill-opacity: 1;"/><path class="point" transform="translate(81.36,359.25)" d="M0,0L20,-10V10Z" style="opacity: 0.5; stroke-width: 0px; fill: rgb(255, 20, 147); fill-opacity: 1;"/><path class="point" transform="translate(688.6,104.37)" d="M0,0L20,-10V10Z" style="opacity: 0.5; stroke-width: 0px; fill: rgb(255, 20, 147); fill-opacity: 1;"/><path class="point" transform="translate(81.36,362.25)" d="M0,0L20,-10V10Z" style="opacity: 0.5; stroke-width: 0px; fill: rgb(255, 20, 147); fill-opacity: 1;"/><path class="point" transform="translate(688.6,193.5)" d="M0,0L20,-10V10Z" style="opacity: 0.5; stroke-width: 0px; fill: rgb(255, 20, 147); fill-opacity: 1;"/><path class="point" transform="translate(49.4,371.7)" d="M0,0L20,-10V10Z" style="opacity: 0.5; stroke-width: 0px; fill: rgb(255, 20, 147); fill-opacity: 1;"/><path class="point" transform="translate(49.4,372.1)" d="M0,0L20,-10V10Z" style="opacity: 0.5; stroke-width: 0px; fill: rgb(255, 20, 147); fill-opacity: 1;"/><path class="point" transform="translate(81.36,370.09)" d="M0,0L20,-10V10Z" style="opacity: 0.5; stroke-width: 0px; fill: rgb(255, 20, 147); fill-opacity: 1;"/><path class="point" transform="translate(81.36,366.58)" d="M0,0L20,-10V10Z" style="opacity: 0.5; stroke-width: 0px; fill: rgb(255, 20, 147); fill-opacity: 1;"/><path class="point" transform="translate(81.36,360.74)" d="M0,0L20,-10V10Z" style="opacity: 0.5; stroke-width: 0px; fill: rgb(255, 20, 147); fill-opacity: 1;"/><path class="point" transform="translate(49.4,374.91)" d="M0,0L20,-10V10Z" style="opacity: 0.5; stroke-width: 0px; fill: rgb(255, 20, 147); fill-opacity: 1;"/><path class="point" transform="translate(369,308.5)" d="M0,0L20,-10V10Z" style="opacity: 0.5; stroke-width: 0px; fill: rgb(255, 20, 147); fill-opacity: 1;"/><path class="point" transform="translate(369,288.06)" d="M0,0L20,-10V10Z" style="opacity: 0.5; stroke-width: 0px; fill: rgb(255, 20, 147); fill-opacity: 1;"/><path class="point" transform="translate(369,231.53)" d="M0,0L20,-10V10Z" style="opacity: 0.5; stroke-width: 0px; fill: rgb(255, 20, 147); fill-opacity: 1;"/><path class="point" transform="translate(369,240.63)" d="M0,0L20,-10V10Z" style="opacity: 0.5; stroke-width: 0px; fill: rgb(255, 20, 147); fill-opacity: 1;"/><path class="point" transform="translate(688.6,269.46)" d="M0,0L20,-10V10Z" style="opacity: 0.5; stroke-width: 0px; fill: rgb(255, 20, 147); fill-opacity: 1;"/></g><g class="text"/></g><g class="trace scatter trace511828" style="stroke-miterlimit: 2; opacity: 1;"><g class="fills"/><g class="errorbars"/><g class="lines"/><g class="points"><path class="point" transform="translate(81.36,359.53)" d="M0,0L-20,-10V10Z" style="opacity: 0.5; stroke-width: 0px; fill: rgb(51, 0, 255); fill-opacity: 1;"/><path class="point" transform="translate(49.4,374.68)" d="M0,0L-20,-10V10Z" style="opacity: 0.5; stroke-width: 0px; fill: rgb(51, 0, 255); fill-opacity: 1;"/><path class="point" transform="translate(49.4,370.99)" d="M0,0L-20,-10V10Z" style="opacity: 0.5; stroke-width: 0px; fill: rgb(51, 0, 255); fill-opacity: 1;"/><path class="point" transform="translate(49.4,371.45)" d="M0,0L-20,-10V10Z" style="opacity: 0.5; stroke-width: 0px; fill: rgb(51, 0, 255); fill-opacity: 1;"/><path class="point" transform="translate(81.36,369.37)" d="M0,0L-20,-10V10Z" style="opacity: 0.5; stroke-width: 0px; fill: rgb(51, 0, 255); fill-opacity: 1;"/><path class="point" transform="translate(81.36,368.79)" d="M0,0L-20,-10V10Z" style="opacity: 0.5; stroke-width: 0px; fill: rgb(51, 0, 255); fill-opacity: 1;"/><path class="point" transform="translate(81.36,364.05)" d="M0,0L-20,-10V10Z" style="opacity: 0.5; stroke-width: 0px; fill: rgb(51, 0, 255); fill-opacity: 1;"/><path class="point" transform="translate(369,296.35)" d="M0,0L-20,-10V10Z" style="opacity: 0.5; stroke-width: 0px; fill: rgb(51, 0, 255); fill-opacity: 1;"/><path class="point" transform="translate(369,345.7)" d="M0,0L-20,-10V10Z" style="opacity: 0.5; stroke-width: 0px; fill: rgb(51, 0, 255); fill-opacity: 1;"/><path class="point" transform="translate(688.6,119.7)" d="M0,0L-20,-10V10Z" style="opacity: 0.5; stroke-width: 0px; fill: rgb(51, 0, 255); fill-opacity: 1;"/><path class="point" transform="translate(369,248.4)" d="M0,0L-20,-10V10Z" style="opacity: 0.5; stroke-width: 0px; fill: rgb(51, 0, 255); fill-opacity: 1;"/><path class="point" transform="translate(369,242.57)" d="M0,0L-20,-10V10Z" style="opacity: 0.5; stroke-width: 0px; fill: rgb(51, 0, 255); fill-opacity: 1;"/><path class="point" transform="translate(688.6,242.26)" d="M0,0L-20,-10V10Z" style="opacity: 0.5; stroke-width: 0px; fill: rgb(51, 0, 255); fill-opacity: 1;"/><path class="point" transform="translate(688.6,211.62)" d="M0,0L-20,-10V10Z" style="opacity: 0.5; stroke-width: 0px; fill: rgb(51, 0, 255); fill-opacity: 1;"/><path class="point" transform="translate(49.4,375.98)" d="M0,0L-20,-10V10Z" style="opacity: 0.5; stroke-width: 0px; fill: rgb(51, 0, 255); fill-opacity: 1;"/><path class="point" transform="translate(49.4,375.85)" d="M0,0L-20,-10V10Z" style="opacity: 0.5; stroke-width: 0px; fill: rgb(51, 0, 255); fill-opacity: 1;"/><path class="point" transform="translate(688.6,120.7)" d="M0,0L-20,-10V10Z" style="opacity: 0.5; stroke-width: 0px; fill: rgb(51, 0, 255); fill-opacity: 1;"/><path class="point" transform="translate(688.6,270.49)" d="M0,0L-20,-10V10Z" style="opacity: 0.5; stroke-width: 0px; fill: rgb(51, 0, 255); fill-opacity: 1;"/><path class="point" transform="translate(688.6,293.26)" d="M0,0L-20,-10V10Z" style="opacity: 0.5; stroke-width: 0px; fill: rgb(51, 0, 255); fill-opacity: 1;"/><path class="point" transform="translate(369,278.69)" d="M0,0L-20,-10V10Z" style="opacity: 0.5; stroke-width: 0px; fill: rgb(51, 0, 255); fill-opacity: 1;"/><path class="point" transform="translate(369,266.37)" d="M0,0L-20,-10V10Z" style="opacity: 0.5; stroke-width: 0px; fill: rgb(51, 0, 255); fill-opacity: 1;"/><path class="point" transform="translate(369,302.24)" d="M0,0L-20,-10V10Z" style="opacity: 0.5; stroke-width: 0px; fill: rgb(51, 0, 255); fill-opacity: 1;"/><path class="point" transform="translate(369,242.77)" d="M0,0L-20,-10V10Z" style="opacity: 0.5; stroke-width: 0px; fill: rgb(51, 0, 255); fill-opacity: 1;"/><path class="point" transform="translate(81.36,365.58)" d="M0,0L-20,-10V10Z" style="opacity: 0.5; stroke-width: 0px; fill: rgb(51, 0, 255); fill-opacity: 1;"/><path class="point" transform="translate(81.36,357.79)" d="M0,0L-20,-10V10Z" style="opacity: 0.5; stroke-width: 0px; fill: rgb(51, 0, 255); fill-opacity: 1;"/><path class="point" transform="translate(81.36,369.67)" d="M0,0L-20,-10V10Z" style="opacity: 0.5; stroke-width: 0px; fill: rgb(51, 0, 255); fill-opacity: 1;"/><path class="point" transform="translate(81.36,371.46)" d="M0,0L-20,-10V10Z" style="opacity: 0.5; stroke-width: 0px; fill: rgb(51, 0, 255); fill-opacity: 1;"/><path class="point" transform="translate(49.4,369.96)" d="M0,0L-20,-10V10Z" style="opacity: 0.5; stroke-width: 0px; fill: rgb(51, 0, 255); fill-opacity: 1;"/><path class="point" transform="translate(49.4,369.36)" d="M0,0L-20,-10V10Z" style="opacity: 0.5; stroke-width: 0px; fill: rgb(51, 0, 255); fill-opacity: 1;"/><path class="point" transform="translate(49.4,374.16)" d="M0,0L-20,-10V10Z" style="opacity: 0.5; stroke-width: 0px; fill: rgb(51, 0, 255); fill-opacity: 1;"/><path class="point" transform="translate(688.6,105.49)" d="M0,0L-20,-10V10Z" style="opacity: 0.5; stroke-width: 0px; fill: rgb(51, 0, 255); fill-opacity: 1;"/><path class="point" transform="translate(688.6,95.56)" d="M0,0L-20,-10V10Z" style="opacity: 0.5; stroke-width: 0px; fill: rgb(51, 0, 255); fill-opacity: 1;"/><path class="point" transform="translate(49.4,376.03)" d="M0,0L-20,-10V10Z" style="opacity: 0.5; stroke-width: 0px; fill: rgb(51, 0, 255); fill-opacity: 1;"/><path class="point" transform="translate(49.4,374.98)" d="M0,0L-20,-10V10Z" style="opacity: 0.5; stroke-width: 0px; fill: rgb(51, 0, 255); fill-opacity: 1;"/><path class="point" transform="translate(49.4,374.91)" d="M0,0L-20,-10V10Z" style="opacity: 0.5; stroke-width: 0px; fill: rgb(51, 0, 255); fill-opacity: 1;"/><path class="point" transform="translate(688.6,64.63)" d="M0,0L-20,-10V10Z" style="opacity: 0.5; stroke-width: 0px; fill: rgb(51, 0, 255); fill-opacity: 1;"/><path class="point" transform="translate(688.6,170.66)" d="M0,0L-20,-10V10Z" style="opacity: 0.5; stroke-width: 0px; fill: rgb(51, 0, 255); fill-opacity: 1;"/><path class="point" transform="translate(688.6,248.38)" d="M0,0L-20,-10V10Z" style="opacity: 0.5; stroke-width: 0px; fill: rgb(51, 0, 255); fill-opacity: 1;"/><path class="point" transform="translate(369,227.81)" d="M0,0L-20,-10V10Z" style="opacity: 0.5; stroke-width: 0px; fill: rgb(51, 0, 255); fill-opacity: 1;"/><path class="point" transform="translate(369,235.61)" d="M0,0L-20,-10V10Z" style="opacity: 0.5; stroke-width: 0px; fill: rgb(51, 0, 255); fill-opacity: 1;"/><path class="point" transform="translate(369,290.88)" d="M0,0L-20,-10V10Z" style="opacity: 0.5; stroke-width: 0px; fill: rgb(51, 0, 255); fill-opacity: 1;"/><path class="point" transform="translate(369,326.24)" d="M0,0L-20,-10V10Z" style="opacity: 0.5; stroke-width: 0px; fill: rgb(51, 0, 255); fill-opacity: 1;"/><path class="point" transform="translate(81.36,360.31)" d="M0,0L-20,-10V10Z" style="opacity: 0.5; stroke-width: 0px; fill: rgb(51, 0, 255); fill-opacity: 1;"/><path class="point" transform="translate(81.36,360.06)" d="M0,0L-20,-10V10Z" style="opacity: 0.5; stroke-width: 0px; fill: rgb(51, 0, 255); fill-opacity: 1;"/><path class="point" transform="translate(81.36,367.8)" d="M0,0L-20,-10V10Z" style="opacity: 0.5; stroke-width: 0px; fill: rgb(51, 0, 255); fill-opacity: 1;"/><path class="point" transform="translate(81.36,370.86)" d="M0,0L-20,-10V10Z" style="opacity: 0.5; stroke-width: 0px; fill: rgb(51, 0, 255); fill-opacity: 1;"/><path class="point" transform="translate(49.4,372.3)" d="M0,0L-20,-10V10Z" style="opacity: 0.5; stroke-width: 0px; fill: rgb(51, 0, 255); fill-opacity: 1;"/><path class="point" transform="translate(49.4,371.92)" d="M0,0L-20,-10V10Z" style="opacity: 0.5; stroke-width: 0px; fill: rgb(51, 0, 255); fill-opacity: 1;"/><path class="point" transform="translate(688.6,86.56)" d="M0,0L-20,-10V10Z" style="opacity: 0.5; stroke-width: 0px; fill: rgb(51, 0, 255); fill-opacity: 1;"/><path class="point" transform="translate(49.4,376.05)" d="M0,0L-20,-10V10Z" style="opacity: 0.5; stroke-width: 0px; fill: rgb(51, 0, 255); fill-opacity: 1;"/><path class="point" transform="translate(369,321.84)" d="M0,0L-20,-10V10Z" style="opacity: 0.5; stroke-width: 0px; fill: rgb(51, 0, 255); fill-opacity: 1;"/><path class="point" transform="translate(688.6,73.25)" d="M0,0L-20,-10V10Z" style="opacity: 0.5; stroke-width: 0px; fill: rgb(51, 0, 255); fill-opacity: 1;"/><path class="point" transform="translate(49.4,372.1)" d="M0,0L-20,-10V10Z" style="opacity: 0.5; stroke-width: 0px; fill: rgb(51, 0, 255); fill-opacity: 1;"/><path class="point" transform="translate(81.36,369.69)" d="M0,0L-20,-10V10Z" style="opacity: 0.5; stroke-width: 0px; fill: rgb(51, 0, 255); fill-opacity: 1;"/><path class="point" transform="translate(81.36,366.33)" d="M0,0L-20,-10V10Z" style="opacity: 0.5; stroke-width: 0px; fill: rgb(51, 0, 255); fill-opacity: 1;"/><path class="point" transform="translate(81.36,361.47)" d="M0,0L-20,-10V10Z" style="opacity: 0.5; stroke-width: 0px; fill: rgb(51, 0, 255); fill-opacity: 1;"/><path class="point" transform="translate(81.36,361.09)" d="M0,0L-20,-10V10Z" style="opacity: 0.5; stroke-width: 0px; fill: rgb(51, 0, 255); fill-opacity: 1;"/><path class="point" transform="translate(49.4,371.7)" d="M0,0L-20,-10V10Z" style="opacity: 0.5; stroke-width: 0px; fill: rgb(51, 0, 255); fill-opacity: 1;"/><path class="point" transform="translate(369,283.17)" d="M0,0L-20,-10V10Z" style="opacity: 0.5; stroke-width: 0px; fill: rgb(51, 0, 255); fill-opacity: 1;"/><path class="point" transform="translate(369,248.86)" d="M0,0L-20,-10V10Z" style="opacity: 0.5; stroke-width: 0px; fill: rgb(51, 0, 255); fill-opacity: 1;"/><path class="point" transform="translate(688.6,266.53)" d="M0,0L-20,-10V10Z" style="opacity: 0.5; stroke-width: 0px; fill: rgb(51, 0, 255); fill-opacity: 1;"/><path class="point" transform="translate(688.6,192.14)" d="M0,0L-20,-10V10Z" style="opacity: 0.5; stroke-width: 0px; fill: rgb(51, 0, 255); fill-opacity: 1;"/><path class="point" transform="translate(688.6,79.94)" d="M0,0L-20,-10V10Z" style="opacity: 0.5; stroke-width: 0px; fill: rgb(51, 0, 255); fill-opacity: 1;"/><path class="point" transform="translate(369,220.41)" d="M0,0L-20,-10V10Z" style="opacity: 0.5; stroke-width: 0px; fill: rgb(51, 0, 255); fill-opacity: 1;"/></g><g class="text"/></g><g class="trace scatter trace18074b" style="stroke-miterlimit: 2; opacity: 1;"><g class="fills"/><g class="errorbars"/><g class="lines"/><g class="points"><path class="point" transform="translate(81.36,363.7)" d="M10,10H-10V-10H10Z" style="opacity: 0.5; stroke-width: 0px; fill: rgb(44, 160, 44); fill-opacity: 1;"/><path class="point" transform="translate(49.4,374.68)" d="M10,10H-10V-10H10Z" style="opacity: 0.5; stroke-width: 0px; fill: rgb(44, 160, 44); fill-opacity: 1;"/><path class="point" transform="translate(49.4,370.99)" d="M10,10H-10V-10H10Z" style="opacity: 0.5; stroke-width: 0px; fill: rgb(44, 160, 44); fill-opacity: 1;"/><path class="point" transform="translate(49.4,371.45)" d="M10,10H-10V-10H10Z" style="opacity: 0.5; stroke-width: 0px; fill: rgb(44, 160, 44); fill-opacity: 1;"/><path class="point" transform="translate(81.36,369.75)" d="M10,10H-10V-10H10Z" style="opacity: 0.5; stroke-width: 0px; fill: rgb(44, 160, 44); fill-opacity: 1;"/><path class="point" transform="translate(81.36,366.91)" d="M10,10H-10V-10H10Z" style="opacity: 0.5; stroke-width: 0px; fill: rgb(44, 160, 44); fill-opacity: 1;"/><path class="point" transform="translate(369,332.33)" d="M10,10H-10V-10H10Z" style="opacity: 0.5; stroke-width: 0px; fill: rgb(44, 160, 44); fill-opacity: 1;"/><path class="point" transform="translate(81.36,362.57)" d="M10,10H-10V-10H10Z" style="opacity: 0.5; stroke-width: 0px; fill: rgb(44, 160, 44); fill-opacity: 1;"/><path class="point" transform="translate(369,294.85)" d="M10,10H-10V-10H10Z" style="opacity: 0.5; stroke-width: 0px; fill: rgb(44, 160, 44); fill-opacity: 1;"/><path class="point" transform="translate(369,196.13)" d="M10,10H-10V-10H10Z" style="opacity: 0.5; stroke-width: 0px; fill: rgb(44, 160, 44); fill-opacity: 1;"/><path class="point" transform="translate(369,251.47)" d="M10,10H-10V-10H10Z" style="opacity: 0.5; stroke-width: 0px; fill: rgb(44, 160, 44); fill-opacity: 1;"/><path class="point" transform="translate(688.6,277.88)" d="M10,10H-10V-10H10Z" style="opacity: 0.5; stroke-width: 0px; fill: rgb(44, 160, 44); fill-opacity: 1;"/><path class="point" transform="translate(49.4,375.98)" d="M10,10H-10V-10H10Z" style="opacity: 0.5; stroke-width: 0px; fill: rgb(44, 160, 44); fill-opacity: 1;"/><path class="point" transform="translate(688.6,208.27)" d="M10,10H-10V-10H10Z" style="opacity: 0.5; stroke-width: 0px; fill: rgb(44, 160, 44); fill-opacity: 1;"/><path class="point" transform="translate(369,311.4)" d="M10,10H-10V-10H10Z" style="opacity: 0.5; stroke-width: 0px; fill: rgb(44, 160, 44); fill-opacity: 1;"/><path class="point" transform="translate(688.6,40.94)" d="M10,10H-10V-10H10Z" style="opacity: 0.5; stroke-width: 0px; fill: rgb(44, 160, 44); fill-opacity: 1;"/><path class="point" transform="translate(688.6,206.7)" d="M10,10H-10V-10H10Z" style="opacity: 0.5; stroke-width: 0px; fill: rgb(44, 160, 44); fill-opacity: 1;"/><path class="point" transform="translate(688.6,252.02)" d="M10,10H-10V-10H10Z" style="opacity: 0.5; stroke-width: 0px; fill: rgb(44, 160, 44); fill-opacity: 1;"/><path class="point" transform="translate(688.6,319.87)" d="M10,10H-10V-10H10Z" style="opacity: 0.5; stroke-width: 0px; fill: rgb(44, 160, 44); fill-opacity: 1;"/><path class="point" transform="translate(369,280.7)" d="M10,10H-10V-10H10Z" style="opacity: 0.5; stroke-width: 0px; fill: rgb(44, 160, 44); fill-opacity: 1;"/><path class="point" transform="translate(369,294.84)" d="M10,10H-10V-10H10Z" style="opacity: 0.5; stroke-width: 0px; fill: rgb(44, 160, 44); fill-opacity: 1;"/><path class="point" transform="translate(369,339.55)" d="M10,10H-10V-10H10Z" style="opacity: 0.5; stroke-width: 0px; fill: rgb(44, 160, 44); fill-opacity: 1;"/><path class="point" transform="translate(81.36,364.74)" d="M10,10H-10V-10H10Z" style="opacity: 0.5; stroke-width: 0px; fill: rgb(44, 160, 44); fill-opacity: 1;"/><path class="point" transform="translate(81.36,359.75)" d="M10,10H-10V-10H10Z" style="opacity: 0.5; stroke-width: 0px; fill: rgb(44, 160, 44); fill-opacity: 1;"/><path class="point" transform="translate(81.36,369.14)" d="M10,10H-10V-10H10Z" style="opacity: 0.5; stroke-width: 0px; fill: rgb(44, 160, 44); fill-opacity: 1;"/><path class="point" transform="translate(81.36,373.15)" d="M10,10H-10V-10H10Z" style="opacity: 0.5; stroke-width: 0px; fill: rgb(44, 160, 44); fill-opacity: 1;"/><path class="point" transform="translate(49.4,369.96)" d="M10,10H-10V-10H10Z" style="opacity: 0.5; stroke-width: 0px; fill: rgb(44, 160, 44); fill-opacity: 1;"/><path class="point" transform="translate(49.4,369.36)" d="M10,10H-10V-10H10Z" style="opacity: 0.5; stroke-width: 0px; fill: rgb(44, 160, 44); fill-opacity: 1;"/><path class="point" transform="translate(49.4,374.16)" d="M10,10H-10V-10H10Z" style="opacity: 0.5; stroke-width: 0px; fill: rgb(44, 160, 44); fill-opacity: 1;"/><path class="point" transform="translate(688.6,98.95)" d="M10,10H-10V-10H10Z" style="opacity: 0.5; stroke-width: 0px; fill: rgb(44, 160, 44); fill-opacity: 1;"/><path class="point" transform="translate(688.6,47.63)" d="M10,10H-10V-10H10Z" style="opacity: 0.5; stroke-width: 0px; fill: rgb(44, 160, 44); fill-opacity: 1;"/><path class="point" transform="translate(688.6,123.29)" d="M10,10H-10V-10H10Z" style="opacity: 0.5; stroke-width: 0px; fill: rgb(44, 160, 44); fill-opacity: 1;"/><path class="point" transform="translate(49.4,376.03)" d="M10,10H-10V-10H10Z" style="opacity: 0.5; stroke-width: 0px; fill: rgb(44, 160, 44); fill-opacity: 1;"/><path class="point" transform="translate(49.4,374.91)" d="M10,10H-10V-10H10Z" style="opacity: 0.5; stroke-width: 0px; fill: rgb(44, 160, 44); fill-opacity: 1;"/><path class="point" transform="translate(688.6,95.89)" d="M10,10H-10V-10H10Z" style="opacity: 0.5; stroke-width: 0px; fill: rgb(44, 160, 44); fill-opacity: 1;"/><path class="point" transform="translate(688.6,52.4)" d="M10,10H-10V-10H10Z" style="opacity: 0.5; stroke-width: 0px; fill: rgb(44, 160, 44); fill-opacity: 1;"/><path class="point" transform="translate(688.6,183.95)" d="M10,10H-10V-10H10Z" style="opacity: 0.5; stroke-width: 0px; fill: rgb(44, 160, 44); fill-opacity: 1;"/><path class="point" transform="translate(688.6,219.99)" d="M10,10H-10V-10H10Z" style="opacity: 0.5; stroke-width: 0px; fill: rgb(44, 160, 44); fill-opacity: 1;"/><path class="point" transform="translate(369,241.38)" d="M10,10H-10V-10H10Z" style="opacity: 0.5; stroke-width: 0px; fill: rgb(44, 160, 44); fill-opacity: 1;"/><path class="point" transform="translate(369,228)" d="M10,10H-10V-10H10Z" style="opacity: 0.5; stroke-width: 0px; fill: rgb(44, 160, 44); fill-opacity: 1;"/><path class="point" transform="translate(369,291.15)" d="M10,10H-10V-10H10Z" style="opacity: 0.5; stroke-width: 0px; fill: rgb(44, 160, 44); fill-opacity: 1;"/><path class="point" transform="translate(369,298)" d="M10,10H-10V-10H10Z" style="opacity: 0.5; stroke-width: 0px; fill: rgb(44, 160, 44); fill-opacity: 1;"/><path class="point" transform="translate(81.36,360.91)" d="M10,10H-10V-10H10Z" style="opacity: 0.5; stroke-width: 0px; fill: rgb(44, 160, 44); fill-opacity: 1;"/><path class="point" transform="translate(81.36,360.61)" d="M10,10H-10V-10H10Z" style="opacity: 0.5; stroke-width: 0px; fill: rgb(44, 160, 44); fill-opacity: 1;"/><path class="point" transform="translate(81.36,365.79)" d="M10,10H-10V-10H10Z" style="opacity: 0.5; stroke-width: 0px; fill: rgb(44, 160, 44); fill-opacity: 1;"/><path class="point" transform="translate(81.36,368.16)" d="M10,10H-10V-10H10Z" style="opacity: 0.5; stroke-width: 0px; fill: rgb(44, 160, 44); fill-opacity: 1;"/><path class="point" transform="translate(49.4,372.3)" d="M10,10H-10V-10H10Z" style="opacity: 0.5; stroke-width: 0px; fill: rgb(44, 160, 44); fill-opacity: 1;"/><path class="point" transform="translate(49.4,371.92)" d="M10,10H-10V-10H10Z" style="opacity: 0.5; stroke-width: 0px; fill: rgb(44, 160, 44); fill-opacity: 1;"/><path class="point" transform="translate(49.4,374.98)" d="M10,10H-10V-10H10Z" style="opacity: 0.5; stroke-width: 0px; fill: rgb(44, 160, 44); fill-opacity: 1;"/><path class="point" transform="translate(49.4,376.05)" d="M10,10H-10V-10H10Z" style="opacity: 0.5; stroke-width: 0px; fill: rgb(44, 160, 44); fill-opacity: 1;"/><path class="point" transform="translate(688.6,69.47)" d="M10,10H-10V-10H10Z" style="opacity: 0.5; stroke-width: 0px; fill: rgb(44, 160, 44); fill-opacity: 1;"/><path class="point" transform="translate(688.6,196.86)" d="M10,10H-10V-10H10Z" style="opacity: 0.5; stroke-width: 0px; fill: rgb(44, 160, 44); fill-opacity: 1;"/><path class="point" transform="translate(688.6,257.46)" d="M10,10H-10V-10H10Z" style="opacity: 0.5; stroke-width: 0px; fill: rgb(44, 160, 44); fill-opacity: 1;"/><path class="point" transform="translate(369,231.5)" d="M10,10H-10V-10H10Z" style="opacity: 0.5; stroke-width: 0px; fill: rgb(44, 160, 44); fill-opacity: 1;"/><path class="point" transform="translate(369,219.96)" d="M10,10H-10V-10H10Z" style="opacity: 0.5; stroke-width: 0px; fill: rgb(44, 160, 44); fill-opacity: 1;"/><path class="point" transform="translate(369,287.11)" d="M10,10H-10V-10H10Z" style="opacity: 0.5; stroke-width: 0px; fill: rgb(44, 160, 44); fill-opacity: 1;"/><path class="point" transform="translate(369,324.64)" d="M10,10H-10V-10H10Z" style="opacity: 0.5; stroke-width: 0px; fill: rgb(44, 160, 44); fill-opacity: 1;"/><path class="point" transform="translate(81.36,360.51)" d="M10,10H-10V-10H10Z" style="opacity: 0.5; stroke-width: 0px; fill: rgb(44, 160, 44); fill-opacity: 1;"/><path class="point" transform="translate(81.36,361.41)" d="M10,10H-10V-10H10Z" style="opacity: 0.5; stroke-width: 0px; fill: rgb(44, 160, 44); fill-opacity: 1;"/><path class="point" transform="translate(81.36,365.16)" d="M10,10H-10V-10H10Z" style="opacity: 0.5; stroke-width: 0px; fill: rgb(44, 160, 44); fill-opacity: 1;"/><path class="point" transform="translate(81.36,370.94)" d="M10,10H-10V-10H10Z" style="opacity: 0.5; stroke-width: 0px; fill: rgb(44, 160, 44); fill-opacity: 1;"/><path class="point" transform="translate(49.4,372.1)" d="M10,10H-10V-10H10Z" style="opacity: 0.5; stroke-width: 0px; fill: rgb(44, 160, 44); fill-opacity: 1;"/><path class="point" transform="translate(49.4,371.7)" d="M10,10H-10V-10H10Z" style="opacity: 0.5; stroke-width: 0px; fill: rgb(44, 160, 44); fill-opacity: 1;"/><path class="point" transform="translate(49.4,375.85)" d="M10,10H-10V-10H10Z" style="opacity: 0.5; stroke-width: 0px; fill: rgb(44, 160, 44); fill-opacity: 1;"/></g><g class="text"/></g></g></g><g class="overplot"/><path class="xlines-above crisp" d="M0,0" style="fill: none;"/><path class="ylines-above crisp" d="M0,0" style="fill: none;"/><g class="overlines-above"/><g class="xaxislayer-above"><g class="xtick"><text text-anchor="middle" x="0" y="500" transform="translate(151.4,0)" style="font-family: CMU; font-size: 30px; fill: rgb(42, 63, 95); fill-opacity: 1; white-space: pre; opacity: 1;">0</text></g><g class="xtick"><text text-anchor="middle" x="0" y="500" style="font-family: CMU; font-size: 30px; fill: rgb(42, 63, 95); fill-opacity: 1; white-space: pre; opacity: 1;" transform="translate(311.2,0)">0.05</text></g><g class="xtick"><text text-anchor="middle" x="0" y="500" style="font-family: CMU; font-size: 30px; fill: rgb(42, 63, 95); fill-opacity: 1; white-space: pre; opacity: 1;" transform="translate(471,0)">0.1</text></g><g class="xtick"><text text-anchor="middle" x="0" y="500" style="font-family: CMU; font-size: 30px; fill: rgb(42, 63, 95); fill-opacity: 1; white-space: pre; opacity: 1;" transform="translate(630.8,0)">0.15</text></g><g class="xtick"><text text-anchor="middle" x="0" y="500" style="font-family: CMU; font-size: 30px; fill: rgb(42, 63, 95); fill-opacity: 1; white-space: pre; opacity: 1;" transform="translate(790.6,0)">0.2</text></g></g><g class="yaxislayer-above"><g class="ytick"><text text-anchor="end" x="101" y="10.5" transform="translate(0,436.4)" style="font-family: CMU; font-size: 30px; fill: rgb(42, 63, 95); fill-opacity: 1; white-space: pre; opacity: 1;">0</text></g><g class="ytick"><text text-anchor="end" x="101" y="10.5" style="font-family: CMU; font-size: 30px; fill: rgb(42, 63, 95); fill-opacity: 1; white-space: pre; opacity: 1;" transform="translate(0,377.52)">0.02</text></g><g class="ytick"><text text-anchor="end" x="101" y="10.5" style="font-family: CMU; font-size: 30px; fill: rgb(42, 63, 95); fill-opacity: 1; white-space: pre; opacity: 1;" transform="translate(0,318.65)">0.04</text></g><g class="ytick"><text text-anchor="end" x="101" y="10.5" style="font-family: CMU; font-size: 30px; fill: rgb(42, 63, 95); fill-opacity: 1; white-space: pre; opacity: 1;" transform="translate(0,259.78)">0.06</text></g><g class="ytick"><text text-anchor="end" x="101" y="10.5" style="font-family: CMU; font-size: 30px; fill: rgb(42, 63, 95); fill-opacity: 1; white-space: pre; opacity: 1;" transform="translate(0,200.9)">0.08</text></g><g class="ytick"><text text-anchor="end" x="101" y="10.5" style="font-family: CMU; font-size: 30px; fill: rgb(42, 63, 95); fill-opacity: 1; white-space: pre; opacity: 1;" transform="translate(0,142.03)">0.1</text></g><g class="ytick"><text text-anchor="end" x="101" y="10.5" style="font-family: CMU; font-size: 30px; fill: rgb(42, 63, 95); fill-opacity: 1; white-space: pre; opacity: 1;" transform="translate(0,83.15)">0.12</text></g></g><g class="overaxes-above"/></g></g><g class="polarlayer"/><g class="smithlayer"/><g class="ternarylayer"/><g class="geolayer"/><g class="funnelarealayer"/><g class="pielayer"/><g class="iciclelayer"/><g class="treemaplayer"/><g class="sunburstlayer"/><g class="glimages"/><defs id="topdefs-e03403"><g class="clips"/><clipPath id="legende03403"><rect width="303" height="183" x="0" y="0"/></clipPath></defs><g class="layer-above"><g class="imagelayer"/><g class="shapelayer"/></g><g class="infolayer"><g class="legend" pointer-events="all" transform="translate(854.76,60)"><rect class="bg" shape-rendering="crispEdges" width="303" height="183" x="0" y="0" style="stroke: rgb(68, 68, 68); stroke-opacity: 1; fill: rgb(255, 255, 255); fill-opacity: 1; stroke-width: 0px;"/><g class="scrollbox" transform="" clip-path="url(#legende03403)"><text class="legendtitletext" text-anchor="start" x="2" y="46.800000000000004" style="font-family: CMU; font-size: 36px; fill: rgb(42, 63, 95); fill-opacity: 1; white-space: pre;">Estimator, Estimator</text><g class="groups" transform=""><g class="traces" transform="translate(0,72.80000000000001)" style="opacity: 1;"><text class="legendtext" text-anchor="start" x="40" y="11.7" style="font-family: CMU; font-size: 30px; fill: rgb(42, 63, 95); fill-opacity: 1; white-space: pre;">Lin2015, Lin2015</text><g class="layers" style="opacity: 1;"><g class="legendfill"/><g class="legendlines"/><g class="legendsymbols"><g class="legendpoints"><path class="scatterpts" transform="translate(20,0)" d="M0,0L16,-8V8Z" style="opacity: 0.5; stroke-width: 0px; fill: rgb(255, 20, 147); fill-opacity: 1;"/></g></g></g><rect class="legendtoggle" x="0" y="-21" width="258.328125" height="42" style="fill: rgb(0, 0, 0); fill-opacity: 0;"/></g></g><g class="groups" transform=""><g class="traces" transform="translate(0,114.80000000000001)" style="opacity: 1;"><text class="legendtext" text-anchor="start" x="40" y="11.7" style="font-family: CMU; font-size: 30px; fill: rgb(42, 63, 95); fill-opacity: 1; white-space: pre;">LLS, LLS</text><g class="layers" style="opacity: 1;"><g class="legendfill"/><g class="legendlines"/><g class="legendsymbols"><g class="legendpoints"><path class="scatterpts" transform="translate(20,0)" d="M0,0L-16,-8V8Z" style="opacity: 0.5; stroke-width: 0px; fill: rgb(51, 0, 255); fill-opacity: 1;"/></g></g></g><rect class="legendtoggle" x="0" y="-21" width="258.328125" height="42" style="fill: rgb(0, 0, 0); fill-opacity: 0;"/></g></g><g class="groups" transform=""><g class="traces" transform="translate(0,156.8)" style="opacity: 1;"><text class="legendtext" text-anchor="start" x="40" y="11.7" style="font-family: CMU; font-size: 30px; fill: rgb(42, 63, 95); fill-opacity: 1; white-space: pre;">GLS, GLS</text><g class="layers" style="opacity: 1;"><g class="legendfill"/><g class="legendlines"/><g class="legendsymbols"><g class="legendpoints"><path class="scatterpts" transform="translate(20,0)" d="M8,8H-8V-8H8Z" style="opacity: 0.5; stroke-width: 0px; fill: rgb(44, 160, 44); fill-opacity: 1;"/></g></g></g><rect class="legendtoggle" x="0" y="-21" width="258.328125" height="42" style="fill: rgb(0, 0, 0); fill-opacity: 0;"/></g></g></g><rect class="scrollbar" rx="20" ry="3" width="0" height="0" x="0" y="0" style="fill: rgb(128, 139, 164); fill-opacity: 1;"/></g><g class="g-gtitle"><text class="gtitle" x="58.5" y="30" text-anchor="start" dy="0em" style="font-family: CMU; font-size: 30px; fill: rgb(42, 63, 95); opacity: 1; font-weight: normal; white-space: pre;">model_3 rmsd_geodesic hypersphere</text></g><g class="g-xtitle"><text class="xtitle" x="471" y="542" text-anchor="middle" style="font-family: CMU; font-size: 30px; fill: rgb(42, 63, 95); opacity: 1; font-weight: normal; white-space: pre;">Noise Factor</text></g><g class="g-ytitle" transform="translate(13.5,0)"><text class="ytitle" transform="rotate(-90,13,264.5)" x="13" y="264.5" text-anchor="middle" style="font-family: CMU; font-size: 30px; fill: rgb(42, 63, 95); opacity: 1; font-weight: normal; white-space: pre;">RMSD, geod dist</text></g></g></svg>