<svg class="main-svg" xmlns="http://www.w3.org/2000/svg" xmlns:xlink="http://www.w3.org/1999/xlink" width="1170" height="555" style="" viewBox="0 0 1170 555"><rect x="0" y="0" width="1170" height="555" style="fill: rgb(255, 255, 255); fill-opacity: 1;"/><defs id="defs-a66d7e"><g class="clips"><clipPath id="clipa66d7exyplot" class="plotclip"><rect width="738" height="409"/></clipPath><clipPath class="axesclip" id="clipa66d7ex"><rect x="102" y="0" width="738" height="555"/></clipPath><clipPath class="axesclip" id="clipa66d7ey"><rect x="0" y="60" width="1170" height="409"/></clipPath><clipPath class="axesclip" id="clipa66d7exy"><rect x="102" y="60" width="738" height="409"/></clipPath></g><g class="gradients"/><g class="patterns"/></defs><g class="bglayer"><rect class="bg" x="102" y="60" width="738" height="409" style="fill: rgb(229, 236, 246); fill-opacity: 1; stroke-width: 0;"/></g><g class="layer-below"><g class="imagelayer"/><g class="shapelayer"/></g><g class="cartesianlayer"><g class="subplot xy"><g class="layer-subplot"><g class="shapelayer"/><g class="imagelayer"/></g><g class="minor-gridlayer"><g class="x"/><g class="y"/></g><g class="gridlayer"><g class="x"><path class="xgrid crisp" transform="translate(311.2,0)" d="M0,60v409" style="stroke: rgb(255, 255, 255); stroke-opacity: 1; stroke-width: 1px;"/><path class="xgrid crisp" transform="translate(471,0)" d="M0,60v409" style="stroke: rgb(255, 255, 255); stroke-opacity: 1; stroke-width: 1px;"/><path class="xgrid crisp" transform="translate(630.8,0)" d="M0,60v409" style="stroke: rgb(255, 255, 255); stroke-opacity: 1; stroke-width: 1px;"/><path class="xgrid crisp" transform="translate(790.6,0)" d="M0,60v409" style="stroke: rgb(255, 255, 255); stroke-opacity: 1; stroke-width: 1px;"/></g><g class="y"><path class="ygrid crisp" transform="translate(0,377.78)" d="M102,0h738" style="stroke: rgb(255, 255, 255); stroke-opacity: 1; stroke-width: 1px;"/><path class="ygrid crisp" transform="translate(0,319.15)" d="M102,0h738" style="stroke: rgb(255, 255, 255); stroke-opacity: 1; stroke-width: 1px;"/><path class="ygrid crisp" transform="translate(0,260.53)" d="M102,0h738" style="stroke: rgb(255, 255, 255); stroke-opacity: 1; stroke-width: 1px;"/><path class="ygrid crisp" transform="translate(0,201.91)" d="M102,0h738" style="stroke: rgb(255, 255, 255); stroke-opacity: 1; stroke-width: 1px;"/><path class="ygrid crisp" transform="translate(0,143.29000000000002)" d="M102,0h738" style="stroke: rgb(255, 255, 255); stroke-opacity: 1; stroke-width: 1px;"/><path class="ygrid crisp" transform="translate(0,84.67)" d="M102,0h738" style="stroke: rgb(255, 255, 255); stroke-opacity: 1; stroke-width: 1px;"/></g></g><g class="zerolinelayer"><path class="xzl zl crisp" transform="translate(151.4,0)" d="M0,60v409" style="stroke: rgb(255, 255, 255); stroke-opacity: 1; stroke-width: 2px;"/><path class="yzl zl crisp" transform="translate(0,436.4)" d="M102,0h738" style="stroke: rgb(255, 255, 255); stroke-opacity: 1; stroke-width: 2px;"/></g><path class="xlines-below"/><path class="ylines-below"/><g class="overlines-below"/><g class="xaxislayer-below"/><g class="yaxislayer-below"/><g class="overaxes-below"/><g class="plot" transform="translate(102,60)" clip-path="url(#clipa66d7exyplot)"><g class="scatterlayer mlayer"><g class="trace scatter tracef90f75" style="stroke-miterlimit: 2; opacity: 1;"><g class="fills"/><g class="errorbars"/><g class="lines"/><g class="points"><path class="point" transform="translate(688.6,73.88)" d="M0,0L20,-10V10Z" style="opacity: 0.5; stroke-width: 0px; fill: rgb(255, 20, 147); fill-opacity: 1;"/><path class="point" transform="translate(688.6,174.79)" d="M0,0L20,-10V10Z" style="opacity: 0.5; stroke-width: 0px; fill: rgb(255, 20, 147); fill-opacity: 1;"/><path class="point" transform="translate(688.6,305.38)" d="M0,0L20,-10V10Z" style="opacity: 0.5; stroke-width: 0px; fill: rgb(255, 20, 147); fill-opacity: 1;"/><path class="point" transform="translate(369,243.06)" d="M0,0L20,-10V10Z" style="opacity: 0.5; stroke-width: 0px; fill: rgb(255, 20, 147); fill-opacity: 1;"/><path class="point" transform="translate(369,233.89)" d="M0,0L20,-10V10Z" style="opacity: 0.5; stroke-width: 0px; fill: rgb(255, 20, 147); fill-opacity: 1;"/><path class="point" transform="translate(369,280.28)" d="M0,0L20,-10V10Z" style="opacity: 0.5; stroke-width: 0px; fill: rgb(255, 20, 147); fill-opacity: 1;"/><path class="point" transform="translate(369,336.64)" d="M0,0L20,-10V10Z" style="opacity: 0.5; stroke-width: 0px; fill: rgb(255, 20, 147); fill-opacity: 1;"/><path class="point" transform="translate(81.36,362.31)" d="M0,0L20,-10V10Z" style="opacity: 0.5; stroke-width: 0px; fill: rgb(255, 20, 147); fill-opacity: 1;"/><path class="point" transform="translate(81.36,364.36)" d="M0,0L20,-10V10Z" style="opacity: 0.5; stroke-width: 0px; fill: rgb(255, 20, 147); fill-opacity: 1;"/><path class="point" transform="translate(81.36,369.03)" d="M0,0L20,-10V10Z" style="opacity: 0.5; stroke-width: 0px; fill: rgb(255, 20, 147); fill-opacity: 1;"/><path class="point" transform="translate(81.36,371.39)" d="M0,0L20,-10V10Z" style="opacity: 0.5; stroke-width: 0px; fill: rgb(255, 20, 147); fill-opacity: 1;"/><path class="point" transform="translate(49.4,371.47)" d="M0,0L20,-10V10Z" style="opacity: 0.5; stroke-width: 0px; fill: rgb(255, 20, 147); fill-opacity: 1;"/><path class="point" transform="translate(49.4,371.01)" d="M0,0L20,-10V10Z" style="opacity: 0.5; stroke-width: 0px; fill: rgb(255, 20, 147); fill-opacity: 1;"/><path class="point" transform="translate(49.4,374.69)" d="M0,0L20,-10V10Z" style="opacity: 0.5; stroke-width: 0px; fill: rgb(255, 20, 147); fill-opacity: 1;"/><path class="point" transform="translate(688.6,190.58)" d="M0,0L20,-10V10Z" style="opacity: 0.5; stroke-width: 0px; fill: rgb(255, 20, 147); fill-opacity: 1;"/><path class="point" transform="translate(688.6,138.71)" d="M0,0L20,-10V10Z" style="opacity: 0.5; stroke-width: 0px; fill: rgb(255, 20, 147); fill-opacity: 1;"/><path class="point" transform="translate(688.6,279.66)" d="M0,0L20,-10V10Z" style="opacity: 0.5; stroke-width: 0px; fill: rgb(255, 20, 147); fill-opacity: 1;"/><path class="point" transform="translate(688.6,288.03)" d="M0,0L20,-10V10Z" style="opacity: 0.5; stroke-width: 0px; fill: rgb(255, 20, 147); fill-opacity: 1;"/><path class="point" transform="translate(369,221.26)" d="M0,0L20,-10V10Z" style="opacity: 0.5; stroke-width: 0px; fill: rgb(255, 20, 147); fill-opacity: 1;"/><path class="point" transform="translate(369,213.38)" d="M0,0L20,-10V10Z" style="opacity: 0.5; stroke-width: 0px; fill: rgb(255, 20, 147); fill-opacity: 1;"/><path class="point" transform="translate(369,323.54)" d="M0,0L20,-10V10Z" style="opacity: 0.5; stroke-width: 0px; fill: rgb(255, 20, 147); fill-opacity: 1;"/><path class="point" transform="translate(369,300.07)" d="M0,0L20,-10V10Z" style="opacity: 0.5; stroke-width: 0px; fill: rgb(255, 20, 147); fill-opacity: 1;"/><path class="point" transform="translate(81.36,363.34)" d="M0,0L20,-10V10Z" style="opacity: 0.5; stroke-width: 0px; fill: rgb(255, 20, 147); fill-opacity: 1;"/><path class="point" transform="translate(81.36,361.25)" d="M0,0L20,-10V10Z" style="opacity: 0.5; stroke-width: 0px; fill: rgb(255, 20, 147); fill-opacity: 1;"/><path class="point" transform="translate(81.36,368.9)" d="M0,0L20,-10V10Z" style="opacity: 0.5; stroke-width: 0px; fill: rgb(255, 20, 147); fill-opacity: 1;"/><path class="point" transform="translate(81.36,371.86)" d="M0,0L20,-10V10Z" style="opacity: 0.5; stroke-width: 0px; fill: rgb(255, 20, 147); fill-opacity: 1;"/><path class="point" transform="translate(49.4,369.99)" d="M0,0L20,-10V10Z" style="opacity: 0.5; stroke-width: 0px; fill: rgb(255, 20, 147); fill-opacity: 1;"/><path class="point" transform="translate(49.4,369.39)" d="M0,0L20,-10V10Z" style="opacity: 0.5; stroke-width: 0px; fill: rgb(255, 20, 147); fill-opacity: 1;"/><path class="point" transform="translate(49.4,374.17)" d="M0,0L20,-10V10Z" style="opacity: 0.5; stroke-width: 0px; fill: rgb(255, 20, 147); fill-opacity: 1;"/><path class="point" transform="translate(49.4,375.85)" d="M0,0L20,-10V10Z" style="opacity: 0.5; stroke-width: 0px; fill: rgb(255, 20, 147); fill-opacity: 1;"/><path class="point" transform="translate(688.6,42.68)" d="M0,0L20,-10V10Z" style="opacity: 0.5; stroke-width: 0px; fill: rgb(255, 20, 147); fill-opacity: 1;"/><path class="point" transform="translate(688.6,162.82)" d="M0,0L20,-10V10Z" style="opacity: 0.5; stroke-width: 0px; fill: rgb(255, 20, 147); fill-opacity: 1;"/><path class="point" transform="translate(49.4,375.98)" d="M0,0L20,-10V10Z" style="opacity: 0.5; stroke-width: 0px; fill: rgb(255, 20, 147); fill-opacity: 1;"/><path class="point" transform="translate(688.6,148.76)" d="M0,0L20,-10V10Z" style="opacity: 0.5; stroke-width: 0px; fill: rgb(255, 20, 147); fill-opacity: 1;"/><path class="point" transform="translate(688.6,52.39)" d="M0,0L20,-10V10Z" style="opacity: 0.5; stroke-width: 0px; fill: rgb(255, 20, 147); fill-opacity: 1;"/><path class="point" transform="translate(49.4,376.03)" d="M0,0L20,-10V10Z" style="opacity: 0.5; stroke-width: 0px; fill: rgb(255, 20, 147); fill-opacity: 1;"/><path class="point" transform="translate(688.6,252.97)" d="M0,0L20,-10V10Z" style="opacity: 0.5; stroke-width: 0px; fill: rgb(255, 20, 147); fill-opacity: 1;"/><path class="point" transform="translate(369,218.03)" d="M0,0L20,-10V10Z" style="opacity: 0.5; stroke-width: 0px; fill: rgb(255, 20, 147); fill-opacity: 1;"/><path class="point" transform="translate(369,244.6)" d="M0,0L20,-10V10Z" style="opacity: 0.5; stroke-width: 0px; fill: rgb(255, 20, 147); fill-opacity: 1;"/><path class="point" transform="translate(369,274.03)" d="M0,0L20,-10V10Z" style="opacity: 0.5; stroke-width: 0px; fill: rgb(255, 20, 147); fill-opacity: 1;"/><path class="point" transform="translate(369,312.49)" d="M0,0L20,-10V10Z" style="opacity: 0.5; stroke-width: 0px; fill: rgb(255, 20, 147); fill-opacity: 1;"/><path class="point" transform="translate(81.36,361.85)" d="M0,0L20,-10V10Z" style="opacity: 0.5; stroke-width: 0px; fill: rgb(255, 20, 147); fill-opacity: 1;"/><path class="point" transform="translate(81.36,363.89)" d="M0,0L20,-10V10Z" style="opacity: 0.5; stroke-width: 0px; fill: rgb(255, 20, 147); fill-opacity: 1;"/><path class="point" transform="translate(81.36,368.27)" d="M0,0L20,-10V10Z" style="opacity: 0.5; stroke-width: 0px; fill: rgb(255, 20, 147); fill-opacity: 1;"/><path class="point" transform="translate(81.36,368.91)" d="M0,0L20,-10V10Z" style="opacity: 0.5; stroke-width: 0px; fill: rgb(255, 20, 147); fill-opacity: 1;"/><path class="point" transform="translate(49.4,372.32)" d="M0,0L20,-10V10Z" style="opacity: 0.5; stroke-width: 0px; fill: rgb(255, 20, 147); fill-opacity: 1;"/><path class="point" transform="translate(49.4,371.94)" d="M0,0L20,-10V10Z" style="opacity: 0.5; stroke-width: 0px; fill: rgb(255, 20, 147); fill-opacity: 1;"/><path class="point" transform="translate(49.4,374.98)" d="M0,0L20,-10V10Z" style="opacity: 0.5; stroke-width: 0px; fill: rgb(255, 20, 147); fill-opacity: 1;"/><path class="point" transform="translate(49.4,376.05)" d="M0,0L20,-10V10Z" style="opacity: 0.5; stroke-width: 0px; fill: rgb(255, 20, 147); fill-opacity: 1;"/><path class="point" transform="translate(688.6,159.27)" d="M0,0L20,-10V10Z" style="opacity: 0.5; stroke-width: 0px; fill: rgb(255, 20, 147); fill-opacity: 1;"/><path class="point" transform="translate(688.6,79.65)" d="M0,0L20,-10V10Z" style="opacity: 0.5; stroke-width: 0px; fill: rgb(255, 20, 147); fill-opacity: 1;"/><path class="point" transform="translate(81.36,360.26)" d="M0,0L20,-10V10Z" style="opacity: 0.5; stroke-width: 0px; fill: rgb(255, 20, 147); fill-opacity: 1;"/><path class="point" transform="translate(688.6,178.91)" d="M0,0L20,-10V10Z" style="opacity: 0.5; stroke-width: 0px; fill: rgb(255, 20, 147); fill-opacity: 1;"/><path class="point" transform="translate(49.4,371.72)" d="M0,0L20,-10V10Z" style="opacity: 0.5; stroke-width: 0px; fill: rgb(255, 20, 147); fill-opacity: 1;"/><path class="point" transform="translate(49.4,372.12)" d="M0,0L20,-10V10Z" style="opacity: 0.5; stroke-width: 0px; fill: rgb(255, 20, 147); fill-opacity: 1;"/><path class="point" transform="translate(81.36,370.41)" d="M0,0L20,-10V10Z" style="opacity: 0.5; stroke-width: 0px; fill: rgb(255, 20, 147); fill-opacity: 1;"/><path class="point" transform="translate(81.36,367.78)" d="M0,0L20,-10V10Z" style="opacity: 0.5; stroke-width: 0px; fill: rgb(255, 20, 147); fill-opacity: 1;"/><path class="point" transform="translate(81.36,360.65)" d="M0,0L20,-10V10Z" style="opacity: 0.5; stroke-width: 0px; fill: rgb(255, 20, 147); fill-opacity: 1;"/><path class="point" transform="translate(49.4,374.91)" d="M0,0L20,-10V10Z" style="opacity: 0.5; stroke-width: 0px; fill: rgb(255, 20, 147); fill-opacity: 1;"/><path class="point" transform="translate(369,312.66)" d="M0,0L20,-10V10Z" style="opacity: 0.5; stroke-width: 0px; fill: rgb(255, 20, 147); fill-opacity: 1;"/><path class="point" transform="translate(369,256.39)" d="M0,0L20,-10V10Z" style="opacity: 0.5; stroke-width: 0px; fill: rgb(255, 20, 147); fill-opacity: 1;"/><path class="point" transform="translate(369,237.7)" d="M0,0L20,-10V10Z" style="opacity: 0.5; stroke-width: 0px; fill: rgb(255, 20, 147); fill-opacity: 1;"/><path class="point" transform="translate(688.6,247.98)" d="M0,0L20,-10V10Z" style="opacity: 0.5; stroke-width: 0px; fill: rgb(255, 20, 147); fill-opacity: 1;"/><path class="point" transform="translate(369,285.96)" d="M0,0L20,-10V10Z" style="opacity: 0.5; stroke-width: 0px; fill: rgb(255, 20, 147); fill-opacity: 1;"/></g><g class="text"/></g><g class="trace scatter trace742a2a" style="stroke-miterlimit: 2; opacity: 1;"><g class="fills"/><g class="errorbars"/><g class="lines"/><g class="points"><path class="point" transform="translate(81.36,360.39)" d="M0,0L-20,-10V10Z" style="opacity: 0.5; stroke-width: 0px; fill: rgb(51, 0, 255); fill-opacity: 1;"/><path class="point" transform="translate(49.4,374.69)" d="M0,0L-20,-10V10Z" style="opacity: 0.5; stroke-width: 0px; fill: rgb(51, 0, 255); fill-opacity: 1;"/><path class="point" transform="translate(49.4,371.01)" d="M0,0L-20,-10V10Z" style="opacity: 0.5; stroke-width: 0px; fill: rgb(51, 0, 255); fill-opacity: 1;"/><path class="point" transform="translate(49.4,371.47)" d="M0,0L-20,-10V10Z" style="opacity: 0.5; stroke-width: 0px; fill: rgb(51, 0, 255); fill-opacity: 1;"/><path class="point" transform="translate(81.36,370.42)" d="M0,0L-20,-10V10Z" style="opacity: 0.5; stroke-width: 0px; fill: rgb(51, 0, 255); fill-opacity: 1;"/><path class="point" transform="translate(81.36,367.12)" d="M0,0L-20,-10V10Z" style="opacity: 0.5; stroke-width: 0px; fill: rgb(51, 0, 255); fill-opacity: 1;"/><path class="point" transform="translate(688.6,175.12)" d="M0,0L-20,-10V10Z" style="opacity: 0.5; stroke-width: 0px; fill: rgb(51, 0, 255); fill-opacity: 1;"/><path class="point" transform="translate(369,324.8)" d="M0,0L-20,-10V10Z" style="opacity: 0.5; stroke-width: 0px; fill: rgb(51, 0, 255); fill-opacity: 1;"/><path class="point" transform="translate(81.36,360.44)" d="M0,0L-20,-10V10Z" style="opacity: 0.5; stroke-width: 0px; fill: rgb(51, 0, 255); fill-opacity: 1;"/><path class="point" transform="translate(369,283.21)" d="M0,0L-20,-10V10Z" style="opacity: 0.5; stroke-width: 0px; fill: rgb(51, 0, 255); fill-opacity: 1;"/><path class="point" transform="translate(369,230.95)" d="M0,0L-20,-10V10Z" style="opacity: 0.5; stroke-width: 0px; fill: rgb(51, 0, 255); fill-opacity: 1;"/><path class="point" transform="translate(369,228.99)" d="M0,0L-20,-10V10Z" style="opacity: 0.5; stroke-width: 0px; fill: rgb(51, 0, 255); fill-opacity: 1;"/><path class="point" transform="translate(688.6,271.74)" d="M0,0L-20,-10V10Z" style="opacity: 0.5; stroke-width: 0px; fill: rgb(51, 0, 255); fill-opacity: 1;"/><path class="point" transform="translate(688.6,129.42)" d="M0,0L-20,-10V10Z" style="opacity: 0.5; stroke-width: 0px; fill: rgb(51, 0, 255); fill-opacity: 1;"/><path class="point" transform="translate(49.4,375.98)" d="M0,0L-20,-10V10Z" style="opacity: 0.5; stroke-width: 0px; fill: rgb(51, 0, 255); fill-opacity: 1;"/><path class="point" transform="translate(369,321.25)" d="M0,0L-20,-10V10Z" style="opacity: 0.5; stroke-width: 0px; fill: rgb(51, 0, 255); fill-opacity: 1;"/><path class="point" transform="translate(688.6,238.07)" d="M0,0L-20,-10V10Z" style="opacity: 0.5; stroke-width: 0px; fill: rgb(51, 0, 255); fill-opacity: 1;"/><path class="point" transform="translate(688.6,241.03)" d="M0,0L-20,-10V10Z" style="opacity: 0.5; stroke-width: 0px; fill: rgb(51, 0, 255); fill-opacity: 1;"/><path class="point" transform="translate(688.6,309.38)" d="M0,0L-20,-10V10Z" style="opacity: 0.5; stroke-width: 0px; fill: rgb(51, 0, 255); fill-opacity: 1;"/><path class="point" transform="translate(369,277.73)" d="M0,0L-20,-10V10Z" style="opacity: 0.5; stroke-width: 0px; fill: rgb(51, 0, 255); fill-opacity: 1;"/><path class="point" transform="translate(369,251.4)" d="M0,0L-20,-10V10Z" style="opacity: 0.5; stroke-width: 0px; fill: rgb(51, 0, 255); fill-opacity: 1;"/><path class="point" transform="translate(369,306.3)" d="M0,0L-20,-10V10Z" style="opacity: 0.5; stroke-width: 0px; fill: rgb(51, 0, 255); fill-opacity: 1;"/><path class="point" transform="translate(81.36,363.76)" d="M0,0L-20,-10V10Z" style="opacity: 0.5; stroke-width: 0px; fill: rgb(51, 0, 255); fill-opacity: 1;"/><path class="point" transform="translate(81.36,364.56)" d="M0,0L-20,-10V10Z" style="opacity: 0.5; stroke-width: 0px; fill: rgb(51, 0, 255); fill-opacity: 1;"/><path class="point" transform="translate(81.36,367.34)" d="M0,0L-20,-10V10Z" style="opacity: 0.5; stroke-width: 0px; fill: rgb(51, 0, 255); fill-opacity: 1;"/><path class="point" transform="translate(81.36,371.99)" d="M0,0L-20,-10V10Z" style="opacity: 0.5; stroke-width: 0px; fill: rgb(51, 0, 255); fill-opacity: 1;"/><path class="point" transform="translate(49.4,369.99)" d="M0,0L-20,-10V10Z" style="opacity: 0.5; stroke-width: 0px; fill: rgb(51, 0, 255); fill-opacity: 1;"/><path class="point" transform="translate(49.4,369.39)" d="M0,0L-20,-10V10Z" style="opacity: 0.5; stroke-width: 0px; fill: rgb(51, 0, 255); fill-opacity: 1;"/><path class="point" transform="translate(49.4,374.17)" d="M0,0L-20,-10V10Z" style="opacity: 0.5; stroke-width: 0px; fill: rgb(51, 0, 255); fill-opacity: 1;"/><path class="point" transform="translate(688.6,139.33)" d="M0,0L-20,-10V10Z" style="opacity: 0.5; stroke-width: 0px; fill: rgb(51, 0, 255); fill-opacity: 1;"/><path class="point" transform="translate(688.6,112.71)" d="M0,0L-20,-10V10Z" style="opacity: 0.5; stroke-width: 0px; fill: rgb(51, 0, 255); fill-opacity: 1;"/><path class="point" transform="translate(688.6,83.43)" d="M0,0L-20,-10V10Z" style="opacity: 0.5; stroke-width: 0px; fill: rgb(51, 0, 255); fill-opacity: 1;"/><path class="point" transform="translate(49.4,376.03)" d="M0,0L-20,-10V10Z" style="opacity: 0.5; stroke-width: 0px; fill: rgb(51, 0, 255); fill-opacity: 1;"/><path class="point" transform="translate(49.4,374.91)" d="M0,0L-20,-10V10Z" style="opacity: 0.5; stroke-width: 0px; fill: rgb(51, 0, 255); fill-opacity: 1;"/><path class="point" transform="translate(688.6,76.45)" d="M0,0L-20,-10V10Z" style="opacity: 0.5; stroke-width: 0px; fill: rgb(51, 0, 255); fill-opacity: 1;"/><path class="point" transform="translate(688.6,179.17)" d="M0,0L-20,-10V10Z" style="opacity: 0.5; stroke-width: 0px; fill: rgb(51, 0, 255); fill-opacity: 1;"/><path class="point" transform="translate(688.6,226.92)" d="M0,0L-20,-10V10Z" style="opacity: 0.5; stroke-width: 0px; fill: rgb(51, 0, 255); fill-opacity: 1;"/><path class="point" transform="translate(369,235.69)" d="M0,0L-20,-10V10Z" style="opacity: 0.5; stroke-width: 0px; fill: rgb(51, 0, 255); fill-opacity: 1;"/><path class="point" transform="translate(369,227.82)" d="M0,0L-20,-10V10Z" style="opacity: 0.5; stroke-width: 0px; fill: rgb(51, 0, 255); fill-opacity: 1;"/><path class="point" transform="translate(369,294.74)" d="M0,0L-20,-10V10Z" style="opacity: 0.5; stroke-width: 0px; fill: rgb(51, 0, 255); fill-opacity: 1;"/><path class="point" transform="translate(369,322.89)" d="M0,0L-20,-10V10Z" style="opacity: 0.5; stroke-width: 0px; fill: rgb(51, 0, 255); fill-opacity: 1;"/><path class="point" transform="translate(81.36,361.42)" d="M0,0L-20,-10V10Z" style="opacity: 0.5; stroke-width: 0px; fill: rgb(51, 0, 255); fill-opacity: 1;"/><path class="point" transform="translate(81.36,364.25)" d="M0,0L-20,-10V10Z" style="opacity: 0.5; stroke-width: 0px; fill: rgb(51, 0, 255); fill-opacity: 1;"/><path class="point" transform="translate(81.36,366.9)" d="M0,0L-20,-10V10Z" style="opacity: 0.5; stroke-width: 0px; fill: rgb(51, 0, 255); fill-opacity: 1;"/><path class="point" transform="translate(81.36,369.84)" d="M0,0L-20,-10V10Z" style="opacity: 0.5; stroke-width: 0px; fill: rgb(51, 0, 255); fill-opacity: 1;"/><path class="point" transform="translate(49.4,372.32)" d="M0,0L-20,-10V10Z" style="opacity: 0.5; stroke-width: 0px; fill: rgb(51, 0, 255); fill-opacity: 1;"/><path class="point" transform="translate(49.4,371.94)" d="M0,0L-20,-10V10Z" style="opacity: 0.5; stroke-width: 0px; fill: rgb(51, 0, 255); fill-opacity: 1;"/><path class="point" transform="translate(49.4,374.98)" d="M0,0L-20,-10V10Z" style="opacity: 0.5; stroke-width: 0px; fill: rgb(51, 0, 255); fill-opacity: 1;"/><path class="point" transform="translate(49.4,376.05)" d="M0,0L-20,-10V10Z" style="opacity: 0.5; stroke-width: 0px; fill: rgb(51, 0, 255); fill-opacity: 1;"/><path class="point" transform="translate(688.6,32.95)" d="M0,0L-20,-10V10Z" style="opacity: 0.5; stroke-width: 0px; fill: rgb(51, 0, 255); fill-opacity: 1;"/><path class="point" transform="translate(688.6,64.19)" d="M0,0L-20,-10V10Z" style="opacity: 0.5; stroke-width: 0px; fill: rgb(51, 0, 255); fill-opacity: 1;"/><path class="point" transform="translate(688.6,164.08)" d="M0,0L-20,-10V10Z" style="opacity: 0.5; stroke-width: 0px; fill: rgb(51, 0, 255); fill-opacity: 1;"/><path class="point" transform="translate(688.6,261.11)" d="M0,0L-20,-10V10Z" style="opacity: 0.5; stroke-width: 0px; fill: rgb(51, 0, 255); fill-opacity: 1;"/><path class="point" transform="translate(369,242.16)" d="M0,0L-20,-10V10Z" style="opacity: 0.5; stroke-width: 0px; fill: rgb(51, 0, 255); fill-opacity: 1;"/><path class="point" transform="translate(369,229.68)" d="M0,0L-20,-10V10Z" style="opacity: 0.5; stroke-width: 0px; fill: rgb(51, 0, 255); fill-opacity: 1;"/><path class="point" transform="translate(369,287.41)" d="M0,0L-20,-10V10Z" style="opacity: 0.5; stroke-width: 0px; fill: rgb(51, 0, 255); fill-opacity: 1;"/><path class="point" transform="translate(369,298.43)" d="M0,0L-20,-10V10Z" style="opacity: 0.5; stroke-width: 0px; fill: rgb(51, 0, 255); fill-opacity: 1;"/><path class="point" transform="translate(81.36,362.99)" d="M0,0L-20,-10V10Z" style="opacity: 0.5; stroke-width: 0px; fill: rgb(51, 0, 255); fill-opacity: 1;"/><path class="point" transform="translate(81.36,359.49)" d="M0,0L-20,-10V10Z" style="opacity: 0.5; stroke-width: 0px; fill: rgb(51, 0, 255); fill-opacity: 1;"/><path class="point" transform="translate(81.36,365.65)" d="M0,0L-20,-10V10Z" style="opacity: 0.5; stroke-width: 0px; fill: rgb(51, 0, 255); fill-opacity: 1;"/><path class="point" transform="translate(81.36,371.03)" d="M0,0L-20,-10V10Z" style="opacity: 0.5; stroke-width: 0px; fill: rgb(51, 0, 255); fill-opacity: 1;"/><path class="point" transform="translate(49.4,372.12)" d="M0,0L-20,-10V10Z" style="opacity: 0.5; stroke-width: 0px; fill: rgb(51, 0, 255); fill-opacity: 1;"/><path class="point" transform="translate(49.4,371.72)" d="M0,0L-20,-10V10Z" style="opacity: 0.5; stroke-width: 0px; fill: rgb(51, 0, 255); fill-opacity: 1;"/><path class="point" transform="translate(49.4,375.85)" d="M0,0L-20,-10V10Z" style="opacity: 0.5; stroke-width: 0px; fill: rgb(51, 0, 255); fill-opacity: 1;"/></g><g class="text"/></g></g></g><g class="overplot"/><path class="xlines-above crisp" d="M0,0" style="fill: none;"/><path class="ylines-above crisp" d="M0,0" style="fill: none;"/><g class="overlines-above"/><g class="xaxislayer-above"><g class="xtick"><text text-anchor="middle" x="0" y="500" transform="translate(151.4,0)" style="font-family: CMU; font-size: 30px; fill: rgb(42, 63, 95); fill-opacity: 1; white-space: pre; opacity: 1;">0</text></g><g class="xtick"><text text-anchor="middle" x="0" y="500" style="font-family: CMU; font-size: 30px; fill: rgb(42, 63, 95); fill-opacity: 1; white-space: pre; opacity: 1;" transform="translate(311.2,0)">0.05</text></g><g class="xtick"><text text-anchor="middle" x="0" y="500" style="font-family: CMU; font-size: 30px; fill: rgb(42, 63, 95); fill-opacity: 1; white-space: pre; opacity: 1;" transform="translate(471,0)">0.1</text></g><g class="xtick"><text text-anchor="middle" x="0" y="500" style="font-family: CMU; font-size: 30px; fill: rgb(42, 63, 95); fill-opacity: 1; white-space: pre; opacity: 1;" transform="translate(630.8,0)">0.15</text></g><g class="xtick"><text text-anchor="middle" x="0" y="500" style="font-family: CMU; font-size: 30px; fill: rgb(42, 63, 95); fill-opacity: 1; white-space: pre; opacity: 1;" transform="translate(790.6,0)">0.2</text></g></g><g class="yaxislayer-above"><g class="ytick"><text text-anchor="end" x="101" y="10.5" transform="translate(0,436.4)" style="font-family: CMU; font-size: 30px; fill: rgb(42, 63, 95); fill-opacity: 1; white-space: pre; opacity: 1;">0</text></g><g class="ytick"><text text-anchor="end" x="101" y="10.5" style="font-family: CMU; font-size: 30px; fill: rgb(42, 63, 95); fill-opacity: 1; white-space: pre; opacity: 1;" transform="translate(0,377.78)">0.02</text></g><g class="ytick"><text text-anchor="end" x="101" y="10.5" style="font-family: CMU; font-size: 30px; fill: rgb(42, 63, 95); fill-opacity: 1; white-space: pre; opacity: 1;" transform="translate(0,319.15)">0.04</text></g><g class="ytick"><text text-anchor="end" x="101" y="10.5" style="font-family: CMU; font-size: 30px; fill: rgb(42, 63, 95); fill-opacity: 1; white-space: pre; opacity: 1;" transform="translate(0,260.53)">0.06</text></g><g class="ytick"><text text-anchor="end" x="101" y="10.5" style="font-family: CMU; font-size: 30px; fill: rgb(42, 63, 95); fill-opacity: 1; white-space: pre; opacity: 1;" transform="translate(0,201.91)">0.08</text></g><g class="ytick"><text text-anchor="end" x="101" y="10.5" style="font-family: CMU; font-size: 30px; fill: rgb(42, 63, 95); fill-opacity: 1; white-space: pre; opacity: 1;" transform="translate(0,143.29000000000002)">0.1</text></g><g class="ytick"><text text-anchor="end" x="101" y="10.5" style="font-family: CMU; font-size: 30px; fill: rgb(42, 63, 95); fill-opacity: 1; white-space: pre; opacity: 1;" transform="translate(0,84.67)">0.12</text></g></g><g class="overaxes-above"/></g></g><g class="polarlayer"/><g class="smithlayer"/><g class="ternarylayer"/><g class="geolayer"/><g class="funnelarealayer"/><g class="pielayer"/><g class="iciclelayer"/><g class="treemaplayer"/><g class="sunburstlayer"/><g class="glimages"/><defs id="topdefs-a66d7e"><g class="clips"/><clipPath id="legenda66d7e"><rect width="303" height="141" x="0" y="0"/></clipPath></defs><g class="layer-above"><g class="imagelayer"/><g class="shapelayer"/></g><g class="infolayer"><g class="legend" pointer-events="all" transform="translate(854.76,60)"><rect class="bg" shape-rendering="crispEdges" width="303" height="141" x="0" y="0" style="stroke: rgb(68, 68, 68); stroke-opacity: 1; fill: rgb(255, 255, 255); fill-opacity: 1; stroke-width: 0px;"/><g class="scrollbox" transform="" clip-path="url(#legenda66d7e)"><text class="legendtitletext" text-anchor="start" x="2" y="46.800000000000004" style="font-family: CMU; font-size: 36px; fill: rgb(42, 63, 95); fill-opacity: 1; white-space: pre;">Estimator, Estimator</text><g class="groups" transform=""><g class="traces" transform="translate(0,72.80000000000001)" style="opacity: 1;"><text class="legendtext" text-anchor="start" x="40" y="11.7" style="font-family: CMU; font-size: 30px; fill: rgb(42, 63, 95); fill-opacity: 1; white-space: pre;">Lin2015, Lin2015</text><g class="layers" style="opacity: 1;"><g class="legendfill"/><g class="legendlines"/><g class="legendsymbols"><g class="legendpoints"><path class="scatterpts" transform="translate(20,0)" d="M0,0L16,-8V8Z" style="opacity: 0.5; stroke-width: 0px; fill: rgb(255, 20, 147); fill-opacity: 1;"/></g></g></g><rect class="legendtoggle" x="0" y="-21" width="258.328125" height="42" style="fill: rgb(0, 0, 0); fill-opacity: 0;"/></g></g><g class="groups" transform=""><g class="traces" transform="translate(0,114.80000000000001)" style="opacity: 1;"><text class="legendtext" text-anchor="start" x="40" y="11.7" style="font-family: CMU; font-size: 30px; fill: rgb(42, 63, 95); fill-opacity: 1; white-space: pre;">LLS, LLS</text><g class="layers" style="opacity: 1;"><g class="legendfill"/><g class="legendlines"/><g class="legendsymbols"><g class="legendpoints"><path class="scatterpts" transform="translate(20,0)" d="M0,0L-16,-8V8Z" style="opacity: 0.5; stroke-width: 0px; fill: rgb(51, 0, 255); fill-opacity: 1;"/></g></g></g><rect class="legendtoggle" x="0" y="-21" width="258.328125" height="42" style="fill: rgb(0, 0, 0); fill-opacity: 0;"/></g></g></g><rect class="scrollbar" rx="20" ry="3" width="0" height="0" x="0" y="0" style="fill: rgb(128, 139, 164); fill-opacity: 1;"/></g><g class="g-gtitle"><text class="gtitle" x="58.5" y="30" text-anchor="start" dy="0em" style="font-family: CMU; font-size: 30px; fill: rgb(42, 63, 95); opacity: 1; font-weight: normal; white-space: pre;">model_2 rmsd_geodesic hypersphere</text></g><g class="g-xtitle"><text class="xtitle" x="471" y="542" text-anchor="middle" style="font-family: CMU; font-size: 30px; fill: rgb(42, 63, 95); opacity: 1; font-weight: normal; white-space: pre;">Noise Factor</text></g><g class="g-ytitle" transform="translate(13.5,0)"><text class="ytitle" transform="rotate(-90,13,264.5)" x="13" y="264.5" text-anchor="middle" style="font-family: CMU; font-size: 30px; fill: rgb(42, 63, 95); opacity: 1; font-weight: normal; white-space: pre;">RMSD, geod dist</text></g></g></svg>