<svg class="main-svg" xmlns="http://www.w3.org/2000/svg" xmlns:xlink="http://www.w3.org/1999/xlink" width="650" height="370" style="" viewBox="0 0 650 370"><rect x="0" y="0" width="650" height="370" style="fill: rgb(255, 255, 255); fill-opacity: 1;"/><defs id="defs-e13621"><g class="clips"><clipPath id="clipe13621xyplot" class="plotclip"><rect width="375" height="230"/></clipPath><clipPath class="axesclip" id="clipe13621x"><rect x="80" y="0" width="375" height="370"/></clipPath><clipPath class="axesclip" id="clipe13621y"><rect x="0" y="60" width="650" height="230"/></clipPath><clipPath class="axesclip" id="clipe13621xy"><rect x="80" y="60" width="375" height="230"/></clipPath></g><g class="gradients"/><g class="patterns"/></defs><g class="bglayer"><rect class="bg" x="80" y="60" width="375" height="230" style="fill: rgb(229, 236, 246); fill-opacity: 1; stroke-width: 0;"/></g><g class="layer-below"><g class="imagelayer"/><g class="shapelayer"/></g><g class="cartesianlayer"><g class="subplot xy"><g class="layer-subplot"><g class="shapelayer"/><g class="imagelayer"/></g><g class="minor-gridlayer"><g class="x"/><g class="y"/></g><g class="gridlayer"><g class="x"><path class="xgrid crisp" transform="translate(190.04000000000002,0)" d="M0,60v230" style="stroke: rgb(255, 255, 255); stroke-opacity: 1; stroke-width: 1px;"/><path class="xgrid crisp" transform="translate(276.24,0)" d="M0,60v230" style="stroke: rgb(255, 255, 255); stroke-opacity: 1; stroke-width: 1px;"/><path class="xgrid crisp" transform="translate(362.43,0)" d="M0,60v230" style="stroke: rgb(255, 255, 255); stroke-opacity: 1; stroke-width: 1px;"/><path class="xgrid crisp" transform="translate(448.63,0)" d="M0,60v230" style="stroke: rgb(255, 255, 255); stroke-opacity: 1; stroke-width: 1px;"/></g><g class="y"><path class="ygrid crisp" transform="translate(0,239.92)" d="M80,0h375" style="stroke: rgb(255, 255, 255); stroke-opacity: 1; stroke-width: 1px;"/><path class="ygrid crisp" transform="translate(0,176.3)" d="M80,0h375" style="stroke: rgb(255, 255, 255); stroke-opacity: 1; stroke-width: 1px;"/><path class="ygrid crisp" transform="translate(0,112.69)" d="M80,0h375" style="stroke: rgb(255, 255, 255); stroke-opacity: 1; stroke-width: 1px;"/></g></g><g class="zerolinelayer"><path class="xzl zl crisp" transform="translate(103.85,0)" d="M0,60v230" style="stroke: rgb(255, 255, 255); stroke-opacity: 1; stroke-width: 2px;"/></g><path class="xlines-below"/><path class="ylines-below"/><g class="overlines-below"/><g class="xaxislayer-below"/><g class="yaxislayer-below"/><g class="overaxes-below"/><g class="plot" transform="translate(80,60)" clip-path="url(#clipe13621xyplot)"><g class="scatterlayer mlayer"><g class="trace scatter trace771300" style="stroke-miterlimit: 2; opacity: 1;"><g class="fills"/><g class="errorbars"/><g class="lines"/><g class="points"><path class="point" transform="translate(180.74,82.73)" d="M4.5,4.5H-4.5V-4.5H4.5Z" style="opacity: 0.9; stroke-width: 0px; fill: rgb(46, 145, 229); fill-opacity: 1;"/><path class="point" transform="translate(78.75,124.86)" d="M4.5,4.5H-4.5V-4.5H4.5Z" style="opacity: 0.9; stroke-width: 0px; fill: rgb(46, 145, 229); fill-opacity: 1;"/><path class="point" transform="translate(102.36,111.29)" d="M4.5,4.5H-4.5V-4.5H4.5Z" style="opacity: 0.9; stroke-width: 0px; fill: rgb(46, 145, 229); fill-opacity: 1;"/><path class="point" transform="translate(35.14,119.27)" d="M4.5,4.5H-4.5V-4.5H4.5Z" style="opacity: 0.9; stroke-width: 0px; fill: rgb(46, 145, 229); fill-opacity: 1;"/><path class="point" transform="translate(40.03,147.4)" d="M4.5,4.5H-4.5V-4.5H4.5Z" style="opacity: 0.9; stroke-width: 0px; fill: rgb(46, 145, 229); fill-opacity: 1;"/><path class="point" transform="translate(24.83,173.54)" d="M4.5,4.5H-4.5V-4.5H4.5Z" style="opacity: 0.9; stroke-width: 0px; fill: rgb(46, 145, 229); fill-opacity: 1;"/><path class="point" transform="translate(25.36,191.53)" d="M4.5,4.5H-4.5V-4.5H4.5Z" style="opacity: 0.9; stroke-width: 0px; fill: rgb(46, 145, 229); fill-opacity: 1;"/></g><g class="text"/></g><g class="trace scatter trace3f54f1" style="stroke-miterlimit: 2; opacity: 1;"><g class="fills"/><g class="errorbars"/><g class="lines"/><g class="points"><path class="point" transform="translate(138.3,148.67)" d="M0,2.55l2.55,2.55l2.55,-2.55l-2.55,-2.55l2.55,-2.55l-2.55,-2.55l-2.55,2.55l-2.55,-2.55l-2.55,2.55l2.55,2.55l-2.55,2.55l2.55,2.55Z" style="opacity: 0.9; stroke-width: 0px; fill: rgb(46, 145, 229); fill-opacity: 1;"/><path class="point" transform="translate(190.65,168.23)" d="M0,2.55l2.55,2.55l2.55,-2.55l-2.55,-2.55l2.55,-2.55l-2.55,-2.55l-2.55,2.55l-2.55,-2.55l-2.55,2.55l2.55,2.55l-2.55,2.55l2.55,2.55Z" style="opacity: 0.9; stroke-width: 0px; fill: rgb(46, 145, 229); fill-opacity: 1;"/><path class="point" transform="translate(77.82,147.38)" d="M0,2.55l2.55,2.55l2.55,-2.55l-2.55,-2.55l2.55,-2.55l-2.55,-2.55l-2.55,2.55l-2.55,-2.55l-2.55,2.55l2.55,2.55l-2.55,2.55l2.55,2.55Z" style="opacity: 0.9; stroke-width: 0px; fill: rgb(46, 145, 229); fill-opacity: 1;"/><path class="point" transform="translate(109.06,145.53)" d="M0,2.55l2.55,2.55l2.55,-2.55l-2.55,-2.55l2.55,-2.55l-2.55,-2.55l-2.55,2.55l-2.55,-2.55l-2.55,2.55l2.55,2.55l-2.55,2.55l2.55,2.55Z" style="opacity: 0.9; stroke-width: 0px; fill: rgb(46, 145, 229); fill-opacity: 1;"/><path class="point" transform="translate(34.88,189.94)" d="M0,2.55l2.55,2.55l2.55,-2.55l-2.55,-2.55l2.55,-2.55l-2.55,-2.55l-2.55,2.55l-2.55,-2.55l-2.55,2.55l2.55,2.55l-2.55,2.55l2.55,2.55Z" style="opacity: 0.9; stroke-width: 0px; fill: rgb(46, 145, 229); fill-opacity: 1;"/><path class="point" transform="translate(39.48,175.78)" d="M0,2.55l2.55,2.55l2.55,-2.55l-2.55,-2.55l2.55,-2.55l-2.55,-2.55l-2.55,2.55l-2.55,-2.55l-2.55,2.55l2.55,2.55l-2.55,2.55l2.55,2.55Z" style="opacity: 0.9; stroke-width: 0px; fill: rgb(46, 145, 229); fill-opacity: 1;"/><path class="point" transform="translate(24.92,210.03)" d="M0,2.55l2.55,2.55l2.55,-2.55l-2.55,-2.55l2.55,-2.55l-2.55,-2.55l-2.55,2.55l-2.55,-2.55l-2.55,2.55l2.55,2.55l-2.55,2.55l2.55,2.55Z" style="opacity: 0.9; stroke-width: 0px; fill: rgb(46, 145, 229); fill-opacity: 1;"/><path class="point" transform="translate(25.52,203.16)" d="M0,2.55l2.55,2.55l2.55,-2.55l-2.55,-2.55l2.55,-2.55l-2.55,-2.55l-2.55,2.55l-2.55,-2.55l-2.55,2.55l2.55,2.55l-2.55,2.55l2.55,2.55Z" style="opacity: 0.9; stroke-width: 0px; fill: rgb(46, 145, 229); fill-opacity: 1;"/></g><g class="text"/></g><g class="trace scatter tracefd29ce" style="stroke-miterlimit: 2; opacity: 1;"><g class="fills"/><g class="errorbars"/><g class="lines"/><g class="points"><path class="point" transform="translate(76.26,17.12)" d="M5.4,1.8H1.8V5.4H-1.8V1.8H-5.4V-1.8H-1.8V-5.4H1.8V-1.8H5.4Z" style="opacity: 0.9; stroke-width: 0px; fill: rgb(46, 145, 229); fill-opacity: 1;"/><path class="point" transform="translate(104.03,124.07)" d="M5.4,1.8H1.8V5.4H-1.8V1.8H-5.4V-1.8H-1.8V-5.4H1.8V-1.8H5.4Z" style="opacity: 0.9; stroke-width: 0px; fill: rgb(46, 145, 229); fill-opacity: 1;"/><path class="point" transform="translate(35.07,210.76)" d="M5.4,1.8H1.8V5.4H-1.8V1.8H-5.4V-1.8H-1.8V-5.4H1.8V-1.8H5.4Z" style="opacity: 0.9; stroke-width: 0px; fill: rgb(46, 145, 229); fill-opacity: 1;"/><path class="point" transform="translate(39.42,118.92)" d="M5.4,1.8H1.8V5.4H-1.8V1.8H-5.4V-1.8H-1.8V-5.4H1.8V-1.8H5.4Z" style="opacity: 0.9; stroke-width: 0px; fill: rgb(46, 145, 229); fill-opacity: 1;"/><path class="point" transform="translate(24.94,110.99)" d="M5.4,1.8H1.8V5.4H-1.8V1.8H-5.4V-1.8H-1.8V-5.4H1.8V-1.8H5.4Z" style="opacity: 0.9; stroke-width: 0px; fill: rgb(46, 145, 229); fill-opacity: 1;"/><path class="point" transform="translate(25.44,138.66)" d="M5.4,1.8H1.8V5.4H-1.8V1.8H-5.4V-1.8H-1.8V-5.4H1.8V-1.8H5.4Z" style="opacity: 0.9; stroke-width: 0px; fill: rgb(46, 145, 229); fill-opacity: 1;"/></g><g class="text"/></g><g class="trace scatter trace06eb2f" style="stroke-miterlimit: 2; opacity: 1;"><g class="fills"/><g class="errorbars"/><g class="lines"/><g class="points"><path class="point" transform="translate(221.94,79.79)" d="M4.5,4.5H-4.5V-4.5H4.5Z" style="opacity: 0.9; stroke-width: 0px; fill: rgb(225, 95, 153); fill-opacity: 1;"/><path class="point" transform="translate(350.63,103.15)" d="M4.5,4.5H-4.5V-4.5H4.5Z" style="opacity: 0.9; stroke-width: 0px; fill: rgb(225, 95, 153); fill-opacity: 1;"/><path class="point" transform="translate(120.36,162.32)" d="M4.5,4.5H-4.5V-4.5H4.5Z" style="opacity: 0.9; stroke-width: 0px; fill: rgb(225, 95, 153); fill-opacity: 1;"/><path class="point" transform="translate(173.39,161.86)" d="M4.5,4.5H-4.5V-4.5H4.5Z" style="opacity: 0.9; stroke-width: 0px; fill: rgb(225, 95, 153); fill-opacity: 1;"/><path class="point" transform="translate(45.52,169.87)" d="M4.5,4.5H-4.5V-4.5H4.5Z" style="opacity: 0.9; stroke-width: 0px; fill: rgb(225, 95, 153); fill-opacity: 1;"/><path class="point" transform="translate(51.38,152.18)" d="M4.5,4.5H-4.5V-4.5H4.5Z" style="opacity: 0.9; stroke-width: 0px; fill: rgb(225, 95, 153); fill-opacity: 1;"/><path class="point" transform="translate(26.13,139.32)" d="M4.5,4.5H-4.5V-4.5H4.5Z" style="opacity: 0.9; stroke-width: 0px; fill: rgb(225, 95, 153); fill-opacity: 1;"/><path class="point" transform="translate(27.39,173.81)" d="M4.5,4.5H-4.5V-4.5H4.5Z" style="opacity: 0.9; stroke-width: 0px; fill: rgb(225, 95, 153); fill-opacity: 1;"/></g><g class="text"/></g><g class="trace scatter tracebd4e91" style="stroke-miterlimit: 2; opacity: 1;"><g class="fills"/><g class="errorbars"/><g class="lines"/><g class="points"><path class="point" transform="translate(195.39,166.43)" d="M0,2.55l2.55,2.55l2.55,-2.55l-2.55,-2.55l2.55,-2.55l-2.55,-2.55l-2.55,2.55l-2.55,-2.55l-2.55,2.55l2.55,2.55l-2.55,2.55l2.55,2.55Z" style="opacity: 0.9; stroke-width: 0px; fill: rgb(225, 95, 153); fill-opacity: 1;"/><path class="point" transform="translate(312.9,183.86)" d="M0,2.55l2.55,2.55l2.55,-2.55l-2.55,-2.55l2.55,-2.55l-2.55,-2.55l-2.55,2.55l-2.55,-2.55l-2.55,2.55l2.55,2.55l-2.55,2.55l2.55,2.55Z" style="opacity: 0.9; stroke-width: 0px; fill: rgb(225, 95, 153); fill-opacity: 1;"/><path class="point" transform="translate(133.36,177.09)" d="M0,2.55l2.55,2.55l2.55,-2.55l-2.55,-2.55l2.55,-2.55l-2.55,-2.55l-2.55,2.55l-2.55,-2.55l-2.55,2.55l2.55,2.55l-2.55,2.55l2.55,2.55Z" style="opacity: 0.9; stroke-width: 0px; fill: rgb(225, 95, 153); fill-opacity: 1;"/><path class="point" transform="translate(165.53,47.66)" d="M0,2.55l2.55,2.55l2.55,-2.55l-2.55,-2.55l2.55,-2.55l-2.55,-2.55l-2.55,2.55l-2.55,-2.55l-2.55,2.55l2.55,2.55l-2.55,2.55l2.55,2.55Z" style="opacity: 0.9; stroke-width: 0px; fill: rgb(225, 95, 153); fill-opacity: 1;"/><path class="point" transform="translate(45.34,194.53)" d="M0,2.55l2.55,2.55l2.55,-2.55l-2.55,-2.55l2.55,-2.55l-2.55,-2.55l-2.55,2.55l-2.55,-2.55l-2.55,2.55l2.55,2.55l-2.55,2.55l2.55,2.55Z" style="opacity: 0.9; stroke-width: 0px; fill: rgb(225, 95, 153); fill-opacity: 1;"/><path class="point" transform="translate(54.69,168.09)" d="M0,2.55l2.55,2.55l2.55,-2.55l-2.55,-2.55l2.55,-2.55l-2.55,-2.55l-2.55,2.55l-2.55,-2.55l-2.55,2.55l2.55,2.55l-2.55,2.55l2.55,2.55Z" style="opacity: 0.9; stroke-width: 0px; fill: rgb(225, 95, 153); fill-opacity: 1;"/><path class="point" transform="translate(25.82,194.88)" d="M0,2.55l2.55,2.55l2.55,-2.55l-2.55,-2.55l2.55,-2.55l-2.55,-2.55l-2.55,2.55l-2.55,-2.55l-2.55,2.55l2.55,2.55l-2.55,2.55l2.55,2.55Z" style="opacity: 0.9; stroke-width: 0px; fill: rgb(225, 95, 153); fill-opacity: 1;"/><path class="point" transform="translate(27.3,212.88)" d="M0,2.55l2.55,2.55l2.55,-2.55l-2.55,-2.55l2.55,-2.55l-2.55,-2.55l-2.55,2.55l-2.55,-2.55l-2.55,2.55l2.55,2.55l-2.55,2.55l2.55,2.55Z" style="opacity: 0.9; stroke-width: 0px; fill: rgb(225, 95, 153); fill-opacity: 1;"/></g><g class="text"/></g><g class="trace scatter trace6b9b6f" style="stroke-miterlimit: 2; opacity: 1;"><g class="fills"/><g class="errorbars"/><g class="lines"/><g class="points"><path class="point" transform="translate(133.99,70.58)" d="M5.4,1.8H1.8V5.4H-1.8V1.8H-5.4V-1.8H-1.8V-5.4H1.8V-1.8H5.4Z" style="opacity: 0.9; stroke-width: 0px; fill: rgb(225, 95, 153); fill-opacity: 1;"/><path class="point" transform="translate(167.37,69.63)" d="M5.4,1.8H1.8V5.4H-1.8V1.8H-5.4V-1.8H-1.8V-5.4H1.8V-1.8H5.4Z" style="opacity: 0.9; stroke-width: 0px; fill: rgb(225, 95, 153); fill-opacity: 1;"/><path class="point" transform="translate(44.7,118.06)" d="M5.4,1.8H1.8V5.4H-1.8V1.8H-5.4V-1.8H-1.8V-5.4H1.8V-1.8H5.4Z" style="opacity: 0.9; stroke-width: 0px; fill: rgb(225, 95, 153); fill-opacity: 1;"/><path class="point" transform="translate(54.31,104.26)" d="M5.4,1.8H1.8V5.4H-1.8V1.8H-5.4V-1.8H-1.8V-5.4H1.8V-1.8H5.4Z" style="opacity: 0.9; stroke-width: 0px; fill: rgb(225, 95, 153); fill-opacity: 1;"/><path class="point" transform="translate(25.92,65.26)" d="M5.4,1.8H1.8V5.4H-1.8V1.8H-5.4V-1.8H-1.8V-5.4H1.8V-1.8H5.4Z" style="opacity: 0.9; stroke-width: 0px; fill: rgb(225, 95, 153); fill-opacity: 1;"/><path class="point" transform="translate(26.69,132.06)" d="M5.4,1.8H1.8V5.4H-1.8V1.8H-5.4V-1.8H-1.8V-5.4H1.8V-1.8H5.4Z" style="opacity: 0.9; stroke-width: 0px; fill: rgb(225, 95, 153); fill-opacity: 1;"/></g><g class="text"/></g><g class="trace scatter traceab2250" style="stroke-miterlimit: 2; opacity: 1;"><g class="fills"/><g class="errorbars"/><g class="lines"/><g class="points"><path class="point" transform="translate(51.3,154.03)" d="M4.5,4.5H-4.5V-4.5H4.5Z" style="opacity: 0.9; stroke-width: 0px; fill: rgb(28, 167, 28); fill-opacity: 1;"/><path class="point" transform="translate(63.35,140.18)" d="M4.5,4.5H-4.5V-4.5H4.5Z" style="opacity: 0.9; stroke-width: 0px; fill: rgb(28, 167, 28); fill-opacity: 1;"/><path class="point" transform="translate(29.42,167.28)" d="M4.5,4.5H-4.5V-4.5H4.5Z" style="opacity: 0.9; stroke-width: 0px; fill: rgb(28, 167, 28); fill-opacity: 1;"/><path class="point" transform="translate(32.03,158.47)" d="M4.5,4.5H-4.5V-4.5H4.5Z" style="opacity: 0.9; stroke-width: 0px; fill: rgb(28, 167, 28); fill-opacity: 1;"/><path class="point" transform="translate(24.38,187.09)" d="M4.5,4.5H-4.5V-4.5H4.5Z" style="opacity: 0.9; stroke-width: 0px; fill: rgb(28, 167, 28); fill-opacity: 1;"/><path class="point" transform="translate(24.64,195.62)" d="M4.5,4.5H-4.5V-4.5H4.5Z" style="opacity: 0.9; stroke-width: 0px; fill: rgb(28, 167, 28); fill-opacity: 1;"/></g><g class="text"/></g><g class="trace scatter trace5bd368" style="stroke-miterlimit: 2; opacity: 1;"><g class="fills"/><g class="errorbars"/><g class="lines"/><g class="points"><path class="point" transform="translate(80.47,182.08)" d="M0,2.55l2.55,2.55l2.55,-2.55l-2.55,-2.55l2.55,-2.55l-2.55,-2.55l-2.55,2.55l-2.55,-2.55l-2.55,2.55l2.55,2.55l-2.55,2.55l2.55,2.55Z" style="opacity: 0.9; stroke-width: 0px; fill: rgb(28, 167, 28); fill-opacity: 1;"/><path class="point" transform="translate(106.1,133.79)" d="M0,2.55l2.55,2.55l2.55,-2.55l-2.55,-2.55l2.55,-2.55l-2.55,-2.55l-2.55,2.55l-2.55,-2.55l-2.55,2.55l2.55,2.55l-2.55,2.55l2.55,2.55Z" style="opacity: 0.9; stroke-width: 0px; fill: rgb(28, 167, 28); fill-opacity: 1;"/><path class="point" transform="translate(51.24,166.19)" d="M0,2.55l2.55,2.55l2.55,-2.55l-2.55,-2.55l2.55,-2.55l-2.55,-2.55l-2.55,2.55l-2.55,-2.55l-2.55,2.55l2.55,2.55l-2.55,2.55l2.55,2.55Z" style="opacity: 0.9; stroke-width: 0px; fill: rgb(28, 167, 28); fill-opacity: 1;"/><path class="point" transform="translate(66.23,130.52)" d="M0,2.55l2.55,2.55l2.55,-2.55l-2.55,-2.55l2.55,-2.55l-2.55,-2.55l-2.55,2.55l-2.55,-2.55l-2.55,2.55l2.55,2.55l-2.55,2.55l2.55,2.55Z" style="opacity: 0.9; stroke-width: 0px; fill: rgb(28, 167, 28); fill-opacity: 1;"/><path class="point" transform="translate(29.33,209.75)" d="M0,2.55l2.55,2.55l2.55,-2.55l-2.55,-2.55l2.55,-2.55l-2.55,-2.55l-2.55,2.55l-2.55,-2.55l-2.55,2.55l2.55,2.55l-2.55,2.55l2.55,2.55Z" style="opacity: 0.9; stroke-width: 0px; fill: rgb(28, 167, 28); fill-opacity: 1;"/><path class="point" transform="translate(31.78,189.47)" d="M0,2.55l2.55,2.55l2.55,-2.55l-2.55,-2.55l2.55,-2.55l-2.55,-2.55l-2.55,2.55l-2.55,-2.55l-2.55,2.55l2.55,2.55l-2.55,2.55l2.55,2.55Z" style="opacity: 0.9; stroke-width: 0px; fill: rgb(28, 167, 28); fill-opacity: 1;"/><path class="point" transform="translate(24.38,204.63)" d="M0,2.55l2.55,2.55l2.55,-2.55l-2.55,-2.55l2.55,-2.55l-2.55,-2.55l-2.55,2.55l-2.55,-2.55l-2.55,2.55l2.55,2.55l-2.55,2.55l2.55,2.55Z" style="opacity: 0.9; stroke-width: 0px; fill: rgb(28, 167, 28); fill-opacity: 1;"/><path class="point" transform="translate(24.65,204.85)" d="M0,2.55l2.55,2.55l2.55,-2.55l-2.55,-2.55l2.55,-2.55l-2.55,-2.55l-2.55,2.55l-2.55,-2.55l-2.55,2.55l2.55,2.55l-2.55,2.55l2.55,2.55Z" style="opacity: 0.9; stroke-width: 0px; fill: rgb(28, 167, 28); fill-opacity: 1;"/></g><g class="text"/></g><g class="trace scatter trace6c35cb" style="stroke-miterlimit: 2; opacity: 1;"><g class="fills"/><g class="errorbars"/><g class="lines"/><g class="points"><path class="point" transform="translate(50.48,123.63)" d="M5.4,1.8H1.8V5.4H-1.8V1.8H-5.4V-1.8H-1.8V-5.4H1.8V-1.8H5.4Z" style="opacity: 0.9; stroke-width: 0px; fill: rgb(28, 167, 28); fill-opacity: 1;"/><path class="point" transform="translate(64.56,85.96)" d="M5.4,1.8H1.8V5.4H-1.8V1.8H-5.4V-1.8H-1.8V-5.4H1.8V-1.8H5.4Z" style="opacity: 0.9; stroke-width: 0px; fill: rgb(28, 167, 28); fill-opacity: 1;"/><path class="point" transform="translate(29.49,119.26)" d="M5.4,1.8H1.8V5.4H-1.8V1.8H-5.4V-1.8H-1.8V-5.4H1.8V-1.8H5.4Z" style="opacity: 0.9; stroke-width: 0px; fill: rgb(28, 167, 28); fill-opacity: 1;"/><path class="point" transform="translate(31.87,89.67)" d="M5.4,1.8H1.8V5.4H-1.8V1.8H-5.4V-1.8H-1.8V-5.4H1.8V-1.8H5.4Z" style="opacity: 0.9; stroke-width: 0px; fill: rgb(28, 167, 28); fill-opacity: 1;"/><path class="point" transform="translate(24.4,114.23)" d="M5.4,1.8H1.8V5.4H-1.8V1.8H-5.4V-1.8H-1.8V-5.4H1.8V-1.8H5.4Z" style="opacity: 0.9; stroke-width: 0px; fill: rgb(28, 167, 28); fill-opacity: 1;"/><path class="point" transform="translate(24.62,175.24)" d="M5.4,1.8H1.8V5.4H-1.8V1.8H-5.4V-1.8H-1.8V-5.4H1.8V-1.8H5.4Z" style="opacity: 0.9; stroke-width: 0px; fill: rgb(28, 167, 28); fill-opacity: 1;"/></g><g class="text"/></g></g></g><g class="overplot"/><path class="xlines-above crisp" d="M0,0" style="fill: none;"/><path class="ylines-above crisp" d="M0,0" style="fill: none;"/><g class="overlines-above"/><g class="xaxislayer-above"><g class="xtick"><text text-anchor="middle" x="0" y="306" transform="translate(103.85,0)" style="font-family: CMU; font-size: 15px; fill: rgb(42, 63, 95); fill-opacity: 1; white-space: pre; opacity: 1;">0</text></g><g class="xtick"><text text-anchor="middle" x="0" y="306" style="font-family: CMU; font-size: 15px; fill: rgb(42, 63, 95); fill-opacity: 1; white-space: pre; opacity: 1;" transform="translate(190.04000000000002,0)">2</text></g><g class="xtick"><text text-anchor="middle" x="0" y="306" style="font-family: CMU; font-size: 15px; fill: rgb(42, 63, 95); fill-opacity: 1; white-space: pre; opacity: 1;" transform="translate(276.24,0)">4</text></g><g class="xtick"><text text-anchor="middle" x="0" y="306" style="font-family: CMU; font-size: 15px; fill: rgb(42, 63, 95); fill-opacity: 1; white-space: pre; opacity: 1;" transform="translate(362.43,0)">6</text></g><g class="xtick"><text text-anchor="middle" x="0" y="306" style="font-family: CMU; font-size: 15px; fill: rgb(42, 63, 95); fill-opacity: 1; white-space: pre; opacity: 1;" transform="translate(448.63,0)">8</text></g></g><g class="yaxislayer-above"><g class="ytick"><text text-anchor="end" x="79" y="5.25" transform="translate(0,239.92)" style="font-family: CMU; font-size: 15px; fill: rgb(42, 63, 95); fill-opacity: 1; white-space: pre; opacity: 1;">5k</text></g><g class="ytick"><text text-anchor="end" x="79" y="5.25" style="font-family: CMU; font-size: 15px; fill: rgb(42, 63, 95); fill-opacity: 1; white-space: pre; opacity: 1;" transform="translate(0,176.3)">10k</text></g><g class="ytick"><text text-anchor="end" x="79" y="5.25" style="font-family: CMU; font-size: 15px; fill: rgb(42, 63, 95); fill-opacity: 1; white-space: pre; opacity: 1;" transform="translate(0,112.69)">15k</text></g></g><g class="overaxes-above"/></g></g><g class="polarlayer"/><g class="smithlayer"/><g class="ternarylayer"/><g class="geolayer"/><g class="funnelarealayer"/><g class="pielayer"/><g class="iciclelayer"/><g class="treemaplayer"/><g class="sunburstlayer"/><g class="glimages"/><defs id="topdefs-e13621"><g class="clips"/><clipPath id="legende13621"><rect width="175" height="230" x="0" y="0"/></clipPath></defs><g class="layer-above"><g class="imagelayer"/><g class="shapelayer"/></g><g class="infolayer"><g class="legend" pointer-events="all" transform="translate(462.5,60)"><rect class="bg" shape-rendering="crispEdges" width="175" height="230" x="0" y="0" style="stroke: rgb(68, 68, 68); stroke-opacity: 1; fill: rgb(255, 255, 255); fill-opacity: 1; stroke-width: 0px;"/><g class="scrollbox" transform="" clip-path="url(#legende13621)"><text class="legendtitletext" text-anchor="start" x="2" y="23.400000000000002" style="font-family: CMU; font-size: 18px; fill: rgb(42, 63, 95); fill-opacity: 1; white-space: pre;">Number of vertices</text><g class="groups" transform=""><g class="traces" transform="translate(0,39.650000000000006)" style="opacity: 1;"><text class="legendtext" text-anchor="start" x="40" y="5.85" style="font-family: CMU; font-size: 15px; fill: rgb(42, 63, 95); fill-opacity: 1; white-space: pre;">162, 5</text><g class="layers" style="opacity: 1;"><g class="legendfill"/><g class="legendlines"/><g class="legendsymbols"><g class="legendpoints"><path class="scatterpts" transform="translate(20,0)" d="M4.5,4.5H-4.5V-4.5H4.5Z" style="opacity: 0.9; stroke-width: 0px; fill: rgb(46, 145, 229); fill-opacity: 1;"/></g></g></g><rect class="legendtoggle" x="0" y="-11.25" width="90" height="22.5" style="fill: rgb(0, 0, 0); fill-opacity: 0;"/></g></g><g class="groups" transform=""><g class="traces" transform="translate(0,62.150000000000006)" style="opacity: 1;"><text class="legendtext" text-anchor="start" x="40" y="5.85" style="font-family: CMU; font-size: 15px; fill: rgb(42, 63, 95); fill-opacity: 1; white-space: pre;">162, 3</text><g class="layers" style="opacity: 1;"><g class="legendfill"/><g class="legendlines"/><g class="legendsymbols"><g class="legendpoints"><path class="scatterpts" transform="translate(20,0)" d="M0,2.55l2.55,2.55l2.55,-2.55l-2.55,-2.55l2.55,-2.55l-2.55,-2.55l-2.55,2.55l-2.55,-2.55l-2.55,2.55l2.55,2.55l-2.55,2.55l2.55,2.55Z" style="opacity: 0.9; stroke-width: 0px; fill: rgb(46, 145, 229); fill-opacity: 1;"/></g></g></g><rect class="legendtoggle" x="0" y="-11.25" width="90" height="22.5" style="fill: rgb(0, 0, 0); fill-opacity: 0;"/></g></g><g class="groups" transform=""><g class="traces" transform="translate(0,84.65)" style="opacity: 1;"><text class="legendtext" text-anchor="start" x="40" y="5.85" style="font-family: CMU; font-size: 15px; fill: rgb(42, 63, 95); fill-opacity: 1; white-space: pre;">162, 8</text><g class="layers" style="opacity: 1;"><g class="legendfill"/><g class="legendlines"/><g class="legendsymbols"><g class="legendpoints"><path class="scatterpts" transform="translate(20,0)" d="M5.4,1.8H1.8V5.4H-1.8V1.8H-5.4V-1.8H-1.8V-5.4H1.8V-1.8H5.4Z" style="opacity: 0.9; stroke-width: 0px; fill: rgb(46, 145, 229); fill-opacity: 1;"/></g></g></g><rect class="legendtoggle" x="0" y="-11.25" width="90" height="22.5" style="fill: rgb(0, 0, 0); fill-opacity: 0;"/></g></g><g class="groups" transform=""><g class="traces" transform="translate(0,107.15)" style="opacity: 1;"><text class="legendtext" text-anchor="start" x="40" y="5.85" style="font-family: CMU; font-size: 15px; fill: rgb(42, 63, 95); fill-opacity: 1; white-space: pre;">42, 5</text><g class="layers" style="opacity: 1;"><g class="legendfill"/><g class="legendlines"/><g class="legendsymbols"><g class="legendpoints"><path class="scatterpts" transform="translate(20,0)" d="M4.5,4.5H-4.5V-4.5H4.5Z" style="opacity: 0.9; stroke-width: 0px; fill: rgb(225, 95, 153); fill-opacity: 1;"/></g></g></g><rect class="legendtoggle" x="0" y="-11.25" width="90" height="22.5" style="fill: rgb(0, 0, 0); fill-opacity: 0;"/></g></g><g class="groups" transform=""><g class="traces" transform="translate(0,129.65)" style="opacity: 1;"><text class="legendtext" text-anchor="start" x="40" y="5.85" style="font-family: CMU; font-size: 15px; fill: rgb(42, 63, 95); fill-opacity: 1; white-space: pre;">42, 3</text><g class="layers" style="opacity: 1;"><g class="legendfill"/><g class="legendlines"/><g class="legendsymbols"><g class="legendpoints"><path class="scatterpts" transform="translate(20,0)" d="M0,2.55l2.55,2.55l2.55,-2.55l-2.55,-2.55l2.55,-2.55l-2.55,-2.55l-2.55,2.55l-2.55,-2.55l-2.55,2.55l2.55,2.55l-2.55,2.55l2.55,2.55Z" style="opacity: 0.9; stroke-width: 0px; fill: rgb(225, 95, 153); fill-opacity: 1;"/></g></g></g><rect class="legendtoggle" x="0" y="-11.25" width="90" height="22.5" style="fill: rgb(0, 0, 0); fill-opacity: 0;"/></g></g><g class="groups" transform=""><g class="traces" transform="translate(0,152.15)" style="opacity: 1;"><text class="legendtext" text-anchor="start" x="40" y="5.85" style="font-family: CMU; font-size: 15px; fill: rgb(42, 63, 95); fill-opacity: 1; white-space: pre;">42, 8</text><g class="layers" style="opacity: 1;"><g class="legendfill"/><g class="legendlines"/><g class="legendsymbols"><g class="legendpoints"><path class="scatterpts" transform="translate(20,0)" d="M5.4,1.8H1.8V5.4H-1.8V1.8H-5.4V-1.8H-1.8V-5.4H1.8V-1.8H5.4Z" style="opacity: 0.9; stroke-width: 0px; fill: rgb(225, 95, 153); fill-opacity: 1;"/></g></g></g><rect class="legendtoggle" x="0" y="-11.25" width="90" height="22.5" style="fill: rgb(0, 0, 0); fill-opacity: 0;"/></g></g><g class="groups" transform=""><g class="traces" transform="translate(0,174.65)" style="opacity: 1;"><text class="legendtext" text-anchor="start" x="40" y="5.85" style="font-family: CMU; font-size: 15px; fill: rgb(42, 63, 95); fill-opacity: 1; white-space: pre;">642, 5</text><g class="layers" style="opacity: 1;"><g class="legendfill"/><g class="legendlines"/><g class="legendsymbols"><g class="legendpoints"><path class="scatterpts" transform="translate(20,0)" d="M4.5,4.5H-4.5V-4.5H4.5Z" style="opacity: 0.9; stroke-width: 0px; fill: rgb(28, 167, 28); fill-opacity: 1;"/></g></g></g><rect class="legendtoggle" x="0" y="-11.25" width="90" height="22.5" style="fill: rgb(0, 0, 0); fill-opacity: 0;"/></g></g><g class="groups" transform=""><g class="traces" transform="translate(0,197.15)" style="opacity: 1;"><text class="legendtext" text-anchor="start" x="40" y="5.85" style="font-family: CMU; font-size: 15px; fill: rgb(42, 63, 95); fill-opacity: 1; white-space: pre;">642, 3</text><g class="layers" style="opacity: 1;"><g class="legendfill"/><g class="legendlines"/><g class="legendsymbols"><g class="legendpoints"><path class="scatterpts" transform="translate(20,0)" d="M0,2.55l2.55,2.55l2.55,-2.55l-2.55,-2.55l2.55,-2.55l-2.55,-2.55l-2.55,2.55l-2.55,-2.55l-2.55,2.55l2.55,2.55l-2.55,2.55l2.55,2.55Z" style="opacity: 0.9; stroke-width: 0px; fill: rgb(28, 167, 28); fill-opacity: 1;"/></g></g></g><rect class="legendtoggle" x="0" y="-11.25" width="90" height="22.5" style="fill: rgb(0, 0, 0); fill-opacity: 0;"/></g></g><g class="groups" transform=""><g class="traces" transform="translate(0,219.65)" style="opacity: 1;"><text class="legendtext" text-anchor="start" x="40" y="5.85" style="font-family: CMU; font-size: 15px; fill: rgb(42, 63, 95); fill-opacity: 1; white-space: pre;">642, 8</text><g class="layers" style="opacity: 1;"><g class="legendfill"/><g class="legendlines"/><g class="legendsymbols"><g class="legendpoints"><path class="scatterpts" transform="translate(20,0)" d="M5.4,1.8H1.8V5.4H-1.8V1.8H-5.4V-1.8H-1.8V-5.4H1.8V-1.8H5.4Z" style="opacity: 0.9; stroke-width: 0px; fill: rgb(28, 167, 28); fill-opacity: 1;"/></g></g></g><rect class="legendtoggle" x="0" y="-11.25" width="90" height="22.5" style="fill: rgb(0, 0, 0); fill-opacity: 0;"/></g></g></g><rect class="scrollbar" rx="20" ry="3" width="0" height="0" x="0" y="0" style="fill: rgb(128, 139, 164); fill-opacity: 1;"/></g><g class="g-gtitle"/><g class="g-xtitle"><text class="xtitle" x="267.5" y="335" text-anchor="middle" style="font-family: CMU; font-size: 15px; fill: rgb(42, 63, 95); opacity: 1; font-weight: normal; white-space: pre;">Mesh distance per vertex [% diameter]</text></g><g class="g-ytitle"><text class="ytitle" transform="rotate(-90,25,175)" x="25" y="175" text-anchor="middle" style="font-family: CMU; font-size: 15px; fill: rgb(42, 63, 95); opacity: 1; font-weight: normal; white-space: pre;">Time difference per vertex [% line]</text></g></g></svg>