<svg class="main-svg" xmlns="http://www.w3.org/2000/svg" xmlns:xlink="http://www.w3.org/1999/xlink" width="650" height="370" style="" viewBox="0 0 650 370"><rect x="0" y="0" width="650" height="370" style="fill: rgb(255, 255, 255); fill-opacity: 1;"/><defs id="defs-06079d"><g class="clips"><clipPath id="clip06079dxyplot" class="plotclip"><rect width="399" height="230"/></clipPath><clipPath class="axesclip" id="clip06079dx"><rect x="80" y="0" width="399" height="370"/></clipPath><clipPath class="axesclip" id="clip06079dy"><rect x="0" y="60" width="650" height="230"/></clipPath><clipPath class="axesclip" id="clip06079dxy"><rect x="80" y="60" width="399" height="230"/></clipPath></g><g class="gradients"/><g class="patterns"/></defs><g class="bglayer"><rect class="bg" x="80" y="60" width="399" height="230" style="fill: rgb(229, 236, 246); fill-opacity: 1; stroke-width: 0;"/></g><g class="layer-below"><g class="imagelayer"/><g class="shapelayer"/></g><g class="cartesianlayer"><g class="subplot xy"><g class="layer-subplot"><g class="shapelayer"/><g class="imagelayer"/></g><g class="minor-gridlayer"><g class="x"/><g class="y"/></g><g class="gridlayer"><g class="x"><path class="xgrid crisp" transform="translate(199.49,0)" d="M0,60v230" style="stroke: rgb(255, 255, 255); stroke-opacity: 1; stroke-width: 1px;"/><path class="xgrid crisp" transform="translate(293.4,0)" d="M0,60v230" style="stroke: rgb(255, 255, 255); stroke-opacity: 1; stroke-width: 1px;"/><path class="xgrid crisp" transform="translate(387.32,0)" d="M0,60v230" style="stroke: rgb(255, 255, 255); stroke-opacity: 1; stroke-width: 1px;"/></g><g class="y"><path class="ygrid crisp" transform="translate(0,222.83)" d="M80,0h399" style="stroke: rgb(255, 255, 255); stroke-opacity: 1; stroke-width: 1px;"/><path class="ygrid crisp" transform="translate(0,170.2)" d="M80,0h399" style="stroke: rgb(255, 255, 255); stroke-opacity: 1; stroke-width: 1px;"/><path class="ygrid crisp" transform="translate(0,117.57)" d="M80,0h399" style="stroke: rgb(255, 255, 255); stroke-opacity: 1; stroke-width: 1px;"/><path class="ygrid crisp" transform="translate(0,64.94)" d="M80,0h399" style="stroke: rgb(255, 255, 255); stroke-opacity: 1; stroke-width: 1px;"/></g></g><g class="zerolinelayer"><path class="xzl zl crisp" transform="translate(105.57,0)" d="M0,60v230" style="stroke: rgb(255, 255, 255); stroke-opacity: 1; stroke-width: 2px;"/><path class="yzl zl crisp" transform="translate(0,275.46000000000004)" d="M80,0h399" style="stroke: rgb(255, 255, 255); stroke-opacity: 1; stroke-width: 2px;"/></g><path class="xlines-below"/><path class="ylines-below"/><g class="overlines-below"/><g class="xaxislayer-below"/><g class="yaxislayer-below"/><g class="overaxes-below"/><g class="plot" transform="translate(80,60)" clip-path="url(#clip06079dxyplot)"><g class="scatterlayer mlayer"><g class="trace scatter trace3be6c6" style="stroke-miterlimit: 2; opacity: 1;"><g class="fills"/><g class="errorbars"/><g class="lines"/><g class="points"><path class="point" transform="translate(39.39,148.5)" d="M4.5,4.5H-4.5V-4.5H4.5Z" style="opacity: 0.9; stroke-width: 0px; fill: rgb(240, 249, 33); fill-opacity: 1;"/><path class="point" transform="translate(33.73,143.79)" d="M4.5,4.5H-4.5V-4.5H4.5Z" style="opacity: 0.9; stroke-width: 0px; fill: rgb(240, 249, 33); fill-opacity: 1;"/><path class="point" transform="translate(27.75,137.45)" d="M4.5,4.5H-4.5V-4.5H4.5Z" style="opacity: 0.9; stroke-width: 0px; fill: rgb(240, 249, 33); fill-opacity: 1;"/><path class="point" transform="translate(25.62,100.67)" d="M4.5,4.5H-4.5V-4.5H4.5Z" style="opacity: 0.9; stroke-width: 0px; fill: rgb(240, 249, 33); fill-opacity: 1;"/><path class="point" transform="translate(47.84,172.6)" d="M4.5,4.5H-4.5V-4.5H4.5Z" style="opacity: 0.9; stroke-width: 0px; fill: rgb(240, 249, 33); fill-opacity: 1;"/><path class="point" transform="translate(36.03,174.3)" d="M4.5,4.5H-4.5V-4.5H4.5Z" style="opacity: 0.9; stroke-width: 0px; fill: rgb(240, 249, 33); fill-opacity: 1;"/><path class="point" transform="translate(27.9,170.36)" d="M4.5,4.5H-4.5V-4.5H4.5Z" style="opacity: 0.9; stroke-width: 0px; fill: rgb(240, 249, 33); fill-opacity: 1;"/><path class="point" transform="translate(25.63,151.51)" d="M4.5,4.5H-4.5V-4.5H4.5Z" style="opacity: 0.9; stroke-width: 0px; fill: rgb(240, 249, 33); fill-opacity: 1;"/></g><g class="text"/></g><g class="trace scatter traceec0650" style="stroke-miterlimit: 2; opacity: 1;"><g class="fills"/><g class="errorbars"/><g class="lines"/><g class="points"><path class="point" transform="translate(69.12,17.12)" d="M0,2.55l2.55,2.55l2.55,-2.55l-2.55,-2.55l2.55,-2.55l-2.55,-2.55l-2.55,2.55l-2.55,-2.55l-2.55,2.55l2.55,2.55l-2.55,2.55l2.55,2.55Z" style="opacity: 0.9; stroke-width: 0px; fill: rgb(240, 249, 33); fill-opacity: 1;"/><path class="point" transform="translate(60.02,38.94)" d="M0,2.55l2.55,2.55l2.55,-2.55l-2.55,-2.55l2.55,-2.55l-2.55,-2.55l-2.55,2.55l-2.55,-2.55l-2.55,2.55l2.55,2.55l-2.55,2.55l2.55,2.55Z" style="opacity: 0.9; stroke-width: 0px; fill: rgb(240, 249, 33); fill-opacity: 1;"/><path class="point" transform="translate(29.55,69.58)" d="M0,2.55l2.55,2.55l2.55,-2.55l-2.55,-2.55l2.55,-2.55l-2.55,-2.55l-2.55,2.55l-2.55,-2.55l-2.55,2.55l2.55,2.55l-2.55,2.55l2.55,2.55Z" style="opacity: 0.9; stroke-width: 0px; fill: rgb(240, 249, 33); fill-opacity: 1;"/><path class="point" transform="translate(25.61,70.94)" d="M0,2.55l2.55,2.55l2.55,-2.55l-2.55,-2.55l2.55,-2.55l-2.55,-2.55l-2.55,2.55l-2.55,-2.55l-2.55,2.55l2.55,2.55l-2.55,2.55l2.55,2.55Z" style="opacity: 0.9; stroke-width: 0px; fill: rgb(240, 249, 33); fill-opacity: 1;"/><path class="point" transform="translate(104.7,118.46)" d="M0,2.55l2.55,2.55l2.55,-2.55l-2.55,-2.55l2.55,-2.55l-2.55,-2.55l-2.55,2.55l-2.55,-2.55l-2.55,2.55l2.55,2.55l-2.55,2.55l2.55,2.55Z" style="opacity: 0.9; stroke-width: 0px; fill: rgb(240, 249, 33); fill-opacity: 1;"/><path class="point" transform="translate(63.64,105.56)" d="M0,2.55l2.55,2.55l2.55,-2.55l-2.55,-2.55l2.55,-2.55l-2.55,-2.55l-2.55,2.55l-2.55,-2.55l-2.55,2.55l2.55,2.55l-2.55,2.55l2.55,2.55Z" style="opacity: 0.9; stroke-width: 0px; fill: rgb(240, 249, 33); fill-opacity: 1;"/><path class="point" transform="translate(31.62,104.39)" d="M0,2.55l2.55,2.55l2.55,-2.55l-2.55,-2.55l2.55,-2.55l-2.55,-2.55l-2.55,2.55l-2.55,-2.55l-2.55,2.55l2.55,2.55l-2.55,2.55l2.55,2.55Z" style="opacity: 0.9; stroke-width: 0px; fill: rgb(240, 249, 33); fill-opacity: 1;"/><path class="point" transform="translate(25.64,138.14)" d="M0,2.55l2.55,2.55l2.55,-2.55l-2.55,-2.55l2.55,-2.55l-2.55,-2.55l-2.55,2.55l-2.55,-2.55l-2.55,2.55l2.55,2.55l-2.55,2.55l2.55,2.55Z" style="opacity: 0.9; stroke-width: 0px; fill: rgb(240, 249, 33); fill-opacity: 1;"/></g><g class="text"/></g><g class="trace scatter trace7762d0" style="stroke-miterlimit: 2; opacity: 1;"><g class="fills"/><g class="errorbars"/><g class="lines"/><g class="points"><path class="point" transform="translate(138.61,69.86)" d="M5.4,1.8H1.8V5.4H-1.8V1.8H-5.4V-1.8H-1.8V-5.4H1.8V-1.8H5.4Z" style="opacity: 0.9; stroke-width: 0px; fill: rgb(240, 249, 33); fill-opacity: 1;"/><path class="point" transform="translate(65.56,73.04)" d="M5.4,1.8H1.8V5.4H-1.8V1.8H-5.4V-1.8H-1.8V-5.4H1.8V-1.8H5.4Z" style="opacity: 0.9; stroke-width: 0px; fill: rgb(240, 249, 33); fill-opacity: 1;"/><path class="point" transform="translate(31.13,24.55)" d="M5.4,1.8H1.8V5.4H-1.8V1.8H-5.4V-1.8H-1.8V-5.4H1.8V-1.8H5.4Z" style="opacity: 0.9; stroke-width: 0px; fill: rgb(240, 249, 33); fill-opacity: 1;"/><path class="point" transform="translate(25.58,67.21)" d="M5.4,1.8H1.8V5.4H-1.8V1.8H-5.4V-1.8H-1.8V-5.4H1.8V-1.8H5.4Z" style="opacity: 0.9; stroke-width: 0px; fill: rgb(240, 249, 33); fill-opacity: 1;"/><path class="point" transform="translate(128.77,111.8)" d="M5.4,1.8H1.8V5.4H-1.8V1.8H-5.4V-1.8H-1.8V-5.4H1.8V-1.8H5.4Z" style="opacity: 0.9; stroke-width: 0px; fill: rgb(240, 249, 33); fill-opacity: 1;"/><path class="point" transform="translate(83.52,118.98)" d="M5.4,1.8H1.8V5.4H-1.8V1.8H-5.4V-1.8H-1.8V-5.4H1.8V-1.8H5.4Z" style="opacity: 0.9; stroke-width: 0px; fill: rgb(240, 249, 33); fill-opacity: 1;"/><path class="point" transform="translate(32.91,94.86)" d="M5.4,1.8H1.8V5.4H-1.8V1.8H-5.4V-1.8H-1.8V-5.4H1.8V-1.8H5.4Z" style="opacity: 0.9; stroke-width: 0px; fill: rgb(240, 249, 33); fill-opacity: 1;"/><path class="point" transform="translate(25.58,140.43)" d="M5.4,1.8H1.8V5.4H-1.8V1.8H-5.4V-1.8H-1.8V-5.4H1.8V-1.8H5.4Z" style="opacity: 0.9; stroke-width: 0px; fill: rgb(240, 249, 33); fill-opacity: 1;"/></g><g class="text"/></g><g class="trace scatter tracea1ec17" style="stroke-miterlimit: 2; opacity: 1;"><g class="fills"/><g class="errorbars"/><g class="lines"/><g class="points"><path class="point" transform="translate(36.55,202.71)" d="M4.5,4.5H-4.5V-4.5H4.5Z" style="opacity: 0.9; stroke-width: 0px; fill: rgb(253, 202, 38); fill-opacity: 1;"/><path class="point" transform="translate(35.07,201.97)" d="M4.5,4.5H-4.5V-4.5H4.5Z" style="opacity: 0.9; stroke-width: 0px; fill: rgb(253, 202, 38); fill-opacity: 1;"/><path class="point" transform="translate(31.9,201.21)" d="M4.5,4.5H-4.5V-4.5H4.5Z" style="opacity: 0.9; stroke-width: 0px; fill: rgb(253, 202, 38); fill-opacity: 1;"/><path class="point" transform="translate(25.64,195.46)" d="M4.5,4.5H-4.5V-4.5H4.5Z" style="opacity: 0.9; stroke-width: 0px; fill: rgb(253, 202, 38); fill-opacity: 1;"/><path class="point" transform="translate(34.28,191.19)" d="M4.5,4.5H-4.5V-4.5H4.5Z" style="opacity: 0.9; stroke-width: 0px; fill: rgb(253, 202, 38); fill-opacity: 1;"/><path class="point" transform="translate(29.61,195.44)" d="M4.5,4.5H-4.5V-4.5H4.5Z" style="opacity: 0.9; stroke-width: 0px; fill: rgb(253, 202, 38); fill-opacity: 1;"/><path class="point" transform="translate(25.61,181.76)" d="M4.5,4.5H-4.5V-4.5H4.5Z" style="opacity: 0.9; stroke-width: 0px; fill: rgb(253, 202, 38); fill-opacity: 1;"/></g><g class="text"/></g><g class="trace scatter traced6beca" style="stroke-miterlimit: 2; opacity: 1;"><g class="fills"/><g class="errorbars"/><g class="lines"/><g class="points"><path class="point" transform="translate(84.31,171.77)" d="M0,2.55l2.55,2.55l2.55,-2.55l-2.55,-2.55l2.55,-2.55l-2.55,-2.55l-2.55,2.55l-2.55,-2.55l-2.55,2.55l2.55,2.55l-2.55,2.55l2.55,2.55Z" style="opacity: 0.9; stroke-width: 0px; fill: rgb(253, 202, 38); fill-opacity: 1;"/><path class="point" transform="translate(100.21,170.64)" d="M0,2.55l2.55,2.55l2.55,-2.55l-2.55,-2.55l2.55,-2.55l-2.55,-2.55l-2.55,2.55l-2.55,-2.55l-2.55,2.55l2.55,2.55l-2.55,2.55l2.55,2.55Z" style="opacity: 0.9; stroke-width: 0px; fill: rgb(253, 202, 38); fill-opacity: 1;"/><path class="point" transform="translate(29.47,188.41)" d="M0,2.55l2.55,2.55l2.55,-2.55l-2.55,-2.55l2.55,-2.55l-2.55,-2.55l-2.55,2.55l-2.55,-2.55l-2.55,2.55l2.55,2.55l-2.55,2.55l2.55,2.55Z" style="opacity: 0.9; stroke-width: 0px; fill: rgb(253, 202, 38); fill-opacity: 1;"/><path class="point" transform="translate(25.6,183.02)" d="M0,2.55l2.55,2.55l2.55,-2.55l-2.55,-2.55l2.55,-2.55l-2.55,-2.55l-2.55,2.55l-2.55,-2.55l-2.55,2.55l2.55,2.55l-2.55,2.55l2.55,2.55Z" style="opacity: 0.9; stroke-width: 0px; fill: rgb(253, 202, 38); fill-opacity: 1;"/><path class="point" transform="translate(84.06,146.53)" d="M0,2.55l2.55,2.55l2.55,-2.55l-2.55,-2.55l2.55,-2.55l-2.55,-2.55l-2.55,2.55l-2.55,-2.55l-2.55,2.55l2.55,2.55l-2.55,2.55l2.55,2.55Z" style="opacity: 0.9; stroke-width: 0px; fill: rgb(253, 202, 38); fill-opacity: 1;"/><path class="point" transform="translate(29.32,159.19)" d="M0,2.55l2.55,2.55l2.55,-2.55l-2.55,-2.55l2.55,-2.55l-2.55,-2.55l-2.55,2.55l-2.55,-2.55l-2.55,2.55l2.55,2.55l-2.55,2.55l2.55,2.55Z" style="opacity: 0.9; stroke-width: 0px; fill: rgb(253, 202, 38); fill-opacity: 1;"/><path class="point" transform="translate(25.59,176.53)" d="M0,2.55l2.55,2.55l2.55,-2.55l-2.55,-2.55l2.55,-2.55l-2.55,-2.55l-2.55,2.55l-2.55,-2.55l-2.55,2.55l2.55,2.55l-2.55,2.55l2.55,2.55Z" style="opacity: 0.9; stroke-width: 0px; fill: rgb(253, 202, 38); fill-opacity: 1;"/></g><g class="text"/></g><g class="trace scatter trace372f9f" style="stroke-miterlimit: 2; opacity: 1;"><g class="fills"/><g class="errorbars"/><g class="lines"/><g class="points"><path class="point" transform="translate(373.42,192.29)" d="M5.4,1.8H1.8V5.4H-1.8V1.8H-5.4V-1.8H-1.8V-5.4H1.8V-1.8H5.4Z" style="opacity: 0.9; stroke-width: 0px; fill: rgb(253, 202, 38); fill-opacity: 1;"/><path class="point" transform="translate(78.24,180.75)" d="M5.4,1.8H1.8V5.4H-1.8V1.8H-5.4V-1.8H-1.8V-5.4H1.8V-1.8H5.4Z" style="opacity: 0.9; stroke-width: 0px; fill: rgb(253, 202, 38); fill-opacity: 1;"/><path class="point" transform="translate(32.54,179.36)" d="M5.4,1.8H1.8V5.4H-1.8V1.8H-5.4V-1.8H-1.8V-5.4H1.8V-1.8H5.4Z" style="opacity: 0.9; stroke-width: 0px; fill: rgb(253, 202, 38); fill-opacity: 1;"/><path class="point" transform="translate(25.58,181.59)" d="M5.4,1.8H1.8V5.4H-1.8V1.8H-5.4V-1.8H-1.8V-5.4H1.8V-1.8H5.4Z" style="opacity: 0.9; stroke-width: 0px; fill: rgb(253, 202, 38); fill-opacity: 1;"/><path class="point" transform="translate(74.41,167.66)" d="M5.4,1.8H1.8V5.4H-1.8V1.8H-5.4V-1.8H-1.8V-5.4H1.8V-1.8H5.4Z" style="opacity: 0.9; stroke-width: 0px; fill: rgb(253, 202, 38); fill-opacity: 1;"/><path class="point" transform="translate(31.87,155.48)" d="M5.4,1.8H1.8V5.4H-1.8V1.8H-5.4V-1.8H-1.8V-5.4H1.8V-1.8H5.4Z" style="opacity: 0.9; stroke-width: 0px; fill: rgb(253, 202, 38); fill-opacity: 1;"/><path class="point" transform="translate(25.58,174.88)" d="M5.4,1.8H1.8V5.4H-1.8V1.8H-5.4V-1.8H-1.8V-5.4H1.8V-1.8H5.4Z" style="opacity: 0.9; stroke-width: 0px; fill: rgb(253, 202, 38); fill-opacity: 1;"/></g><g class="text"/></g><g class="trace scatter trace786baa" style="stroke-miterlimit: 2; opacity: 1;"><g class="fills"/><g class="errorbars"/><g class="lines"/><g class="points"><path class="point" transform="translate(31.87,206.88)" d="M4.5,4.5H-4.5V-4.5H4.5Z" style="opacity: 0.9; stroke-width: 0px; fill: rgb(251, 159, 58); fill-opacity: 1;"/><path class="point" transform="translate(31.27,208.31)" d="M4.5,4.5H-4.5V-4.5H4.5Z" style="opacity: 0.9; stroke-width: 0px; fill: rgb(251, 159, 58); fill-opacity: 1;"/><path class="point" transform="translate(28.31,208.62)" d="M4.5,4.5H-4.5V-4.5H4.5Z" style="opacity: 0.9; stroke-width: 0px; fill: rgb(251, 159, 58); fill-opacity: 1;"/><path class="point" transform="translate(25.66,207.19)" d="M4.5,4.5H-4.5V-4.5H4.5Z" style="opacity: 0.9; stroke-width: 0px; fill: rgb(251, 159, 58); fill-opacity: 1;"/><path class="point" transform="translate(31.13,202.62)" d="M4.5,4.5H-4.5V-4.5H4.5Z" style="opacity: 0.9; stroke-width: 0px; fill: rgb(251, 159, 58); fill-opacity: 1;"/><path class="point" transform="translate(27.81,202.45)" d="M4.5,4.5H-4.5V-4.5H4.5Z" style="opacity: 0.9; stroke-width: 0px; fill: rgb(251, 159, 58); fill-opacity: 1;"/><path class="point" transform="translate(25.64,202.72)" d="M4.5,4.5H-4.5V-4.5H4.5Z" style="opacity: 0.9; stroke-width: 0px; fill: rgb(251, 159, 58); fill-opacity: 1;"/></g><g class="text"/></g><g class="trace scatter traced6d140" style="stroke-miterlimit: 2; opacity: 1;"><g class="fills"/><g class="errorbars"/><g class="lines"/><g class="points"><path class="point" transform="translate(88.11,192.64)" d="M0,2.55l2.55,2.55l2.55,-2.55l-2.55,-2.55l2.55,-2.55l-2.55,-2.55l-2.55,2.55l-2.55,-2.55l-2.55,2.55l2.55,2.55l-2.55,2.55l2.55,2.55Z" style="opacity: 0.9; stroke-width: 0px; fill: rgb(251, 159, 58); fill-opacity: 1;"/><path class="point" transform="translate(59.74,186.48)" d="M0,2.55l2.55,2.55l2.55,-2.55l-2.55,-2.55l2.55,-2.55l-2.55,-2.55l-2.55,2.55l-2.55,-2.55l-2.55,2.55l2.55,2.55l-2.55,2.55l2.55,2.55Z" style="opacity: 0.9; stroke-width: 0px; fill: rgb(251, 159, 58); fill-opacity: 1;"/><path class="point" transform="translate(31.47,196.53)" d="M0,2.55l2.55,2.55l2.55,-2.55l-2.55,-2.55l2.55,-2.55l-2.55,-2.55l-2.55,2.55l-2.55,-2.55l-2.55,2.55l2.55,2.55l-2.55,2.55l2.55,2.55Z" style="opacity: 0.9; stroke-width: 0px; fill: rgb(251, 159, 58); fill-opacity: 1;"/><path class="point" transform="translate(25.62,201.18)" d="M0,2.55l2.55,2.55l2.55,-2.55l-2.55,-2.55l2.55,-2.55l-2.55,-2.55l-2.55,2.55l-2.55,-2.55l-2.55,2.55l2.55,2.55l-2.55,2.55l2.55,2.55Z" style="opacity: 0.9; stroke-width: 0px; fill: rgb(251, 159, 58); fill-opacity: 1;"/><path class="point" transform="translate(52.44,176.55)" d="M0,2.55l2.55,2.55l2.55,-2.55l-2.55,-2.55l2.55,-2.55l-2.55,-2.55l-2.55,2.55l-2.55,-2.55l-2.55,2.55l2.55,2.55l-2.55,2.55l2.55,2.55Z" style="opacity: 0.9; stroke-width: 0px; fill: rgb(251, 159, 58); fill-opacity: 1;"/><path class="point" transform="translate(30.11,187.32)" d="M0,2.55l2.55,2.55l2.55,-2.55l-2.55,-2.55l2.55,-2.55l-2.55,-2.55l-2.55,2.55l-2.55,-2.55l-2.55,2.55l2.55,2.55l-2.55,2.55l2.55,2.55Z" style="opacity: 0.9; stroke-width: 0px; fill: rgb(251, 159, 58); fill-opacity: 1;"/><path class="point" transform="translate(25.58,198.91)" d="M0,2.55l2.55,2.55l2.55,-2.55l-2.55,-2.55l2.55,-2.55l-2.55,-2.55l-2.55,2.55l-2.55,-2.55l-2.55,2.55l2.55,2.55l-2.55,2.55l2.55,2.55Z" style="opacity: 0.9; stroke-width: 0px; fill: rgb(251, 159, 58); fill-opacity: 1;"/></g><g class="text"/></g><g class="trace scatter trace2fb5dd" style="stroke-miterlimit: 2; opacity: 1;"><g class="fills"/><g class="errorbars"/><g class="lines"/><g class="points"><path class="point" transform="translate(220.31,188.62)" d="M5.4,1.8H1.8V5.4H-1.8V1.8H-5.4V-1.8H-1.8V-5.4H1.8V-1.8H5.4Z" style="opacity: 0.9; stroke-width: 0px; fill: rgb(251, 159, 58); fill-opacity: 1;"/><path class="point" transform="translate(150.87,200.46)" d="M5.4,1.8H1.8V5.4H-1.8V1.8H-5.4V-1.8H-1.8V-5.4H1.8V-1.8H5.4Z" style="opacity: 0.9; stroke-width: 0px; fill: rgb(251, 159, 58); fill-opacity: 1;"/><path class="point" transform="translate(30.59,202.36)" d="M5.4,1.8H1.8V5.4H-1.8V1.8H-5.4V-1.8H-1.8V-5.4H1.8V-1.8H5.4Z" style="opacity: 0.9; stroke-width: 0px; fill: rgb(251, 159, 58); fill-opacity: 1;"/><path class="point" transform="translate(25.58,200.44)" d="M5.4,1.8H1.8V5.4H-1.8V1.8H-5.4V-1.8H-1.8V-5.4H1.8V-1.8H5.4Z" style="opacity: 0.9; stroke-width: 0px; fill: rgb(251, 159, 58); fill-opacity: 1;"/><path class="point" transform="translate(75.95,192.41)" d="M5.4,1.8H1.8V5.4H-1.8V1.8H-5.4V-1.8H-1.8V-5.4H1.8V-1.8H5.4Z" style="opacity: 0.9; stroke-width: 0px; fill: rgb(251, 159, 58); fill-opacity: 1;"/><path class="point" transform="translate(28.49,190.4)" d="M5.4,1.8H1.8V5.4H-1.8V1.8H-5.4V-1.8H-1.8V-5.4H1.8V-1.8H5.4Z" style="opacity: 0.9; stroke-width: 0px; fill: rgb(251, 159, 58); fill-opacity: 1;"/><path class="point" transform="translate(25.65,180.45)" d="M5.4,1.8H1.8V5.4H-1.8V1.8H-5.4V-1.8H-1.8V-5.4H1.8V-1.8H5.4Z" style="opacity: 0.9; stroke-width: 0px; fill: rgb(251, 159, 58); fill-opacity: 1;"/></g><g class="text"/></g><g class="trace scatter trace48a109" style="stroke-miterlimit: 2; opacity: 1;"><g class="fills"/><g class="errorbars"/><g class="lines"/><g class="points"><path class="point" transform="translate(27.61,211.89)" d="M4.5,4.5H-4.5V-4.5H4.5Z" style="opacity: 0.9; stroke-width: 0px; fill: rgb(237, 121, 83); fill-opacity: 1;"/><path class="point" transform="translate(27.73,212.65)" d="M4.5,4.5H-4.5V-4.5H4.5Z" style="opacity: 0.9; stroke-width: 0px; fill: rgb(237, 121, 83); fill-opacity: 1;"/><path class="point" transform="translate(27.34,212.55)" d="M4.5,4.5H-4.5V-4.5H4.5Z" style="opacity: 0.9; stroke-width: 0px; fill: rgb(237, 121, 83); fill-opacity: 1;"/><path class="point" transform="translate(25.64,212.2)" d="M4.5,4.5H-4.5V-4.5H4.5Z" style="opacity: 0.9; stroke-width: 0px; fill: rgb(237, 121, 83); fill-opacity: 1;"/><path class="point" transform="translate(27.15,210)" d="M4.5,4.5H-4.5V-4.5H4.5Z" style="opacity: 0.9; stroke-width: 0px; fill: rgb(237, 121, 83); fill-opacity: 1;"/><path class="point" transform="translate(27.44,212.65)" d="M4.5,4.5H-4.5V-4.5H4.5Z" style="opacity: 0.9; stroke-width: 0px; fill: rgb(237, 121, 83); fill-opacity: 1;"/><path class="point" transform="translate(25.62,210.39)" d="M4.5,4.5H-4.5V-4.5H4.5Z" style="opacity: 0.9; stroke-width: 0px; fill: rgb(237, 121, 83); fill-opacity: 1;"/></g><g class="text"/></g><g class="trace scatter trace7a076f" style="stroke-miterlimit: 2; opacity: 1;"><g class="fills"/><g class="errorbars"/><g class="lines"/><g class="points"><path class="point" transform="translate(79.3,210.39)" d="M0,2.55l2.55,2.55l2.55,-2.55l-2.55,-2.55l2.55,-2.55l-2.55,-2.55l-2.55,2.55l-2.55,-2.55l-2.55,2.55l2.55,2.55l-2.55,2.55l2.55,2.55Z" style="opacity: 0.9; stroke-width: 0px; fill: rgb(237, 121, 83); fill-opacity: 1;"/><path class="point" transform="translate(39.98,204.71)" d="M0,2.55l2.55,2.55l2.55,-2.55l-2.55,-2.55l2.55,-2.55l-2.55,-2.55l-2.55,2.55l-2.55,-2.55l-2.55,2.55l2.55,2.55l-2.55,2.55l2.55,2.55Z" style="opacity: 0.9; stroke-width: 0px; fill: rgb(237, 121, 83); fill-opacity: 1;"/><path class="point" transform="translate(30.35,208.74)" d="M0,2.55l2.55,2.55l2.55,-2.55l-2.55,-2.55l2.55,-2.55l-2.55,-2.55l-2.55,2.55l-2.55,-2.55l-2.55,2.55l2.55,2.55l-2.55,2.55l2.55,2.55Z" style="opacity: 0.9; stroke-width: 0px; fill: rgb(237, 121, 83); fill-opacity: 1;"/><path class="point" transform="translate(25.58,210.55)" d="M0,2.55l2.55,2.55l2.55,-2.55l-2.55,-2.55l2.55,-2.55l-2.55,-2.55l-2.55,2.55l-2.55,-2.55l-2.55,2.55l2.55,2.55l-2.55,2.55l2.55,2.55Z" style="opacity: 0.9; stroke-width: 0px; fill: rgb(237, 121, 83); fill-opacity: 1;"/><path class="point" transform="translate(38.81,201.95)" d="M0,2.55l2.55,2.55l2.55,-2.55l-2.55,-2.55l2.55,-2.55l-2.55,-2.55l-2.55,2.55l-2.55,-2.55l-2.55,2.55l2.55,2.55l-2.55,2.55l2.55,2.55Z" style="opacity: 0.9; stroke-width: 0px; fill: rgb(237, 121, 83); fill-opacity: 1;"/><path class="point" transform="translate(29.53,204.88)" d="M0,2.55l2.55,2.55l2.55,-2.55l-2.55,-2.55l2.55,-2.55l-2.55,-2.55l-2.55,2.55l-2.55,-2.55l-2.55,2.55l2.55,2.55l-2.55,2.55l2.55,2.55Z" style="opacity: 0.9; stroke-width: 0px; fill: rgb(237, 121, 83); fill-opacity: 1;"/><path class="point" transform="translate(25.58,208.85)" d="M0,2.55l2.55,2.55l2.55,-2.55l-2.55,-2.55l2.55,-2.55l-2.55,-2.55l-2.55,2.55l-2.55,-2.55l-2.55,2.55l2.55,2.55l-2.55,2.55l2.55,2.55Z" style="opacity: 0.9; stroke-width: 0px; fill: rgb(237, 121, 83); fill-opacity: 1;"/></g><g class="text"/></g><g class="trace scatter tracecf62a5" style="stroke-miterlimit: 2; opacity: 1;"><g class="fills"/><g class="errorbars"/><g class="lines"/><g class="points"><path class="point" transform="translate(94.91,194.89)" d="M5.4,1.8H1.8V5.4H-1.8V1.8H-5.4V-1.8H-1.8V-5.4H1.8V-1.8H5.4Z" style="opacity: 0.9; stroke-width: 0px; fill: rgb(237, 121, 83); fill-opacity: 1;"/><path class="point" transform="translate(86.92,208.26)" d="M5.4,1.8H1.8V5.4H-1.8V1.8H-5.4V-1.8H-1.8V-5.4H1.8V-1.8H5.4Z" style="opacity: 0.9; stroke-width: 0px; fill: rgb(237, 121, 83); fill-opacity: 1;"/><path class="point" transform="translate(39.17,211.49)" d="M5.4,1.8H1.8V5.4H-1.8V1.8H-5.4V-1.8H-1.8V-5.4H1.8V-1.8H5.4Z" style="opacity: 0.9; stroke-width: 0px; fill: rgb(237, 121, 83); fill-opacity: 1;"/><path class="point" transform="translate(25.58,212.88)" d="M5.4,1.8H1.8V5.4H-1.8V1.8H-5.4V-1.8H-1.8V-5.4H1.8V-1.8H5.4Z" style="opacity: 0.9; stroke-width: 0px; fill: rgb(237, 121, 83); fill-opacity: 1;"/><path class="point" transform="translate(62.74,207.05)" d="M5.4,1.8H1.8V5.4H-1.8V1.8H-5.4V-1.8H-1.8V-5.4H1.8V-1.8H5.4Z" style="opacity: 0.9; stroke-width: 0px; fill: rgb(237, 121, 83); fill-opacity: 1;"/><path class="point" transform="translate(37.26,206.1)" d="M5.4,1.8H1.8V5.4H-1.8V1.8H-5.4V-1.8H-1.8V-5.4H1.8V-1.8H5.4Z" style="opacity: 0.9; stroke-width: 0px; fill: rgb(237, 121, 83); fill-opacity: 1;"/><path class="point" transform="translate(25.58,209.87)" d="M5.4,1.8H1.8V5.4H-1.8V1.8H-5.4V-1.8H-1.8V-5.4H1.8V-1.8H5.4Z" style="opacity: 0.9; stroke-width: 0px; fill: rgb(237, 121, 83); fill-opacity: 1;"/></g><g class="text"/></g></g></g><g class="overplot"/><path class="xlines-above crisp" d="M0,0" style="fill: none;"/><path class="ylines-above crisp" d="M0,0" style="fill: none;"/><g class="overlines-above"/><g class="xaxislayer-above"><g class="xtick"><text text-anchor="middle" x="0" y="306" transform="translate(105.57,0)" style="font-family: CMU; font-size: 15px; fill: rgb(42, 63, 95); fill-opacity: 1; white-space: pre; opacity: 1;">0</text></g><g class="xtick"><text text-anchor="middle" x="0" y="306" style="font-family: CMU; font-size: 15px; fill: rgb(42, 63, 95); fill-opacity: 1; white-space: pre; opacity: 1;" transform="translate(199.49,0)">0.5</text></g><g class="xtick"><text text-anchor="middle" x="0" y="306" style="font-family: CMU; font-size: 15px; fill: rgb(42, 63, 95); fill-opacity: 1; white-space: pre; opacity: 1;" transform="translate(293.4,0)">1</text></g><g class="xtick"><text text-anchor="middle" x="0" y="306" style="font-family: CMU; font-size: 15px; fill: rgb(42, 63, 95); fill-opacity: 1; white-space: pre; opacity: 1;" transform="translate(387.32,0)">1.5</text></g></g><g class="yaxislayer-above"><g class="ytick"><text text-anchor="end" x="79" y="5.25" transform="translate(0,275.46000000000004)" style="font-family: CMU; font-size: 15px; fill: rgb(42, 63, 95); fill-opacity: 1; white-space: pre; opacity: 1;">0</text></g><g class="ytick"><text text-anchor="end" x="79" y="5.25" style="font-family: CMU; font-size: 15px; fill: rgb(42, 63, 95); fill-opacity: 1; white-space: pre; opacity: 1;" transform="translate(0,222.83)">10k</text></g><g class="ytick"><text text-anchor="end" x="79" y="5.25" style="font-family: CMU; font-size: 15px; fill: rgb(42, 63, 95); fill-opacity: 1; white-space: pre; opacity: 1;" transform="translate(0,170.2)">20k</text></g><g class="ytick"><text text-anchor="end" x="79" y="5.25" style="font-family: CMU; font-size: 15px; fill: rgb(42, 63, 95); fill-opacity: 1; white-space: pre; opacity: 1;" transform="translate(0,117.57)">30k</text></g><g class="ytick"><text text-anchor="end" x="79" y="5.25" style="font-family: CMU; font-size: 15px; fill: rgb(42, 63, 95); fill-opacity: 1; white-space: pre; opacity: 1;" transform="translate(0,64.94)">40k</text></g></g><g class="overaxes-above"/></g></g><g class="polarlayer"/><g class="smithlayer"/><g class="ternarylayer"/><g class="geolayer"/><g class="funnelarealayer"/><g class="pielayer"/><g class="iciclelayer"/><g class="treemaplayer"/><g class="sunburstlayer"/><g class="glimages"/><defs id="topdefs-06079d"><g class="clips"/><clipPath id="legend06079d"><rect width="151" height="230" x="0" y="0"/></clipPath></defs><g class="layer-above"><g class="imagelayer"/><g class="shapelayer"/></g><g class="infolayer"><g class="legend" pointer-events="all" transform="translate(486.98,60)"><rect class="bg" shape-rendering="crispEdges" style="stroke: rgb(68, 68, 68); stroke-opacity: 1; fill: rgb(255, 255, 255); fill-opacity: 1; stroke-width: 0px;" width="151" height="230" x="0" y="0"/><g class="scrollbox" transform="" clip-path="url(#legend06079d)"><text class="legendtitletext" text-anchor="start" x="2" y="23.400000000000002" style="font-family: CMU; font-size: 18px; fill: rgb(42, 63, 95); fill-opacity: 1; white-space: pre;">Number of steps</text><g class="groups" transform=""><g class="traces" transform="translate(0,39.650000000000006)" style="opacity: 1;"><text class="legendtext" text-anchor="start" x="40" y="5.85" style="font-family: CMU; font-size: 15px; fill: rgb(42, 63, 95); fill-opacity: 1; white-space: pre;">20, 642</text><g class="layers" style="opacity: 1;"><g class="legendfill"/><g class="legendlines"/><g class="legendsymbols"><g class="legendpoints"><path class="scatterpts" transform="translate(20,0)" d="M4.5,4.5H-4.5V-4.5H4.5Z" style="opacity: 0.9; stroke-width: 0px; fill: rgb(240, 249, 33); fill-opacity: 1;"/></g></g></g><rect class="legendtoggle" x="0" y="-11.25" width="100" height="22.5" style="fill: rgb(0, 0, 0); fill-opacity: 0;"/></g></g><g class="groups" transform=""><g class="traces" transform="translate(0,62.150000000000006)" style="opacity: 1;"><text class="legendtext" text-anchor="start" x="40" y="5.85" style="font-family: CMU; font-size: 15px; fill: rgb(42, 63, 95); fill-opacity: 1; white-space: pre;">20, 162</text><g class="layers" style="opacity: 1;"><g class="legendfill"/><g class="legendlines"/><g class="legendsymbols"><g class="legendpoints"><path class="scatterpts" transform="translate(20,0)" d="M0,2.55l2.55,2.55l2.55,-2.55l-2.55,-2.55l2.55,-2.55l-2.55,-2.55l-2.55,2.55l-2.55,-2.55l-2.55,2.55l2.55,2.55l-2.55,2.55l2.55,2.55Z" style="opacity: 0.9; stroke-width: 0px; fill: rgb(240, 249, 33); fill-opacity: 1;"/></g></g></g><rect class="legendtoggle" x="0" y="-11.25" width="100" height="22.5" style="fill: rgb(0, 0, 0); fill-opacity: 0;"/></g></g><g class="groups" transform=""><g class="traces" transform="translate(0,84.65)" style="opacity: 1;"><text class="legendtext" text-anchor="start" x="40" y="5.85" style="font-family: CMU; font-size: 15px; fill: rgb(42, 63, 95); fill-opacity: 1; white-space: pre;">20, 42</text><g class="layers" style="opacity: 1;"><g class="legendfill"/><g class="legendlines"/><g class="legendsymbols"><g class="legendpoints"><path class="scatterpts" transform="translate(20,0)" d="M5.4,1.8H1.8V5.4H-1.8V1.8H-5.4V-1.8H-1.8V-5.4H1.8V-1.8H5.4Z" style="opacity: 0.9; stroke-width: 0px; fill: rgb(240, 249, 33); fill-opacity: 1;"/></g></g></g><rect class="legendtoggle" x="0" y="-11.25" width="100" height="22.5" style="fill: rgb(0, 0, 0); fill-opacity: 0;"/></g></g><g class="groups" transform=""><g class="traces" transform="translate(0,107.15)" style="opacity: 1;"><text class="legendtext" text-anchor="start" x="40" y="5.85" style="font-family: CMU; font-size: 15px; fill: rgb(42, 63, 95); fill-opacity: 1; white-space: pre;">8, 642</text><g class="layers" style="opacity: 1;"><g class="legendfill"/><g class="legendlines"/><g class="legendsymbols"><g class="legendpoints"><path class="scatterpts" transform="translate(20,0)" d="M4.5,4.5H-4.5V-4.5H4.5Z" style="opacity: 0.9; stroke-width: 0px; fill: rgb(253, 202, 38); fill-opacity: 1;"/></g></g></g><rect class="legendtoggle" x="0" y="-11.25" width="100" height="22.5" style="fill: rgb(0, 0, 0); fill-opacity: 0;"/></g></g><g class="groups" transform=""><g class="traces" transform="translate(0,129.65)" style="opacity: 1;"><text class="legendtext" text-anchor="start" x="40" y="5.85" style="font-family: CMU; font-size: 15px; fill: rgb(42, 63, 95); fill-opacity: 1; white-space: pre;">8, 162</text><g class="layers" style="opacity: 1;"><g class="legendfill"/><g class="legendlines"/><g class="legendsymbols"><g class="legendpoints"><path class="scatterpts" transform="translate(20,0)" d="M0,2.55l2.55,2.55l2.55,-2.55l-2.55,-2.55l2.55,-2.55l-2.55,-2.55l-2.55,2.55l-2.55,-2.55l-2.55,2.55l2.55,2.55l-2.55,2.55l2.55,2.55Z" style="opacity: 0.9; stroke-width: 0px; fill: rgb(253, 202, 38); fill-opacity: 1;"/></g></g></g><rect class="legendtoggle" x="0" y="-11.25" width="100" height="22.5" style="fill: rgb(0, 0, 0); fill-opacity: 0;"/></g></g><g class="groups" transform=""><g class="traces" transform="translate(0,152.15)" style="opacity: 1;"><text class="legendtext" text-anchor="start" x="40" y="5.85" style="font-family: CMU; font-size: 15px; fill: rgb(42, 63, 95); fill-opacity: 1; white-space: pre;">8, 42</text><g class="layers" style="opacity: 1;"><g class="legendfill"/><g class="legendlines"/><g class="legendsymbols"><g class="legendpoints"><path class="scatterpts" transform="translate(20,0)" d="M5.4,1.8H1.8V5.4H-1.8V1.8H-5.4V-1.8H-1.8V-5.4H1.8V-1.8H5.4Z" style="opacity: 0.9; stroke-width: 0px; fill: rgb(253, 202, 38); fill-opacity: 1;"/></g></g></g><rect class="legendtoggle" x="0" y="-11.25" width="100" height="22.5" style="fill: rgb(0, 0, 0); fill-opacity: 0;"/></g></g><g class="groups" transform=""><g class="traces" transform="translate(0,174.65)" style="opacity: 1;"><text class="legendtext" text-anchor="start" x="40" y="5.85" style="font-family: CMU; font-size: 15px; fill: rgb(42, 63, 95); fill-opacity: 1; white-space: pre;">5, 642</text><g class="layers" style="opacity: 1;"><g class="legendfill"/><g class="legendlines"/><g class="legendsymbols"><g class="legendpoints"><path class="scatterpts" transform="translate(20,0)" d="M4.5,4.5H-4.5V-4.5H4.5Z" style="opacity: 0.9; stroke-width: 0px; fill: rgb(251, 159, 58); fill-opacity: 1;"/></g></g></g><rect class="legendtoggle" x="0" y="-11.25" width="100" height="22.5" style="fill: rgb(0, 0, 0); fill-opacity: 0;"/></g></g><g class="groups" transform=""><g class="traces" transform="translate(0,197.15)" style="opacity: 1;"><text class="legendtext" text-anchor="start" x="40" y="5.85" style="font-family: CMU; font-size: 15px; fill: rgb(42, 63, 95); fill-opacity: 1; white-space: pre;">5, 162</text><g class="layers" style="opacity: 1;"><g class="legendfill"/><g class="legendlines"/><g class="legendsymbols"><g class="legendpoints"><path class="scatterpts" transform="translate(20,0)" d="M0,2.55l2.55,2.55l2.55,-2.55l-2.55,-2.55l2.55,-2.55l-2.55,-2.55l-2.55,2.55l-2.55,-2.55l-2.55,2.55l2.55,2.55l-2.55,2.55l2.55,2.55Z" style="opacity: 0.9; stroke-width: 0px; fill: rgb(251, 159, 58); fill-opacity: 1;"/></g></g></g><rect class="legendtoggle" x="0" y="-11.25" width="100" height="22.5" style="fill: rgb(0, 0, 0); fill-opacity: 0;"/></g></g><g class="groups" transform=""><g class="traces" transform="translate(0,219.65)" style="opacity: 1;"><text class="legendtext" text-anchor="start" x="40" y="5.85" style="font-family: CMU; font-size: 15px; fill: rgb(42, 63, 95); fill-opacity: 1; white-space: pre;">5, 42</text><g class="layers" style="opacity: 1;"><g class="legendfill"/><g class="legendlines"/><g class="legendsymbols"><g class="legendpoints"><path class="scatterpts" transform="translate(20,0)" d="M5.4,1.8H1.8V5.4H-1.8V1.8H-5.4V-1.8H-1.8V-5.4H1.8V-1.8H5.4Z" style="opacity: 0.9; stroke-width: 0px; fill: rgb(251, 159, 58); fill-opacity: 1;"/></g></g></g><rect class="legendtoggle" x="0" y="-11.25" width="100" height="22.5" style="fill: rgb(0, 0, 0); fill-opacity: 0;"/></g></g><g class="groups" transform=""><g class="traces" transform="translate(0,242.15)" style="opacity: 1;"><text class="legendtext" text-anchor="start" x="40" y="5.85" style="font-family: CMU; font-size: 15px; fill: rgb(42, 63, 95); fill-opacity: 1; white-space: pre;">3, 642</text><g class="layers" style="opacity: 1;"><g class="legendfill"/><g class="legendlines"/><g class="legendsymbols"><g class="legendpoints"><path class="scatterpts" transform="translate(20,0)" d="M4.5,4.5H-4.5V-4.5H4.5Z" style="opacity: 0.9; stroke-width: 0px; fill: rgb(237, 121, 83); fill-opacity: 1;"/></g></g></g><rect class="legendtoggle" x="0" y="-11.25" width="100" height="22.5" style="fill: rgb(0, 0, 0); fill-opacity: 0;"/></g></g><g class="groups" transform=""><g class="traces" transform="translate(0,264.65)" style="opacity: 1;"><text class="legendtext" text-anchor="start" x="40" y="5.85" style="font-family: CMU; font-size: 15px; fill: rgb(42, 63, 95); fill-opacity: 1; white-space: pre;">3, 162</text><g class="layers" style="opacity: 1;"><g class="legendfill"/><g class="legendlines"/><g class="legendsymbols"><g class="legendpoints"><path class="scatterpts" transform="translate(20,0)" d="M0,2.55l2.55,2.55l2.55,-2.55l-2.55,-2.55l2.55,-2.55l-2.55,-2.55l-2.55,2.55l-2.55,-2.55l-2.55,2.55l2.55,2.55l-2.55,2.55l2.55,2.55Z" style="opacity: 0.9; stroke-width: 0px; fill: rgb(237, 121, 83); fill-opacity: 1;"/></g></g></g><rect class="legendtoggle" x="0" y="-11.25" width="100" height="22.5" style="fill: rgb(0, 0, 0); fill-opacity: 0;"/></g></g><g class="groups" transform=""><g class="traces" transform="translate(0,287.15)" style="opacity: 1;"><text class="legendtext" text-anchor="start" x="40" y="5.85" style="font-family: CMU; font-size: 15px; fill: rgb(42, 63, 95); fill-opacity: 1; white-space: pre;">3, 42</text><g class="layers" style="opacity: 1;"><g class="legendfill"/><g class="legendlines"/><g class="legendsymbols"><g class="legendpoints"><path class="scatterpts" transform="translate(20,0)" d="M5.4,1.8H1.8V5.4H-1.8V1.8H-5.4V-1.8H-1.8V-5.4H1.8V-1.8H5.4Z" style="opacity: 0.9; stroke-width: 0px; fill: rgb(237, 121, 83); fill-opacity: 1;"/></g></g></g><rect class="legendtoggle" x="0" y="-11.25" width="100" height="22.5" style="fill: rgb(0, 0, 0); fill-opacity: 0;"/></g></g></g><rect class="scrollbar" rx="20" ry="3" width="0" height="0" style="fill: rgb(128, 139, 164); fill-opacity: 1;" x="0" y="0"/></g><g class="g-gtitle"/><g class="g-xtitle"><text class="xtitle" x="279.5" y="335" text-anchor="middle" style="font-family: CMU; font-size: 15px; fill: rgb(42, 63, 95); opacity: 1; font-weight: normal; white-space: pre;">Error per mesh per vertex [% diameter]</text></g><g class="g-ytitle"><text class="ytitle" transform="rotate(-90,25,175)" x="25" y="175" text-anchor="middle" style="font-family: CMU; font-size: 15px; fill: rgb(42, 63, 95); opacity: 1; font-weight: normal; white-space: pre;">Time difference per vertex [% line]</text></g></g></svg>