<svg class="main-svg" xmlns="http://www.w3.org/2000/svg" xmlns:xlink="http://www.w3.org/1999/xlink" width="650" height="370" style="" viewBox="0 0 650 370"><rect x="0" y="0" width="650" height="370" style="fill: rgb(255, 255, 255); fill-opacity: 1;"/><defs id="defs-caad28"><g class="clips"><clipPath id="clipcaad28xyplot" class="plotclip"><rect width="406" height="230"/></clipPath><clipPath class="axesclip" id="clipcaad28x"><rect x="80" y="0" width="406" height="370"/></clipPath><clipPath class="axesclip" id="clipcaad28y"><rect x="0" y="60" width="650" height="230"/></clipPath><clipPath class="axesclip" id="clipcaad28xy"><rect x="80" y="60" width="406" height="230"/></clipPath></g><g class="gradients"/><g class="patterns"/></defs><g class="bglayer"><rect class="bg" x="80" y="60" width="406" height="230" style="fill: rgb(229, 236, 246); fill-opacity: 1; stroke-width: 0;"/></g><g class="layer-below"><g class="imagelayer"/><g class="shapelayer"/></g><g class="cartesianlayer"><g class="subplot xy"><g class="layer-subplot"><g class="shapelayer"/><g class="imagelayer"/></g><g class="minor-gridlayer"><g class="x"/><g class="y"/></g><g class="gridlayer"><g class="x"><path class="xgrid crisp" transform="translate(300.55,0)" d="M0,60v230" style="stroke: rgb(255, 255, 255); stroke-opacity: 1; stroke-width: 1px;"/><path class="xgrid crisp" transform="translate(463.07,0)" d="M0,60v230" style="stroke: rgb(255, 255, 255); stroke-opacity: 1; stroke-width: 1px;"/></g><g class="y"><path class="ygrid crisp" transform="translate(0,267.84000000000003)" d="M80,0h406" style="stroke: rgb(255, 255, 255); stroke-opacity: 1; stroke-width: 1px;"/><path class="ygrid crisp" transform="translate(0,224.84)" d="M80,0h406" style="stroke: rgb(255, 255, 255); stroke-opacity: 1; stroke-width: 1px;"/><path class="ygrid crisp" transform="translate(0,181.84)" d="M80,0h406" style="stroke: rgb(255, 255, 255); stroke-opacity: 1; stroke-width: 1px;"/><path class="ygrid crisp" transform="translate(0,138.82999999999998)" d="M80,0h406" style="stroke: rgb(255, 255, 255); stroke-opacity: 1; stroke-width: 1px;"/><path class="ygrid crisp" transform="translate(0,95.83)" d="M80,0h406" style="stroke: rgb(255, 255, 255); stroke-opacity: 1; stroke-width: 1px;"/></g></g><g class="zerolinelayer"><path class="xzl zl crisp" transform="translate(138.03,0)" d="M0,60v230" style="stroke: rgb(255, 255, 255); stroke-opacity: 1; stroke-width: 2px;"/></g><path class="xlines-below"/><path class="ylines-below"/><g class="overlines-below"/><g class="xaxislayer-below"/><g class="yaxislayer-below"/><g class="overaxes-below"/><g class="plot" transform="translate(80,60)" clip-path="url(#clipcaad28xyplot)"><g class="scatterlayer mlayer"><g class="trace scatter tracef0d94d" style="stroke-miterlimit: 2; opacity: 1;"><g class="fills"/><g class="errorbars"/><g class="lines"/><g class="points"><path class="point" transform="translate(51.73,128.32)" d="M4.5,4.5H-4.5V-4.5H4.5Z" style="opacity: 0.9; stroke-width: 0px; fill: rgb(46, 145, 229); fill-opacity: 1;"/><path class="point" transform="translate(46.35,81.1)" d="M4.5,4.5H-4.5V-4.5H4.5Z" style="opacity: 0.9; stroke-width: 0px; fill: rgb(46, 145, 229); fill-opacity: 1;"/></g><g class="text"/></g><g class="trace scatter trace2b47d1" style="stroke-miterlimit: 2; opacity: 1;"><g class="fills"/><g class="errorbars"/><g class="lines"/><g class="points"><path class="point" transform="translate(217.16,142.59)" d="M0,2.55l2.55,2.55l2.55,-2.55l-2.55,-2.55l2.55,-2.55l-2.55,-2.55l-2.55,2.55l-2.55,-2.55l-2.55,2.55l2.55,2.55l-2.55,2.55l2.55,2.55Z" style="opacity: 0.9; stroke-width: 0px; fill: rgb(46, 145, 229); fill-opacity: 1;"/><path class="point" transform="translate(214.27,119.19)" d="M0,2.55l2.55,2.55l2.55,-2.55l-2.55,-2.55l2.55,-2.55l-2.55,-2.55l-2.55,2.55l-2.55,-2.55l-2.55,2.55l2.55,2.55l-2.55,2.55l2.55,2.55Z" style="opacity: 0.9; stroke-width: 0px; fill: rgb(46, 145, 229); fill-opacity: 1;"/></g><g class="text"/></g><g class="trace scatter trace42bd13" style="stroke-miterlimit: 2; opacity: 1;"><g class="fills"/><g class="errorbars"/><g class="lines"/><g class="points"><path class="point" transform="translate(349.4,164.98)" d="M5.4,1.8H1.8V5.4H-1.8V1.8H-5.4V-1.8H-1.8V-5.4H1.8V-1.8H5.4Z" style="opacity: 0.9; stroke-width: 0px; fill: rgb(46, 145, 229); fill-opacity: 1;"/><path class="point" transform="translate(348.11,150.1)" d="M5.4,1.8H1.8V5.4H-1.8V1.8H-5.4V-1.8H-1.8V-5.4H1.8V-1.8H5.4Z" style="opacity: 0.9; stroke-width: 0px; fill: rgb(46, 145, 229); fill-opacity: 1;"/></g><g class="text"/></g><g class="trace scatter trace7d2bcc" style="stroke-miterlimit: 2; opacity: 1;"><g class="fills"/><g class="errorbars"/><g class="lines"/><g class="points"><path class="point" transform="translate(379.89,198.46)" d="M0,2.55l2.55,2.55l2.55,-2.55l-2.55,-2.55l2.55,-2.55l-2.55,-2.55l-2.55,2.55l-2.55,-2.55l-2.55,2.55l2.55,2.55l-2.55,2.55l2.55,2.55Z" style="opacity: 0.9; stroke-width: 0px; fill: rgb(46, 145, 229); fill-opacity: 1;"/><path class="point" transform="translate(379.7,212.88)" d="M0,2.55l2.55,2.55l2.55,-2.55l-2.55,-2.55l2.55,-2.55l-2.55,-2.55l-2.55,2.55l-2.55,-2.55l-2.55,2.55l2.55,2.55l-2.55,2.55l2.55,2.55Z" style="opacity: 0.9; stroke-width: 0px; fill: rgb(46, 145, 229); fill-opacity: 1;"/></g><g class="text"/></g><g class="trace scatter trace73f978" style="stroke-miterlimit: 2; opacity: 1;"><g class="fills"/><g class="errorbars"/><g class="lines"/><g class="points"><path class="point" transform="translate(54.19,106.33)" d="M4.5,4.5H-4.5V-4.5H4.5Z" style="opacity: 0.9; stroke-width: 0px; fill: rgb(225, 95, 153); fill-opacity: 1;"/><path class="point" transform="translate(46.3,22.09)" d="M4.5,4.5H-4.5V-4.5H4.5Z" style="opacity: 0.9; stroke-width: 0px; fill: rgb(225, 95, 153); fill-opacity: 1;"/></g><g class="text"/></g><g class="trace scatter traceb23c94" style="stroke-miterlimit: 2; opacity: 1;"><g class="fills"/><g class="errorbars"/><g class="lines"/><g class="points"><path class="point" transform="translate(216.4,93.29)" d="M0,2.55l2.55,2.55l2.55,-2.55l-2.55,-2.55l2.55,-2.55l-2.55,-2.55l-2.55,2.55l-2.55,-2.55l-2.55,2.55l2.55,2.55l-2.55,2.55l2.55,2.55Z" style="opacity: 0.9; stroke-width: 0px; fill: rgb(225, 95, 153); fill-opacity: 1;"/><path class="point" transform="translate(214.55,70.36)" d="M0,2.55l2.55,2.55l2.55,-2.55l-2.55,-2.55l2.55,-2.55l-2.55,-2.55l-2.55,2.55l-2.55,-2.55l-2.55,2.55l2.55,2.55l-2.55,2.55l2.55,2.55Z" style="opacity: 0.9; stroke-width: 0px; fill: rgb(225, 95, 153); fill-opacity: 1;"/></g><g class="text"/></g><g class="trace scatter traced91006" style="stroke-miterlimit: 2; opacity: 1;"><g class="fills"/><g class="errorbars"/><g class="lines"/><g class="points"><path class="point" transform="translate(348.8,83.85)" d="M5.4,1.8H1.8V5.4H-1.8V1.8H-5.4V-1.8H-1.8V-5.4H1.8V-1.8H5.4Z" style="opacity: 0.9; stroke-width: 0px; fill: rgb(225, 95, 153); fill-opacity: 1;"/><path class="point" transform="translate(348.33,131.38)" d="M5.4,1.8H1.8V5.4H-1.8V1.8H-5.4V-1.8H-1.8V-5.4H1.8V-1.8H5.4Z" style="opacity: 0.9; stroke-width: 0px; fill: rgb(225, 95, 153); fill-opacity: 1;"/></g><g class="text"/></g><g class="trace scatter trace422ff3" style="stroke-miterlimit: 2; opacity: 1;"><g class="fills"/><g class="errorbars"/><g class="lines"/><g class="points"><path class="point" transform="translate(380.08,175.56)" d="M0,2.55l2.55,2.55l2.55,-2.55l-2.55,-2.55l2.55,-2.55l-2.55,-2.55l-2.55,2.55l-2.55,-2.55l-2.55,2.55l2.55,2.55l-2.55,2.55l2.55,2.55Z" style="opacity: 0.9; stroke-width: 0px; fill: rgb(225, 95, 153); fill-opacity: 1;"/><path class="point" transform="translate(379.83,205.96)" d="M0,2.55l2.55,2.55l2.55,-2.55l-2.55,-2.55l2.55,-2.55l-2.55,-2.55l-2.55,2.55l-2.55,-2.55l-2.55,2.55l2.55,2.55l-2.55,2.55l2.55,2.55Z" style="opacity: 0.9; stroke-width: 0px; fill: rgb(225, 95, 153); fill-opacity: 1;"/></g><g class="text"/></g><g class="trace scatter tracefb0d19" style="stroke-miterlimit: 2; opacity: 1;"><g class="fills"/><g class="errorbars"/><g class="lines"/><g class="points"><path class="point" transform="translate(76.89,17.13)" d="M4.5,4.5H-4.5V-4.5H4.5Z" style="opacity: 0.9; stroke-width: 0px; fill: rgb(28, 167, 28); fill-opacity: 1;"/><path class="point" transform="translate(25.92,56.61)" d="M4.5,4.5H-4.5V-4.5H4.5Z" style="opacity: 0.9; stroke-width: 0px; fill: rgb(28, 167, 28); fill-opacity: 1;"/></g><g class="text"/></g><g class="trace scatter tracec21ed9" style="stroke-miterlimit: 2; opacity: 1;"><g class="fills"/><g class="errorbars"/><g class="lines"/><g class="points"><path class="point" transform="translate(233.89,156.6)" d="M0,2.55l2.55,2.55l2.55,-2.55l-2.55,-2.55l2.55,-2.55l-2.55,-2.55l-2.55,2.55l-2.55,-2.55l-2.55,2.55l2.55,2.55l-2.55,2.55l2.55,2.55Z" style="opacity: 0.9; stroke-width: 0px; fill: rgb(28, 167, 28); fill-opacity: 1;"/><path class="point" transform="translate(219.63,155.82)" d="M0,2.55l2.55,2.55l2.55,-2.55l-2.55,-2.55l2.55,-2.55l-2.55,-2.55l-2.55,2.55l-2.55,-2.55l-2.55,2.55l2.55,2.55l-2.55,2.55l2.55,2.55Z" style="opacity: 0.9; stroke-width: 0px; fill: rgb(28, 167, 28); fill-opacity: 1;"/></g><g class="text"/></g><g class="trace scatter trace533c38" style="stroke-miterlimit: 2; opacity: 1;"><g class="fills"/><g class="errorbars"/><g class="lines"/><g class="points"><path class="point" transform="translate(349.57,169.36)" d="M5.4,1.8H1.8V5.4H-1.8V1.8H-5.4V-1.8H-1.8V-5.4H1.8V-1.8H5.4Z" style="opacity: 0.9; stroke-width: 0px; fill: rgb(28, 167, 28); fill-opacity: 1;"/><path class="point" transform="translate(352.98,139.46)" d="M5.4,1.8H1.8V5.4H-1.8V1.8H-5.4V-1.8H-1.8V-5.4H1.8V-1.8H5.4Z" style="opacity: 0.9; stroke-width: 0px; fill: rgb(28, 167, 28); fill-opacity: 1;"/></g><g class="text"/></g><g class="trace scatter trace35c5b0" style="stroke-miterlimit: 2; opacity: 1;"><g class="fills"/><g class="errorbars"/><g class="lines"/><g class="points"><path class="point" transform="translate(379.54,117.74)" d="M0,2.55l2.55,2.55l2.55,-2.55l-2.55,-2.55l2.55,-2.55l-2.55,-2.55l-2.55,2.55l-2.55,-2.55l-2.55,2.55l2.55,2.55l-2.55,2.55l2.55,2.55Z" style="opacity: 0.9; stroke-width: 0px; fill: rgb(28, 167, 28); fill-opacity: 1;"/><path class="point" transform="translate(379.2,176.02)" d="M0,2.55l2.55,2.55l2.55,-2.55l-2.55,-2.55l2.55,-2.55l-2.55,-2.55l-2.55,2.55l-2.55,-2.55l-2.55,2.55l2.55,2.55l-2.55,2.55l2.55,2.55Z" style="opacity: 0.9; stroke-width: 0px; fill: rgb(28, 167, 28); fill-opacity: 1;"/></g><g class="text"/></g></g></g><g class="overplot"/><path class="xlines-above crisp" d="M0,0" style="fill: none;"/><path class="ylines-above crisp" d="M0,0" style="fill: none;"/><g class="overlines-above"/><g class="xaxislayer-above"><g class="xtick"><text text-anchor="middle" x="0" y="306" transform="translate(138.03,0)" style="font-family: CMU; font-size: 15px; fill: rgb(42, 63, 95); fill-opacity: 1; white-space: pre; opacity: 1;">0</text></g><g class="xtick"><text text-anchor="middle" x="0" y="306" style="font-family: CMU; font-size: 15px; fill: rgb(42, 63, 95); fill-opacity: 1; white-space: pre; opacity: 1;" transform="translate(300.55,0)">0.5</text></g><g class="xtick"><text text-anchor="middle" x="0" y="306" style="font-family: CMU; font-size: 15px; fill: rgb(42, 63, 95); fill-opacity: 1; white-space: pre; opacity: 1;" transform="translate(463.07,0)">1</text></g></g><g class="yaxislayer-above"><g class="ytick"><text text-anchor="end" x="79" y="5.25" transform="translate(0,267.84000000000003)" style="font-family: CMU; font-size: 15px; fill: rgb(42, 63, 95); fill-opacity: 1; white-space: pre; opacity: 1;">4k</text></g><g class="ytick"><text text-anchor="end" x="79" y="5.25" style="font-family: CMU; font-size: 15px; fill: rgb(42, 63, 95); fill-opacity: 1; white-space: pre; opacity: 1;" transform="translate(0,224.84)">6k</text></g><g class="ytick"><text text-anchor="end" x="79" y="5.25" style="font-family: CMU; font-size: 15px; fill: rgb(42, 63, 95); fill-opacity: 1; white-space: pre; opacity: 1;" transform="translate(0,181.84)">8k</text></g><g class="ytick"><text text-anchor="end" x="79" y="5.25" style="font-family: CMU; font-size: 15px; fill: rgb(42, 63, 95); fill-opacity: 1; white-space: pre; opacity: 1;" transform="translate(0,138.82999999999998)">10k</text></g><g class="ytick"><text text-anchor="end" x="79" y="5.25" style="font-family: CMU; font-size: 15px; fill: rgb(42, 63, 95); fill-opacity: 1; white-space: pre; opacity: 1;" transform="translate(0,95.83)">12k</text></g></g><g class="overaxes-above"/></g></g><g class="polarlayer"/><g class="smithlayer"/><g class="ternarylayer"/><g class="geolayer"/><g class="funnelarealayer"/><g class="pielayer"/><g class="iciclelayer"/><g class="treemaplayer"/><g class="sunburstlayer"/><g class="glimages"/><defs id="topdefs-caad28"><g class="clips"/><clipPath id="legendcaad28"><rect width="144" height="230" x="0" y="0"/></clipPath></defs><g class="layer-above"><g class="imagelayer"/><g class="shapelayer"/></g><g class="infolayer"><g class="legend" pointer-events="all" transform="translate(494.12,60)"><rect class="bg" shape-rendering="crispEdges" style="stroke: rgb(68, 68, 68); stroke-opacity: 1; fill: rgb(255, 255, 255); fill-opacity: 1; stroke-width: 0px;" width="144" height="230" x="0" y="0"/><g class="scrollbox" transform="" clip-path="url(#legendcaad28)"><text class="legendtitletext" text-anchor="start" x="2" y="23.400000000000002" style="font-family: CMU; font-size: 18px; fill: rgb(42, 63, 95); fill-opacity: 1; white-space: pre;">Number of vertices</text><g class="groups" transform=""><g class="traces" transform="translate(0,39.650000000000006)" style="opacity: 1;"><text class="legendtext" text-anchor="start" x="40" y="5.85" style="font-family: CMU; font-size: 15px; fill: rgb(42, 63, 95); fill-opacity: 1; white-space: pre;">642, 1.0</text><g class="layers" style="opacity: 1;"><g class="legendfill"/><g class="legendlines"/><g class="legendsymbols"><g class="legendpoints"><path class="scatterpts" transform="translate(20,0)" d="M4.5,4.5H-4.5V-4.5H4.5Z" style="opacity: 0.9; stroke-width: 0px; fill: rgb(46, 145, 229); fill-opacity: 1;"/></g></g></g><rect class="legendtoggle" x="0" y="-11.25" width="96.25" height="22.5" style="fill: rgb(0, 0, 0); fill-opacity: 0;"/></g></g><g class="groups" transform=""><g class="traces" transform="translate(0,62.150000000000006)" style="opacity: 1;"><text class="legendtext" text-anchor="start" x="40" y="5.85" style="font-family: CMU; font-size: 15px; fill: rgb(42, 63, 95); fill-opacity: 1; white-space: pre;">642, 0.5</text><g class="layers" style="opacity: 1;"><g class="legendfill"/><g class="legendlines"/><g class="legendsymbols"><g class="legendpoints"><path class="scatterpts" transform="translate(20,0)" d="M0,2.55l2.55,2.55l2.55,-2.55l-2.55,-2.55l2.55,-2.55l-2.55,-2.55l-2.55,2.55l-2.55,-2.55l-2.55,2.55l2.55,2.55l-2.55,2.55l2.55,2.55Z" style="opacity: 0.9; stroke-width: 0px; fill: rgb(46, 145, 229); fill-opacity: 1;"/></g></g></g><rect class="legendtoggle" x="0" y="-11.25" width="96.25" height="22.5" style="fill: rgb(0, 0, 0); fill-opacity: 0;"/></g></g><g class="groups" transform=""><g class="traces" transform="translate(0,84.65)" style="opacity: 1;"><text class="legendtext" text-anchor="start" x="40" y="5.85" style="font-family: CMU; font-size: 15px; fill: rgb(42, 63, 95); fill-opacity: 1; white-space: pre;">642, 0.1</text><g class="layers" style="opacity: 1;"><g class="legendfill"/><g class="legendlines"/><g class="legendsymbols"><g class="legendpoints"><path class="scatterpts" transform="translate(20,0)" d="M5.4,1.8H1.8V5.4H-1.8V1.8H-5.4V-1.8H-1.8V-5.4H1.8V-1.8H5.4Z" style="opacity: 0.9; stroke-width: 0px; fill: rgb(46, 145, 229); fill-opacity: 1;"/></g></g></g><rect class="legendtoggle" x="0" y="-11.25" width="96.25" height="22.5" style="fill: rgb(0, 0, 0); fill-opacity: 0;"/></g></g><g class="groups" transform=""><g class="traces" transform="translate(0,107.15)" style="opacity: 1;"><text class="legendtext" text-anchor="start" x="40" y="5.85" style="font-family: CMU; font-size: 15px; fill: rgb(42, 63, 95); fill-opacity: 1; white-space: pre;">642, 0.01</text><g class="layers" style="opacity: 1;"><g class="legendfill"/><g class="legendlines"/><g class="legendsymbols"><g class="legendpoints"><path class="scatterpts" transform="translate(20,0)" d="M0,2.55l2.55,2.55l2.55,-2.55l-2.55,-2.55l2.55,-2.55l-2.55,-2.55l-2.55,2.55l-2.55,-2.55l-2.55,2.55l2.55,2.55l-2.55,2.55l2.55,2.55Z" style="opacity: 0.9; stroke-width: 0px; fill: rgb(46, 145, 229); fill-opacity: 1;"/></g></g></g><rect class="legendtoggle" x="0" y="-11.25" width="96.25" height="22.5" style="fill: rgb(0, 0, 0); fill-opacity: 0;"/></g></g><g class="groups" transform=""><g class="traces" transform="translate(0,129.65)" style="opacity: 1;"><text class="legendtext" text-anchor="start" x="40" y="5.85" style="font-family: CMU; font-size: 15px; fill: rgb(42, 63, 95); fill-opacity: 1; white-space: pre;">162, 1.0</text><g class="layers" style="opacity: 1;"><g class="legendfill"/><g class="legendlines"/><g class="legendsymbols"><g class="legendpoints"><path class="scatterpts" transform="translate(20,0)" d="M4.5,4.5H-4.5V-4.5H4.5Z" style="opacity: 0.9; stroke-width: 0px; fill: rgb(225, 95, 153); fill-opacity: 1;"/></g></g></g><rect class="legendtoggle" x="0" y="-11.25" width="96.25" height="22.5" style="fill: rgb(0, 0, 0); fill-opacity: 0;"/></g></g><g class="groups" transform=""><g class="traces" transform="translate(0,152.15)" style="opacity: 1;"><text class="legendtext" text-anchor="start" x="40" y="5.85" style="font-family: CMU; font-size: 15px; fill: rgb(42, 63, 95); fill-opacity: 1; white-space: pre;">162, 0.5</text><g class="layers" style="opacity: 1;"><g class="legendfill"/><g class="legendlines"/><g class="legendsymbols"><g class="legendpoints"><path class="scatterpts" transform="translate(20,0)" d="M0,2.55l2.55,2.55l2.55,-2.55l-2.55,-2.55l2.55,-2.55l-2.55,-2.55l-2.55,2.55l-2.55,-2.55l-2.55,2.55l2.55,2.55l-2.55,2.55l2.55,2.55Z" style="opacity: 0.9; stroke-width: 0px; fill: rgb(225, 95, 153); fill-opacity: 1;"/></g></g></g><rect class="legendtoggle" x="0" y="-11.25" width="96.25" height="22.5" style="fill: rgb(0, 0, 0); fill-opacity: 0;"/></g></g><g class="groups" transform=""><g class="traces" transform="translate(0,174.65)" style="opacity: 1;"><text class="legendtext" text-anchor="start" x="40" y="5.85" style="font-family: CMU; font-size: 15px; fill: rgb(42, 63, 95); fill-opacity: 1; white-space: pre;">162, 0.1</text><g class="layers" style="opacity: 1;"><g class="legendfill"/><g class="legendlines"/><g class="legendsymbols"><g class="legendpoints"><path class="scatterpts" transform="translate(20,0)" d="M5.4,1.8H1.8V5.4H-1.8V1.8H-5.4V-1.8H-1.8V-5.4H1.8V-1.8H5.4Z" style="opacity: 0.9; stroke-width: 0px; fill: rgb(225, 95, 153); fill-opacity: 1;"/></g></g></g><rect class="legendtoggle" x="0" y="-11.25" width="96.25" height="22.5" style="fill: rgb(0, 0, 0); fill-opacity: 0;"/></g></g><g class="groups" transform=""><g class="traces" transform="translate(0,197.15)" style="opacity: 1;"><text class="legendtext" text-anchor="start" x="40" y="5.85" style="font-family: CMU; font-size: 15px; fill: rgb(42, 63, 95); fill-opacity: 1; white-space: pre;">162, 0.01</text><g class="layers" style="opacity: 1;"><g class="legendfill"/><g class="legendlines"/><g class="legendsymbols"><g class="legendpoints"><path class="scatterpts" transform="translate(20,0)" d="M0,2.55l2.55,2.55l2.55,-2.55l-2.55,-2.55l2.55,-2.55l-2.55,-2.55l-2.55,2.55l-2.55,-2.55l-2.55,2.55l2.55,2.55l-2.55,2.55l2.55,2.55Z" style="opacity: 0.9; stroke-width: 0px; fill: rgb(225, 95, 153); fill-opacity: 1;"/></g></g></g><rect class="legendtoggle" x="0" y="-11.25" width="96.25" height="22.5" style="fill: rgb(0, 0, 0); fill-opacity: 0;"/></g></g><g class="groups" transform=""><g class="traces" transform="translate(0,219.65)" style="opacity: 1;"><text class="legendtext" text-anchor="start" x="40" y="5.85" style="font-family: CMU; font-size: 15px; fill: rgb(42, 63, 95); fill-opacity: 1; white-space: pre;">42, 1.0</text><g class="layers" style="opacity: 1;"><g class="legendfill"/><g class="legendlines"/><g class="legendsymbols"><g class="legendpoints"><path class="scatterpts" transform="translate(20,0)" d="M4.5,4.5H-4.5V-4.5H4.5Z" style="opacity: 0.9; stroke-width: 0px; fill: rgb(28, 167, 28); fill-opacity: 1;"/></g></g></g><rect class="legendtoggle" x="0" y="-11.25" width="96.25" height="22.5" style="fill: rgb(0, 0, 0); fill-opacity: 0;"/></g></g><g class="groups" transform=""><g class="traces" transform="translate(0,242.15)" style="opacity: 1;"><text class="legendtext" text-anchor="start" x="40" y="5.85" style="font-family: CMU; font-size: 15px; fill: rgb(42, 63, 95); fill-opacity: 1; white-space: pre;">42, 0.5</text><g class="layers" style="opacity: 1;"><g class="legendfill"/><g class="legendlines"/><g class="legendsymbols"><g class="legendpoints"><path class="scatterpts" transform="translate(20,0)" d="M0,2.55l2.55,2.55l2.55,-2.55l-2.55,-2.55l2.55,-2.55l-2.55,-2.55l-2.55,2.55l-2.55,-2.55l-2.55,2.55l2.55,2.55l-2.55,2.55l2.55,2.55Z" style="opacity: 0.9; stroke-width: 0px; fill: rgb(28, 167, 28); fill-opacity: 1;"/></g></g></g><rect class="legendtoggle" x="0" y="-11.25" width="96.25" height="22.5" style="fill: rgb(0, 0, 0); fill-opacity: 0;"/></g></g><g class="groups" transform=""><g class="traces" transform="translate(0,264.65)" style="opacity: 1;"><text class="legendtext" text-anchor="start" x="40" y="5.85" style="font-family: CMU; font-size: 15px; fill: rgb(42, 63, 95); fill-opacity: 1; white-space: pre;">42, 0.1</text><g class="layers" style="opacity: 1;"><g class="legendfill"/><g class="legendlines"/><g class="legendsymbols"><g class="legendpoints"><path class="scatterpts" transform="translate(20,0)" d="M5.4,1.8H1.8V5.4H-1.8V1.8H-5.4V-1.8H-1.8V-5.4H1.8V-1.8H5.4Z" style="opacity: 0.9; stroke-width: 0px; fill: rgb(28, 167, 28); fill-opacity: 1;"/></g></g></g><rect class="legendtoggle" x="0" y="-11.25" width="96.25" height="22.5" style="fill: rgb(0, 0, 0); fill-opacity: 0;"/></g></g><g class="groups" transform=""><g class="traces" transform="translate(0,287.15)" style="opacity: 1;"><text class="legendtext" text-anchor="start" x="40" y="5.85" style="font-family: CMU; font-size: 15px; fill: rgb(42, 63, 95); fill-opacity: 1; white-space: pre;">42, 0.01</text><g class="layers" style="opacity: 1;"><g class="legendfill"/><g class="legendlines"/><g class="legendsymbols"><g class="legendpoints"><path class="scatterpts" transform="translate(20,0)" d="M0,2.55l2.55,2.55l2.55,-2.55l-2.55,-2.55l2.55,-2.55l-2.55,-2.55l-2.55,2.55l-2.55,-2.55l-2.55,2.55l2.55,2.55l-2.55,2.55l2.55,2.55Z" style="opacity: 0.9; stroke-width: 0px; fill: rgb(28, 167, 28); fill-opacity: 1;"/></g></g></g><rect class="legendtoggle" x="0" y="-11.25" width="96.25" height="22.5" style="fill: rgb(0, 0, 0); fill-opacity: 0;"/></g></g></g><rect class="scrollbar" rx="20" ry="3" width="0" height="0" style="fill: rgb(128, 139, 164); fill-opacity: 1;" x="0" y="0"/></g><g class="g-gtitle"/><g class="g-xtitle"><text class="xtitle" x="283" y="334" text-anchor="middle" style="font-family: CMU; font-size: 15px; fill: rgb(42, 63, 95); opacity: 1; font-weight: normal; white-space: pre;">Accuracy</text></g><g class="g-ytitle"><text class="ytitle" transform="rotate(-90,31.5,175)" x="31.5" y="175" text-anchor="middle" style="font-family: CMU; font-size: 15px; fill: rgb(42, 63, 95); opacity: 1; font-weight: normal; white-space: pre;">Speed gain per vertex</text></g></g></svg>