<svg class="main-svg" xmlns="http://www.w3.org/2000/svg" xmlns:xlink="http://www.w3.org/1999/xlink" width="650" height="370" style="" viewBox="0 0 650 370"><rect x="0" y="0" width="650" height="370" style="fill: rgb(255, 255, 255); fill-opacity: 1;"/><defs id="defs-a93c74"><g class="clips"><clipPath id="clipa93c74xyplot" class="plotclip"><rect width="370" height="230"/></clipPath><clipPath class="axesclip" id="clipa93c74x"><rect x="80" y="0" width="370" height="370"/></clipPath><clipPath class="axesclip" id="clipa93c74y"><rect x="0" y="60" width="650" height="230"/></clipPath><clipPath class="axesclip" id="clipa93c74xy"><rect x="80" y="60" width="370" height="230"/></clipPath></g><g class="gradients"/><g class="patterns"/></defs><g class="bglayer"><rect class="bg" x="80" y="60" width="370" height="230" style="fill: rgb(229, 236, 246); fill-opacity: 1; stroke-width: 0;"/></g><g class="layer-below"><g class="imagelayer"/><g class="shapelayer"/></g><g class="cartesianlayer"><g class="subplot xy"><g class="layer-subplot"><g class="shapelayer"/><g class="imagelayer"/></g><g class="minor-gridlayer"><g class="x"/><g class="y"/></g><g class="gridlayer"><g class="x"><path class="xgrid crisp" transform="translate(173.39,0)" d="M0,60v230" style="stroke: rgb(255, 255, 255); stroke-opacity: 1; stroke-width: 1px;"/><path class="xgrid crisp" transform="translate(242.66,0)" d="M0,60v230" style="stroke: rgb(255, 255, 255); stroke-opacity: 1; stroke-width: 1px;"/><path class="xgrid crisp" transform="translate(311.93,0)" d="M0,60v230" style="stroke: rgb(255, 255, 255); stroke-opacity: 1; stroke-width: 1px;"/><path class="xgrid crisp" transform="translate(381.2,0)" d="M0,60v230" style="stroke: rgb(255, 255, 255); stroke-opacity: 1; stroke-width: 1px;"/></g><g class="y"><path class="ygrid crisp" transform="translate(0,230.73)" d="M80,0h370" style="stroke: rgb(255, 255, 255); stroke-opacity: 1; stroke-width: 1px;"/><path class="ygrid crisp" transform="translate(0,188.59)" d="M80,0h370" style="stroke: rgb(255, 255, 255); stroke-opacity: 1; stroke-width: 1px;"/><path class="ygrid crisp" transform="translate(0,146.45)" d="M80,0h370" style="stroke: rgb(255, 255, 255); stroke-opacity: 1; stroke-width: 1px;"/><path class="ygrid crisp" transform="translate(0,104.31)" d="M80,0h370" style="stroke: rgb(255, 255, 255); stroke-opacity: 1; stroke-width: 1px;"/><path class="ygrid crisp" transform="translate(0,62.16)" d="M80,0h370" style="stroke: rgb(255, 255, 255); stroke-opacity: 1; stroke-width: 1px;"/></g></g><g class="zerolinelayer"><path class="xzl zl crisp" transform="translate(104.13,0)" d="M0,60v230" style="stroke: rgb(255, 255, 255); stroke-opacity: 1; stroke-width: 2px;"/><path class="yzl zl crisp" transform="translate(0,272.88)" d="M80,0h370" style="stroke: rgb(255, 255, 255); stroke-opacity: 1; stroke-width: 2px;"/></g><path class="xlines-below"/><path class="ylines-below"/><g class="overlines-below"/><g class="xaxislayer-below"/><g class="yaxislayer-below"/><g class="overaxes-below"/><g class="plot" transform="translate(80,60)" clip-path="url(#clipa93c74xyplot)"><g class="scatterlayer mlayer"><g class="trace scatter trace0cb025" style="stroke-miterlimit: 2; opacity: 1;"><g class="fills"/><g class="errorbars"/><g class="lines"/><g class="points"><path class="point" transform="translate(62.93,212.07)" d="M4.5,4.5H-4.5V-4.5H4.5Z" style="opacity: 0.9; stroke-width: 0px; fill: rgb(46, 145, 229); fill-opacity: 1;"/><path class="point" transform="translate(51.82,209.73)" d="M4.5,4.5H-4.5V-4.5H4.5Z" style="opacity: 0.9; stroke-width: 0px; fill: rgb(46, 145, 229); fill-opacity: 1;"/><path class="point" transform="translate(31.58,211.95)" d="M4.5,4.5H-4.5V-4.5H4.5Z" style="opacity: 0.9; stroke-width: 0px; fill: rgb(46, 145, 229); fill-opacity: 1;"/><path class="point" transform="translate(43.62,206.55)" d="M4.5,4.5H-4.5V-4.5H4.5Z" style="opacity: 0.9; stroke-width: 0px; fill: rgb(46, 145, 229); fill-opacity: 1;"/><path class="point" transform="translate(38.04,212.7)" d="M4.5,4.5H-4.5V-4.5H4.5Z" style="opacity: 0.9; stroke-width: 0px; fill: rgb(46, 145, 229); fill-opacity: 1;"/><path class="point" transform="translate(27.87,212.66)" d="M4.5,4.5H-4.5V-4.5H4.5Z" style="opacity: 0.9; stroke-width: 0px; fill: rgb(46, 145, 229); fill-opacity: 1;"/><path class="point" transform="translate(34.04,209.65)" d="M4.5,4.5H-4.5V-4.5H4.5Z" style="opacity: 0.9; stroke-width: 0px; fill: rgb(46, 145, 229); fill-opacity: 1;"/><path class="point" transform="translate(31.21,212.8)" d="M4.5,4.5H-4.5V-4.5H4.5Z" style="opacity: 0.9; stroke-width: 0px; fill: rgb(46, 145, 229); fill-opacity: 1;"/><path class="point" transform="translate(26.03,212.81)" d="M4.5,4.5H-4.5V-4.5H4.5Z" style="opacity: 0.9; stroke-width: 0px; fill: rgb(46, 145, 229); fill-opacity: 1;"/><path class="point" transform="translate(101.66,205.72)" d="M4.5,4.5H-4.5V-4.5H4.5Z" style="opacity: 0.9; stroke-width: 0px; fill: rgb(46, 145, 229); fill-opacity: 1;"/><path class="point" transform="translate(79.44,201.08)" d="M4.5,4.5H-4.5V-4.5H4.5Z" style="opacity: 0.9; stroke-width: 0px; fill: rgb(46, 145, 229); fill-opacity: 1;"/><path class="point" transform="translate(39.01,212.31)" d="M4.5,4.5H-4.5V-4.5H4.5Z" style="opacity: 0.9; stroke-width: 0px; fill: rgb(46, 145, 229); fill-opacity: 1;"/><path class="point" transform="translate(62.94,211.91)" d="M4.5,4.5H-4.5V-4.5H4.5Z" style="opacity: 0.9; stroke-width: 0px; fill: rgb(46, 145, 229); fill-opacity: 1;"/><path class="point" transform="translate(51.84,209.27)" d="M4.5,4.5H-4.5V-4.5H4.5Z" style="opacity: 0.9; stroke-width: 0px; fill: rgb(46, 145, 229); fill-opacity: 1;"/><path class="point" transform="translate(31.59,212.66)" d="M4.5,4.5H-4.5V-4.5H4.5Z" style="opacity: 0.9; stroke-width: 0px; fill: rgb(46, 145, 229); fill-opacity: 1;"/><path class="point" transform="translate(43.62,206.81)" d="M4.5,4.5H-4.5V-4.5H4.5Z" style="opacity: 0.9; stroke-width: 0px; fill: rgb(46, 145, 229); fill-opacity: 1;"/><path class="point" transform="translate(38.03,212.71)" d="M4.5,4.5H-4.5V-4.5H4.5Z" style="opacity: 0.9; stroke-width: 0px; fill: rgb(46, 145, 229); fill-opacity: 1;"/><path class="point" transform="translate(27.87,212.78)" d="M4.5,4.5H-4.5V-4.5H4.5Z" style="opacity: 0.9; stroke-width: 0px; fill: rgb(46, 145, 229); fill-opacity: 1;"/><path class="point" transform="translate(34.05,209.75)" d="M4.5,4.5H-4.5V-4.5H4.5Z" style="opacity: 0.9; stroke-width: 0px; fill: rgb(46, 145, 229); fill-opacity: 1;"/><path class="point" transform="translate(31.2,212.81)" d="M4.5,4.5H-4.5V-4.5H4.5Z" style="opacity: 0.9; stroke-width: 0px; fill: rgb(46, 145, 229); fill-opacity: 1;"/><path class="point" transform="translate(26.03,212.83)" d="M4.5,4.5H-4.5V-4.5H4.5Z" style="opacity: 0.9; stroke-width: 0px; fill: rgb(46, 145, 229); fill-opacity: 1;"/><path class="point" transform="translate(101.66,205.73)" d="M4.5,4.5H-4.5V-4.5H4.5Z" style="opacity: 0.9; stroke-width: 0px; fill: rgb(46, 145, 229); fill-opacity: 1;"/><path class="point" transform="translate(79.47,201.09)" d="M4.5,4.5H-4.5V-4.5H4.5Z" style="opacity: 0.9; stroke-width: 0px; fill: rgb(46, 145, 229); fill-opacity: 1;"/><path class="point" transform="translate(39.02,212.43)" d="M4.5,4.5H-4.5V-4.5H4.5Z" style="opacity: 0.9; stroke-width: 0px; fill: rgb(46, 145, 229); fill-opacity: 1;"/><path class="point" transform="translate(62.93,211.93)" d="M4.5,4.5H-4.5V-4.5H4.5Z" style="opacity: 0.9; stroke-width: 0px; fill: rgb(46, 145, 229); fill-opacity: 1;"/><path class="point" transform="translate(51.81,209.27)" d="M4.5,4.5H-4.5V-4.5H4.5Z" style="opacity: 0.9; stroke-width: 0px; fill: rgb(46, 145, 229); fill-opacity: 1;"/><path class="point" transform="translate(31.59,212.73)" d="M4.5,4.5H-4.5V-4.5H4.5Z" style="opacity: 0.9; stroke-width: 0px; fill: rgb(46, 145, 229); fill-opacity: 1;"/><path class="point" transform="translate(43.62,206.82)" d="M4.5,4.5H-4.5V-4.5H4.5Z" style="opacity: 0.9; stroke-width: 0px; fill: rgb(46, 145, 229); fill-opacity: 1;"/><path class="point" transform="translate(38.02,212.73)" d="M4.5,4.5H-4.5V-4.5H4.5Z" style="opacity: 0.9; stroke-width: 0px; fill: rgb(46, 145, 229); fill-opacity: 1;"/><path class="point" transform="translate(27.87,212.85)" d="M4.5,4.5H-4.5V-4.5H4.5Z" style="opacity: 0.9; stroke-width: 0px; fill: rgb(46, 145, 229); fill-opacity: 1;"/><path class="point" transform="translate(34.07,209.74)" d="M4.5,4.5H-4.5V-4.5H4.5Z" style="opacity: 0.9; stroke-width: 0px; fill: rgb(46, 145, 229); fill-opacity: 1;"/><path class="point" transform="translate(31.21,212.84)" d="M4.5,4.5H-4.5V-4.5H4.5Z" style="opacity: 0.9; stroke-width: 0px; fill: rgb(46, 145, 229); fill-opacity: 1;"/><path class="point" transform="translate(26.02,212.87)" d="M4.5,4.5H-4.5V-4.5H4.5Z" style="opacity: 0.9; stroke-width: 0px; fill: rgb(46, 145, 229); fill-opacity: 1;"/><path class="point" transform="translate(101.66,205.73)" d="M4.5,4.5H-4.5V-4.5H4.5Z" style="opacity: 0.9; stroke-width: 0px; fill: rgb(46, 145, 229); fill-opacity: 1;"/><path class="point" transform="translate(79.46,201.09)" d="M4.5,4.5H-4.5V-4.5H4.5Z" style="opacity: 0.9; stroke-width: 0px; fill: rgb(46, 145, 229); fill-opacity: 1;"/><path class="point" transform="translate(39,212.44)" d="M4.5,4.5H-4.5V-4.5H4.5Z" style="opacity: 0.9; stroke-width: 0px; fill: rgb(46, 145, 229); fill-opacity: 1;"/><path class="point" transform="translate(62.93,211.93)" d="M4.5,4.5H-4.5V-4.5H4.5Z" style="opacity: 0.9; stroke-width: 0px; fill: rgb(46, 145, 229); fill-opacity: 1;"/><path class="point" transform="translate(51.82,209.27)" d="M4.5,4.5H-4.5V-4.5H4.5Z" style="opacity: 0.9; stroke-width: 0px; fill: rgb(46, 145, 229); fill-opacity: 1;"/><path class="point" transform="translate(31.58,212.73)" d="M4.5,4.5H-4.5V-4.5H4.5Z" style="opacity: 0.9; stroke-width: 0px; fill: rgb(46, 145, 229); fill-opacity: 1;"/><path class="point" transform="translate(43.6,206.82)" d="M4.5,4.5H-4.5V-4.5H4.5Z" style="opacity: 0.9; stroke-width: 0px; fill: rgb(46, 145, 229); fill-opacity: 1;"/><path class="point" transform="translate(38.03,212.73)" d="M4.5,4.5H-4.5V-4.5H4.5Z" style="opacity: 0.9; stroke-width: 0px; fill: rgb(46, 145, 229); fill-opacity: 1;"/><path class="point" transform="translate(27.86,212.85)" d="M4.5,4.5H-4.5V-4.5H4.5Z" style="opacity: 0.9; stroke-width: 0px; fill: rgb(46, 145, 229); fill-opacity: 1;"/><path class="point" transform="translate(34.06,209.74)" d="M4.5,4.5H-4.5V-4.5H4.5Z" style="opacity: 0.9; stroke-width: 0px; fill: rgb(46, 145, 229); fill-opacity: 1;"/><path class="point" transform="translate(31.22,212.84)" d="M4.5,4.5H-4.5V-4.5H4.5Z" style="opacity: 0.9; stroke-width: 0px; fill: rgb(46, 145, 229); fill-opacity: 1;"/><path class="point" transform="translate(26.04,212.87)" d="M4.5,4.5H-4.5V-4.5H4.5Z" style="opacity: 0.9; stroke-width: 0px; fill: rgb(46, 145, 229); fill-opacity: 1;"/><path class="point" transform="translate(101.66,205.73)" d="M4.5,4.5H-4.5V-4.5H4.5Z" style="opacity: 0.9; stroke-width: 0px; fill: rgb(46, 145, 229); fill-opacity: 1;"/><path class="point" transform="translate(79.45,201.09)" d="M4.5,4.5H-4.5V-4.5H4.5Z" style="opacity: 0.9; stroke-width: 0px; fill: rgb(46, 145, 229); fill-opacity: 1;"/><path class="point" transform="translate(39,212.44)" d="M4.5,4.5H-4.5V-4.5H4.5Z" style="opacity: 0.9; stroke-width: 0px; fill: rgb(46, 145, 229); fill-opacity: 1;"/><path class="point" transform="translate(62.94,211.93)" d="M4.5,4.5H-4.5V-4.5H4.5Z" style="opacity: 0.9; stroke-width: 0px; fill: rgb(46, 145, 229); fill-opacity: 1;"/><path class="point" transform="translate(51.83,209.27)" d="M4.5,4.5H-4.5V-4.5H4.5Z" style="opacity: 0.9; stroke-width: 0px; fill: rgb(46, 145, 229); fill-opacity: 1;"/><path class="point" transform="translate(31.58,212.73)" d="M4.5,4.5H-4.5V-4.5H4.5Z" style="opacity: 0.9; stroke-width: 0px; fill: rgb(46, 145, 229); fill-opacity: 1;"/><path class="point" transform="translate(43.63,206.82)" d="M4.5,4.5H-4.5V-4.5H4.5Z" style="opacity: 0.9; stroke-width: 0px; fill: rgb(46, 145, 229); fill-opacity: 1;"/><path class="point" transform="translate(38.03,212.73)" d="M4.5,4.5H-4.5V-4.5H4.5Z" style="opacity: 0.9; stroke-width: 0px; fill: rgb(46, 145, 229); fill-opacity: 1;"/><path class="point" transform="translate(27.86,212.85)" d="M4.5,4.5H-4.5V-4.5H4.5Z" style="opacity: 0.9; stroke-width: 0px; fill: rgb(46, 145, 229); fill-opacity: 1;"/><path class="point" transform="translate(34.05,209.74)" d="M4.5,4.5H-4.5V-4.5H4.5Z" style="opacity: 0.9; stroke-width: 0px; fill: rgb(46, 145, 229); fill-opacity: 1;"/><path class="point" transform="translate(31.2,212.84)" d="M4.5,4.5H-4.5V-4.5H4.5Z" style="opacity: 0.9; stroke-width: 0px; fill: rgb(46, 145, 229); fill-opacity: 1;"/><path class="point" transform="translate(26.03,212.88)" d="M4.5,4.5H-4.5V-4.5H4.5Z" style="opacity: 0.9; stroke-width: 0px; fill: rgb(46, 145, 229); fill-opacity: 1;"/><path class="point" transform="translate(24.55,212.84)" d="M4.5,4.5H-4.5V-4.5H4.5Z" style="opacity: 0.9; stroke-width: 0px; fill: rgb(46, 145, 229); fill-opacity: 1;"/><path class="point" transform="translate(24.54,212.84)" d="M4.5,4.5H-4.5V-4.5H4.5Z" style="opacity: 0.9; stroke-width: 0px; fill: rgb(46, 145, 229); fill-opacity: 1;"/><path class="point" transform="translate(24.18,212.84)" d="M4.5,4.5H-4.5V-4.5H4.5Z" style="opacity: 0.9; stroke-width: 0px; fill: rgb(46, 145, 229); fill-opacity: 1;"/><path class="point" transform="translate(24.18,212.84)" d="M4.5,4.5H-4.5V-4.5H4.5Z" style="opacity: 0.9; stroke-width: 0px; fill: rgb(46, 145, 229); fill-opacity: 1;"/><path class="point" transform="translate(24.13,212.87)" d="M4.5,4.5H-4.5V-4.5H4.5Z" style="opacity: 0.9; stroke-width: 0px; fill: rgb(46, 145, 229); fill-opacity: 1;"/><path class="point" transform="translate(194.28,109.35)" d="M4.5,4.5H-4.5V-4.5H4.5Z" style="opacity: 0.9; stroke-width: 0px; fill: rgb(46, 145, 229); fill-opacity: 1;"/><path class="point" transform="translate(141.43,141.51)" d="M4.5,4.5H-4.5V-4.5H4.5Z" style="opacity: 0.9; stroke-width: 0px; fill: rgb(46, 145, 229); fill-opacity: 1;"/><path class="point" transform="translate(24.13,212.87)" d="M4.5,4.5H-4.5V-4.5H4.5Z" style="opacity: 0.9; stroke-width: 0px; fill: rgb(46, 145, 229); fill-opacity: 1;"/><path class="point" transform="translate(345.88,17.13)" d="M4.5,4.5H-4.5V-4.5H4.5Z" style="opacity: 0.9; stroke-width: 0px; fill: rgb(46, 145, 229); fill-opacity: 1;"/><path class="point" transform="translate(27.66,210.72)" d="M4.5,4.5H-4.5V-4.5H4.5Z" style="opacity: 0.9; stroke-width: 0px; fill: rgb(46, 145, 229); fill-opacity: 1;"/><path class="point" transform="translate(24.13,212.88)" d="M4.5,4.5H-4.5V-4.5H4.5Z" style="opacity: 0.9; stroke-width: 0px; fill: rgb(46, 145, 229); fill-opacity: 1;"/><path class="point" transform="translate(32.83,207.58)" d="M4.5,4.5H-4.5V-4.5H4.5Z" style="opacity: 0.9; stroke-width: 0px; fill: rgb(46, 145, 229); fill-opacity: 1;"/><path class="point" transform="translate(24.53,212.63)" d="M4.5,4.5H-4.5V-4.5H4.5Z" style="opacity: 0.9; stroke-width: 0px; fill: rgb(46, 145, 229); fill-opacity: 1;"/><path class="point" transform="translate(24.13,212.88)" d="M4.5,4.5H-4.5V-4.5H4.5Z" style="opacity: 0.9; stroke-width: 0px; fill: rgb(46, 145, 229); fill-opacity: 1;"/><path class="point" transform="translate(24.13,212.88)" d="M4.5,4.5H-4.5V-4.5H4.5Z" style="opacity: 0.9; stroke-width: 0px; fill: rgb(46, 145, 229); fill-opacity: 1;"/></g><g class="text"/></g><g class="trace scatter tracee81fbb" style="stroke-miterlimit: 2; opacity: 1;"><g class="fills"/><g class="errorbars"/><g class="lines"/><g class="points"><path class="point" transform="translate(24.54,212.84)" d="M5.4,1.8H1.8V5.4H-1.8V1.8H-5.4V-1.8H-1.8V-5.4H1.8V-1.8H5.4Z" style="opacity: 0.9; stroke-width: 0px; fill: rgb(46, 145, 229); fill-opacity: 1;"/><path class="point" transform="translate(24.54,212.84)" d="M5.4,1.8H1.8V5.4H-1.8V1.8H-5.4V-1.8H-1.8V-5.4H1.8V-1.8H5.4Z" style="opacity: 0.9; stroke-width: 0px; fill: rgb(46, 145, 229); fill-opacity: 1;"/><path class="point" transform="translate(24.18,212.84)" d="M5.4,1.8H1.8V5.4H-1.8V1.8H-5.4V-1.8H-1.8V-5.4H1.8V-1.8H5.4Z" style="opacity: 0.9; stroke-width: 0px; fill: rgb(46, 145, 229); fill-opacity: 1;"/><path class="point" transform="translate(24.18,212.84)" d="M5.4,1.8H1.8V5.4H-1.8V1.8H-5.4V-1.8H-1.8V-5.4H1.8V-1.8H5.4Z" style="opacity: 0.9; stroke-width: 0px; fill: rgb(46, 145, 229); fill-opacity: 1;"/></g><g class="text"/></g><g class="trace scatter traceffc80c" style="stroke-miterlimit: 2; opacity: 1;"><g class="fills"/><g class="errorbars"/><g class="lines"/><g class="points"><path class="point" transform="translate(24.54,212.84)" d="M0,2.55l2.55,2.55l2.55,-2.55l-2.55,-2.55l2.55,-2.55l-2.55,-2.55l-2.55,2.55l-2.55,-2.55l-2.55,2.55l2.55,2.55l-2.55,2.55l2.55,2.55Z" style="opacity: 0.9; stroke-width: 0px; fill: rgb(46, 145, 229); fill-opacity: 1;"/><path class="point" transform="translate(24.54,212.84)" d="M0,2.55l2.55,2.55l2.55,-2.55l-2.55,-2.55l2.55,-2.55l-2.55,-2.55l-2.55,2.55l-2.55,-2.55l-2.55,2.55l2.55,2.55l-2.55,2.55l2.55,2.55Z" style="opacity: 0.9; stroke-width: 0px; fill: rgb(46, 145, 229); fill-opacity: 1;"/><path class="point" transform="translate(24.18,212.84)" d="M0,2.55l2.55,2.55l2.55,-2.55l-2.55,-2.55l2.55,-2.55l-2.55,-2.55l-2.55,2.55l-2.55,-2.55l-2.55,2.55l2.55,2.55l-2.55,2.55l2.55,2.55Z" style="opacity: 0.9; stroke-width: 0px; fill: rgb(46, 145, 229); fill-opacity: 1;"/><path class="point" transform="translate(24.18,212.84)" d="M0,2.55l2.55,2.55l2.55,-2.55l-2.55,-2.55l2.55,-2.55l-2.55,-2.55l-2.55,2.55l-2.55,-2.55l-2.55,2.55l2.55,2.55l-2.55,2.55l2.55,2.55Z" style="opacity: 0.9; stroke-width: 0px; fill: rgb(46, 145, 229); fill-opacity: 1;"/></g><g class="text"/></g><g class="trace scatter traced6ccfa" style="stroke-miterlimit: 2; opacity: 1;"><g class="fills"/><g class="errorbars"/><g class="lines"/><g class="points"><path class="point" transform="translate(24.55,212.84)" d="M0,2.55l2.55,2.55l2.55,-2.55l-2.55,-2.55l2.55,-2.55l-2.55,-2.55l-2.55,2.55l-2.55,-2.55l-2.55,2.55l2.55,2.55l-2.55,2.55l2.55,2.55Z" style="opacity: 0.9; stroke-width: 0px; fill: rgb(225, 95, 153); fill-opacity: 1;"/><path class="point" transform="translate(24.54,212.84)" d="M0,2.55l2.55,2.55l2.55,-2.55l-2.55,-2.55l2.55,-2.55l-2.55,-2.55l-2.55,2.55l-2.55,-2.55l-2.55,2.55l2.55,2.55l-2.55,2.55l2.55,2.55Z" style="opacity: 0.9; stroke-width: 0px; fill: rgb(225, 95, 153); fill-opacity: 1;"/><path class="point" transform="translate(24.18,212.84)" d="M0,2.55l2.55,2.55l2.55,-2.55l-2.55,-2.55l2.55,-2.55l-2.55,-2.55l-2.55,2.55l-2.55,-2.55l-2.55,2.55l2.55,2.55l-2.55,2.55l2.55,2.55Z" style="opacity: 0.9; stroke-width: 0px; fill: rgb(225, 95, 153); fill-opacity: 1;"/><path class="point" transform="translate(24.18,212.84)" d="M0,2.55l2.55,2.55l2.55,-2.55l-2.55,-2.55l2.55,-2.55l-2.55,-2.55l-2.55,2.55l-2.55,-2.55l-2.55,2.55l2.55,2.55l-2.55,2.55l2.55,2.55Z" style="opacity: 0.9; stroke-width: 0px; fill: rgb(225, 95, 153); fill-opacity: 1;"/></g><g class="text"/></g><g class="trace scatter trace761e61" style="stroke-miterlimit: 2; opacity: 1;"><g class="fills"/><g class="errorbars"/><g class="lines"/><g class="points"><path class="point" transform="translate(29.29,209.73)" d="M4.5,4.5H-4.5V-4.5H4.5Z" style="opacity: 0.9; stroke-width: 0px; fill: rgb(28, 167, 28); fill-opacity: 1;"/><path class="point" transform="translate(25.64,211.95)" d="M4.5,4.5H-4.5V-4.5H4.5Z" style="opacity: 0.9; stroke-width: 0px; fill: rgb(28, 167, 28); fill-opacity: 1;"/><path class="point" transform="translate(34.52,206.55)" d="M4.5,4.5H-4.5V-4.5H4.5Z" style="opacity: 0.9; stroke-width: 0px; fill: rgb(28, 167, 28); fill-opacity: 1;"/><path class="point" transform="translate(24.41,212.7)" d="M4.5,4.5H-4.5V-4.5H4.5Z" style="opacity: 0.9; stroke-width: 0px; fill: rgb(28, 167, 28); fill-opacity: 1;"/><path class="point" transform="translate(24.47,212.66)" d="M4.5,4.5H-4.5V-4.5H4.5Z" style="opacity: 0.9; stroke-width: 0px; fill: rgb(28, 167, 28); fill-opacity: 1;"/><path class="point" transform="translate(29.42,209.65)" d="M4.5,4.5H-4.5V-4.5H4.5Z" style="opacity: 0.9; stroke-width: 0px; fill: rgb(28, 167, 28); fill-opacity: 1;"/><path class="point" transform="translate(24.25,212.8)" d="M4.5,4.5H-4.5V-4.5H4.5Z" style="opacity: 0.9; stroke-width: 0px; fill: rgb(28, 167, 28); fill-opacity: 1;"/><path class="point" transform="translate(24.23,212.81)" d="M4.5,4.5H-4.5V-4.5H4.5Z" style="opacity: 0.9; stroke-width: 0px; fill: rgb(28, 167, 28); fill-opacity: 1;"/><path class="point" transform="translate(36.88,205.11)" d="M4.5,4.5H-4.5V-4.5H4.5Z" style="opacity: 0.9; stroke-width: 0px; fill: rgb(28, 167, 28); fill-opacity: 1;"/><path class="point" transform="translate(41.73,202.16)" d="M4.5,4.5H-4.5V-4.5H4.5Z" style="opacity: 0.9; stroke-width: 0px; fill: rgb(28, 167, 28); fill-opacity: 1;"/><path class="point" transform="translate(26.05,211.71)" d="M4.5,4.5H-4.5V-4.5H4.5Z" style="opacity: 0.9; stroke-width: 0px; fill: rgb(28, 167, 28); fill-opacity: 1;"/><path class="point" transform="translate(25.45,212.07)" d="M4.5,4.5H-4.5V-4.5H4.5Z" style="opacity: 0.9; stroke-width: 0px; fill: rgb(28, 167, 28); fill-opacity: 1;"/><path class="point" transform="translate(29.29,209.73)" d="M4.5,4.5H-4.5V-4.5H4.5Z" style="opacity: 0.9; stroke-width: 0px; fill: rgb(28, 167, 28); fill-opacity: 1;"/><path class="point" transform="translate(34.52,206.55)" d="M4.5,4.5H-4.5V-4.5H4.5Z" style="opacity: 0.9; stroke-width: 0px; fill: rgb(28, 167, 28); fill-opacity: 1;"/><path class="point" transform="translate(24.41,212.7)" d="M4.5,4.5H-4.5V-4.5H4.5Z" style="opacity: 0.9; stroke-width: 0px; fill: rgb(28, 167, 28); fill-opacity: 1;"/><path class="point" transform="translate(29.42,209.65)" d="M4.5,4.5H-4.5V-4.5H4.5Z" style="opacity: 0.9; stroke-width: 0px; fill: rgb(28, 167, 28); fill-opacity: 1;"/><path class="point" transform="translate(24.25,212.8)" d="M4.5,4.5H-4.5V-4.5H4.5Z" style="opacity: 0.9; stroke-width: 0px; fill: rgb(28, 167, 28); fill-opacity: 1;"/><path class="point" transform="translate(35.88,205.72)" d="M4.5,4.5H-4.5V-4.5H4.5Z" style="opacity: 0.9; stroke-width: 0px; fill: rgb(28, 167, 28); fill-opacity: 1;"/><path class="point" transform="translate(43.51,201.08)" d="M4.5,4.5H-4.5V-4.5H4.5Z" style="opacity: 0.9; stroke-width: 0px; fill: rgb(28, 167, 28); fill-opacity: 1;"/><path class="point" transform="translate(25.05,212.31)" d="M4.5,4.5H-4.5V-4.5H4.5Z" style="opacity: 0.9; stroke-width: 0px; fill: rgb(28, 167, 28); fill-opacity: 1;"/><path class="point" transform="translate(25.7,211.92)" d="M4.5,4.5H-4.5V-4.5H4.5Z" style="opacity: 0.9; stroke-width: 0px; fill: rgb(28, 167, 28); fill-opacity: 1;"/><path class="point" transform="translate(30.05,209.27)" d="M4.5,4.5H-4.5V-4.5H4.5Z" style="opacity: 0.9; stroke-width: 0px; fill: rgb(28, 167, 28); fill-opacity: 1;"/><path class="point" transform="translate(24.49,212.65)" d="M4.5,4.5H-4.5V-4.5H4.5Z" style="opacity: 0.9; stroke-width: 0px; fill: rgb(28, 167, 28); fill-opacity: 1;"/><path class="point" transform="translate(34.08,206.82)" d="M4.5,4.5H-4.5V-4.5H4.5Z" style="opacity: 0.9; stroke-width: 0px; fill: rgb(28, 167, 28); fill-opacity: 1;"/><path class="point" transform="translate(24.41,212.7)" d="M4.5,4.5H-4.5V-4.5H4.5Z" style="opacity: 0.9; stroke-width: 0px; fill: rgb(28, 167, 28); fill-opacity: 1;"/><path class="point" transform="translate(24.27,212.79)" d="M4.5,4.5H-4.5V-4.5H4.5Z" style="opacity: 0.9; stroke-width: 0px; fill: rgb(28, 167, 28); fill-opacity: 1;"/><path class="point" transform="translate(29.27,209.75)" d="M4.5,4.5H-4.5V-4.5H4.5Z" style="opacity: 0.9; stroke-width: 0px; fill: rgb(28, 167, 28); fill-opacity: 1;"/><path class="point" transform="translate(24.23,212.81)" d="M4.5,4.5H-4.5V-4.5H4.5Z" style="opacity: 0.9; stroke-width: 0px; fill: rgb(28, 167, 28); fill-opacity: 1;"/><path class="point" transform="translate(24.2,212.83)" d="M4.5,4.5H-4.5V-4.5H4.5Z" style="opacity: 0.9; stroke-width: 0px; fill: rgb(28, 167, 28); fill-opacity: 1;"/><path class="point" transform="translate(35.86,205.73)" d="M4.5,4.5H-4.5V-4.5H4.5Z" style="opacity: 0.9; stroke-width: 0px; fill: rgb(28, 167, 28); fill-opacity: 1;"/><path class="point" transform="translate(43.5,201.09)" d="M4.5,4.5H-4.5V-4.5H4.5Z" style="opacity: 0.9; stroke-width: 0px; fill: rgb(28, 167, 28); fill-opacity: 1;"/><path class="point" transform="translate(24.85,212.44)" d="M4.5,4.5H-4.5V-4.5H4.5Z" style="opacity: 0.9; stroke-width: 0px; fill: rgb(28, 167, 28); fill-opacity: 1;"/><path class="point" transform="translate(25.68,211.93)" d="M4.5,4.5H-4.5V-4.5H4.5Z" style="opacity: 0.9; stroke-width: 0px; fill: rgb(28, 167, 28); fill-opacity: 1;"/><path class="point" transform="translate(30.05,209.27)" d="M4.5,4.5H-4.5V-4.5H4.5Z" style="opacity: 0.9; stroke-width: 0px; fill: rgb(28, 167, 28); fill-opacity: 1;"/><path class="point" transform="translate(24.36,212.73)" d="M4.5,4.5H-4.5V-4.5H4.5Z" style="opacity: 0.9; stroke-width: 0px; fill: rgb(28, 167, 28); fill-opacity: 1;"/><path class="point" transform="translate(34.08,206.82)" d="M4.5,4.5H-4.5V-4.5H4.5Z" style="opacity: 0.9; stroke-width: 0px; fill: rgb(28, 167, 28); fill-opacity: 1;"/><path class="point" transform="translate(24.36,212.73)" d="M4.5,4.5H-4.5V-4.5H4.5Z" style="opacity: 0.9; stroke-width: 0px; fill: rgb(28, 167, 28); fill-opacity: 1;"/><path class="point" transform="translate(24.16,212.85)" d="M4.5,4.5H-4.5V-4.5H4.5Z" style="opacity: 0.9; stroke-width: 0px; fill: rgb(28, 167, 28); fill-opacity: 1;"/><path class="point" transform="translate(29.27,209.74)" d="M4.5,4.5H-4.5V-4.5H4.5Z" style="opacity: 0.9; stroke-width: 0px; fill: rgb(28, 167, 28); fill-opacity: 1;"/><path class="point" transform="translate(24.19,212.84)" d="M4.5,4.5H-4.5V-4.5H4.5Z" style="opacity: 0.9; stroke-width: 0px; fill: rgb(28, 167, 28); fill-opacity: 1;"/><path class="point" transform="translate(24.13,212.87)" d="M4.5,4.5H-4.5V-4.5H4.5Z" style="opacity: 0.9; stroke-width: 0px; fill: rgb(28, 167, 28); fill-opacity: 1;"/><path class="point" transform="translate(35.86,205.73)" d="M4.5,4.5H-4.5V-4.5H4.5Z" style="opacity: 0.9; stroke-width: 0px; fill: rgb(28, 167, 28); fill-opacity: 1;"/><path class="point" transform="translate(43.5,201.09)" d="M4.5,4.5H-4.5V-4.5H4.5Z" style="opacity: 0.9; stroke-width: 0px; fill: rgb(28, 167, 28); fill-opacity: 1;"/><path class="point" transform="translate(24.85,212.44)" d="M4.5,4.5H-4.5V-4.5H4.5Z" style="opacity: 0.9; stroke-width: 0px; fill: rgb(28, 167, 28); fill-opacity: 1;"/><path class="point" transform="translate(25.68,211.93)" d="M4.5,4.5H-4.5V-4.5H4.5Z" style="opacity: 0.9; stroke-width: 0px; fill: rgb(28, 167, 28); fill-opacity: 1;"/><path class="point" transform="translate(30.05,209.27)" d="M4.5,4.5H-4.5V-4.5H4.5Z" style="opacity: 0.9; stroke-width: 0px; fill: rgb(28, 167, 28); fill-opacity: 1;"/><path class="point" transform="translate(24.36,212.73)" d="M4.5,4.5H-4.5V-4.5H4.5Z" style="opacity: 0.9; stroke-width: 0px; fill: rgb(28, 167, 28); fill-opacity: 1;"/><path class="point" transform="translate(34.08,206.82)" d="M4.5,4.5H-4.5V-4.5H4.5Z" style="opacity: 0.9; stroke-width: 0px; fill: rgb(28, 167, 28); fill-opacity: 1;"/><path class="point" transform="translate(24.36,212.73)" d="M4.5,4.5H-4.5V-4.5H4.5Z" style="opacity: 0.9; stroke-width: 0px; fill: rgb(28, 167, 28); fill-opacity: 1;"/><path class="point" transform="translate(24.16,212.85)" d="M4.5,4.5H-4.5V-4.5H4.5Z" style="opacity: 0.9; stroke-width: 0px; fill: rgb(28, 167, 28); fill-opacity: 1;"/><path class="point" transform="translate(29.27,209.74)" d="M4.5,4.5H-4.5V-4.5H4.5Z" style="opacity: 0.9; stroke-width: 0px; fill: rgb(28, 167, 28); fill-opacity: 1;"/><path class="point" transform="translate(24.19,212.84)" d="M4.5,4.5H-4.5V-4.5H4.5Z" style="opacity: 0.9; stroke-width: 0px; fill: rgb(28, 167, 28); fill-opacity: 1;"/><path class="point" transform="translate(24.13,212.87)" d="M4.5,4.5H-4.5V-4.5H4.5Z" style="opacity: 0.9; stroke-width: 0px; fill: rgb(28, 167, 28); fill-opacity: 1;"/><path class="point" transform="translate(35.86,205.73)" d="M4.5,4.5H-4.5V-4.5H4.5Z" style="opacity: 0.9; stroke-width: 0px; fill: rgb(28, 167, 28); fill-opacity: 1;"/><path class="point" transform="translate(43.5,201.09)" d="M4.5,4.5H-4.5V-4.5H4.5Z" style="opacity: 0.9; stroke-width: 0px; fill: rgb(28, 167, 28); fill-opacity: 1;"/><path class="point" transform="translate(24.85,212.44)" d="M4.5,4.5H-4.5V-4.5H4.5Z" style="opacity: 0.9; stroke-width: 0px; fill: rgb(28, 167, 28); fill-opacity: 1;"/><path class="point" transform="translate(25.68,211.93)" d="M4.5,4.5H-4.5V-4.5H4.5Z" style="opacity: 0.9; stroke-width: 0px; fill: rgb(28, 167, 28); fill-opacity: 1;"/><path class="point" transform="translate(30.05,209.27)" d="M4.5,4.5H-4.5V-4.5H4.5Z" style="opacity: 0.9; stroke-width: 0px; fill: rgb(28, 167, 28); fill-opacity: 1;"/><path class="point" transform="translate(24.36,212.73)" d="M4.5,4.5H-4.5V-4.5H4.5Z" style="opacity: 0.9; stroke-width: 0px; fill: rgb(28, 167, 28); fill-opacity: 1;"/><path class="point" transform="translate(34.08,206.82)" d="M4.5,4.5H-4.5V-4.5H4.5Z" style="opacity: 0.9; stroke-width: 0px; fill: rgb(28, 167, 28); fill-opacity: 1;"/><path class="point" transform="translate(24.36,212.73)" d="M4.5,4.5H-4.5V-4.5H4.5Z" style="opacity: 0.9; stroke-width: 0px; fill: rgb(28, 167, 28); fill-opacity: 1;"/><path class="point" transform="translate(24.16,212.85)" d="M4.5,4.5H-4.5V-4.5H4.5Z" style="opacity: 0.9; stroke-width: 0px; fill: rgb(28, 167, 28); fill-opacity: 1;"/><path class="point" transform="translate(29.27,209.74)" d="M4.5,4.5H-4.5V-4.5H4.5Z" style="opacity: 0.9; stroke-width: 0px; fill: rgb(28, 167, 28); fill-opacity: 1;"/><path class="point" transform="translate(24.19,212.84)" d="M4.5,4.5H-4.5V-4.5H4.5Z" style="opacity: 0.9; stroke-width: 0px; fill: rgb(28, 167, 28); fill-opacity: 1;"/><path class="point" transform="translate(24.13,212.88)" d="M4.5,4.5H-4.5V-4.5H4.5Z" style="opacity: 0.9; stroke-width: 0px; fill: rgb(28, 167, 28); fill-opacity: 1;"/><path class="point" transform="translate(24.16,212.85)" d="M4.5,4.5H-4.5V-4.5H4.5Z" style="opacity: 0.9; stroke-width: 0px; fill: rgb(28, 167, 28); fill-opacity: 1;"/><path class="point" transform="translate(29.27,209.74)" d="M4.5,4.5H-4.5V-4.5H4.5Z" style="opacity: 0.9; stroke-width: 0px; fill: rgb(28, 167, 28); fill-opacity: 1;"/><path class="point" transform="translate(24.19,212.84)" d="M4.5,4.5H-4.5V-4.5H4.5Z" style="opacity: 0.9; stroke-width: 0px; fill: rgb(28, 167, 28); fill-opacity: 1;"/><path class="point" transform="translate(24.13,212.88)" d="M4.5,4.5H-4.5V-4.5H4.5Z" style="opacity: 0.9; stroke-width: 0px; fill: rgb(28, 167, 28); fill-opacity: 1;"/><path class="point" transform="translate(35.88,205.72)" d="M4.5,4.5H-4.5V-4.5H4.5Z" style="opacity: 0.9; stroke-width: 0px; fill: rgb(28, 167, 28); fill-opacity: 1;"/><path class="point" transform="translate(43.5,201.09)" d="M4.5,4.5H-4.5V-4.5H4.5Z" style="opacity: 0.9; stroke-width: 0px; fill: rgb(28, 167, 28); fill-opacity: 1;"/><path class="point" transform="translate(25.05,212.31)" d="M4.5,4.5H-4.5V-4.5H4.5Z" style="opacity: 0.9; stroke-width: 0px; fill: rgb(28, 167, 28); fill-opacity: 1;"/><path class="point" transform="translate(25.7,211.92)" d="M4.5,4.5H-4.5V-4.5H4.5Z" style="opacity: 0.9; stroke-width: 0px; fill: rgb(28, 167, 28); fill-opacity: 1;"/><path class="point" transform="translate(30.04,209.27)" d="M4.5,4.5H-4.5V-4.5H4.5Z" style="opacity: 0.9; stroke-width: 0px; fill: rgb(28, 167, 28); fill-opacity: 1;"/><path class="point" transform="translate(24.49,212.65)" d="M4.5,4.5H-4.5V-4.5H4.5Z" style="opacity: 0.9; stroke-width: 0px; fill: rgb(28, 167, 28); fill-opacity: 1;"/><path class="point" transform="translate(34.09,206.81)" d="M4.5,4.5H-4.5V-4.5H4.5Z" style="opacity: 0.9; stroke-width: 0px; fill: rgb(28, 167, 28); fill-opacity: 1;"/><path class="point" transform="translate(24.4,212.71)" d="M4.5,4.5H-4.5V-4.5H4.5Z" style="opacity: 0.9; stroke-width: 0px; fill: rgb(28, 167, 28); fill-opacity: 1;"/><path class="point" transform="translate(24.27,212.79)" d="M4.5,4.5H-4.5V-4.5H4.5Z" style="opacity: 0.9; stroke-width: 0px; fill: rgb(28, 167, 28); fill-opacity: 1;"/><path class="point" transform="translate(29.29,209.74)" d="M4.5,4.5H-4.5V-4.5H4.5Z" style="opacity: 0.9; stroke-width: 0px; fill: rgb(28, 167, 28); fill-opacity: 1;"/><path class="point" transform="translate(24.22,212.82)" d="M4.5,4.5H-4.5V-4.5H4.5Z" style="opacity: 0.9; stroke-width: 0px; fill: rgb(28, 167, 28); fill-opacity: 1;"/><path class="point" transform="translate(24.19,212.83)" d="M4.5,4.5H-4.5V-4.5H4.5Z" style="opacity: 0.9; stroke-width: 0px; fill: rgb(28, 167, 28); fill-opacity: 1;"/><path class="point" transform="translate(35.87,205.73)" d="M4.5,4.5H-4.5V-4.5H4.5Z" style="opacity: 0.9; stroke-width: 0px; fill: rgb(28, 167, 28); fill-opacity: 1;"/><path class="point" transform="translate(43.5,201.09)" d="M4.5,4.5H-4.5V-4.5H4.5Z" style="opacity: 0.9; stroke-width: 0px; fill: rgb(28, 167, 28); fill-opacity: 1;"/><path class="point" transform="translate(24.85,212.43)" d="M4.5,4.5H-4.5V-4.5H4.5Z" style="opacity: 0.9; stroke-width: 0px; fill: rgb(28, 167, 28); fill-opacity: 1;"/><path class="point" transform="translate(25.68,211.93)" d="M4.5,4.5H-4.5V-4.5H4.5Z" style="opacity: 0.9; stroke-width: 0px; fill: rgb(28, 167, 28); fill-opacity: 1;"/><path class="point" transform="translate(30.05,209.27)" d="M4.5,4.5H-4.5V-4.5H4.5Z" style="opacity: 0.9; stroke-width: 0px; fill: rgb(28, 167, 28); fill-opacity: 1;"/><path class="point" transform="translate(24.36,212.73)" d="M4.5,4.5H-4.5V-4.5H4.5Z" style="opacity: 0.9; stroke-width: 0px; fill: rgb(28, 167, 28); fill-opacity: 1;"/><path class="point" transform="translate(34.08,206.82)" d="M4.5,4.5H-4.5V-4.5H4.5Z" style="opacity: 0.9; stroke-width: 0px; fill: rgb(28, 167, 28); fill-opacity: 1;"/><path class="point" transform="translate(24.37,212.73)" d="M4.5,4.5H-4.5V-4.5H4.5Z" style="opacity: 0.9; stroke-width: 0px; fill: rgb(28, 167, 28); fill-opacity: 1;"/><path class="point" transform="translate(24.16,212.85)" d="M4.5,4.5H-4.5V-4.5H4.5Z" style="opacity: 0.9; stroke-width: 0px; fill: rgb(28, 167, 28); fill-opacity: 1;"/><path class="point" transform="translate(29.27,209.75)" d="M4.5,4.5H-4.5V-4.5H4.5Z" style="opacity: 0.9; stroke-width: 0px; fill: rgb(28, 167, 28); fill-opacity: 1;"/><path class="point" transform="translate(24.19,212.83)" d="M4.5,4.5H-4.5V-4.5H4.5Z" style="opacity: 0.9; stroke-width: 0px; fill: rgb(28, 167, 28); fill-opacity: 1;"/><path class="point" transform="translate(24.13,212.87)" d="M4.5,4.5H-4.5V-4.5H4.5Z" style="opacity: 0.9; stroke-width: 0px; fill: rgb(28, 167, 28); fill-opacity: 1;"/><path class="point" transform="translate(35.86,205.73)" d="M4.5,4.5H-4.5V-4.5H4.5Z" style="opacity: 0.9; stroke-width: 0px; fill: rgb(28, 167, 28); fill-opacity: 1;"/><path class="point" transform="translate(43.5,201.09)" d="M4.5,4.5H-4.5V-4.5H4.5Z" style="opacity: 0.9; stroke-width: 0px; fill: rgb(28, 167, 28); fill-opacity: 1;"/><path class="point" transform="translate(24.85,212.44)" d="M4.5,4.5H-4.5V-4.5H4.5Z" style="opacity: 0.9; stroke-width: 0px; fill: rgb(28, 167, 28); fill-opacity: 1;"/><path class="point" transform="translate(25.68,211.93)" d="M4.5,4.5H-4.5V-4.5H4.5Z" style="opacity: 0.9; stroke-width: 0px; fill: rgb(28, 167, 28); fill-opacity: 1;"/><path class="point" transform="translate(30.05,209.27)" d="M4.5,4.5H-4.5V-4.5H4.5Z" style="opacity: 0.9; stroke-width: 0px; fill: rgb(28, 167, 28); fill-opacity: 1;"/><path class="point" transform="translate(24.36,212.73)" d="M4.5,4.5H-4.5V-4.5H4.5Z" style="opacity: 0.9; stroke-width: 0px; fill: rgb(28, 167, 28); fill-opacity: 1;"/><path class="point" transform="translate(34.08,206.82)" d="M4.5,4.5H-4.5V-4.5H4.5Z" style="opacity: 0.9; stroke-width: 0px; fill: rgb(28, 167, 28); fill-opacity: 1;"/><path class="point" transform="translate(24.36,212.73)" d="M4.5,4.5H-4.5V-4.5H4.5Z" style="opacity: 0.9; stroke-width: 0px; fill: rgb(28, 167, 28); fill-opacity: 1;"/><path class="point" transform="translate(24.16,212.85)" d="M4.5,4.5H-4.5V-4.5H4.5Z" style="opacity: 0.9; stroke-width: 0px; fill: rgb(28, 167, 28); fill-opacity: 1;"/><path class="point" transform="translate(29.27,209.74)" d="M4.5,4.5H-4.5V-4.5H4.5Z" style="opacity: 0.9; stroke-width: 0px; fill: rgb(28, 167, 28); fill-opacity: 1;"/><path class="point" transform="translate(24.19,212.84)" d="M4.5,4.5H-4.5V-4.5H4.5Z" style="opacity: 0.9; stroke-width: 0px; fill: rgb(28, 167, 28); fill-opacity: 1;"/><path class="point" transform="translate(24.13,212.87)" d="M4.5,4.5H-4.5V-4.5H4.5Z" style="opacity: 0.9; stroke-width: 0px; fill: rgb(28, 167, 28); fill-opacity: 1;"/><path class="point" transform="translate(35.86,205.73)" d="M4.5,4.5H-4.5V-4.5H4.5Z" style="opacity: 0.9; stroke-width: 0px; fill: rgb(28, 167, 28); fill-opacity: 1;"/><path class="point" transform="translate(43.5,201.09)" d="M4.5,4.5H-4.5V-4.5H4.5Z" style="opacity: 0.9; stroke-width: 0px; fill: rgb(28, 167, 28); fill-opacity: 1;"/><path class="point" transform="translate(24.85,212.44)" d="M4.5,4.5H-4.5V-4.5H4.5Z" style="opacity: 0.9; stroke-width: 0px; fill: rgb(28, 167, 28); fill-opacity: 1;"/><path class="point" transform="translate(25.68,211.93)" d="M4.5,4.5H-4.5V-4.5H4.5Z" style="opacity: 0.9; stroke-width: 0px; fill: rgb(28, 167, 28); fill-opacity: 1;"/><path class="point" transform="translate(30.05,209.27)" d="M4.5,4.5H-4.5V-4.5H4.5Z" style="opacity: 0.9; stroke-width: 0px; fill: rgb(28, 167, 28); fill-opacity: 1;"/><path class="point" transform="translate(24.36,212.73)" d="M4.5,4.5H-4.5V-4.5H4.5Z" style="opacity: 0.9; stroke-width: 0px; fill: rgb(28, 167, 28); fill-opacity: 1;"/><path class="point" transform="translate(34.08,206.82)" d="M4.5,4.5H-4.5V-4.5H4.5Z" style="opacity: 0.9; stroke-width: 0px; fill: rgb(28, 167, 28); fill-opacity: 1;"/><path class="point" transform="translate(24.36,212.73)" d="M4.5,4.5H-4.5V-4.5H4.5Z" style="opacity: 0.9; stroke-width: 0px; fill: rgb(28, 167, 28); fill-opacity: 1;"/><path class="point" transform="translate(24.16,212.85)" d="M4.5,4.5H-4.5V-4.5H4.5Z" style="opacity: 0.9; stroke-width: 0px; fill: rgb(28, 167, 28); fill-opacity: 1;"/><path class="point" transform="translate(29.27,209.74)" d="M4.5,4.5H-4.5V-4.5H4.5Z" style="opacity: 0.9; stroke-width: 0px; fill: rgb(28, 167, 28); fill-opacity: 1;"/><path class="point" transform="translate(24.19,212.84)" d="M4.5,4.5H-4.5V-4.5H4.5Z" style="opacity: 0.9; stroke-width: 0px; fill: rgb(28, 167, 28); fill-opacity: 1;"/><path class="point" transform="translate(24.13,212.88)" d="M4.5,4.5H-4.5V-4.5H4.5Z" style="opacity: 0.9; stroke-width: 0px; fill: rgb(28, 167, 28); fill-opacity: 1;"/><path class="point" transform="translate(24.13,212.88)" d="M4.5,4.5H-4.5V-4.5H4.5Z" style="opacity: 0.9; stroke-width: 0px; fill: rgb(28, 167, 28); fill-opacity: 1;"/><path class="point" transform="translate(24.13,212.88)" d="M4.5,4.5H-4.5V-4.5H4.5Z" style="opacity: 0.9; stroke-width: 0px; fill: rgb(28, 167, 28); fill-opacity: 1;"/><path class="point" transform="translate(24.13,212.88)" d="M4.5,4.5H-4.5V-4.5H4.5Z" style="opacity: 0.9; stroke-width: 0px; fill: rgb(28, 167, 28); fill-opacity: 1;"/><path class="point" transform="translate(24.19,212.84)" d="M4.5,4.5H-4.5V-4.5H4.5Z" style="opacity: 0.9; stroke-width: 0px; fill: rgb(28, 167, 28); fill-opacity: 1;"/><path class="point" transform="translate(24.13,212.88)" d="M4.5,4.5H-4.5V-4.5H4.5Z" style="opacity: 0.9; stroke-width: 0px; fill: rgb(28, 167, 28); fill-opacity: 1;"/><path class="point" transform="translate(24.36,212.73)" d="M4.5,4.5H-4.5V-4.5H4.5Z" style="opacity: 0.9; stroke-width: 0px; fill: rgb(28, 167, 28); fill-opacity: 1;"/><path class="point" transform="translate(24.16,212.85)" d="M4.5,4.5H-4.5V-4.5H4.5Z" style="opacity: 0.9; stroke-width: 0px; fill: rgb(28, 167, 28); fill-opacity: 1;"/><path class="point" transform="translate(29.27,209.74)" d="M4.5,4.5H-4.5V-4.5H4.5Z" style="opacity: 0.9; stroke-width: 0px; fill: rgb(28, 167, 28); fill-opacity: 1;"/><path class="point" transform="translate(24.19,212.84)" d="M4.5,4.5H-4.5V-4.5H4.5Z" style="opacity: 0.9; stroke-width: 0px; fill: rgb(28, 167, 28); fill-opacity: 1;"/><path class="point" transform="translate(24.13,212.88)" d="M4.5,4.5H-4.5V-4.5H4.5Z" style="opacity: 0.9; stroke-width: 0px; fill: rgb(28, 167, 28); fill-opacity: 1;"/><path class="point" transform="translate(24.36,212.73)" d="M4.5,4.5H-4.5V-4.5H4.5Z" style="opacity: 0.9; stroke-width: 0px; fill: rgb(28, 167, 28); fill-opacity: 1;"/><path class="point" transform="translate(24.16,212.85)" d="M4.5,4.5H-4.5V-4.5H4.5Z" style="opacity: 0.9; stroke-width: 0px; fill: rgb(28, 167, 28); fill-opacity: 1;"/><path class="point" transform="translate(29.27,209.74)" d="M4.5,4.5H-4.5V-4.5H4.5Z" style="opacity: 0.9; stroke-width: 0px; fill: rgb(28, 167, 28); fill-opacity: 1;"/><path class="point" transform="translate(24.19,212.84)" d="M4.5,4.5H-4.5V-4.5H4.5Z" style="opacity: 0.9; stroke-width: 0px; fill: rgb(28, 167, 28); fill-opacity: 1;"/><path class="point" transform="translate(24.13,212.88)" d="M4.5,4.5H-4.5V-4.5H4.5Z" style="opacity: 0.9; stroke-width: 0px; fill: rgb(28, 167, 28); fill-opacity: 1;"/></g><g class="text"/></g></g></g><g class="overplot"/><path class="xlines-above crisp" d="M0,0" style="fill: none;"/><path class="ylines-above crisp" d="M0,0" style="fill: none;"/><g class="overlines-above"/><g class="xaxislayer-above"><g class="xtick"><text text-anchor="middle" x="0" y="306" transform="translate(104.13,0)" style="font-family: CMU; font-size: 15px; fill: rgb(42, 63, 95); fill-opacity: 1; white-space: pre; opacity: 1;">0</text></g><g class="xtick"><text text-anchor="middle" x="0" y="306" style="font-family: CMU; font-size: 15px; fill: rgb(42, 63, 95); fill-opacity: 1; white-space: pre; opacity: 1;" transform="translate(173.39,0)">10k</text></g><g class="xtick"><text text-anchor="middle" x="0" y="306" style="font-family: CMU; font-size: 15px; fill: rgb(42, 63, 95); fill-opacity: 1; white-space: pre; opacity: 1;" transform="translate(242.66,0)">20k</text></g><g class="xtick"><text text-anchor="middle" x="0" y="306" style="font-family: CMU; font-size: 15px; fill: rgb(42, 63, 95); fill-opacity: 1; white-space: pre; opacity: 1;" transform="translate(311.93,0)">30k</text></g><g class="xtick"><text text-anchor="middle" x="0" y="306" style="font-family: CMU; font-size: 15px; fill: rgb(42, 63, 95); fill-opacity: 1; white-space: pre; opacity: 1;" transform="translate(381.2,0)">40k</text></g></g><g class="yaxislayer-above"><g class="ytick"><text text-anchor="end" x="79" y="5.25" transform="translate(0,272.88)" style="font-family: CMU; font-size: 15px; fill: rgb(42, 63, 95); fill-opacity: 1; white-space: pre; opacity: 1;">0</text></g><g class="ytick"><text text-anchor="end" x="79" y="5.25" style="font-family: CMU; font-size: 15px; fill: rgb(42, 63, 95); fill-opacity: 1; white-space: pre; opacity: 1;" transform="translate(0,230.73)">10k</text></g><g class="ytick"><text text-anchor="end" x="79" y="5.25" style="font-family: CMU; font-size: 15px; fill: rgb(42, 63, 95); fill-opacity: 1; white-space: pre; opacity: 1;" transform="translate(0,188.59)">20k</text></g><g class="ytick"><text text-anchor="end" x="79" y="5.25" style="font-family: CMU; font-size: 15px; fill: rgb(42, 63, 95); fill-opacity: 1; white-space: pre; opacity: 1;" transform="translate(0,146.45)">30k</text></g><g class="ytick"><text text-anchor="end" x="79" y="5.25" style="font-family: CMU; font-size: 15px; fill: rgb(42, 63, 95); fill-opacity: 1; white-space: pre; opacity: 1;" transform="translate(0,104.31)">40k</text></g><g class="ytick"><text text-anchor="end" x="79" y="5.25" style="font-family: CMU; font-size: 15px; fill: rgb(42, 63, 95); fill-opacity: 1; white-space: pre; opacity: 1;" transform="translate(0,62.16)">50k</text></g></g><g class="overaxes-above"/></g></g><g class="polarlayer"/><g class="smithlayer"/><g class="ternarylayer"/><g class="geolayer"/><g class="funnelarealayer"/><g class="pielayer"/><g class="iciclelayer"/><g class="treemaplayer"/><g class="sunburstlayer"/><g class="glimages"/><defs id="topdefs-a93c74"><g class="clips"/><clipPath id="legenda93c74"><rect width="181" height="146" x="0" y="0"/></clipPath></defs><g class="layer-above"><g class="imagelayer"/><g class="shapelayer"/></g><g class="infolayer"><g class="legend" pointer-events="all" transform="translate(457.40000000000003,60)"><rect class="bg" shape-rendering="crispEdges" width="181" height="146" x="0" y="0" style="stroke: rgb(68, 68, 68); stroke-opacity: 1; fill: rgb(255, 255, 255); fill-opacity: 1; stroke-width: 0px;"/><g class="scrollbox" transform="" clip-path="url(#legenda93c74)"><text class="legendtitletext" text-anchor="start" x="2" y="23.400000000000002" style="font-family: CMU; font-size: 18px; fill: rgb(42, 63, 95); fill-opacity: 1; white-space: pre;">Euclidean Subspace</text><g class="groups" transform=""><g class="traces" transform="translate(0,39.650000000000006)" style="opacity: 1;"><text class="legendtext" text-anchor="start" x="40" y="5.85" style="font-family: CMU; font-size: 15px; fill: rgb(42, 63, 95); fill-opacity: 1; white-space: pre;">False, 0.001</text><g class="layers" style="opacity: 1;"><g class="legendfill"/><g class="legendlines"/><g class="legendsymbols"><g class="legendpoints"><path class="scatterpts" transform="translate(20,0)" d="M4.5,4.5H-4.5V-4.5H4.5Z" style="opacity: 0.9; stroke-width: 0px; fill: rgb(46, 145, 229); fill-opacity: 1;"/></g></g></g><rect class="legendtoggle" x="0" y="-11.25" width="133" height="22.5" style="fill: rgb(0, 0, 0); fill-opacity: 0;"/></g></g><g class="groups" transform=""><g class="traces" transform="translate(0,62.150000000000006)" style="opacity: 1;"><text class="legendtext" text-anchor="start" x="40" y="5.85" style="font-family: CMU; font-size: 15px; fill: rgb(42, 63, 95); fill-opacity: 1; white-space: pre;">False, 0.1</text><g class="layers" style="opacity: 1;"><g class="legendfill"/><g class="legendlines"/><g class="legendsymbols"><g class="legendpoints"><path class="scatterpts" transform="translate(20,0)" d="M5.4,1.8H1.8V5.4H-1.8V1.8H-5.4V-1.8H-1.8V-5.4H1.8V-1.8H5.4Z" style="opacity: 0.9; stroke-width: 0px; fill: rgb(46, 145, 229); fill-opacity: 1;"/></g></g></g><rect class="legendtoggle" x="0" y="-11.25" width="133" height="22.5" style="fill: rgb(0, 0, 0); fill-opacity: 0;"/></g></g><g class="groups" transform=""><g class="traces" transform="translate(0,84.65)" style="opacity: 1;"><text class="legendtext" text-anchor="start" x="40" y="5.85" style="font-family: CMU; font-size: 15px; fill: rgb(42, 63, 95); fill-opacity: 1; white-space: pre;">False, 0.01</text><g class="layers" style="opacity: 1;"><g class="legendfill"/><g class="legendlines"/><g class="legendsymbols"><g class="legendpoints"><path class="scatterpts" transform="translate(20,0)" d="M0,2.55l2.55,2.55l2.55,-2.55l-2.55,-2.55l2.55,-2.55l-2.55,-2.55l-2.55,2.55l-2.55,-2.55l-2.55,2.55l2.55,2.55l-2.55,2.55l2.55,2.55Z" style="opacity: 0.9; stroke-width: 0px; fill: rgb(46, 145, 229); fill-opacity: 1;"/></g></g></g><rect class="legendtoggle" x="0" y="-11.25" width="133" height="22.5" style="fill: rgb(0, 0, 0); fill-opacity: 0;"/></g></g><g class="groups" transform=""><g class="traces" transform="translate(0,107.15)" style="opacity: 1;"><text class="legendtext" text-anchor="start" x="40" y="5.85" style="font-family: CMU; font-size: 15px; fill: rgb(42, 63, 95); fill-opacity: 1; white-space: pre;">True, 0.5</text><g class="layers" style="opacity: 1;"><g class="legendfill"/><g class="legendlines"/><g class="legendsymbols"><g class="legendpoints"><path class="scatterpts" transform="translate(20,0)" d="M0,2.55l2.55,2.55l2.55,-2.55l-2.55,-2.55l2.55,-2.55l-2.55,-2.55l-2.55,2.55l-2.55,-2.55l-2.55,2.55l2.55,2.55l-2.55,2.55l2.55,2.55Z" style="opacity: 0.9; stroke-width: 0px; fill: rgb(225, 95, 153); fill-opacity: 1;"/></g></g></g><rect class="legendtoggle" x="0" y="-11.25" width="133" height="22.5" style="fill: rgb(0, 0, 0); fill-opacity: 0;"/></g></g><g class="groups" transform=""><g class="traces" transform="translate(0,129.65)" style="opacity: 1;"><text class="legendtext" text-anchor="start" x="40" y="5.85" style="font-family: CMU; font-size: 15px; fill: rgb(42, 63, 95); fill-opacity: 1; white-space: pre;">nan, 0.001</text><g class="layers" style="opacity: 1;"><g class="legendfill"/><g class="legendlines"/><g class="legendsymbols"><g class="legendpoints"><path class="scatterpts" transform="translate(20,0)" d="M4.5,4.5H-4.5V-4.5H4.5Z" style="opacity: 0.9; stroke-width: 0px; fill: rgb(28, 167, 28); fill-opacity: 1;"/></g></g></g><rect class="legendtoggle" x="0" y="-11.25" width="133" height="22.5" style="fill: rgb(0, 0, 0); fill-opacity: 0;"/></g></g></g><rect class="scrollbar" rx="20" ry="3" width="0" height="0" x="0" y="0" style="fill: rgb(128, 139, 164); fill-opacity: 1;"/></g><g class="g-gtitle"/><g class="g-xtitle"><text class="xtitle" x="265" y="335" text-anchor="middle" style="font-family: CMU; font-size: 15px; fill: rgb(42, 63, 95); opacity: 1; font-weight: normal; white-space: pre;">Geodesic Coefficient Error</text></g><g class="g-ytitle"><text class="ytitle" transform="rotate(-90,25,175)" x="25" y="175" text-anchor="middle" style="font-family: CMU; font-size: 15px; fill: rgb(42, 63, 95); opacity: 1; font-weight: normal; white-space: pre;">Linear Coefficient Error</text></g></g></svg>