ply
format ascii 1.0
comment https://github.com/mikedh/trimesh
element vertex 80
property float x
property float y
property float z
element face 152
property list uchar int vertex_indices
end_header
0.00000000 3.50000000 10.00000000
1.00000000 4.00000000 9.50000000
1.00000000 3.50000000 10.00000000
0.00000000 4.00000000 9.50000000
0.00000000 4.00000000 10.50000000
1.00000000 4.00000000 10.50000000
1.00000000 4.50000000 10.00000000
0.00000000 4.50000000 10.00000000
2.00000000 4.00000000 9.50000000
2.00000000 3.50000000 10.00000000
2.00000000 4.00000000 10.50000000
2.00000000 4.50000000 10.00000000
3.00000000 4.00000000 9.50000000
3.00000000 3.50000000 10.00000000
3.00000000 4.00000000 10.50000000
3.00000000 4.50000000 10.00000000
4.00000000 4.00000000 9.50000000
4.00000000 3.50000000 10.00000000
4.00000000 4.00000000 10.50000000
4.00000000 4.50000000 10.00000000
5.00000000 4.00000000 9.50000000
5.00000000 3.50000000 10.00000000
5.00000000 4.00000000 10.50000000
5.00000000 4.50000000 10.00000000
6.00000000 4.00000000 9.50000000
6.00000000 3.50000000 10.00000000
6.00000000 4.00000000 10.50000000
6.00000000 4.50000000 10.00000000
7.00000000 4.00000000 9.50000000
7.00000000 3.50000000 10.00000000
7.00000000 4.00000000 10.50000000
7.00000000 4.50000000 10.00000000
8.00000000 4.00000000 9.50000000
8.00000000 3.50000000 10.00000000
8.00000000 4.00000000 10.50000000
8.00000000 4.50000000 10.00000000
9.00000000 4.00000000 9.50000000
9.00000000 3.50000000 10.00000000
9.00000000 4.00000000 10.50000000
9.00000000 4.50000000 10.00000000
10.00000000 4.00000000 9.50000000
10.00000000 3.50000000 10.00000000
10.00000000 4.00000000 10.50000000
10.00000000 4.50000000 10.00000000
11.00000000 4.00000000 9.50000000
11.00000000 3.50000000 10.00000000
11.00000000 4.00000000 10.50000000
11.00000000 4.50000000 10.00000000
12.00000000 4.00000000 9.50000000
12.00000000 3.50000000 10.00000000
12.00000000 4.00000000 10.50000000
12.00000000 4.50000000 10.00000000
13.00000000 4.00000000 9.50000000
13.00000000 3.50000000 10.00000000
13.00000000 4.00000000 10.50000000
13.00000000 4.50000000 10.00000000
14.00000000 4.00000000 9.50000000
14.00000000 3.50000000 10.00000000
14.00000000 4.00000000 10.50000000
14.00000000 4.50000000 10.00000000
15.00000000 4.00000000 9.50000000
15.00000000 3.50000000 10.00000000
15.00000000 4.00000000 10.50000000
15.00000000 4.50000000 10.00000000
16.00000000 4.00000000 9.50000000
16.00000000 3.50000000 10.00000000
16.00000000 4.00000000 10.50000000
16.00000000 4.50000000 10.00000000
17.00000000 4.00000000 9.50000000
17.00000000 3.50000000 10.00000000
17.00000000 4.00000000 10.50000000
17.00000000 4.50000000 10.00000000
18.00000000 4.00000000 9.50000000
18.00000000 3.50000000 10.00000000
18.00000000 4.00000000 10.50000000
18.00000000 4.50000000 10.00000000
19.00000000 4.00000000 9.50000000
19.00000000 3.50000000 10.00000000
19.00000000 4.00000000 10.50000000
19.00000000 4.50000000 10.00000000
3 2 1 0
3 0 1 3
3 0 4 2
3 2 4 5
3 1 6 3
3 3 6 7
3 4 7 5
3 5 7 6
3 9 8 2
3 2 8 1
3 2 5 9
3 9 5 10
3 8 11 1
3 1 11 6
3 5 6 10
3 10 6 11
3 13 12 9
3 9 12 8
3 9 10 13
3 13 10 14
3 12 15 8
3 8 15 11
3 10 11 14
3 14 11 15
3 17 16 13
3 13 16 12
3 13 14 17
3 17 14 18
3 16 19 12
3 12 19 15
3 14 15 18
3 18 15 19
3 21 20 17
3 17 20 16
3 17 18 21
3 21 18 22
3 20 23 16
3 16 23 19
3 18 19 22
3 22 19 23
3 25 24 21
3 21 24 20
3 21 22 25
3 25 22 26
3 24 27 20
3 20 27 23
3 22 23 26
3 26 23 27
3 29 28 25
3 25 28 24
3 25 26 29
3 29 26 30
3 28 31 24
3 24 31 27
3 26 27 30
3 30 27 31
3 33 32 29
3 29 32 28
3 29 30 33
3 33 30 34
3 32 35 28
3 28 35 31
3 30 31 34
3 34 31 35
3 37 36 33
3 33 36 32
3 33 34 37
3 37 34 38
3 36 39 32
3 32 39 35
3 34 35 38
3 38 35 39
3 41 40 37
3 37 40 36
3 37 38 41
3 41 38 42
3 40 43 36
3 36 43 39
3 38 39 42
3 42 39 43
3 45 44 41
3 41 44 40
3 41 42 45
3 45 42 46
3 44 47 40
3 40 47 43
3 42 43 46
3 46 43 47
3 49 48 45
3 45 48 44
3 45 46 49
3 49 46 50
3 48 51 44
3 44 51 47
3 46 47 50
3 50 47 51
3 53 52 49
3 49 52 48
3 49 50 53
3 53 50 54
3 52 55 48
3 48 55 51
3 50 51 54
3 54 51 55
3 57 56 53
3 53 56 52
3 53 54 57
3 57 54 58
3 56 59 52
3 52 59 55
3 54 55 58
3 58 55 59
3 61 60 57
3 57 60 56
3 57 58 61
3 61 58 62
3 60 63 56
3 56 63 59
3 58 59 62
3 62 59 63
3 65 64 61
3 61 64 60
3 61 62 65
3 65 62 66
3 64 67 60
3 60 67 63
3 62 63 66
3 66 63 67
3 69 68 65
3 65 68 64
3 65 66 69
3 69 66 70
3 68 71 64
3 64 71 67
3 66 67 70
3 70 67 71
3 73 72 69
3 69 72 68
3 69 70 73
3 73 70 74
3 72 75 68
3 68 75 71
3 70 71 74
3 74 71 75
3 77 76 73
3 73 76 72
3 73 74 77
3 77 74 78
3 76 79 72
3 72 79 75
3 74 75 78
3 78 75 79