<svg class="main-svg" xmlns="http://www.w3.org/2000/svg" xmlns:xlink="http://www.w3.org/1999/xlink" width="650" height="370" style="" viewBox="0 0 650 370"><rect x="0" y="0" width="650" height="370" style="fill: rgb(255, 255, 255); fill-opacity: 1;"/><defs id="defs-38328a"><g class="clips"><clipPath id="clip38328axyplot" class="plotclip"><rect width="275" height="230"/></clipPath><clipPath class="axesclip" id="clip38328ax"><rect x="80" y="0" width="275" height="370"/></clipPath><clipPath class="axesclip" id="clip38328ay"><rect x="0" y="60" width="650" height="230"/></clipPath><clipPath class="axesclip" id="clip38328axy"><rect x="80" y="60" width="275" height="230"/></clipPath></g><g class="gradients"/><g class="patterns"/></defs><g class="bglayer"><rect class="bg" x="80" y="60" width="275" height="230" style="fill: rgb(229, 236, 246); fill-opacity: 1; stroke-width: 0;"/></g><g class="layer-below"><g class="imagelayer"/><g class="shapelayer"/></g><g class="cartesianlayer"><g class="subplot xy"><g class="layer-subplot"><g class="shapelayer"/><g class="imagelayer"/></g><g class="minor-gridlayer"><g class="x"/><g class="y"/></g><g class="gridlayer"><g class="x"><path class="xgrid crisp" transform="translate(179.04000000000002,0)" d="M0,60v230" style="stroke: rgb(255, 255, 255); stroke-opacity: 1; stroke-width: 1px;"/><path class="xgrid crisp" transform="translate(255.59,0)" d="M0,60v230" style="stroke: rgb(255, 255, 255); stroke-opacity: 1; stroke-width: 1px;"/><path class="xgrid crisp" transform="translate(332.13,0)" d="M0,60v230" style="stroke: rgb(255, 255, 255); stroke-opacity: 1; stroke-width: 1px;"/></g><g class="y"><path class="ygrid crisp" transform="translate(0,219.2)" d="M80,0h275" style="stroke: rgb(255, 255, 255); stroke-opacity: 1; stroke-width: 1px;"/><path class="ygrid crisp" transform="translate(0,155.29000000000002)" d="M80,0h275" style="stroke: rgb(255, 255, 255); stroke-opacity: 1; stroke-width: 1px;"/><path class="ygrid crisp" transform="translate(0,91.37)" d="M80,0h275" style="stroke: rgb(255, 255, 255); stroke-opacity: 1; stroke-width: 1px;"/></g></g><g class="zerolinelayer"><path class="xzl zl crisp" transform="translate(102.5,0)" d="M0,60v230" style="stroke: rgb(255, 255, 255); stroke-opacity: 1; stroke-width: 2px;"/><path class="yzl zl crisp" transform="translate(0,283.11)" d="M80,0h275" style="stroke: rgb(255, 255, 255); stroke-opacity: 1; stroke-width: 2px;"/></g><path class="xlines-below"/><path class="ylines-below"/><g class="overlines-below"/><g class="xaxislayer-below"/><g class="yaxislayer-below"/><g class="overaxes-below"/><g class="plot" transform="translate(80,60)" clip-path="url(#clip38328axyplot)"><g class="scatterlayer mlayer"><g class="trace scatter tracebb79f4" style="stroke-miterlimit: 2; opacity: 1;"><g class="fills"/><g class="errorbars"/><g class="lines"/><g class="points"><path class="point" transform="translate(51.58,89.4)" d="M7,7H-7V-7H7Z" style="opacity: 0.9; stroke-width: 0px; fill: rgb(253, 231, 37); fill-opacity: 1;"/></g><g class="text"/></g><g class="trace scatter trace3a3f90" style="stroke-miterlimit: 2; opacity: 1;"><g class="fills"/><g class="errorbars"/><g class="lines"/><g class="points"><path class="point" transform="translate(167.56,133.34)" d="M0,3.96l3.96,3.96l3.96,-3.96l-3.96,-3.96l3.96,-3.96l-3.96,-3.96l-3.96,3.96l-3.96,-3.96l-3.96,3.96l3.96,3.96l-3.96,3.96l3.96,3.96Z" style="opacity: 0.9; stroke-width: 0px; fill: rgb(253, 231, 37); fill-opacity: 1;"/></g><g class="text"/></g><g class="trace scatter trace212969" style="stroke-miterlimit: 2; opacity: 1;"><g class="fills"/><g class="errorbars"/><g class="lines"/><g class="points"><path class="point" transform="translate(252.5,195.74)" d="M8.4,2.8H2.8V8.4H-2.8V2.8H-8.4V-2.8H-2.8V-8.4H2.8V-2.8H8.4Z" style="opacity: 0.9; stroke-width: 0px; fill: rgb(253, 231, 37); fill-opacity: 1;"/></g><g class="text"/></g><g class="trace scatter trace85fb3c" style="stroke-miterlimit: 2; opacity: 1;"><g class="fills"/><g class="errorbars"/><g class="lines"/><g class="points"><path class="point" transform="translate(48.8,111.59)" d="M7,7H-7V-7H7Z" style="opacity: 0.9; stroke-width: 0px; fill: rgb(181, 222, 43); fill-opacity: 1;"/><path class="point" transform="translate(58.8,22.93)" d="M7,7H-7V-7H7Z" style="opacity: 0.9; stroke-width: 0px; fill: rgb(181, 222, 43); fill-opacity: 1;"/></g><g class="text"/></g><g class="trace scatter tracef678bc" style="stroke-miterlimit: 2; opacity: 1;"><g class="fills"/><g class="errorbars"/><g class="lines"/><g class="points"><path class="point" transform="translate(101.76,109.09)" d="M0,3.96l3.96,3.96l3.96,-3.96l-3.96,-3.96l3.96,-3.96l-3.96,-3.96l-3.96,3.96l-3.96,-3.96l-3.96,3.96l3.96,3.96l-3.96,3.96l3.96,3.96Z" style="opacity: 0.9; stroke-width: 0px; fill: rgb(181, 222, 43); fill-opacity: 1;"/><path class="point" transform="translate(110.63,70.02)" d="M0,3.96l3.96,3.96l3.96,-3.96l-3.96,-3.96l3.96,-3.96l-3.96,-3.96l-3.96,3.96l-3.96,-3.96l-3.96,3.96l3.96,3.96l-3.96,3.96l3.96,3.96Z" style="opacity: 0.9; stroke-width: 0px; fill: rgb(181, 222, 43); fill-opacity: 1;"/></g><g class="text"/></g><g class="trace scatter trace3bbd73" style="stroke-miterlimit: 2; opacity: 1;"><g class="fills"/><g class="errorbars"/><g class="lines"/><g class="points"><path class="point" transform="translate(170.49,207.81)" d="M8.4,2.8H2.8V8.4H-2.8V2.8H-8.4V-2.8H-2.8V-8.4H2.8V-2.8H8.4Z" style="opacity: 0.9; stroke-width: 0px; fill: rgb(181, 222, 43); fill-opacity: 1;"/><path class="point" transform="translate(106.64,199.6)" d="M8.4,2.8H2.8V8.4H-2.8V2.8H-8.4V-2.8H-2.8V-8.4H2.8V-2.8H8.4Z" style="opacity: 0.9; stroke-width: 0px; fill: rgb(181, 222, 43); fill-opacity: 1;"/></g><g class="text"/></g><g class="trace scatter tracef670b5" style="stroke-miterlimit: 2; opacity: 1;"><g class="fills"/><g class="errorbars"/><g class="lines"/><g class="points"><path class="point" transform="translate(35.12,116.54)" d="M7,7H-7V-7H7Z" style="opacity: 0.9; stroke-width: 0px; fill: rgb(110, 206, 88); fill-opacity: 1;"/><path class="point" transform="translate(37.08,20.25)" d="M7,7H-7V-7H7Z" style="opacity: 0.9; stroke-width: 0px; fill: rgb(110, 206, 88); fill-opacity: 1;"/></g><g class="text"/></g><g class="trace scatter trace1e74d6" style="stroke-miterlimit: 2; opacity: 1;"><g class="fills"/><g class="errorbars"/><g class="lines"/><g class="points"><path class="point" transform="translate(36.18,148.65)" d="M0,3.96l3.96,3.96l3.96,-3.96l-3.96,-3.96l3.96,-3.96l-3.96,-3.96l-3.96,3.96l-3.96,-3.96l-3.96,3.96l3.96,3.96l-3.96,3.96l3.96,3.96Z" style="opacity: 0.9; stroke-width: 0px; fill: rgb(110, 206, 88); fill-opacity: 1;"/><path class="point" transform="translate(37.37,112.42)" d="M0,3.96l3.96,3.96l3.96,-3.96l-3.96,-3.96l3.96,-3.96l-3.96,-3.96l-3.96,3.96l-3.96,-3.96l-3.96,3.96l3.96,3.96l-3.96,3.96l3.96,3.96Z" style="opacity: 0.9; stroke-width: 0px; fill: rgb(110, 206, 88); fill-opacity: 1;"/></g><g class="text"/></g><g class="trace scatter trace7f2d11" style="stroke-miterlimit: 2; opacity: 1;"><g class="fills"/><g class="errorbars"/><g class="lines"/><g class="points"><path class="point" transform="translate(28.43,209.75)" d="M8.4,2.8H2.8V8.4H-2.8V2.8H-8.4V-2.8H-2.8V-8.4H2.8V-2.8H8.4Z" style="opacity: 0.9; stroke-width: 0px; fill: rgb(110, 206, 88); fill-opacity: 1;"/><path class="point" transform="translate(27.36,197.54)" d="M8.4,2.8H2.8V8.4H-2.8V2.8H-8.4V-2.8H-2.8V-8.4H2.8V-2.8H8.4Z" style="opacity: 0.9; stroke-width: 0px; fill: rgb(110, 206, 88); fill-opacity: 1;"/></g><g class="text"/></g><g class="trace scatter trace35e1de" style="stroke-miterlimit: 2; opacity: 1;"><g class="fills"/><g class="errorbars"/><g class="lines"/><g class="points"><path class="point" transform="translate(22.89,94.16)" d="M7,7H-7V-7H7Z" style="opacity: 0.9; stroke-width: 0px; fill: rgb(53, 183, 121); fill-opacity: 1;"/><path class="point" transform="translate(22.92,24.56)" d="M7,7H-7V-7H7Z" style="opacity: 0.9; stroke-width: 0px; fill: rgb(53, 183, 121); fill-opacity: 1;"/></g><g class="text"/></g><g class="trace scatter tracefc056b" style="stroke-miterlimit: 2; opacity: 1;"><g class="fills"/><g class="errorbars"/><g class="lines"/><g class="points"><path class="point" transform="translate(22.59,166.92)" d="M0,3.96l3.96,3.96l3.96,-3.96l-3.96,-3.96l3.96,-3.96l-3.96,-3.96l-3.96,3.96l-3.96,-3.96l-3.96,3.96l3.96,3.96l-3.96,3.96l3.96,3.96Z" style="opacity: 0.9; stroke-width: 0px; fill: rgb(53, 183, 121); fill-opacity: 1;"/><path class="point" transform="translate(22.51,157.98)" d="M0,3.96l3.96,3.96l3.96,-3.96l-3.96,-3.96l3.96,-3.96l-3.96,-3.96l-3.96,3.96l-3.96,-3.96l-3.96,3.96l3.96,3.96l-3.96,3.96l3.96,3.96Z" style="opacity: 0.9; stroke-width: 0px; fill: rgb(53, 183, 121); fill-opacity: 1;"/></g><g class="text"/></g><g class="trace scatter trace49e23c" style="stroke-miterlimit: 2; opacity: 1;"><g class="fills"/><g class="errorbars"/><g class="lines"/><g class="points"><path class="point" transform="translate(22.5,207.79)" d="M8.4,2.8H2.8V8.4H-2.8V2.8H-8.4V-2.8H-2.8V-8.4H2.8V-2.8H8.4Z" style="opacity: 0.9; stroke-width: 0px; fill: rgb(53, 183, 121); fill-opacity: 1;"/><path class="point" transform="translate(22.62,187.4)" d="M8.4,2.8H2.8V8.4H-2.8V2.8H-8.4V-2.8H-2.8V-8.4H2.8V-2.8H8.4Z" style="opacity: 0.9; stroke-width: 0px; fill: rgb(53, 183, 121); fill-opacity: 1;"/></g><g class="text"/></g></g></g><g class="overplot"/><path class="xlines-above crisp" d="M0,0" style="fill: none;"/><path class="ylines-above crisp" d="M0,0" style="fill: none;"/><g class="overlines-above"/><g class="xaxislayer-above"><g class="xtick"><text text-anchor="middle" x="0" y="306" transform="translate(102.5,0)" style="font-family: CMU; font-size: 15px; fill: rgb(42, 63, 95); fill-opacity: 1; white-space: pre; opacity: 1;">0</text></g><g class="xtick"><text text-anchor="middle" x="0" y="306" style="font-family: CMU; font-size: 15px; fill: rgb(42, 63, 95); fill-opacity: 1; white-space: pre; opacity: 1;" transform="translate(179.04000000000002,0)">0.05</text></g><g class="xtick"><text text-anchor="middle" x="0" y="306" style="font-family: CMU; font-size: 15px; fill: rgb(42, 63, 95); fill-opacity: 1; white-space: pre; opacity: 1;" transform="translate(255.59,0)">0.1</text></g><g class="xtick"><text text-anchor="middle" x="0" y="306" style="font-family: CMU; font-size: 15px; fill: rgb(42, 63, 95); fill-opacity: 1; white-space: pre; opacity: 1;" transform="translate(332.13,0)">0.15</text></g></g><g class="yaxislayer-above"><g class="ytick"><text text-anchor="end" x="79" y="5.25" transform="translate(0,283.11)" style="font-family: CMU; font-size: 15px; fill: rgb(42, 63, 95); fill-opacity: 1; white-space: pre; opacity: 1;">0</text></g><g class="ytick"><text text-anchor="end" x="79" y="5.25" style="font-family: CMU; font-size: 15px; fill: rgb(42, 63, 95); fill-opacity: 1; white-space: pre; opacity: 1;" transform="translate(0,219.2)">0.5M</text></g><g class="ytick"><text text-anchor="end" x="79" y="5.25" style="font-family: CMU; font-size: 15px; fill: rgb(42, 63, 95); fill-opacity: 1; white-space: pre; opacity: 1;" transform="translate(0,155.29000000000002)">1M</text></g><g class="ytick"><text text-anchor="end" x="79" y="5.25" style="font-family: CMU; font-size: 15px; fill: rgb(42, 63, 95); fill-opacity: 1; white-space: pre; opacity: 1;" transform="translate(0,91.37)">1.5M</text></g></g><g class="overaxes-above"/></g></g><g class="polarlayer"/><g class="smithlayer"/><g class="ternarylayer"/><g class="geolayer"/><g class="funnelarealayer"/><g class="pielayer"/><g class="iciclelayer"/><g class="treemaplayer"/><g class="sunburstlayer"/><g class="glimages"/><defs id="topdefs-38328a"><g class="clips"/><clipPath id="legend38328a"><rect width="278" height="230" x="0" y="0"/></clipPath></defs><g class="layer-above"><g class="imagelayer"/><g class="shapelayer"/></g><g class="infolayer"><g class="legend" pointer-events="all" transform="translate(360.5,60)"><rect class="bg" shape-rendering="crispEdges" style="stroke: rgb(68, 68, 68); stroke-opacity: 1; fill: rgb(255, 255, 255); fill-opacity: 1; stroke-width: 0px;" width="278" height="230" x="0" y="0"/><g class="scrollbox" transform="" clip-path="url(#legend38328a)"><text class="legendtitletext" text-anchor="start" x="2" y="23.400000000000002" style="font-family: CMU; font-size: 18px; fill: rgb(42, 63, 95); fill-opacity: 1; white-space: pre;">Deformation factor, # Vertices</text><g class="groups" transform=""><g class="traces" transform="translate(0,39.650000000000006)" style="opacity: 1;"><text class="legendtext" text-anchor="start" x="40" y="5.85" style="font-family: CMU; font-size: 15px; fill: rgb(42, 63, 95); fill-opacity: 1; white-space: pre;">1.0, 642</text><g class="layers" style="opacity: 1;"><g class="legendfill"/><g class="legendlines"/><g class="legendsymbols"><g class="legendpoints"><path class="scatterpts" transform="translate(20,0)" d="M7,7H-7V-7H7Z" style="opacity: 0.9; stroke-width: 0px; fill: rgb(253, 231, 37); fill-opacity: 1;"/></g></g></g><rect class="legendtoggle" x="0" y="-11.25" width="115" height="22.5" style="fill: rgb(0, 0, 0); fill-opacity: 0;"/></g></g><g class="groups" transform=""><g class="traces" transform="translate(0,62.150000000000006)" style="opacity: 1;"><text class="legendtext" text-anchor="start" x="40" y="5.85" style="font-family: CMU; font-size: 15px; fill: rgb(42, 63, 95); fill-opacity: 1; white-space: pre;">1.0, 162</text><g class="layers" style="opacity: 1;"><g class="legendfill"/><g class="legendlines"/><g class="legendsymbols"><g class="legendpoints"><path class="scatterpts" transform="translate(20,0)" d="M0,3.96l3.96,3.96l3.96,-3.96l-3.96,-3.96l3.96,-3.96l-3.96,-3.96l-3.96,3.96l-3.96,-3.96l-3.96,3.96l3.96,3.96l-3.96,3.96l3.96,3.96Z" style="opacity: 0.9; stroke-width: 0px; fill: rgb(253, 231, 37); fill-opacity: 1;"/></g></g></g><rect class="legendtoggle" x="0" y="-11.25" width="115" height="22.5" style="fill: rgb(0, 0, 0); fill-opacity: 0;"/></g></g><g class="groups" transform=""><g class="traces" transform="translate(0,84.65)" style="opacity: 1;"><text class="legendtext" text-anchor="start" x="40" y="5.85" style="font-family: CMU; font-size: 15px; fill: rgb(42, 63, 95); fill-opacity: 1; white-space: pre;">1.0, 42</text><g class="layers" style="opacity: 1;"><g class="legendfill"/><g class="legendlines"/><g class="legendsymbols"><g class="legendpoints"><path class="scatterpts" transform="translate(20,0)" d="M8.4,2.8H2.8V8.4H-2.8V2.8H-8.4V-2.8H-2.8V-8.4H2.8V-2.8H8.4Z" style="opacity: 0.9; stroke-width: 0px; fill: rgb(253, 231, 37); fill-opacity: 1;"/></g></g></g><rect class="legendtoggle" x="0" y="-11.25" width="115" height="22.5" style="fill: rgb(0, 0, 0); fill-opacity: 0;"/></g></g><g class="groups" transform=""><g class="traces" transform="translate(0,107.15)" style="opacity: 1;"><text class="legendtext" text-anchor="start" x="40" y="5.85" style="font-family: CMU; font-size: 15px; fill: rgb(42, 63, 95); fill-opacity: 1; white-space: pre;">0.5, 642</text><g class="layers" style="opacity: 1;"><g class="legendfill"/><g class="legendlines"/><g class="legendsymbols"><g class="legendpoints"><path class="scatterpts" transform="translate(20,0)" d="M7,7H-7V-7H7Z" style="opacity: 0.9; stroke-width: 0px; fill: rgb(181, 222, 43); fill-opacity: 1;"/></g></g></g><rect class="legendtoggle" x="0" y="-11.25" width="115" height="22.5" style="fill: rgb(0, 0, 0); fill-opacity: 0;"/></g></g><g class="groups" transform=""><g class="traces" transform="translate(0,129.65)" style="opacity: 1;"><text class="legendtext" text-anchor="start" x="40" y="5.85" style="font-family: CMU; font-size: 15px; fill: rgb(42, 63, 95); fill-opacity: 1; white-space: pre;">0.5, 162</text><g class="layers" style="opacity: 1;"><g class="legendfill"/><g class="legendlines"/><g class="legendsymbols"><g class="legendpoints"><path class="scatterpts" transform="translate(20,0)" d="M0,3.96l3.96,3.96l3.96,-3.96l-3.96,-3.96l3.96,-3.96l-3.96,-3.96l-3.96,3.96l-3.96,-3.96l-3.96,3.96l3.96,3.96l-3.96,3.96l3.96,3.96Z" style="opacity: 0.9; stroke-width: 0px; fill: rgb(181, 222, 43); fill-opacity: 1;"/></g></g></g><rect class="legendtoggle" x="0" y="-11.25" width="115" height="22.5" style="fill: rgb(0, 0, 0); fill-opacity: 0;"/></g></g><g class="groups" transform=""><g class="traces" transform="translate(0,152.15)" style="opacity: 1;"><text class="legendtext" text-anchor="start" x="40" y="5.85" style="font-family: CMU; font-size: 15px; fill: rgb(42, 63, 95); fill-opacity: 1; white-space: pre;">0.5, 42</text><g class="layers" style="opacity: 1;"><g class="legendfill"/><g class="legendlines"/><g class="legendsymbols"><g class="legendpoints"><path class="scatterpts" transform="translate(20,0)" d="M8.4,2.8H2.8V8.4H-2.8V2.8H-8.4V-2.8H-2.8V-8.4H2.8V-2.8H8.4Z" style="opacity: 0.9; stroke-width: 0px; fill: rgb(181, 222, 43); fill-opacity: 1;"/></g></g></g><rect class="legendtoggle" x="0" y="-11.25" width="115" height="22.5" style="fill: rgb(0, 0, 0); fill-opacity: 0;"/></g></g><g class="groups" transform=""><g class="traces" transform="translate(0,174.65)" style="opacity: 1;"><text class="legendtext" text-anchor="start" x="40" y="5.85" style="font-family: CMU; font-size: 15px; fill: rgb(42, 63, 95); fill-opacity: 1; white-space: pre;">0.1, 642</text><g class="layers" style="opacity: 1;"><g class="legendfill"/><g class="legendlines"/><g class="legendsymbols"><g class="legendpoints"><path class="scatterpts" transform="translate(20,0)" d="M7,7H-7V-7H7Z" style="opacity: 0.9; stroke-width: 0px; fill: rgb(110, 206, 88); fill-opacity: 1;"/></g></g></g><rect class="legendtoggle" x="0" y="-11.25" width="115" height="22.5" style="fill: rgb(0, 0, 0); fill-opacity: 0;"/></g></g><g class="groups" transform=""><g class="traces" transform="translate(0,197.15)" style="opacity: 1;"><text class="legendtext" text-anchor="start" x="40" y="5.85" style="font-family: CMU; font-size: 15px; fill: rgb(42, 63, 95); fill-opacity: 1; white-space: pre;">0.1, 162</text><g class="layers" style="opacity: 1;"><g class="legendfill"/><g class="legendlines"/><g class="legendsymbols"><g class="legendpoints"><path class="scatterpts" transform="translate(20,0)" d="M0,3.96l3.96,3.96l3.96,-3.96l-3.96,-3.96l3.96,-3.96l-3.96,-3.96l-3.96,3.96l-3.96,-3.96l-3.96,3.96l3.96,3.96l-3.96,3.96l3.96,3.96Z" style="opacity: 0.9; stroke-width: 0px; fill: rgb(110, 206, 88); fill-opacity: 1;"/></g></g></g><rect class="legendtoggle" x="0" y="-11.25" width="115" height="22.5" style="fill: rgb(0, 0, 0); fill-opacity: 0;"/></g></g><g class="groups" transform=""><g class="traces" transform="translate(0,219.65)" style="opacity: 1;"><text class="legendtext" text-anchor="start" x="40" y="5.85" style="font-family: CMU; font-size: 15px; fill: rgb(42, 63, 95); fill-opacity: 1; white-space: pre;">0.1, 42</text><g class="layers" style="opacity: 1;"><g class="legendfill"/><g class="legendlines"/><g class="legendsymbols"><g class="legendpoints"><path class="scatterpts" transform="translate(20,0)" d="M8.4,2.8H2.8V8.4H-2.8V2.8H-8.4V-2.8H-2.8V-8.4H2.8V-2.8H8.4Z" style="opacity: 0.9; stroke-width: 0px; fill: rgb(110, 206, 88); fill-opacity: 1;"/></g></g></g><rect class="legendtoggle" x="0" y="-11.25" width="115" height="22.5" style="fill: rgb(0, 0, 0); fill-opacity: 0;"/></g></g><g class="groups" transform=""><g class="traces" transform="translate(0,242.15)" style="opacity: 1;"><text class="legendtext" text-anchor="start" x="40" y="5.85" style="font-family: CMU; font-size: 15px; fill: rgb(42, 63, 95); fill-opacity: 1; white-space: pre;">0.01, 642</text><g class="layers" style="opacity: 1;"><g class="legendfill"/><g class="legendlines"/><g class="legendsymbols"><g class="legendpoints"><path class="scatterpts" transform="translate(20,0)" d="M7,7H-7V-7H7Z" style="opacity: 0.9; stroke-width: 0px; fill: rgb(53, 183, 121); fill-opacity: 1;"/></g></g></g><rect class="legendtoggle" x="0" y="-11.25" width="115" height="22.5" style="fill: rgb(0, 0, 0); fill-opacity: 0;"/></g></g><g class="groups" transform=""><g class="traces" transform="translate(0,264.65)" style="opacity: 1;"><text class="legendtext" text-anchor="start" x="40" y="5.85" style="font-family: CMU; font-size: 15px; fill: rgb(42, 63, 95); fill-opacity: 1; white-space: pre;">0.01, 162</text><g class="layers" style="opacity: 1;"><g class="legendfill"/><g class="legendlines"/><g class="legendsymbols"><g class="legendpoints"><path class="scatterpts" transform="translate(20,0)" d="M0,3.96l3.96,3.96l3.96,-3.96l-3.96,-3.96l3.96,-3.96l-3.96,-3.96l-3.96,3.96l-3.96,-3.96l-3.96,3.96l3.96,3.96l-3.96,3.96l3.96,3.96Z" style="opacity: 0.9; stroke-width: 0px; fill: rgb(53, 183, 121); fill-opacity: 1;"/></g></g></g><rect class="legendtoggle" x="0" y="-11.25" width="115" height="22.5" style="fill: rgb(0, 0, 0); fill-opacity: 0;"/></g></g><g class="groups" transform=""><g class="traces" transform="translate(0,287.15)" style="opacity: 1;"><text class="legendtext" text-anchor="start" x="40" y="5.85" style="font-family: CMU; font-size: 15px; fill: rgb(42, 63, 95); fill-opacity: 1; white-space: pre;">0.01, 42</text><g class="layers" style="opacity: 1;"><g class="legendfill"/><g class="legendlines"/><g class="legendsymbols"><g class="legendpoints"><path class="scatterpts" transform="translate(20,0)" d="M8.4,2.8H2.8V8.4H-2.8V2.8H-8.4V-2.8H-2.8V-8.4H2.8V-2.8H8.4Z" style="opacity: 0.9; stroke-width: 0px; fill: rgb(53, 183, 121); fill-opacity: 1;"/></g></g></g><rect class="legendtoggle" x="0" y="-11.25" width="115" height="22.5" style="fill: rgb(0, 0, 0); fill-opacity: 0;"/></g></g></g><rect class="scrollbar" rx="20" ry="3" width="0" height="0" x="0" y="0" style="fill: rgb(128, 139, 164); fill-opacity: 1;"/></g><g class="g-gtitle"/><g class="g-xtitle"><text class="xtitle" x="217.5" y="335" text-anchor="middle" style="font-family: CMU; font-size: 15px; fill: rgb(42, 63, 95); opacity: 1; font-weight: normal; white-space: pre;">RMSD, Line vs. Geodesic (per diameter)</text></g><g class="g-ytitle"><text class="ytitle" transform="rotate(-90,16,175)" x="16" y="175" text-anchor="middle" style="font-family: CMU; font-size: 15px; fill: rgb(42, 63, 95); opacity: 1; font-weight: normal; white-space: pre;">Speed gain</text></g></g></svg>