<?xml version="1.0" encoding="utf-8"?>
<!-- Generator: Adobe Illustrator 26.4.1, SVG Export Plug-In . SVG Version: 6.00 Build 0)  -->
<svg version="1.1" id="Layer_1" xmlns="http://www.w3.org/2000/svg" xmlns:xlink="http://www.w3.org/1999/xlink" x="0px" y="0px"
	 viewBox="0 0 900 370" style="enable-background:new 0 0 900 370;" xml:space="preserve">
<style type="text/css">
	.st0{fill:#E5ECF6;}
	.st1{stroke:#FFFFFF;}
	.st2{stroke:#FFFFFF;stroke-width:2;}
	.st3{clip-path:url(#SVGID_00000119824100587158606760000010522926670600648875_);}
	.st4{fill:#90EE90;fill-opacity:0.5;stroke:#90EE90;stroke-width:2;}
	.st5{fill:#90EE90;}
	.st6{fill:#3300FF;fill-opacity:0.5;stroke:#3300FF;stroke-width:2;}
	.st7{fill:none;}
	.st8{fill:#2A3F5F;}
	.st9{font-family:'Verdana';}
	.st10{font-size:12px;}
	.st11{clip-path:url(#SVGID_00000042714694077275137410000001199916915528402070_);}
	.st12{clip-path:url(#SVGID_00000065033507854694333550000008475601182343757474_);}
	.st13{clip-path:url(#SVGID_00000133498622763366017300000016312663475028840126_);}
	.st14{fill:#3300FF;}
	.st15{fill:#FFFFFF;}
	.st16{fill:#808BA4;}
	.st17{font-size:17px;}
	.st18{font-size:14px;}
</style>
<rect x="80" y="100" class="st0" width="152.6" height="190"/>
<rect x="455.4" y="100.6" class="st0" width="152.6" height="190"/>
<rect x="265.4" y="99.1" class="st0" width="152.6" height="190"/>
<rect x="645.4" y="100" class="st0" width="152.6" height="190"/>
<g>
	<g>
		<g>
			<path class="st1" d="M80,230.9h152.6"/>
			<path class="st1" d="M80,181.1h152.6"/>
			<path class="st1" d="M80,131.2h152.6"/>
		</g>
	</g>
	<g>
		<path class="st2" d="M80,280.7h152.6"/>
	</g>
	<path class="st2" d="M0,0"/>
	<path class="st2" d="M0,0"/>
	<g>
		<defs>
			<rect id="SVGID_1_" x="80" y="100" width="152.6" height="190"/>
		</defs>
		<clipPath id="SVGID_00000077320930201778206930000017821093538442279359_">
			<use xlink:href="#SVGID_1_"  style="overflow:visible;"/>
		</clipPath>
		<g transform="translate(80,100)" style="clip-path:url(#SVGID_00000077320930201778206930000017821093538442279359_);">
			<g>
				<g>
					<path class="st4" d="M38.9,75.8h74.8 M38.9,96.4h74.8V69.1H38.9V96.4z M76.3,96.4v21.9 M76.3,69.1V57.2 M57.6,118.3H95
						 M57.6,57.2H95"/>
					<g>
						<path class="st5" d="M79.3,138.1c0,1.7-1.3,3-3,3s-3-1.3-3-3s1.3-3,3-3S79.3,136.5,79.3,138.1z"/>
						<path class="st5" d="M79.3,9.5c0,1.7-1.3,3-3,3s-3-1.3-3-3s1.3-3,3-3S79.3,7.8,79.3,9.5z"/>
					</g>
				</g>
				<g>
					<path class="st6" d="M38.9,82.2h74.8 M38.9,127.5h74.8V53.1H38.9V127.5z M76.3,127.5v25.9 M76.3,53.1V29.5 M57.6,153.4H95
						 M57.6,29.5H95"/>
				</g>
			</g>
		</g>
	</g>
	<path class="st7" d="M0,0"/>
	<path class="st7" d="M0,0"/>
	<g>
		<g>
			<text transform="matrix(1 0 0 1 146.4785 303)" class="st8 st9 st10">0.2</text>
		</g>
	</g>
	<g>
		<g>
			<text transform="matrix(1 0 0 1 71.3711 284.93)" class="st8 st9 st10">0</text>
		</g>
		<g>
			<text transform="matrix(1 0 0 1 59.377 235.09)" class="st8 st9 st10">0.1</text>
		</g>
		<g>
			<text transform="matrix(1 0 0 1 59.377 185.25)" class="st8 st9 st10">0.2</text>
		</g>
		<g>
			<text transform="matrix(1 0 0 1 59.377 135.41)" class="st8 st9 st10">0.3</text>
		</g>
	</g>
</g>
<g>
	<g>
		<path class="st1" d="M455.4,231.4H608"/>
		<path class="st1" d="M455.4,181.6H608"/>
		<path class="st1" d="M455.4,131.8H608"/>
	</g>
</g>
<g>
	<path class="st2" d="M455.4,281.3H608"/>
</g>
<path class="st2" d="M0,0"/>
<path class="st2" d="M0,0"/>
<g>
	<defs>
		<rect id="SVGID_00000109708903757127704400000013680783123777623694_" x="455.4" y="100.6" width="152.6" height="190"/>
	</defs>
	<clipPath id="SVGID_00000120553955880024501540000009896102768555652274_">
		<use xlink:href="#SVGID_00000109708903757127704400000013680783123777623694_"  style="overflow:visible;"/>
	</clipPath>
	<g transform="translate(268.475,100)" style="clip-path:url(#SVGID_00000120553955880024501540000009896102768555652274_);">
		<g>
			<g>
				<path class="st4" d="M225.8,177.2h74.8 M225.8,177.5h74.8v-0.6h-74.8V177.5z M263.2,177.5v0.5 M263.2,176.9v-0.4 M244.5,178
					h37.4 M244.5,176.5h37.4"/>
			</g>
			<g>
				<path class="st6" d="M225.8,177.6h74.8 M225.8,178.6h74.8V177h-74.8V178.6z M263.2,178.6v0.6 M263.2,177v-1.5 M244.5,179.2h37.4
					 M244.5,175.5h37.4"/>
			</g>
		</g>
	</g>
</g>
<path class="st7" d="M0,0"/>
<path class="st7" d="M0,0"/>
<g>
	<g>
		<text transform="matrix(1 0 0 1 518.064 303.5565)" class="st8 st9 st10">0.01</text>
	</g>
</g>
<g>
	<g>
		<path class="st1" d="M265.4,230H418"/>
		<path class="st1" d="M265.4,180.2H418"/>
		<path class="st1" d="M265.4,130.3H418"/>
	</g>
</g>
<g>
	<path class="st2" d="M265.4,279.9H418"/>
</g>
<path class="st2" d="M0,0"/>
<path class="st2" d="M0,0"/>
<g>
	<defs>
		<rect id="SVGID_00000072261985369394624900000000346472106703022517_" x="265.4" y="99.1" width="152.6" height="190"/>
	</defs>
	<clipPath id="SVGID_00000172427336575550932670000011277474620596599968_">
		<use xlink:href="#SVGID_00000072261985369394624900000000346472106703022517_"  style="overflow:visible;"/>
	</clipPath>
	<g transform="translate(456.95,100)" style="clip-path:url(#SVGID_00000172427336575550932670000011277474620596599968_);">
		<g>
			<g>
				<path class="st4" d="M-152.7,135.3h74.8 M-152.7,146.9h74.8v-16.3h-74.8V146.9z M-115.3,146.9v4.8 M-115.3,130.6v-22.1
					 M-134,151.7h37.4 M-134,108.5h37.4"/>
			</g>
			<g>
				<path class="st6" d="M-152.7,121.4h74.8 M-152.7,141.2h74.8v-40.6h-74.8V141.2z M-115.3,141.2v4.7 M-115.3,100.7V87.1
					 M-134,145.9h37.4 M-134,87.1h37.4"/>
			</g>
		</g>
	</g>
</g>
<path class="st7" d="M0,0"/>
<path class="st7" d="M0,0"/>
<g>
	<g>
		<text transform="matrix(1 0 0 1 331.8535 302.14)" class="st8 st9 st10">0.1</text>
	</g>
</g>
<g>
	<g>
		<g>
			<path class="st1" d="M645.4,230.9H798"/>
			<path class="st1" d="M645.4,181.1H798"/>
			<path class="st1" d="M645.4,131.2H798"/>
		</g>
	</g>
	<g>
		<path class="st2" d="M645.4,280.7H798"/>
	</g>
	<path class="st2" d="M0,0"/>
	<path class="st2" d="M0,0"/>
	<g>
		<defs>
			<rect id="SVGID_00000113348213279777344870000011542430288771284138_" x="645.4" y="100" width="152.6" height="190"/>
		</defs>
		<clipPath id="SVGID_00000101065528573240049090000017965254210576347276_">
			<use xlink:href="#SVGID_00000113348213279777344870000011542430288771284138_"  style="overflow:visible;"/>
		</clipPath>
		<g transform="translate(645.425,100)" style="clip-path:url(#SVGID_00000101065528573240049090000017965254210576347276_);">
			<g>
				<g>
					<path class="st4" d="M38.9,180.5h74.8 M38.9,180.5h74.8v-0.1L38.9,180.5L38.9,180.5z M76.3,180.5L76.3,180.5 M76.3,180.4
						L76.3,180.4 M57.6,180.5H95 M57.6,180.4H95"/>
					<g>
						<path class="st5" d="M79.3,180.4c0,1.7-1.3,3-3,3s-3-1.3-3-3s1.3-3,3-3S79.3,178.7,79.3,180.4z"/>
						<path class="st5" d="M79.3,180.4c0,1.7-1.3,3-3,3s-3-1.3-3-3s1.3-3,3-3S79.3,178.7,79.3,180.4z"/>
					</g>
				</g>
				<g>
					<path class="st6" d="M38.9,180.5h74.8 M38.9,180.5h74.8v-0.1L38.9,180.5L38.9,180.5z M76.3,180.5L76.3,180.5 M76.3,180.4
						L76.3,180.4 M57.6,180.5H95 M57.6,180.4H95"/>
					<g>
						<path class="st14" d="M79.3,180.4c0,1.7-1.3,3-3,3s-3-1.3-3-3s1.3-3,3-3S79.3,178.7,79.3,180.4z"/>
						<path class="st14" d="M79.3,180.4c0,1.7-1.3,3-3,3s-3-1.3-3-3s1.3-3,3-3S79.3,178.7,79.3,180.4z"/>
					</g>
				</g>
			</g>
		</g>
	</g>
	<path class="st7" d="M0,0"/>
	<path class="st7" d="M0,0"/>
	<g>
		<g>
			<text transform="matrix(1 0 0 1 717.9006 303)" class="st8 st9 st10">0</text>
		</g>
	</g>
</g>
<rect x="812.4" y="100" shape-rendering="crispEdges" class="st15" width="76" height="172"/>
<polygon class="st16" points="812.4,100 812.4,100 812.4,100 812.4,100 812.4,100 812.4,100 812.4,100 812.4,100 "/>
<text transform="matrix(1 0 0 1 252.1494 69.0059)" class="st8 st9 st17">2D Hypersphere, Linear Noise, No Projection</text>
<text transform="matrix(1 0 0 1 387.9121 330.5664)" class="st8 st9 st18">Noise Factor</text>
<text transform="matrix(6.123234e-17 -1 1 6.123234e-17 35.2847 267.3955)" class="st8 st9 st18">Normalized RMSD</text>
</svg>
