<?xml version="1.0" encoding="utf-8"?>
<!-- Generator: Adobe Illustrator 26.4.1, SVG Export Plug-In . SVG Version: 6.00 Build 0)  -->
<svg version="1.1" id="Layer_1" xmlns="http://www.w3.org/2000/svg" xmlns:xlink="http://www.w3.org/1999/xlink" x="0px" y="0px"
	 viewBox="0 0 1175.5 562.8" style="enable-background:new 0 0 1175.5 562.8;" xml:space="preserve">
<style type="text/css">
	.st0{fill:#E5ECF6;}
	.st1{stroke:#FFFFFF;}
	.st2{stroke:#FFFFFF;stroke-width:2;}
	.st3{clip-path:url(#SVGID_00000046319264282036215300000003943658703517089206_);}
	.st4{fill:#3300FF;fill-opacity:0.5;stroke:#3300FF;stroke-width:2;}
	.st5{fill:#90EE90;fill-opacity:0.5;stroke:#90EE90;stroke-width:2;}
	.st6{fill:#90EE90;}
	.st7{fill:none;}
	.st8{fill:#2A3F5F;}
	.st9{font-family:'Verdana';}
	.st10{font-size:12px;}
	.st11{clip-path:url(#SVGID_00000124841546804329024570000013955448879619632307_);}
	.st12{fill:#3300FF;}
	.st13{clip-path:url(#SVGID_00000150084392346516808450000015916423144267949734_);}
	.st14{clip-path:url(#SVGID_00000151526475974270848170000010836906582026061732_);}
	.st15{font-size:17px;}
	.st16{clip-path:url(#SVGID_00000039129014250457601390000010122164947421593257_);}
	.st17{clip-path:url(#SVGID_00000070102769992069954250000001402684215153880973_);}
	.st18{clip-path:url(#SVGID_00000109020698526047190560000009630286863773923480_);}
	.st19{clip-path:url(#SVGID_00000040549866289427506750000016568412957782466232_);}
	.st20{fill:#808BA4;}
	.st21{clip-path:url(#SVGID_00000156579189002257174230000013529058813053114003_);}
	.st22{clip-path:url(#SVGID_00000119800020396238798890000004266002633177601193_);}
	.st23{clip-path:url(#SVGID_00000101085304224900590030000007533920098626985350_);}
	.st24{clip-path:url(#SVGID_00000158008382303291575550000012025599920642472114_);}
	.st25{clip-path:url(#SVGID_00000123421341940131009110000000381498054103423400_);}
	.st26{clip-path:url(#SVGID_00000074408150022254794830000007426411081193329848_);}
	.st27{clip-path:url(#SVGID_00000088831883256196824180000012467073535487931326_);}
	.st28{clip-path:url(#SVGID_00000163052230881223731980000012206232940193677499_);}
</style>
<rect x="80" y="43" class="st0" width="99.7" height="190"/>
<rect x="203.7" y="43" class="st0" width="99.7" height="190"/>
<rect x="327.3" y="43" class="st0" width="99.7" height="190"/>
<rect x="451" y="43" class="st0" width="99.7" height="190"/>
<g>
	<g>
		<g>
			<path class="st1" d="M80,176.7h99.7"/>
			<path class="st1" d="M80,129.8h99.7"/>
			<path class="st1" d="M80,83h99.7"/>
		</g>
	</g>
	<g>
		<path class="st2" d="M80,223.5h99.7"/>
	</g>
	<path class="st2" d="M0-57"/>
	<path class="st2" d="M0-57"/>
	<g>
		<defs>
			<rect id="SVGID_1_" x="80" y="43" width="99.7" height="190"/>
		</defs>
		<clipPath id="SVGID_00000099629171555678634230000006203110636633025722_">
			<use xlink:href="#SVGID_1_"  style="overflow:visible;"/>
		</clipPath>
		<g transform="translate(80,100)" style="clip-path:url(#SVGID_00000099629171555678634230000006203110636633025722_);">
			<g>
				<g>
					<path class="st4" d="M25.4,47.2h48.9 M25.4,64.9h48.9V30.6H25.4V64.9z M49.9,64.9v22.3 M49.9,30.6V-3.5 M37.7,87.1h24.4
						 M37.7-3.5h24.4"/>
				</g>
				<g>
					<path class="st5" d="M25.4,41.5h48.9 M25.4,52.3h48.9V31.9H25.4V52.3z M49.9,52.3v29.7 M49.9,31.9V5 M37.7,81.9h24.4 M37.7,5
						h24.4"/>
					<g>
						<path class="st6" d="M52.9,104.4c0,1.7-1.3,3-3,3s-3-1.3-3-3s1.3-3,3-3S52.9,102.8,52.9,104.4z"/>
						<path class="st6" d="M52.9,88.9c0,1.7-1.3,3-3,3s-3-1.3-3-3s1.3-3,3-3S52.9,87.2,52.9,88.9z"/>
						<path class="st6" d="M52.9,85.6c0,1.7-1.3,3-3,3s-3-1.3-3-3s1.3-3,3-3S52.9,84,52.9,85.6z"/>
						<path class="st6" d="M52.9,0.7c0,1.7-1.3,3-3,3s-3-1.3-3-3s1.3-3,3-3S52.9-1,52.9,0.7z"/>
						<path class="st6" d="M52.9-35.1c0,1.7-1.3,3-3,3s-3-1.3-3-3c0-1.7,1.3-3,3-3S52.9-36.8,52.9-35.1z"/>
						<path class="st6" d="M52.9-47.5c0,1.7-1.3,3-3,3s-3-1.3-3-3s1.3-3,3-3S52.9-49.2,52.9-47.5z"/>
					</g>
				</g>
			</g>
		</g>
	</g>
	<path class="st7" d="M0-57"/>
	<path class="st7" d="M0-57"/>
	<g>
		<g>
			<text transform="matrix(1 0 0 1 120.0485 245.9971)" class="st8 st9 st10">0.2</text>
		</g>
	</g>
	<g>
		<g>
			<text transform="matrix(1 0 0 1 71.3711 227.6971)" class="st8 st9 st10">0</text>
		</g>
		<g>
			<text transform="matrix(1 0 0 1 59.377 180.8671)" class="st8 st9 st10">0.1</text>
		</g>
		<g>
			<text transform="matrix(1 0 0 1 59.377 134.037)" class="st8 st9 st10">0.2</text>
		</g>
		<g>
			<text transform="matrix(1 0 0 1 59.377 87.1971)" class="st8 st9 st10">0.3</text>
		</g>
	</g>
</g>
<g>
	<g>
		<g>
			<path class="st1" d="M203.7,176.7h99.7"/>
			<path class="st1" d="M203.7,129.8h99.7"/>
			<path class="st1" d="M203.7,83h99.7"/>
		</g>
	</g>
	<g>
		<path class="st2" d="M203.7,223.5h99.7"/>
	</g>
	<path class="st2" d="M0-57"/>
	<path class="st2" d="M0-57"/>
	<g>
		<defs>
			<rect id="SVGID_00000107561946795163031830000002602487876772077479_" x="203.7" y="43" width="99.7" height="190"/>
		</defs>
		<clipPath id="SVGID_00000087399887712295546060000010344006634635041981_">
			<use xlink:href="#SVGID_00000107561946795163031830000002602487876772077479_"  style="overflow:visible;"/>
		</clipPath>
		
			<g transform="translate(203.65555555555557,100)" style="clip-path:url(#SVGID_00000087399887712295546060000010344006634635041981_);">
			<g>
				<g>
					<path class="st4" d="M25.4,85.4h48.9 M25.4,88.7h48.9v-7.6H25.4V88.7z M49.9,88.7v4.4 M49.9,81.1v-9.4 M37.7,93.1h24.4
						 M37.7,71.7h24.4"/>
					<g>
						<path class="st12" d="M52.9,111.9c0,1.7-1.3,3-3,3s-3-1.3-3-3s1.3-3,3-3S52.9,110.2,52.9,111.9z"/>
						<path class="st12" d="M52.9,108.8c0,1.7-1.3,3-3,3s-3-1.3-3-3s1.3-3,3-3S52.9,107.2,52.9,108.8z"/>
						<path class="st12" d="M52.9,102.8c0,1.7-1.3,3-3,3s-3-1.3-3-3s1.3-3,3-3S52.9,101.2,52.9,102.8z"/>
						<path class="st12" d="M52.9,69.5c0,1.7-1.3,3-3,3s-3-1.3-3-3s1.3-3,3-3S52.9,67.9,52.9,69.5z"/>
					</g>
				</g>
				<g>
					<path class="st5" d="M25.4,87.1h48.9 M25.4,91.6h48.9v-9.4H25.4V91.6z M49.9,91.6v6.5 M49.9,82.2V69.1 M37.7,98.1h24.4
						 M37.7,69.1h24.4"/>
					<g>
						<path class="st6" d="M52.9,107.1c0,1.7-1.3,3-3,3s-3-1.3-3-3s1.3-3,3-3S52.9,105.5,52.9,107.1z"/>
					</g>
				</g>
			</g>
		</g>
	</g>
	<path class="st7" d="M0-57"/>
	<path class="st7" d="M0-57"/>
	<g>
		<g>
			<text transform="matrix(1 0 0 1 243.704 245.9971)" class="st8 st9 st10">0.1</text>
		</g>
	</g>
</g>
<g>
	<g>
		<g>
			<path class="st1" d="M327.3,176.7H427"/>
			<path class="st1" d="M327.3,129.8H427"/>
			<path class="st1" d="M327.3,83H427"/>
		</g>
	</g>
	<g>
		<path class="st2" d="M327.3,223.5H427"/>
	</g>
	<path class="st2" d="M0-57"/>
	<path class="st2" d="M0-57"/>
	<g>
		<defs>
			<rect id="SVGID_00000096027972194546552780000010598717316301819808_" x="327.3" y="43" width="99.7" height="190"/>
		</defs>
		<clipPath id="SVGID_00000144310401126099831420000012920435231424722084_">
			<use xlink:href="#SVGID_00000096027972194546552780000010598717316301819808_"  style="overflow:visible;"/>
		</clipPath>
		
			<g transform="translate(327.31111111111113,100)" style="clip-path:url(#SVGID_00000144310401126099831420000012920435231424722084_);">
			<g>
				<g>
					<path class="st4" d="M25.4,119.5h48.9 M25.4,120h48.9v-0.9H25.4V120z M49.9,120v1.1 M49.9,119.1v-0.9 M37.7,121.1h24.4
						 M37.7,118.2h24.4"/>
					<g>
						<path class="st12" d="M52.9,121.9c0,1.7-1.3,3-3,3s-3-1.3-3-3s1.3-3,3-3S52.9,120.3,52.9,121.9z"/>
						<path class="st12" d="M52.9,121.9c0,1.7-1.3,3-3,3s-3-1.3-3-3s1.3-3,3-3S52.9,120.2,52.9,121.9z"/>
					</g>
				</g>
				<g>
					<path class="st5" d="M25.4,119.4h48.9 M25.4,120h48.9v-0.9H25.4V120z M49.9,120v0.8 M49.9,119.1v-0.4 M37.7,120.9h24.4
						 M37.7,118.6h24.4"/>
					<g>
						<path class="st6" d="M52.9,117.6c0,1.7-1.3,3-3,3s-3-1.3-3-3s1.3-3,3-3S52.9,116,52.9,117.6z"/>
					</g>
				</g>
			</g>
		</g>
	</g>
	<path class="st7" d="M0-57"/>
	<path class="st7" d="M0-57"/>
	<g>
		<g>
			<text transform="matrix(1 0 0 1 363.5452 245.9971)" class="st8 st9 st10">0.01</text>
		</g>
	</g>
</g>
<g>
	<g>
		<g>
			<path class="st1" d="M451,176.7h99.7"/>
			<path class="st1" d="M451,129.8h99.7"/>
			<path class="st1" d="M451,83h99.7"/>
		</g>
	</g>
	<g>
		<path class="st2" d="M451,223.5h99.7"/>
	</g>
	<path class="st2" d="M0-57"/>
	<path class="st2" d="M0-57"/>
	<g>
		<defs>
			<rect id="SVGID_00000134250291955721840760000014814449017285202314_" x="451" y="43" width="99.7" height="190"/>
		</defs>
		<clipPath id="SVGID_00000129894229548846521600000018238195795540361901_">
			<use xlink:href="#SVGID_00000134250291955721840760000014814449017285202314_"  style="overflow:visible;"/>
		</clipPath>
		
			<g transform="translate(450.9666666666667,100)" style="clip-path:url(#SVGID_00000129894229548846521600000018238195795540361901_);">
			<g>
				<g>
					<path class="st4" d="M25.4,123h48.9 M25.4,123h48.9v0L25.4,123L25.4,123z M49.9,123L49.9,123 M49.9,123L49.9,123 M37.7,123.1
						h24.4 M37.7,123h24.4"/>
					<g>
						<path class="st12" d="M52.9,123.1c0,1.7-1.3,3-3,3s-3-1.3-3-3s1.3-3,3-3S52.9,121.5,52.9,123.1z"/>
						<path class="st12" d="M52.9,122.9c0,1.7-1.3,3-3,3s-3-1.3-3-3s1.3-3,3-3S52.9,121.2,52.9,122.9z"/>
					</g>
				</g>
				<g>
					<path class="st5" d="M25.4,123h48.9 M25.4,123.1h48.9V123L25.4,123.1L25.4,123.1z M49.9,123.1L49.9,123.1 M49.9,123L49.9,123
						 M37.7,123.1h24.4 M37.7,122.9h24.4"/>
					<g>
						<path class="st6" d="M52.9,122.9c0,1.7-1.3,3-3,3s-3-1.3-3-3s1.3-3,3-3S52.9,121.3,52.9,122.9z"/>
					</g>
				</g>
			</g>
		</g>
	</g>
	<path class="st7" d="M0-57"/>
	<path class="st7" d="M0-57"/>
	<g>
		<g>
			<text transform="matrix(1 0 0 1 497.0122 245.9971)" class="st8 st9 st10">0</text>
		</g>
	</g>
</g>
<path class="st2" d="M0-57"/>
<path class="st2" d="M0-57"/>
<path class="st7" d="M0-57"/>
<path class="st7" d="M0-57"/>
<g>
	<text transform="matrix(1 0 0 1 179.7222 25.2652)" class="st8 st9 st15">Hypersphere, dimension = 2</text>
</g>
<g>
	<text transform="matrix(1 0 0 1 450.8358 273.0071)" class="st8 st9 st15">Noise Factor</text>
</g>
<g>
	<text transform="matrix(6.123234e-17 -1 1 6.123234e-17 38.5767 506.1875)" class="st8 st9 st15">Normalized RMSD, Geodesic Regression</text>
</g>
<rect x="676.8" y="43" class="st0" width="99.7" height="190"/>
<rect x="800.5" y="43" class="st0" width="99.7" height="190"/>
<rect x="924.1" y="43" class="st0" width="99.7" height="190"/>
<rect x="1047.8" y="43" class="st0" width="99.7" height="190"/>
<g>
	<g>
		<g>
			<path class="st1" d="M676.8,168.8h99.7"/>
			<path class="st1" d="M676.8,114.1h99.7"/>
			<path class="st1" d="M676.8,59.4h99.7"/>
		</g>
	</g>
	<g>
		<path class="st2" d="M676.8,223.5h99.7"/>
	</g>
	<path class="st2" d="M596.8-57"/>
	<path class="st2" d="M596.8-57"/>
	<g>
		<defs>
			<rect id="SVGID_00000029003999546979353480000018036271991219888559_" x="676.8" y="43" width="99.7" height="190"/>
		</defs>
		<clipPath id="SVGID_00000003792298381858837000000009070876008991777952_">
			<use xlink:href="#SVGID_00000029003999546979353480000018036271991219888559_"  style="overflow:visible;"/>
		</clipPath>
		<g transform="translate(80,100)" style="clip-path:url(#SVGID_00000003792298381858837000000009070876008991777952_);">
			<g>
				<g>
					<path class="st4" d="M622.2,47h48.9 M622.2,56.4h48.9V28.5h-48.9V56.4z M646.7,56.4v24.3 M646.7,28.5v-41.2 M634.4,80.7h24.4
						 M634.4-12.7h24.4"/>
					<g>
						<path class="st12" d="M649.7-47.5c0,1.7-1.3,3-3,3s-3-1.3-3-3s1.3-3,3-3S649.7-49.2,649.7-47.5z"/>
					</g>
				</g>
				<g>
					<path class="st5" d="M622.2,47.5h48.9 M622.2,55.5h48.9V27h-48.9V55.5z M646.7,55.5V95 M646.7,27v-34 M634.4,95h24.4
						 M634.4-7.1h24.4"/>
					<g>
						<path class="st6" d="M649.7-35.1c0,1.7-1.3,3-3,3s-3-1.3-3-3s1.3-3,3-3S649.7-36.7,649.7-35.1z"/>
					</g>
				</g>
			</g>
		</g>
	</g>
	<path class="st7" d="M596.8-57"/>
	<path class="st7" d="M596.8-57"/>
	<g>
		<g>
			<text transform="matrix(1 0 0 1 716.8485 245.9971)" class="st8 st9 st10">0.2</text>
		</g>
	</g>
	<g>
		<g>
			<text transform="matrix(1 0 0 1 668.1711 227.6971)" class="st8 st9 st10">0</text>
		</g>
		<g>
			<text transform="matrix(1 0 0 1 656.177 172.9971)" class="st8 st9 st10">0.1</text>
		</g>
		<g>
			<text transform="matrix(1 0 0 1 656.177 118.3071)" class="st8 st9 st10">0.2</text>
		</g>
		<g>
			<text transform="matrix(1 0 0 1 656.177 63.6071)" class="st8 st9 st10">0.3</text>
		</g>
	</g>
</g>
<g>
	<g>
		<g>
			<path class="st1" d="M800.5,168.8h99.7"/>
			<path class="st1" d="M800.5,114.1h99.7"/>
			<path class="st1" d="M800.5,59.4h99.7"/>
		</g>
	</g>
	<g>
		<path class="st2" d="M800.5,223.5h99.7"/>
	</g>
	<path class="st2" d="M596.8-57"/>
	<path class="st2" d="M596.8-57"/>
	<g>
		<defs>
			<rect id="SVGID_00000036243624257615760590000013928202728132459670_" x="800.5" y="43" width="99.7" height="190"/>
		</defs>
		<clipPath id="SVGID_00000149352325126230859220000006856605657957306011_">
			<use xlink:href="#SVGID_00000036243624257615760590000013928202728132459670_"  style="overflow:visible;"/>
		</clipPath>
		
			<g transform="translate(203.65555555555557,100)" style="clip-path:url(#SVGID_00000149352325126230859220000006856605657957306011_);">
			<g>
				<g>
					<path class="st4" d="M622.2,85.1h48.9 M622.2,89.3h48.9v-8.9h-48.9V89.3z M646.7,89.3v9 M646.7,80.3V68.5 M634.4,98.3h24.4
						 M634.4,68.5h24.4"/>
				</g>
				<g>
					<path class="st5" d="M622.2,85.2h48.9 M622.2,88.9h48.9V77.1h-48.9V88.9z M646.7,88.9v17.4 M646.7,77.1V61 M634.4,106.2h24.4
						 M634.4,61h24.4"/>
				</g>
			</g>
		</g>
	</g>
	<path class="st7" d="M596.8-57"/>
	<path class="st7" d="M596.8-57"/>
	<g>
		<g>
			<text transform="matrix(1 0 0 1 840.504 245.9971)" class="st8 st9 st10">0.1</text>
		</g>
	</g>
</g>
<g>
	<g>
		<g>
			<path class="st1" d="M924.1,168.8h99.7"/>
			<path class="st1" d="M924.1,114.1h99.7"/>
			<path class="st1" d="M924.1,59.4h99.7"/>
		</g>
	</g>
	<g>
		<path class="st2" d="M924.1,223.5h99.7"/>
	</g>
	<path class="st2" d="M596.8-57"/>
	<path class="st2" d="M596.8-57"/>
	<g>
		<defs>
			<rect id="SVGID_00000182518220417099632240000006943578059105189027_" x="924.1" y="43" width="99.7" height="190"/>
		</defs>
		<clipPath id="SVGID_00000101790326798417319430000008662817513394875018_">
			<use xlink:href="#SVGID_00000182518220417099632240000006943578059105189027_"  style="overflow:visible;"/>
		</clipPath>
		
			<g transform="translate(327.31111111111113,100)" style="clip-path:url(#SVGID_00000101790326798417319430000008662817513394875018_);">
			<g>
				<g>
					<path class="st4" d="M622.2,119.5h48.9 M622.2,119.8h48.9V119h-48.9V119.8z M646.7,119.8v1.2 M646.7,119v-0.6 M634.4,121h24.4
						 M634.4,118.5h24.4"/>
					<g>
						<path class="st12" d="M649.7,117.5c0,1.7-1.3,3-3,3s-3-1.3-3-3s1.3-3,3-3S649.7,115.9,649.7,117.5z"/>
						<path class="st12" d="M649.7,117.5c0,1.7-1.3,3-3,3s-3-1.3-3-3s1.3-3,3-3S649.7,115.8,649.7,117.5z"/>
						<path class="st12" d="M649.7,117.3c0,1.7-1.3,3-3,3s-3-1.3-3-3s1.3-3,3-3S649.7,115.7,649.7,117.3z"/>
					</g>
				</g>
				<g>
					<path class="st5" d="M622.2,119.4h48.9 M622.2,119.8h48.9V119h-48.9V119.8z M646.7,119.8v0.9 M646.7,119v-0.8 M634.4,120.7
						h24.4 M634.4,118.2h24.4"/>
				</g>
			</g>
		</g>
	</g>
	<path class="st7" d="M596.8-57"/>
	<path class="st7" d="M596.8-57"/>
	<g>
		<g>
			<text transform="matrix(1 0 0 1 960.3452 245.9971)" class="st8 st9 st10">0.01</text>
		</g>
	</g>
</g>
<g>
	<g>
		<g>
			<path class="st1" d="M1047.8,168.8h99.7"/>
			<path class="st1" d="M1047.8,114.1h99.7"/>
			<path class="st1" d="M1047.8,59.4h99.7"/>
		</g>
	</g>
	<g>
		<path class="st2" d="M1047.8,223.5h99.7"/>
	</g>
	<path class="st2" d="M596.8-57"/>
	<path class="st2" d="M596.8-57"/>
	<g>
		<defs>
			<rect id="SVGID_00000075880128921328186240000006230913523642831259_" x="1047.8" y="43" width="99.7" height="190"/>
		</defs>
		<clipPath id="SVGID_00000124883464786724706770000009256965515962928002_">
			<use xlink:href="#SVGID_00000075880128921328186240000006230913523642831259_"  style="overflow:visible;"/>
		</clipPath>
		
			<g transform="translate(450.9666666666667,100)" style="clip-path:url(#SVGID_00000124883464786724706770000009256965515962928002_);">
			<g>
				<g>
					<path class="st4" d="M622.2,122.7h48.9 M622.2,123h48.9v-0.4h-48.9V123z M646.7,123v0.3 M646.7,122.6v-0.3 M634.4,123.3h24.4
						 M634.4,122.3h24.4"/>
				</g>
				<g>
					<path class="st5" d="M622.2,122.7h48.9 M622.2,122.9h48.9v-0.2h-48.9V122.9z M646.7,122.9v0.3 M646.7,122.6v-0.3 M634.4,123.2
						h24.4 M634.4,122.3h24.4"/>
				</g>
			</g>
		</g>
	</g>
	<path class="st7" d="M596.8-57"/>
	<path class="st7" d="M596.8-57"/>
	<g>
		<g>
			<text transform="matrix(1 0 0 1 1093.8123 245.9971)" class="st8 st9 st10">0</text>
		</g>
	</g>
</g>
<path class="st2" d="M0,321.4"/>
<path class="st2" d="M0,321.4"/>
<path class="st7" d="M0,321.4"/>
<path class="st7" d="M0,321.4"/>
<path class="st2" d="M0,321.4"/>
<path class="st2" d="M0,321.4"/>
<path class="st7" d="M0,321.4"/>
<path class="st7" d="M0,321.4"/>
<text transform="matrix(1 0 0 1 593.6224 61.9089)" class="st8 st9 st15">GRLR</text>
<g>
	<g>
		<g>
			<path class="st4" d="M579.6,63.2h-12v-12h12V63.2z"/>
		</g>
	</g>
</g>
<text transform="matrix(1 0 0 1 593.6224 84.4454)" class="st8 st9 st15">GR</text>
<g>
	<g>
		<g>
			<path class="st5" d="M579.6,85.8h-12v-12h12V85.8z"/>
		</g>
	</g>
</g>
<polygon class="st20" points="976,434.4 976,434.4 976,434.4 976,434.4 976,434.4 976,434.4 976,434.4 976,434.4 "/>
<rect x="85.2" y="319.2" class="st0" width="99.7" height="190"/>
<rect x="208.8" y="319.2" class="st0" width="99.7" height="190"/>
<rect x="332.5" y="319.2" class="st0" width="99.7" height="190"/>
<rect x="456.1" y="319.2" class="st0" width="99.7" height="190"/>
<g>
	<g>
		<g>
			<path class="st1" d="M85.2,435.9h99.7"/>
			<path class="st1" d="M85.2,372.1h99.7"/>
		</g>
	</g>
	<g>
		<path class="st2" d="M85.2,499.7h99.7"/>
	</g>
	<path class="st2" d="M5.2,219.2"/>
	<path class="st2" d="M5.2,219.2"/>
	<g>
		<defs>
			<rect id="SVGID_00000070100919560315832980000014700782684436684698_" x="85.2" y="319.2" width="99.7" height="190"/>
		</defs>
		<clipPath id="SVGID_00000079477441781998215500000015619712798767365023_">
			<use xlink:href="#SVGID_00000070100919560315832980000014700782684436684698_"  style="overflow:visible;"/>
		</clipPath>
		<g transform="translate(80,100)" style="clip-path:url(#SVGID_00000079477441781998215500000015619712798767365023_);">
			<g>
				<g>
					<path class="st4" d="M30.6,315.2h48.9 M30.6,326.4h48.9v-28.6H30.6V326.4z M55,326.4v18.3 M55,297.9v-38.2 M42.8,344.7h24.4
						 M42.8,259.6h24.4"/>
					<g>
						<path class="st12" d="M58,228.7c0,1.7-1.3,3-3,3s-3-1.3-3-3s1.3-3,3-3S58,227,58,228.7z"/>
					</g>
				</g>
				<g>
					<path class="st5" d="M30.6,317h48.9 M30.6,331.5h48.9V297H30.6V331.5z M55,331.5v31.2 M55,297v-31.8 M42.8,362.7h24.4
						 M42.8,265.2h24.4"/>
					<g>
						<path class="st6" d="M58,243.7c0,1.7-1.3,3-3,3s-3-1.3-3-3c0-1.7,1.3-3,3-3S58,242.1,58,243.7z"/>
					</g>
				</g>
			</g>
		</g>
	</g>
	<path class="st7" d="M5.2,219.2"/>
	<path class="st7" d="M5.2,219.2"/>
	<g>
		<g>
			<text transform="matrix(1 0 0 1 125.2061 522.1768)" class="st8 st9 st10">0.2</text>
		</g>
	</g>
	<g>
		<g>
			<text transform="matrix(1 0 0 1 76.5287 503.8768)" class="st8 st9 st10">0</text>
		</g>
		<g>
			<text transform="matrix(1 0 0 1 64.5346 440.0967)" class="st8 st9 st10">0.1</text>
		</g>
		<g>
			<text transform="matrix(1 0 0 1 64.5346 376.3168)" class="st8 st9 st10">0.2</text>
		</g>
	</g>
</g>
<g>
	<g>
		<g>
			<path class="st1" d="M208.8,435.9h99.7"/>
			<path class="st1" d="M208.8,372.1h99.7"/>
		</g>
	</g>
	<g>
		<path class="st2" d="M208.8,499.7h99.7"/>
	</g>
	<path class="st2" d="M5.2,219.2"/>
	<path class="st2" d="M5.2,219.2"/>
	<g>
		<defs>
			<rect id="SVGID_00000044175373890905401140000001100689562853590406_" x="208.8" y="319.2" width="99.7" height="190"/>
		</defs>
		<clipPath id="SVGID_00000094580645095511008580000006377252194412582035_">
			<use xlink:href="#SVGID_00000044175373890905401140000001100689562853590406_"  style="overflow:visible;"/>
		</clipPath>
		
			<g transform="translate(203.65555555555557,100)" style="clip-path:url(#SVGID_00000094580645095511008580000006377252194412582035_);">
			<g>
				<g>
					<path class="st4" d="M30.6,353.8h48.9 M30.6,362.6h48.9v-21H30.6V362.6z M55,362.6v15.1 M55,341.6v-16.5 M42.8,377.7h24.4
						 M42.8,325.2h24.4"/>
				</g>
				<g>
					<path class="st5" d="M30.6,356.4h48.9 M30.6,362.5h48.9v-22.1H30.6V362.5z M55,362.5v15.8 M55,340.3v-11.1 M42.8,378.3h24.4
						 M42.8,329.2h24.4"/>
				</g>
			</g>
		</g>
	</g>
	<path class="st7" d="M5.2,219.2"/>
	<path class="st7" d="M5.2,219.2"/>
	<g>
		<g>
			<text transform="matrix(1 0 0 1 248.8617 522.1768)" class="st8 st9 st10">0.1</text>
		</g>
	</g>
</g>
<g>
	<g>
		<g>
			<path class="st1" d="M332.5,435.9h99.7"/>
			<path class="st1" d="M332.5,372.1h99.7"/>
		</g>
	</g>
	<g>
		<path class="st2" d="M332.5,499.7h99.7"/>
	</g>
	<path class="st2" d="M5.2,219.2"/>
	<path class="st2" d="M5.2,219.2"/>
	<g>
		<defs>
			<rect id="SVGID_00000017488672402840159650000005644818476195267512_" x="332.5" y="319.2" width="99.7" height="190"/>
		</defs>
		<clipPath id="SVGID_00000128442687110848508000000000969579066539135904_">
			<use xlink:href="#SVGID_00000017488672402840159650000005644818476195267512_"  style="overflow:visible;"/>
		</clipPath>
		
			<g transform="translate(327.31111111111113,100)" style="clip-path:url(#SVGID_00000128442687110848508000000000969579066539135904_);">
			<g>
				<g>
					<path class="st4" d="M30.6,394.9h48.9 M30.6,395.7h48.9v-1.7H30.6V395.7z M55,395.7v0.9 M55,393.9v-1.5 M42.8,396.5h24.4
						 M42.8,392.5h24.4"/>
				</g>
				<g>
					<path class="st5" d="M30.6,395h48.9 M30.6,395.7h48.9V394H30.6V395.7z M55,395.7v0.5 M55,394v-1.3 M42.8,396.2h24.4
						 M42.8,392.7h24.4"/>
				</g>
			</g>
		</g>
	</g>
	<path class="st7" d="M5.2,219.2"/>
	<path class="st7" d="M5.2,219.2"/>
	<g>
		<g>
			<text transform="matrix(1 0 0 1 368.7028 522.1768)" class="st8 st9 st10">0.01</text>
		</g>
	</g>
</g>
<g>
	<g>
		<g>
			<path class="st1" d="M456.1,435.9h99.7"/>
			<path class="st1" d="M456.1,372.1h99.7"/>
		</g>
	</g>
	<g>
		<path class="st2" d="M456.1,499.7h99.7"/>
	</g>
	<path class="st2" d="M5.2,219.2"/>
	<path class="st2" d="M5.2,219.2"/>
	<g>
		<defs>
			<rect id="SVGID_00000131344308939689084640000004843794532765186966_" x="456.1" y="319.2" width="99.7" height="190"/>
		</defs>
		<clipPath id="SVGID_00000156550175670314407420000016390322385420217228_">
			<use xlink:href="#SVGID_00000131344308939689084640000004843794532765186966_"  style="overflow:visible;"/>
		</clipPath>
		
			<g transform="translate(450.9666666666667,100)" style="clip-path:url(#SVGID_00000156550175670314407420000016390322385420217228_);">
			<g>
				<g>
					<path class="st4" d="M30.6,398.1h48.9 M30.6,399.1h48.9v-1.4H30.6V399.1z M55,399.1v0.2 M55,397.7v-0.8 M42.8,399.3h24.4
						 M42.8,396.9h24.4"/>
				</g>
				<g>
					<path class="st5" d="M30.6,398.1h48.9 M30.6,399.1h48.9v-1.5H30.6V399.1z M55,399.1v0.2 M55,397.7v-0.8 M42.8,399.3h24.4
						 M42.8,396.9h24.4"/>
				</g>
			</g>
		</g>
	</g>
	<path class="st7" d="M5.2,219.2"/>
	<path class="st7" d="M5.2,219.2"/>
	<g>
		<g>
			<text transform="matrix(1 0 0 1 502.1698 522.1768)" class="st8 st9 st10">0</text>
		</g>
	</g>
</g>
<rect x="682.1" y="320.6" class="st0" width="99.7" height="190"/>
<rect x="805.7" y="320.6" class="st0" width="99.7" height="190"/>
<rect x="929.4" y="320.6" class="st0" width="99.7" height="190"/>
<rect x="1053.1" y="320.6" class="st0" width="99.7" height="190"/>
<g>
	<g>
		<g>
			<path class="st1" d="M682.1,462.8h99.7"/>
			<path class="st1" d="M682.1,424.5h99.7"/>
			<path class="st1" d="M682.1,386.1h99.7"/>
			<path class="st1" d="M682.1,347.8h99.7"/>
		</g>
	</g>
	<g>
		<path class="st2" d="M682.1,501.1h99.7"/>
	</g>
	<path class="st2" d="M602.1,220.6"/>
	<path class="st2" d="M602.1,220.6"/>
	<g>
		<defs>
			<rect id="SVGID_00000031893954361886228700000008539286394852502402_" x="682.1" y="320.6" width="99.7" height="190"/>
		</defs>
		<clipPath id="SVGID_00000029731893370196822740000014452194924630892420_">
			<use xlink:href="#SVGID_00000031893954361886228700000008539286394852502402_"  style="overflow:visible;"/>
		</clipPath>
		<g transform="translate(80,100)" style="clip-path:url(#SVGID_00000029731893370196822740000014452194924630892420_);">
			<g>
				<g>
					<path class="st4" d="M627.5,268.6h48.9 M627.5,282.8h48.9v-27.4h-48.9V282.8z M651.9,282.8v35.6 M651.9,255.5v-25.4
						 M639.7,318.4h24.4 M639.7,230.1h24.4"/>
					<g>
						<path class="st12" d="M654.9,334c0,1.7-1.3,3-3,3s-3-1.3-3-3c0-1.7,1.3-3,3-3S654.9,332.3,654.9,334z"/>
					</g>
				</g>
				<g>
					<path class="st5" d="M627.5,274.4h48.9 M627.5,285.1h48.9v-26.5h-48.9V285.1z M651.9,285.1v27.8 M651.9,258.6v-27.5
						 M639.7,312.9h24.4 M639.7,231.1h24.4"/>
				</g>
			</g>
		</g>
	</g>
	<path class="st7" d="M602.1,220.6"/>
	<path class="st7" d="M602.1,220.6"/>
	<g>
		<g>
			<text transform="matrix(1 0 0 1 722.1367 523.6169)" class="st8 st9 st10">0.2</text>
		</g>
	</g>
	<g>
		<g>
			<text transform="matrix(1 0 0 1 673.4595 505.3169)" class="st8 st9 st10">0</text>
		</g>
		<g>
			<text transform="matrix(1 0 0 1 653.8364 466.9869)" class="st8 st9 st10">0.05</text>
		</g>
		<g>
			<text transform="matrix(1 0 0 1 661.4653 428.6569)" class="st8 st9 st10">0.1</text>
		</g>
		<g>
			<text transform="matrix(1 0 0 1 653.8364 390.3169)" class="st8 st9 st10">0.15</text>
		</g>
		<g>
			<text transform="matrix(1 0 0 1 661.4653 351.9869)" class="st8 st9 st10">0.2</text>
		</g>
	</g>
</g>
<g>
	<g>
		<g>
			<path class="st1" d="M805.7,462.8h99.7"/>
			<path class="st1" d="M805.7,424.5h99.7"/>
			<path class="st1" d="M805.7,386.1h99.7"/>
			<path class="st1" d="M805.7,347.8h99.7"/>
		</g>
	</g>
	<g>
		<path class="st2" d="M805.7,501.1h99.7"/>
	</g>
	<path class="st2" d="M602.1,220.6"/>
	<path class="st2" d="M602.1,220.6"/>
	<g>
		<defs>
			<rect id="SVGID_00000080178339128662082250000000216930807456164262_" x="805.7" y="320.6" width="99.7" height="190"/>
		</defs>
		<clipPath id="SVGID_00000096770632993171868400000012964134754394705306_">
			<use xlink:href="#SVGID_00000080178339128662082250000000216930807456164262_"  style="overflow:visible;"/>
		</clipPath>
		
			<g transform="translate(203.65555555555557,100)" style="clip-path:url(#SVGID_00000096770632993171868400000012964134754394705306_);">
			<g>
				<g>
					<path class="st4" d="M627.5,334.6h48.9 M627.5,339.8h48.9v-9.2h-48.9V339.8z M651.9,339.8v7.5 M651.9,330.6v-11.9 M639.7,347.3
						h24.4 M639.7,318.7h24.4"/>
					<g>
						<path class="st12" d="M654.9,366.5c0,1.7-1.3,3-3,3s-3-1.3-3-3c0-1.7,1.3-3,3-3S654.9,364.8,654.9,366.5z"/>
						<path class="st12" d="M654.9,361.3c0,1.7-1.3,3-3,3s-3-1.3-3-3c0-1.7,1.3-3,3-3S654.9,359.7,654.9,361.3z"/>
						<path class="st12" d="M654.9,361c0,1.7-1.3,3-3,3s-3-1.3-3-3c0-1.7,1.3-3,3-3S654.9,359.4,654.9,361z"/>
						<path class="st12" d="M654.9,357.1c0,1.7-1.3,3-3,3s-3-1.3-3-3s1.3-3,3-3S654.9,355.4,654.9,357.1z"/>
					</g>
				</g>
				<g>
					<path class="st5" d="M627.5,334.7h48.9 M627.5,340.7h48.9v-9h-48.9V340.7z M651.9,340.7v11.2 M651.9,331.7v-9.2 M639.7,351.9
						h24.4 M639.7,322.5h24.4"/>
					<g>
						<path class="st6" d="M654.9,363.2c0,1.7-1.3,3-3,3s-3-1.3-3-3s1.3-3,3-3S654.9,361.6,654.9,363.2z"/>
						<path class="st6" d="M654.9,357.7c0,1.7-1.3,3-3,3s-3-1.3-3-3c0-1.7,1.3-3,3-3S654.9,356,654.9,357.7z"/>
						<path class="st6" d="M654.9,357c0,1.7-1.3,3-3,3s-3-1.3-3-3s1.3-3,3-3S654.9,355.4,654.9,357z"/>
					</g>
				</g>
			</g>
		</g>
	</g>
	<path class="st7" d="M602.1,220.6"/>
	<path class="st7" d="M602.1,220.6"/>
	<g>
		<g>
			<text transform="matrix(1 0 0 1 845.7924 523.6169)" class="st8 st9 st10">0.1</text>
		</g>
	</g>
</g>
<g>
	<g>
		<g>
			<path class="st1" d="M929.4,462.8h99.7"/>
			<path class="st1" d="M929.4,424.5h99.7"/>
			<path class="st1" d="M929.4,386.1h99.7"/>
			<path class="st1" d="M929.4,347.8h99.7"/>
		</g>
	</g>
	<g>
		<path class="st2" d="M929.4,501.1h99.7"/>
	</g>
	<path class="st2" d="M602.1,220.6"/>
	<path class="st2" d="M602.1,220.6"/>
	<g>
		<defs>
			<rect id="SVGID_00000061473687549492811830000014564278105164151431_" x="929.4" y="320.6" width="99.7" height="190"/>
		</defs>
		<clipPath id="SVGID_00000075164905131974927670000018201963823762196626_">
			<use xlink:href="#SVGID_00000061473687549492811830000014564278105164151431_"  style="overflow:visible;"/>
		</clipPath>
		
			<g transform="translate(327.31111111111113,100)" style="clip-path:url(#SVGID_00000075164905131974927670000018201963823762196626_);">
			<g>
				<g>
					<path class="st4" d="M627.5,394.2h48.9 M627.5,394.5h48.9V394h-48.9V394.5z M651.9,394.5v0.7 M651.9,394v-0.6 M639.7,395.2
						h24.4 M639.7,393.4h24.4"/>
					<g>
						<path class="st12" d="M654.9,395.8c0,1.7-1.3,3-3,3s-3-1.3-3-3s1.3-3,3-3S654.9,394.1,654.9,395.8z"/>
						<path class="st12" d="M654.9,395.4c0,1.7-1.3,3-3,3s-3-1.3-3-3s1.3-3,3-3S654.9,393.8,654.9,395.4z"/>
						<path class="st12" d="M654.9,395.4c0,1.7-1.3,3-3,3s-3-1.3-3-3c0-1.7,1.3-3,3-3S654.9,393.8,654.9,395.4z"/>
						<path class="st12" d="M654.9,395.3c0,1.7-1.3,3-3,3s-3-1.3-3-3c0-1.7,1.3-3,3-3S654.9,393.7,654.9,395.3z"/>
						<path class="st12" d="M654.9,393.2c0,1.7-1.3,3-3,3s-3-1.3-3-3s1.3-3,3-3S654.9,391.5,654.9,393.2z"/>
					</g>
				</g>
				<g>
					<path class="st5" d="M627.5,394h48.9 M627.5,394.5h48.9v-0.7h-48.9V394.5z M651.9,394.5v0.7 M651.9,393.8v-0.9 M639.7,395.1
						h24.4 M639.7,392.9h24.4"/>
					<g>
						<path class="st6" d="M654.9,396.3c0,1.7-1.3,3-3,3s-3-1.3-3-3c0-1.7,1.3-3,3-3S654.9,394.6,654.9,396.3z"/>
						<path class="st6" d="M654.9,395.6c0,1.7-1.3,3-3,3s-3-1.3-3-3c0-1.7,1.3-3,3-3S654.9,394,654.9,395.6z"/>
						<path class="st6" d="M654.9,395.5c0,1.7-1.3,3-3,3s-3-1.3-3-3c0-1.7,1.3-3,3-3S654.9,393.9,654.9,395.5z"/>
					</g>
				</g>
			</g>
		</g>
	</g>
	<path class="st7" d="M602.1,220.6"/>
	<path class="st7" d="M602.1,220.6"/>
	<g>
		<g>
			<text transform="matrix(1 0 0 1 965.6335 523.6169)" class="st8 st9 st10">0.01</text>
		</g>
	</g>
</g>
<g>
	<g>
		<g>
			<path class="st1" d="M1053.1,462.8h99.7"/>
			<path class="st1" d="M1053.1,424.5h99.7"/>
			<path class="st1" d="M1053.1,386.1h99.7"/>
			<path class="st1" d="M1053.1,347.8h99.7"/>
		</g>
	</g>
	<g>
		<path class="st2" d="M1053.1,501.1h99.7"/>
	</g>
	<path class="st2" d="M602.1,220.6"/>
	<path class="st2" d="M602.1,220.6"/>
	<g>
		<defs>
			<rect id="SVGID_00000177459182531082151480000007130599769833277318_" x="1053.1" y="320.6" width="99.7" height="190"/>
		</defs>
		<clipPath id="SVGID_00000150786489147000919860000015072644125615453858_">
			<use xlink:href="#SVGID_00000177459182531082151480000007130599769833277318_"  style="overflow:visible;"/>
		</clipPath>
		
			<g transform="translate(450.9666666666667,100)" style="clip-path:url(#SVGID_00000150786489147000919860000015072644125615453858_);">
			<g>
				<g>
					<path class="st4" d="M627.5,399.1h48.9 M627.5,400.1h48.9v-1.3h-48.9V400.1z M651.9,400.1v0.4 M651.9,398.8V398 M639.7,400.5
						h24.4 M639.7,398h24.4"/>
				</g>
				<g>
					<path class="st5" d="M627.5,399.1h48.9 M627.5,400.1h48.9v-1.3h-48.9V400.1z M651.9,400.1v0.4 M651.9,398.8V398 M639.7,400.5
						h24.4 M639.7,398h24.4"/>
				</g>
			</g>
		</g>
	</g>
	<path class="st7" d="M602.1,220.6"/>
	<path class="st7" d="M602.1,220.6"/>
	<g>
		<g>
			<text transform="matrix(1 0 0 1 1099.1006 523.6169)" class="st8 st9 st10">0</text>
		</g>
	</g>
</g>
<path class="st2" d="M-0.1,1140.4"/>
<path class="st2" d="M-0.1,1140.4"/>
<path class="st7" d="M-0.1,1140.4"/>
<path class="st7" d="M-0.1,1140.4"/>
<g>
</g>
<g>
	<text transform="matrix(1 0 0 1 756.411 25.2651)" class="st8 st9 st15">Hypersphere, dimension = 3</text>
</g>
<g>
	<text transform="matrix(1 0 0 1 1047.7665 273.0067)" class="st8 st9 st15">Noise Factor</text>
</g>
<g>
	<text transform="matrix(1 0 0 1 158.806 305.2493)" class="st8 st9 st15">Hypersphere, dimension = 5</text>
</g>
<g>
	<text transform="matrix(1 0 0 1 754.7448 305.2492)" class="st8 st9 st15">Hypersphere, dimension = 10</text>
</g>
<g>
	<text transform="matrix(1 0 0 1 1047.767 549.6821)" class="st8 st9 st15">Noise Factor</text>
</g>
<g>
	<text transform="matrix(1 0 0 1 450.967 549.6828)" class="st8 st9 st15">Noise Factor</text>
</g>
</svg>
