<?xml version="1.0" encoding="utf-8"?>
<!-- Generator: Adobe Illustrator 26.4.1, SVG Export Plug-In . SVG Version: 6.00 Build 0)  -->
<svg version="1.1" id="Layer_1" xmlns="http://www.w3.org/2000/svg" xmlns:xlink="http://www.w3.org/1999/xlink" x="0px" y="0px"
	 viewBox="0 0 900 370" style="enable-background:new 0 0 900 370;" xml:space="preserve">
<style type="text/css">
	.st0{fill:#E5ECF6;}
	.st1{stroke:#FFFFFF;}
	.st2{clip-path:url(#SVGID_00000130632101054936638720000004164446069944663736_);}
	.st3{fill:#3300FF;fill-opacity:0.5;stroke:#3300FF;stroke-width:2;}
	.st4{fill:#3300FF;}
	.st5{fill:#90EE90;fill-opacity:0.5;stroke:#90EE90;stroke-width:2;}
	.st6{fill:none;}
	.st7{fill:#2A3F5F;}
	.st8{font-family:'Verdana';}
	.st9{font-size:12px;}
	.st10{clip-path:url(#SVGID_00000072278484008295794100000007237026362002254494_);}
	.st11{clip-path:url(#SVGID_00000039125624721048019750000004499144886145029027_);}
	.st12{fill:#90EE90;}
	.st13{clip-path:url(#SVGID_00000168831366698175093290000013105052933467182003_);}
	.st14{font-size:17px;}
	.st15{font-size:14px;}
</style>
<rect x="80" y="100" class="st0" width="99.7" height="190"/>
<rect x="203.7" y="100" class="st0" width="99.7" height="190"/>
<rect x="327.3" y="100" class="st0" width="99.7" height="190"/>
<rect x="450" y="100" class="st0" width="99.7" height="190"/>
<g>
	<g>
		<path class="st1" d="M80,276.7h99.7"/>
		<path class="st1" d="M80,241h99.7"/>
		<path class="st1" d="M80,205.3h99.7"/>
		<path class="st1" d="M80,169.6h99.7"/>
		<path class="st1" d="M80,133.9h99.7"/>
	</g>
</g>
<path class="st1" d="M0,0"/>
<path class="st1" d="M0,0"/>
<g>
	<defs>
		<rect id="SVGID_1_" x="80" y="100" width="99.7" height="190"/>
	</defs>
	<clipPath id="SVGID_00000038401094648510409030000005248033041230697627_">
		<use xlink:href="#SVGID_1_"  style="overflow:visible;"/>
	</clipPath>
	<g transform="translate(80,100)" style="clip-path:url(#SVGID_00000038401094648510409030000005248033041230697627_);">
		<g>
			<g>
				<path class="st3" d="M25.4,131.5h48.9 M25.4,140.6h48.9v-17.4H25.4V140.6z M49.9,140.6v23.8 M49.9,123.3v-1.3 M37.7,164.4h24.4
					 M37.7,121.9h24.4"/>
				<g>
					<path class="st4" d="M52.9,9.5c0,1.7-1.3,3-3,3s-3-1.3-3-3s1.3-3,3-3S52.9,7.8,52.9,9.5z"/>
				</g>
			</g>
			<g>
				<path class="st5" d="M25.4,105.8h48.9 M25.4,128.5h48.9v-25.9H25.4V128.5z M49.9,128.5v20.1 M49.9,102.6v-7.4 M37.7,148.6h24.4
					 M37.7,95.2h24.4"/>
			</g>
		</g>
	</g>
</g>
<path class="st6" d="M0,0"/>
<path class="st6" d="M0,0"/>
<g>
	<g>
		<text transform="matrix(1 0 0 1 120.0485 303)" class="st7 st8 st9">0.2</text>
	</g>
</g>
<g>
	<g>
		<text transform="matrix(1 0 0 1 59.377 280.88)" class="st7 st8 st9">0.1</text>
	</g>
	<g>
		<text transform="matrix(1 0 0 1 59.377 245.19)" class="st7 st8 st9">0.2</text>
	</g>
	<g>
		<text transform="matrix(1 0 0 1 59.377 209.5)" class="st7 st8 st9">0.3</text>
	</g>
	<g>
		<text transform="matrix(1 0 0 1 59.377 173.81)" class="st7 st8 st9">0.4</text>
	</g>
	<g>
		<text transform="matrix(1 0 0 1 59.377 138.11)" class="st7 st8 st9">0.5</text>
	</g>
</g>
<g>
	<g>
		<path class="st1" d="M203.7,276.7h99.7"/>
		<path class="st1" d="M203.7,241h99.7"/>
		<path class="st1" d="M203.7,205.3h99.7"/>
		<path class="st1" d="M203.7,169.6h99.7"/>
		<path class="st1" d="M203.7,133.9h99.7"/>
	</g>
</g>
<path class="st1" d="M0,0"/>
<path class="st1" d="M0,0"/>
<g>
	<defs>
		<rect id="SVGID_00000048482377535766645160000012981195547613117849_" x="203.7" y="100" width="99.7" height="190"/>
	</defs>
	<clipPath id="SVGID_00000079448473010138107870000011317700074918034579_">
		<use xlink:href="#SVGID_00000048482377535766645160000012981195547613117849_"  style="overflow:visible;"/>
	</clipPath>
	
		<g transform="translate(203.65555555555557,100)" style="clip-path:url(#SVGID_00000079448473010138107870000011317700074918034579_);">
		<g>
			<g>
				<path class="st3" d="M25.4,158.7h48.9 M25.4,163.1h48.9v-8.7H25.4V163.1z M49.9,163.1v3.4 M49.9,154.4v-4.1 M37.7,166.5h24.4
					 M37.7,150.3h24.4"/>
			</g>
			<g>
				<path class="st5" d="M25.4,162.3h48.9 M25.4,167.6h48.9v-12.7H25.4V167.6z M49.9,167.6v2.2 M49.9,154.9V152 M37.7,169.8h24.4
					 M37.7,152h24.4"/>
			</g>
		</g>
	</g>
</g>
<path class="st6" d="M0,0"/>
<path class="st6" d="M0,0"/>
<g>
	<g>
		<text transform="matrix(1 0 0 1 243.704 303)" class="st7 st8 st9">0.1</text>
	</g>
</g>
<g>
	<g>
		<path class="st1" d="M327.3,276.7H427"/>
		<path class="st1" d="M327.3,241H427"/>
		<path class="st1" d="M327.3,205.3H427"/>
		<path class="st1" d="M327.3,169.6H427"/>
		<path class="st1" d="M327.3,133.9H427"/>
	</g>
</g>
<path class="st1" d="M0,0"/>
<path class="st1" d="M0,0"/>
<g>
	<defs>
		<rect id="SVGID_00000024690596154600563480000006694212151261894032_" x="327.3" y="100" width="99.7" height="190"/>
	</defs>
	<clipPath id="SVGID_00000104684233160802902290000017780458434015676846_">
		<use xlink:href="#SVGID_00000024690596154600563480000006694212151261894032_"  style="overflow:visible;"/>
	</clipPath>
	
		<g transform="translate(327.31111111111113,100)" style="clip-path:url(#SVGID_00000104684233160802902290000017780458434015676846_);">
		<g>
			<g>
				<path class="st3" d="M25.4,179.2h48.9 M25.4,179.8h48.9v-1.7H25.4V179.8z M49.9,179.8v0.5 M49.9,178.2L49.9,178.2 M37.7,180.4
					h24.4 M37.7,178.2h24.4"/>
				<g>
					<path class="st4" d="M52.9,174.1c0,1.7-1.3,3-3,3s-3-1.3-3-3s1.3-3,3-3S52.9,172.5,52.9,174.1z"/>
					<path class="st4" d="M52.9,173.1c0,1.7-1.3,3-3,3s-3-1.3-3-3s1.3-3,3-3S52.9,171.4,52.9,173.1z"/>
				</g>
			</g>
			<g>
				<path class="st5" d="M25.4,177.8h48.9 M25.4,179.4h48.9V174H25.4V179.4z M49.9,179.4v0.5 M49.9,174L49.9,174 M37.7,179.9h24.4
					 M37.7,174h24.4"/>
				<g>
					<path class="st12" d="M52.9,165.2c0,1.7-1.3,3-3,3s-3-1.3-3-3s1.3-3,3-3S52.9,163.5,52.9,165.2z"/>
					<path class="st12" d="M52.9,163.4c0,1.7-1.3,3-3,3s-3-1.3-3-3s1.3-3,3-3S52.9,161.8,52.9,163.4z"/>
				</g>
			</g>
		</g>
	</g>
</g>
<path class="st6" d="M0,0"/>
<path class="st6" d="M0,0"/>
<g>
	<g>
		<text transform="matrix(1 0 0 1 363.5452 303)" class="st7 st8 st9">0.01</text>
	</g>
</g>
<path class="st1" d="M0,0"/>
<path class="st1" d="M0,0"/>
<path class="st6" d="M0,0"/>
<path class="st6" d="M0,0"/>
<path class="st1" d="M0,0"/>
<path class="st1" d="M0,0"/>
<path class="st6" d="M0,0"/>
<path class="st6" d="M0,0"/>
<g>
	<g>
		<path class="st1" d="M450,276.7h99.7"/>
		<path class="st1" d="M450,241h99.7"/>
		<path class="st1" d="M450,205.3h99.7"/>
		<path class="st1" d="M450,169.6h99.7"/>
		<path class="st1" d="M450,133.9h99.7"/>
	</g>
</g>
<path class="st1" d="M0,0"/>
<path class="st1" d="M0,0"/>
<g>
	<defs>
		<rect id="SVGID_00000066491548264952679340000007487328823635967391_" x="450" y="100" width="99.7" height="190"/>
	</defs>
	<clipPath id="SVGID_00000034059150294275948680000000145847129666414774_">
		<use xlink:href="#SVGID_00000066491548264952679340000007487328823635967391_"  style="overflow:visible;"/>
	</clipPath>
	
		<g transform="translate(698.2777777777777,100)" style="clip-path:url(#SVGID_00000034059150294275948680000000145847129666414774_);">
		<g>
			<g>
				<path class="st3" d="M-222.8,179.2h48.9 M-222.8,180.2h48.9v-2.3h-48.9V180.2z M-198.4,180.2v0.3 M-198.4,177.9L-198.4,177.9
					 M-210.6,180.5h24.4 M-210.6,177.9h24.4"/>
				<g>
					<path class="st4" d="M-195.4,173.9c0,1.7-1.3,3-3,3s-3-1.3-3-3s1.3-3,3-3S-195.4,172.3-195.4,173.9z"/>
					<path class="st4" d="M-195.4,173.4c0,1.7-1.3,3-3,3s-3-1.3-3-3s1.3-3,3-3S-195.4,171.7-195.4,173.4z"/>
				</g>
			</g>
			<g>
				<path class="st5" d="M-222.8,178.4h48.9 M-222.8,179.6h48.9v-5.3h-48.9V179.6z M-198.4,179.6v0.8 M-198.4,174.4L-198.4,174.4
					 M-210.6,180.4h24.4 M-210.6,174.4h24.4"/>
				<g>
					<path class="st12" d="M-195.4,165.1c0,1.7-1.3,3-3,3s-3-1.3-3-3s1.3-3,3-3S-195.4,163.4-195.4,165.1z"/>
					<path class="st12" d="M-195.4,164.4c0,1.7-1.3,3-3,3s-3-1.3-3-3s1.3-3,3-3S-195.4,162.7-195.4,164.4z"/>
				</g>
			</g>
		</g>
	</g>
</g>
<path class="st6" d="M0,0"/>
<path class="st6" d="M0,0"/>
<g>
	<g>
		<text transform="matrix(1 0 0 1 496.0455 303)" class="st7 st8 st9">0</text>
	</g>
</g>
<g>
	<text transform="matrix(1 0 0 1 84.6875 60.0957)" class="st7 st8 st14">2D Hyperboloid, Linear Noise, No Projection</text>
</g>
<g>
	<text transform="matrix(1 0 0 1 303.3778 334.6691)" class="st7 st8 st15">Noise Factor</text>
</g>
<g>
	<text transform="matrix(6.123234e-17 -1 1 6.123234e-17 35.075 260.0898)" class="st7 st8 st15">Normalized RMSD</text>
</g>
</svg>
