<svg class="main-svg" xmlns="http://www.w3.org/2000/svg" xmlns:xlink="http://www.w3.org/1999/xlink" width="900" height="370" style="" viewBox="0 0 900 370"><rect x="0" y="0" width="900" height="370" style="fill: rgb(255, 255, 255); fill-opacity: 1;"/><defs id="defs-174490"><g class="clips"><clipPath id="clip174490xyplot" class="plotclip"><rect width="99.72222222222223" height="190"/></clipPath><clipPath id="clip174490x2y2plot" class="plotclip"><rect width="99.72222222222223" height="190"/></clipPath><clipPath id="clip174490x3y3plot" class="plotclip"><rect width="99.72222222222223" height="190"/></clipPath><clipPath id="clip174490x4y4plot" class="plotclip"><rect width="99.72222222222227" height="190"/></clipPath><clipPath id="clip174490x5y5plot" class="plotclip"><rect width="99.72222222222219" height="190"/></clipPath><clipPath id="clip174490x6y6plot" class="plotclip"><rect width="99.72222222222227" height="190"/></clipPath><clipPath class="axesclip" id="clip174490x"><rect x="80" y="0" width="99.72222222222223" height="370"/></clipPath><clipPath class="axesclip" id="clip174490y"><rect x="0" y="100" width="900" height="190"/></clipPath><clipPath class="axesclip" id="clip174490xy"><rect x="80" y="100" width="99.72222222222223" height="190"/></clipPath><clipPath class="axesclip" id="clip174490y2"><rect x="0" y="100" width="900" height="190"/></clipPath><clipPath class="axesclip" id="clip174490xy2"><rect x="80" y="100" width="99.72222222222223" height="190"/></clipPath><clipPath class="axesclip" id="clip174490y3"><rect x="0" y="100" width="900" height="190"/></clipPath><clipPath class="axesclip" id="clip174490xy3"><rect x="80" y="100" width="99.72222222222223" height="190"/></clipPath><clipPath class="axesclip" id="clip174490y4"><rect x="0" y="100" width="900" height="190"/></clipPath><clipPath class="axesclip" id="clip174490xy4"><rect x="80" y="100" width="99.72222222222223" height="190"/></clipPath><clipPath class="axesclip" id="clip174490y5"><rect x="0" y="100" width="900" height="190"/></clipPath><clipPath class="axesclip" id="clip174490xy5"><rect x="80" y="100" width="99.72222222222223" height="190"/></clipPath><clipPath class="axesclip" id="clip174490y6"><rect x="0" y="100" width="900" height="190"/></clipPath><clipPath class="axesclip" id="clip174490xy6"><rect x="80" y="100" width="99.72222222222223" height="190"/></clipPath><clipPath class="axesclip" id="clip174490x2"><rect x="203.65555555555557" y="0" width="99.72222222222223" height="370"/></clipPath><clipPath class="axesclip" id="clip174490x2y"><rect x="203.65555555555557" y="100" width="99.72222222222223" height="190"/></clipPath><clipPath class="axesclip" id="clip174490x2y2"><rect x="203.65555555555557" y="100" width="99.72222222222223" height="190"/></clipPath><clipPath class="axesclip" id="clip174490x2y3"><rect x="203.65555555555557" y="100" width="99.72222222222223" height="190"/></clipPath><clipPath class="axesclip" id="clip174490x2y4"><rect x="203.65555555555557" y="100" width="99.72222222222223" height="190"/></clipPath><clipPath class="axesclip" id="clip174490x2y5"><rect x="203.65555555555557" y="100" width="99.72222222222223" height="190"/></clipPath><clipPath class="axesclip" id="clip174490x2y6"><rect x="203.65555555555557" y="100" width="99.72222222222223" height="190"/></clipPath><clipPath class="axesclip" id="clip174490x3"><rect x="327.31111111111113" y="0" width="99.72222222222223" height="370"/></clipPath><clipPath class="axesclip" id="clip174490x3y"><rect x="327.31111111111113" y="100" width="99.72222222222223" height="190"/></clipPath><clipPath class="axesclip" id="clip174490x3y2"><rect x="327.31111111111113" y="100" width="99.72222222222223" height="190"/></clipPath><clipPath class="axesclip" id="clip174490x3y3"><rect x="327.31111111111113" y="100" width="99.72222222222223" height="190"/></clipPath><clipPath class="axesclip" id="clip174490x3y4"><rect x="327.31111111111113" y="100" width="99.72222222222223" height="190"/></clipPath><clipPath class="axesclip" id="clip174490x3y5"><rect x="327.31111111111113" y="100" width="99.72222222222223" height="190"/></clipPath><clipPath class="axesclip" id="clip174490x3y6"><rect x="327.31111111111113" y="100" width="99.72222222222223" height="190"/></clipPath><clipPath class="axesclip" id="clip174490x4"><rect x="450.9666666666667" y="0" width="99.72222222222227" height="370"/></clipPath><clipPath class="axesclip" id="clip174490x4y"><rect x="450.9666666666667" y="100" width="99.72222222222227" height="190"/></clipPath><clipPath class="axesclip" id="clip174490x4y2"><rect x="450.9666666666667" y="100" width="99.72222222222227" height="190"/></clipPath><clipPath class="axesclip" id="clip174490x4y3"><rect x="450.9666666666667" y="100" width="99.72222222222227" height="190"/></clipPath><clipPath class="axesclip" id="clip174490x4y4"><rect x="450.9666666666667" y="100" width="99.72222222222227" height="190"/></clipPath><clipPath class="axesclip" id="clip174490x4y5"><rect x="450.9666666666667" y="100" width="99.72222222222227" height="190"/></clipPath><clipPath class="axesclip" id="clip174490x4y6"><rect x="450.9666666666667" y="100" width="99.72222222222227" height="190"/></clipPath><clipPath class="axesclip" id="clip174490x5"><rect x="574.6222222222223" y="0" width="99.72222222222219" height="370"/></clipPath><clipPath class="axesclip" id="clip174490x5y"><rect x="574.6222222222223" y="100" width="99.72222222222219" height="190"/></clipPath><clipPath class="axesclip" id="clip174490x5y2"><rect x="574.6222222222223" y="100" width="99.72222222222219" height="190"/></clipPath><clipPath class="axesclip" id="clip174490x5y3"><rect x="574.6222222222223" y="100" width="99.72222222222219" height="190"/></clipPath><clipPath class="axesclip" id="clip174490x5y4"><rect x="574.6222222222223" y="100" width="99.72222222222219" height="190"/></clipPath><clipPath class="axesclip" id="clip174490x5y5"><rect x="574.6222222222223" y="100" width="99.72222222222219" height="190"/></clipPath><clipPath class="axesclip" id="clip174490x5y6"><rect x="574.6222222222223" y="100" width="99.72222222222219" height="190"/></clipPath><clipPath class="axesclip" id="clip174490x6"><rect x="698.2777777777777" y="0" width="99.72222222222227" height="370"/></clipPath><clipPath class="axesclip" id="clip174490x6y"><rect x="698.2777777777777" y="100" width="99.72222222222227" height="190"/></clipPath><clipPath class="axesclip" id="clip174490x6y2"><rect x="698.2777777777777" y="100" width="99.72222222222227" height="190"/></clipPath><clipPath class="axesclip" id="clip174490x6y3"><rect x="698.2777777777777" y="100" width="99.72222222222227" height="190"/></clipPath><clipPath class="axesclip" id="clip174490x6y4"><rect x="698.2777777777777" y="100" width="99.72222222222227" height="190"/></clipPath><clipPath class="axesclip" id="clip174490x6y5"><rect x="698.2777777777777" y="100" width="99.72222222222227" height="190"/></clipPath><clipPath class="axesclip" id="clip174490x6y6"><rect x="698.2777777777777" y="100" width="99.72222222222227" height="190"/></clipPath></g><g class="gradients"/><g class="patterns"/></defs><g class="bglayer"><rect class="bg" x="80" y="100" width="99.72222222222223" height="190" style="fill: rgb(229, 236, 246); fill-opacity: 1; stroke-width: 0;"/><rect class="bg" x="203.65555555555557" y="100" width="99.72222222222223" height="190" style="fill: rgb(229, 236, 246); fill-opacity: 1; stroke-width: 0;"/><rect class="bg" x="327.31111111111113" y="100" width="99.72222222222223" height="190" style="fill: rgb(229, 236, 246); fill-opacity: 1; stroke-width: 0;"/><rect class="bg" x="450.9666666666667" y="100" width="99.72222222222227" height="190" style="fill: rgb(229, 236, 246); fill-opacity: 1; stroke-width: 0;"/><rect class="bg" x="574.6222222222223" y="100" width="99.72222222222219" height="190" style="fill: rgb(229, 236, 246); fill-opacity: 1; stroke-width: 0;"/><rect class="bg" x="698.2777777777777" y="100" width="99.72222222222227" height="190" style="fill: rgb(229, 236, 246); fill-opacity: 1; stroke-width: 0;"/></g><g class="layer-below"><g class="imagelayer"/><g class="shapelayer"/></g><g class="cartesianlayer"><g class="subplot xy"><g class="layer-subplot"><g class="shapelayer"/><g class="imagelayer"/></g><g class="minor-gridlayer"><g class="x"/><g class="y"/></g><g class="gridlayer"><g class="x"/><g class="y"><path class="ygrid crisp" transform="translate(0,265.15999999999997)" d="M80,0h99.72222222222223" style="stroke: rgb(255, 255, 255); stroke-opacity: 1; stroke-width: 1px;"/><path class="ygrid crisp" transform="translate(0,218.20999999999998)" d="M80,0h99.72222222222223" style="stroke: rgb(255, 255, 255); stroke-opacity: 1; stroke-width: 1px;"/><path class="ygrid crisp" transform="translate(0,171.26999999999998)" d="M80,0h99.72222222222223" style="stroke: rgb(255, 255, 255); stroke-opacity: 1; stroke-width: 1px;"/><path class="ygrid crisp" transform="translate(0,124.33)" d="M80,0h99.72222222222223" style="stroke: rgb(255, 255, 255); stroke-opacity: 1; stroke-width: 1px;"/></g></g><g class="zerolinelayer"/><path class="xlines-below"/><path class="ylines-below"/><g class="overlines-below"/><g class="xaxislayer-below"/><g class="yaxislayer-below"/><g class="overaxes-below"/><g class="plot" transform="translate(80,100)" clip-path="url(#clip174490xyplot)"><g class="boxlayer mlayer"><g class="trace boxes" style="opacity: 1;"><path class="box" d="M25.43,144.3H74.29M25.43,156.55H74.29V138.51H25.43ZM49.86,156.55V170.7M49.86,138.51V125.98M37.65,170.7H62.08M37.65,125.98H62.08" style="vector-effect: none; stroke-width: 2px; stroke: rgb(51, 0, 255); stroke-opacity: 1; fill: rgb(51, 0, 255); fill-opacity: 0.5;"/><g class="points"><path class="point" transform="translate(49.86,97.85)" d="M3,0A3,3 0 1,1 0,-3A3,3 0 0,1 3,0Z" style="opacity: 1; stroke-width: 0px; fill: rgb(51, 0, 255); fill-opacity: 1;"/><path class="point" transform="translate(49.86,9.5)" d="M3,0A3,3 0 1,1 0,-3A3,3 0 0,1 3,0Z" style="opacity: 1; stroke-width: 0px; fill: rgb(51, 0, 255); fill-opacity: 1;"/></g></g><g class="trace boxes" style="opacity: 1;"><path class="box" d="M25.43,138.32H74.29M25.43,154.19H74.29V97.74H25.43ZM49.86,154.19V161.95M49.86,97.74V63.4M37.65,161.95H62.08M37.65,63.4H62.08" style="vector-effect: none; stroke-width: 2px; stroke: rgb(144, 238, 144); stroke-opacity: 1; fill: rgb(144, 238, 144); fill-opacity: 0.5;"/><g class="points"/></g></g></g><g class="overplot"/><path class="xlines-above crisp" d="M0,0" style="fill: none;"/><path class="ylines-above crisp" d="M0,0" style="fill: none;"/><g class="overlines-above"/><g class="xaxislayer-above"><g class="xtick"><text text-anchor="middle" x="0" y="303" transform="translate(129.86,0)" style="font-family: 'Open Sans', verdana, arial, sans-serif; font-size: 12px; fill: rgb(42, 63, 95); fill-opacity: 1; white-space: pre; opacity: 1;">0.2</text></g></g><g class="yaxislayer-above"><g class="ytick"><text text-anchor="end" x="79" y="4.199999999999999" transform="translate(0,265.15999999999997)" style="font-family: 'Open Sans', verdana, arial, sans-serif; font-size: 12px; fill: rgb(42, 63, 95); fill-opacity: 1; white-space: pre; opacity: 1;">0.1</text></g><g class="ytick"><text text-anchor="end" x="79" y="4.199999999999999" style="font-family: 'Open Sans', verdana, arial, sans-serif; font-size: 12px; fill: rgb(42, 63, 95); fill-opacity: 1; white-space: pre; opacity: 1;" transform="translate(0,218.20999999999998)">0.15</text></g><g class="ytick"><text text-anchor="end" x="79" y="4.199999999999999" style="font-family: 'Open Sans', verdana, arial, sans-serif; font-size: 12px; fill: rgb(42, 63, 95); fill-opacity: 1; white-space: pre; opacity: 1;" transform="translate(0,171.26999999999998)">0.2</text></g><g class="ytick"><text text-anchor="end" x="79" y="4.199999999999999" style="font-family: 'Open Sans', verdana, arial, sans-serif; font-size: 12px; fill: rgb(42, 63, 95); fill-opacity: 1; white-space: pre; opacity: 1;" transform="translate(0,124.33)">0.25</text></g></g><g class="overaxes-above"/></g><g class="subplot x2y2"><g class="layer-subplot"><g class="shapelayer"/><g class="imagelayer"/></g><g class="minor-gridlayer"><g class="x2"/><g class="y2"/></g><g class="gridlayer"><g class="x2"/><g class="y2"><path class="y2grid crisp" transform="translate(0,265.15999999999997)" d="M203.65555555555557,0h99.72222222222223" style="stroke: rgb(255, 255, 255); stroke-opacity: 1; stroke-width: 1px;"/><path class="y2grid crisp" transform="translate(0,218.20999999999998)" d="M203.65555555555557,0h99.72222222222223" style="stroke: rgb(255, 255, 255); stroke-opacity: 1; stroke-width: 1px;"/><path class="y2grid crisp" transform="translate(0,171.26999999999998)" d="M203.65555555555557,0h99.72222222222223" style="stroke: rgb(255, 255, 255); stroke-opacity: 1; stroke-width: 1px;"/><path class="y2grid crisp" transform="translate(0,124.33)" d="M203.65555555555557,0h99.72222222222223" style="stroke: rgb(255, 255, 255); stroke-opacity: 1; stroke-width: 1px;"/></g></g><g class="zerolinelayer"/><path class="xlines-below"/><path class="ylines-below"/><g class="overlines-below"/><g class="xaxislayer-below"/><g class="yaxislayer-below"/><g class="overaxes-below"/><g class="plot" transform="translate(203.65555555555557,100)" clip-path="url(#clip174490x2y2plot)"><g class="boxlayer mlayer"><g class="trace boxes" style="opacity: 1;"><path class="box" d="M25.43,160.33H74.29M25.43,170.25H74.29V153.38H25.43ZM49.86,170.25V180.5M49.86,153.38V139.37M37.65,180.5H62.08M37.65,139.37H62.08" style="vector-effect: none; stroke-width: 2px; stroke: rgb(51, 0, 255); stroke-opacity: 1; fill: rgb(51, 0, 255); fill-opacity: 0.5;"/><g class="points"/></g><g class="trace boxes" style="opacity: 1;"><path class="box" d="M25.43,160.05H74.29M25.43,168.07H74.29V138.37H25.43ZM49.86,168.07V178.83M49.86,138.37V110.63M37.65,178.83H62.08M37.65,110.63H62.08" style="vector-effect: none; stroke-width: 2px; stroke: rgb(144, 238, 144); stroke-opacity: 1; fill: rgb(144, 238, 144); fill-opacity: 0.5;"/><g class="points"/></g></g></g><g class="overplot"/><path class="xlines-above crisp" d="M0,0" style="fill: none;"/><path class="ylines-above crisp" d="M0,0" style="fill: none;"/><g class="overlines-above"/><g class="xaxislayer-above"><g class="x2tick"><text text-anchor="middle" x="0" y="303" transform="translate(253.51555555555558,0)" style="font-family: 'Open Sans', verdana, arial, sans-serif; font-size: 12px; fill: rgb(42, 63, 95); fill-opacity: 1; white-space: pre; opacity: 1;">0.1</text></g></g><g class="yaxislayer-above"/><g class="overaxes-above"/></g><g class="subplot x3y3"><g class="layer-subplot"><g class="shapelayer"/><g class="imagelayer"/></g><g class="minor-gridlayer"><g class="x3"/><g class="y3"/></g><g class="gridlayer"><g class="x3"/><g class="y3"><path class="y3grid crisp" transform="translate(0,265.15999999999997)" d="M327.31111111111113,0h99.72222222222223" style="stroke: rgb(255, 255, 255); stroke-opacity: 1; stroke-width: 1px;"/><path class="y3grid crisp" transform="translate(0,218.20999999999998)" d="M327.31111111111113,0h99.72222222222223" style="stroke: rgb(255, 255, 255); stroke-opacity: 1; stroke-width: 1px;"/><path class="y3grid crisp" transform="translate(0,171.26999999999998)" d="M327.31111111111113,0h99.72222222222223" style="stroke: rgb(255, 255, 255); stroke-opacity: 1; stroke-width: 1px;"/><path class="y3grid crisp" transform="translate(0,124.33)" d="M327.31111111111113,0h99.72222222222223" style="stroke: rgb(255, 255, 255); stroke-opacity: 1; stroke-width: 1px;"/></g></g><g class="zerolinelayer"/><path class="xlines-below"/><path class="ylines-below"/><g class="overlines-below"/><g class="xaxislayer-below"/><g class="yaxislayer-below"/><g class="overaxes-below"/><g class="plot" transform="translate(327.31111111111113,100)" clip-path="url(#clip174490x3y3plot)"><g class="boxlayer mlayer"><g class="trace boxes" style="opacity: 1;"><path class="box" d="M25.43,172.9H74.29M25.43,174.7H74.29V167.24H25.43ZM49.86,174.7V176.03M49.86,167.24V156.16M37.65,176.03H62.08M37.65,156.16H62.08" style="vector-effect: none; stroke-width: 2px; stroke: rgb(51, 0, 255); stroke-opacity: 1; fill: rgb(51, 0, 255); fill-opacity: 0.5;"/><g class="points"/></g><g class="trace boxes" style="opacity: 1;"><path class="box" d="M25.43,170.46H74.29M25.43,173.58H74.29V157.87H25.43ZM49.86,173.58V176.31M49.86,157.87V135.15M37.65,176.31H62.08M37.65,135.15H62.08" style="vector-effect: none; stroke-width: 2px; stroke: rgb(144, 238, 144); stroke-opacity: 1; fill: rgb(144, 238, 144); fill-opacity: 0.5;"/><g class="points"><path class="point" transform="translate(49.86,134.15)" d="M3,0A3,3 0 1,1 0,-3A3,3 0 0,1 3,0Z" style="opacity: 1; stroke-width: 0px; fill: rgb(144, 238, 144); fill-opacity: 1;"/><path class="point" transform="translate(49.86,133.83)" d="M3,0A3,3 0 1,1 0,-3A3,3 0 0,1 3,0Z" style="opacity: 1; stroke-width: 0px; fill: rgb(144, 238, 144); fill-opacity: 1;"/><path class="point" transform="translate(49.86,130.63)" d="M3,0A3,3 0 1,1 0,-3A3,3 0 0,1 3,0Z" style="opacity: 1; stroke-width: 0px; fill: rgb(144, 238, 144); fill-opacity: 1;"/></g></g></g></g><g class="overplot"/><path class="xlines-above crisp" d="M0,0" style="fill: none;"/><path class="ylines-above crisp" d="M0,0" style="fill: none;"/><g class="overlines-above"/><g class="xaxislayer-above"><g class="x3tick"><text text-anchor="middle" x="0" y="303" transform="translate(377.17111111111114,0)" style="font-family: 'Open Sans', verdana, arial, sans-serif; font-size: 12px; fill: rgb(42, 63, 95); fill-opacity: 1; white-space: pre; opacity: 1;">0.01</text></g></g><g class="yaxislayer-above"/><g class="overaxes-above"/></g><g class="subplot x4y4"><g class="layer-subplot"><g class="shapelayer"/><g class="imagelayer"/></g><g class="minor-gridlayer"><g class="x4"/><g class="y4"/></g><g class="gridlayer"><g class="x4"/><g class="y4"><path class="y4grid crisp" transform="translate(0,265.15999999999997)" d="M450.9666666666667,0h99.72222222222227" style="stroke: rgb(255, 255, 255); stroke-opacity: 1; stroke-width: 1px;"/><path class="y4grid crisp" transform="translate(0,218.20999999999998)" d="M450.9666666666667,0h99.72222222222227" style="stroke: rgb(255, 255, 255); stroke-opacity: 1; stroke-width: 1px;"/><path class="y4grid crisp" transform="translate(0,171.26999999999998)" d="M450.9666666666667,0h99.72222222222227" style="stroke: rgb(255, 255, 255); stroke-opacity: 1; stroke-width: 1px;"/><path class="y4grid crisp" transform="translate(0,124.33)" d="M450.9666666666667,0h99.72222222222227" style="stroke: rgb(255, 255, 255); stroke-opacity: 1; stroke-width: 1px;"/></g></g><g class="zerolinelayer"/><path class="xlines-below"/><path class="ylines-below"/><g class="overlines-below"/><g class="xaxislayer-below"/><g class="yaxislayer-below"/><g class="overaxes-below"/><g class="plot" transform="translate(450.9666666666667,100)" clip-path="url(#clip174490x4y4plot)"><g class="boxlayer mlayer"><g class="trace boxes" style="opacity: 1;"><path class="box" d="M25.43,173.26H74.29M25.43,174.26H74.29V168.19H25.43ZM49.86,174.26V175.22M49.86,168.19V168.17M37.65,175.22H62.08M37.65,168.17H62.08" style="vector-effect: none; stroke-width: 2px; stroke: rgb(51, 0, 255); stroke-opacity: 1; fill: rgb(51, 0, 255); fill-opacity: 0.5;"/><g class="points"><path class="point" transform="translate(49.86,157.96)" d="M3,0A3,3 0 1,1 0,-3A3,3 0 0,1 3,0Z" style="opacity: 1; stroke-width: 0px; fill: rgb(51, 0, 255); fill-opacity: 1;"/><path class="point" transform="translate(49.86,157.7)" d="M3,0A3,3 0 1,1 0,-3A3,3 0 0,1 3,0Z" style="opacity: 1; stroke-width: 0px; fill: rgb(51, 0, 255); fill-opacity: 1;"/><path class="point" transform="translate(49.86,156.55)" d="M3,0A3,3 0 1,1 0,-3A3,3 0 0,1 3,0Z" style="opacity: 1; stroke-width: 0px; fill: rgb(51, 0, 255); fill-opacity: 1;"/><path class="point" transform="translate(49.86,156.31)" d="M3,0A3,3 0 1,1 0,-3A3,3 0 0,1 3,0Z" style="opacity: 1; stroke-width: 0px; fill: rgb(51, 0, 255); fill-opacity: 1;"/></g></g><g class="trace boxes" style="opacity: 1;"><path class="box" d="M25.43,169.68H74.29M25.43,172.99H74.29V159.06H25.43ZM49.86,172.99V175.07M49.86,159.06V159.04M37.65,175.07H62.08M37.65,159.04H62.08" style="vector-effect: none; stroke-width: 2px; stroke: rgb(144, 238, 144); stroke-opacity: 1; fill: rgb(144, 238, 144); fill-opacity: 0.5;"/><g class="points"><path class="point" transform="translate(49.86,134.71)" d="M3,0A3,3 0 1,1 0,-3A3,3 0 0,1 3,0Z" style="opacity: 1; stroke-width: 0px; fill: rgb(144, 238, 144); fill-opacity: 1;"/><path class="point" transform="translate(49.86,134.61)" d="M3,0A3,3 0 1,1 0,-3A3,3 0 0,1 3,0Z" style="opacity: 1; stroke-width: 0px; fill: rgb(144, 238, 144); fill-opacity: 1;"/><path class="point" transform="translate(49.86,132.83)" d="M3,0A3,3 0 1,1 0,-3A3,3 0 0,1 3,0Z" style="opacity: 1; stroke-width: 0px; fill: rgb(144, 238, 144); fill-opacity: 1;"/><path class="point" transform="translate(49.86,132.72)" d="M3,0A3,3 0 1,1 0,-3A3,3 0 0,1 3,0Z" style="opacity: 1; stroke-width: 0px; fill: rgb(144, 238, 144); fill-opacity: 1;"/></g></g></g></g><g class="overplot"/><path class="xlines-above crisp" d="M0,0" style="fill: none;"/><path class="ylines-above crisp" d="M0,0" style="fill: none;"/><g class="overlines-above"/><g class="xaxislayer-above"><g class="x4tick"><text text-anchor="middle" x="0" y="303" transform="translate(500.8266666666667,0)" style="font-family: 'Open Sans', verdana, arial, sans-serif; font-size: 12px; fill: rgb(42, 63, 95); fill-opacity: 1; white-space: pre; opacity: 1;">0</text></g></g><g class="yaxislayer-above"/><g class="overaxes-above"/></g><g class="subplot x5y5"><g class="layer-subplot"><g class="shapelayer"/><g class="imagelayer"/></g><g class="minor-gridlayer"><g class="x5"/><g class="y5"/></g><g class="gridlayer"><g class="x5"/><g class="y5"><path class="y5grid crisp" transform="translate(0,265.15999999999997)" d="M574.6222222222223,0h99.72222222222219" style="stroke: rgb(255, 255, 255); stroke-opacity: 1; stroke-width: 1px;"/><path class="y5grid crisp" transform="translate(0,218.20999999999998)" d="M574.6222222222223,0h99.72222222222219" style="stroke: rgb(255, 255, 255); stroke-opacity: 1; stroke-width: 1px;"/><path class="y5grid crisp" transform="translate(0,171.26999999999998)" d="M574.6222222222223,0h99.72222222222219" style="stroke: rgb(255, 255, 255); stroke-opacity: 1; stroke-width: 1px;"/><path class="y5grid crisp" transform="translate(0,124.33)" d="M574.6222222222223,0h99.72222222222219" style="stroke: rgb(255, 255, 255); stroke-opacity: 1; stroke-width: 1px;"/></g></g><g class="zerolinelayer"/><path class="xlines-below"/><path class="ylines-below"/><g class="overlines-below"/><g class="xaxislayer-below"/><g class="yaxislayer-below"/><g class="overaxes-below"/><g class="plot" transform="translate(574.6222222222223,100)" clip-path="url(#clip174490x5y5plot)"><g class="boxlayer mlayer"><g class="trace boxes" style="opacity: 1;"><path class="box" d="M25.43,173.3H74.29M25.43,174.3H74.29V168.22H25.43ZM49.86,174.3V175.2M49.86,168.22V168.21M37.65,175.2H62.08M37.65,168.21H62.08" style="vector-effect: none; stroke-width: 2px; stroke: rgb(51, 0, 255); stroke-opacity: 1; fill: rgb(51, 0, 255); fill-opacity: 0.5;"/><g class="points"><path class="point" transform="translate(49.86,157.9)" d="M3,0A3,3 0 1,1 0,-3A3,3 0 0,1 3,0Z" style="opacity: 1; stroke-width: 0px; fill: rgb(51, 0, 255); fill-opacity: 1;"/><path class="point" transform="translate(49.86,157.89)" d="M3,0A3,3 0 1,1 0,-3A3,3 0 0,1 3,0Z" style="opacity: 1; stroke-width: 0px; fill: rgb(51, 0, 255); fill-opacity: 1;"/><path class="point" transform="translate(49.86,156.52)" d="M3,0A3,3 0 1,1 0,-3A3,3 0 0,1 3,0Z" style="opacity: 1; stroke-width: 0px; fill: rgb(51, 0, 255); fill-opacity: 1;"/><path class="point" transform="translate(49.86,156.5)" d="M3,0A3,3 0 1,1 0,-3A3,3 0 0,1 3,0Z" style="opacity: 1; stroke-width: 0px; fill: rgb(51, 0, 255); fill-opacity: 1;"/></g></g><g class="trace boxes" style="opacity: 1;"><path class="box" d="M25.43,169.75H74.29M25.43,172.91H74.29V159.06H25.43ZM49.86,172.91V175M49.86,159.06V159.05M37.65,175H62.08M37.65,159.05H62.08" style="vector-effect: none; stroke-width: 2px; stroke: rgb(144, 238, 144); stroke-opacity: 1; fill: rgb(144, 238, 144); fill-opacity: 0.5;"/><g class="points"><path class="point" transform="translate(49.86,134.67)" d="M3,0A3,3 0 1,1 0,-3A3,3 0 0,1 3,0Z" style="opacity: 1; stroke-width: 0px; fill: rgb(144, 238, 144); fill-opacity: 1;"/><path class="point" transform="translate(49.86,134.65)" d="M3,0A3,3 0 1,1 0,-3A3,3 0 0,1 3,0Z" style="opacity: 1; stroke-width: 0px; fill: rgb(144, 238, 144); fill-opacity: 1;"/><path class="point" transform="translate(49.86,132.85)" d="M3,0A3,3 0 1,1 0,-3A3,3 0 0,1 3,0Z" style="opacity: 1; stroke-width: 0px; fill: rgb(144, 238, 144); fill-opacity: 1;"/><path class="point" transform="translate(49.86,132.82)" d="M3,0A3,3 0 1,1 0,-3A3,3 0 0,1 3,0Z" style="opacity: 1; stroke-width: 0px; fill: rgb(144, 238, 144); fill-opacity: 1;"/></g></g></g></g><g class="overplot"/><path class="xlines-above crisp" d="M0,0" style="fill: none;"/><path class="ylines-above crisp" d="M0,0" style="fill: none;"/><g class="overlines-above"/><g class="xaxislayer-above"><g class="x5tick"><text text-anchor="middle" x="0" y="303" transform="translate(624.4822222222223,0)" style="font-family: 'Open Sans', verdana, arial, sans-serif; font-size: 12px; fill: rgb(42, 63, 95); fill-opacity: 1; white-space: pre; opacity: 1;">0</text></g></g><g class="yaxislayer-above"/><g class="overaxes-above"/></g><g class="subplot x6y6"><g class="layer-subplot"><g class="shapelayer"/><g class="imagelayer"/></g><g class="minor-gridlayer"><g class="x6"/><g class="y6"/></g><g class="gridlayer"><g class="x6"/><g class="y6"><path class="y6grid crisp" transform="translate(0,265.15999999999997)" d="M698.2777777777777,0h99.72222222222227" style="stroke: rgb(255, 255, 255); stroke-opacity: 1; stroke-width: 1px;"/><path class="y6grid crisp" transform="translate(0,218.20999999999998)" d="M698.2777777777777,0h99.72222222222227" style="stroke: rgb(255, 255, 255); stroke-opacity: 1; stroke-width: 1px;"/><path class="y6grid crisp" transform="translate(0,171.26999999999998)" d="M698.2777777777777,0h99.72222222222227" style="stroke: rgb(255, 255, 255); stroke-opacity: 1; stroke-width: 1px;"/><path class="y6grid crisp" transform="translate(0,124.33)" d="M698.2777777777777,0h99.72222222222227" style="stroke: rgb(255, 255, 255); stroke-opacity: 1; stroke-width: 1px;"/></g></g><g class="zerolinelayer"/><path class="xlines-below"/><path class="ylines-below"/><g class="overlines-below"/><g class="xaxislayer-below"/><g class="yaxislayer-below"/><g class="overaxes-below"/><g class="plot" transform="translate(698.2777777777777,100)" clip-path="url(#clip174490x6y6plot)"><g class="boxlayer mlayer"><g class="trace boxes" style="opacity: 1;"><path class="box" d="M25.43,173.31H74.29M25.43,174.31H74.29V168.22H25.43ZM49.86,174.31V175.19M49.86,168.22V168.22M37.65,175.19H62.08M37.65,168.22H62.08" style="vector-effect: none; stroke-width: 2px; stroke: rgb(51, 0, 255); stroke-opacity: 1; fill: rgb(51, 0, 255); fill-opacity: 0.5;"/><g class="points"><path class="point" transform="translate(49.86,157.89)" d="M3,0A3,3 0 1,1 0,-3A3,3 0 0,1 3,0Z" style="opacity: 1; stroke-width: 0px; fill: rgb(51, 0, 255); fill-opacity: 1;"/><path class="point" transform="translate(49.86,157.89)" d="M3,0A3,3 0 1,1 0,-3A3,3 0 0,1 3,0Z" style="opacity: 1; stroke-width: 0px; fill: rgb(51, 0, 255); fill-opacity: 1;"/><path class="point" transform="translate(49.86,156.5)" d="M3,0A3,3 0 1,1 0,-3A3,3 0 0,1 3,0Z" style="opacity: 1; stroke-width: 0px; fill: rgb(51, 0, 255); fill-opacity: 1;"/><path class="point" transform="translate(49.86,156.5)" d="M3,0A3,3 0 1,1 0,-3A3,3 0 0,1 3,0Z" style="opacity: 1; stroke-width: 0px; fill: rgb(51, 0, 255); fill-opacity: 1;"/></g></g><g class="trace boxes" style="opacity: 1;"><path class="box" d="M25.43,169.75H74.29M25.43,172.91H74.29V159.06H25.43ZM49.86,172.91V174.99M49.86,159.06V159.06M37.65,174.99H62.08M37.65,159.06H62.08" style="vector-effect: none; stroke-width: 2px; stroke: rgb(144, 238, 144); stroke-opacity: 1; fill: rgb(144, 238, 144); fill-opacity: 0.5;"/><g class="points"><path class="point" transform="translate(49.86,134.66)" d="M3,0A3,3 0 1,1 0,-3A3,3 0 0,1 3,0Z" style="opacity: 1; stroke-width: 0px; fill: rgb(144, 238, 144); fill-opacity: 1;"/><path class="point" transform="translate(49.86,134.66)" d="M3,0A3,3 0 1,1 0,-3A3,3 0 0,1 3,0Z" style="opacity: 1; stroke-width: 0px; fill: rgb(144, 238, 144); fill-opacity: 1;"/><path class="point" transform="translate(49.86,132.84)" d="M3,0A3,3 0 1,1 0,-3A3,3 0 0,1 3,0Z" style="opacity: 1; stroke-width: 0px; fill: rgb(144, 238, 144); fill-opacity: 1;"/><path class="point" transform="translate(49.86,132.84)" d="M3,0A3,3 0 1,1 0,-3A3,3 0 0,1 3,0Z" style="opacity: 1; stroke-width: 0px; fill: rgb(144, 238, 144); fill-opacity: 1;"/></g></g></g></g><g class="overplot"/><path class="xlines-above crisp" d="M0,0" style="fill: none;"/><path class="ylines-above crisp" d="M0,0" style="fill: none;"/><g class="overlines-above"/><g class="xaxislayer-above"><g class="x6tick"><text text-anchor="middle" x="0" y="303" transform="translate(748.1377777777777,0)" style="font-family: 'Open Sans', verdana, arial, sans-serif; font-size: 12px; fill: rgb(42, 63, 95); fill-opacity: 1; white-space: pre; opacity: 1;">0</text></g></g><g class="yaxislayer-above"/><g class="overaxes-above"/></g></g><g class="polarlayer"/><g class="smithlayer"/><g class="ternarylayer"/><g class="geolayer"/><g class="funnelarealayer"/><g class="pielayer"/><g class="iciclelayer"/><g class="treemaplayer"/><g class="sunburstlayer"/><g class="glimages"/><defs id="topdefs-174490"><g class="clips"/><clipPath id="legend174490"><rect width="76" height="190" x="0" y="0"/></clipPath></defs><g class="layer-above"><g class="imagelayer"/><g class="shapelayer"/></g><g class="infolayer"><g class="legend" pointer-events="all" transform="translate(812.36,100)"><rect class="bg" shape-rendering="crispEdges" width="76" height="190" x="0" y="0" style="stroke: rgb(68, 68, 68); stroke-opacity: 1; fill: rgb(255, 255, 255); fill-opacity: 1; stroke-width: 0px;"/><g class="scrollbox" transform="" clip-path="url(#legend174490)"><g class="groups" transform=""><g class="traces" transform="translate(0,14.5)" style="opacity: 1;"><text class="legendtext" text-anchor="start" x="40" y="4.680000000000001" style="font-family: 'Open Sans', verdana, arial, sans-serif; font-size: 12px; fill: rgb(42, 63, 95); fill-opacity: 1; white-space: pre;">True</text><g class="layers" style="opacity: 1;"><g class="legendfill"/><g class="legendlines"/><g class="legendsymbols"><g class="legendpoints"><path class="legendbox" d="M6,6H-6V-6H6Z" transform="translate(20,0)" style="stroke-width: 2px; fill: rgb(51, 0, 255); fill-opacity: 0.5; stroke: rgb(51, 0, 255); stroke-opacity: 1;"/></g></g></g><rect class="legendtoggle" x="0" y="-9.5" width="70.796875" height="19" style="fill: rgb(0, 0, 0); fill-opacity: 0;"/></g><g class="traces" transform="translate(0,33.5)" style="opacity: 1;"><text class="legendtext" text-anchor="start" x="40" y="4.680000000000001" style="font-family: 'Open Sans', verdana, arial, sans-serif; font-size: 12px; fill: rgb(42, 63, 95); fill-opacity: 1; white-space: pre;">True</text><g class="layers" style="opacity: 1;"><g class="legendfill"/><g class="legendlines"/><g class="legendsymbols"><g class="legendpoints"><path class="legendbox" d="M6,6H-6V-6H6Z" transform="translate(20,0)" style="stroke-width: 2px; fill: rgb(51, 0, 255); fill-opacity: 0.5; stroke: rgb(51, 0, 255); stroke-opacity: 1;"/></g></g></g><rect class="legendtoggle" x="0" y="-9.5" width="70.796875" height="19" style="fill: rgb(0, 0, 0); fill-opacity: 0;"/></g><g class="traces" transform="translate(0,52.5)" style="opacity: 1;"><text class="legendtext" text-anchor="start" x="40" y="4.680000000000001" style="font-family: 'Open Sans', verdana, arial, sans-serif; font-size: 12px; fill: rgb(42, 63, 95); fill-opacity: 1; white-space: pre;">True</text><g class="layers" style="opacity: 1;"><g class="legendfill"/><g class="legendlines"/><g class="legendsymbols"><g class="legendpoints"><path class="legendbox" d="M6,6H-6V-6H6Z" transform="translate(20,0)" style="stroke-width: 2px; fill: rgb(51, 0, 255); fill-opacity: 0.5; stroke: rgb(51, 0, 255); stroke-opacity: 1;"/></g></g></g><rect class="legendtoggle" x="0" y="-9.5" width="70.796875" height="19" style="fill: rgb(0, 0, 0); fill-opacity: 0;"/></g><g class="traces" transform="translate(0,71.5)" style="opacity: 1;"><text class="legendtext" text-anchor="start" x="40" y="4.680000000000001" style="font-family: 'Open Sans', verdana, arial, sans-serif; font-size: 12px; fill: rgb(42, 63, 95); fill-opacity: 1; white-space: pre;">True</text><g class="layers" style="opacity: 1;"><g class="legendfill"/><g class="legendlines"/><g class="legendsymbols"><g class="legendpoints"><path class="legendbox" d="M6,6H-6V-6H6Z" transform="translate(20,0)" style="stroke-width: 2px; fill: rgb(51, 0, 255); fill-opacity: 0.5; stroke: rgb(51, 0, 255); stroke-opacity: 1;"/></g></g></g><rect class="legendtoggle" x="0" y="-9.5" width="70.796875" height="19" style="fill: rgb(0, 0, 0); fill-opacity: 0;"/></g><g class="traces" transform="translate(0,90.5)" style="opacity: 1;"><text class="legendtext" text-anchor="start" x="40" y="4.680000000000001" style="font-family: 'Open Sans', verdana, arial, sans-serif; font-size: 12px; fill: rgb(42, 63, 95); fill-opacity: 1; white-space: pre;">True</text><g class="layers" style="opacity: 1;"><g class="legendfill"/><g class="legendlines"/><g class="legendsymbols"><g class="legendpoints"><path class="legendbox" d="M6,6H-6V-6H6Z" transform="translate(20,0)" style="stroke-width: 2px; fill: rgb(51, 0, 255); fill-opacity: 0.5; stroke: rgb(51, 0, 255); stroke-opacity: 1;"/></g></g></g><rect class="legendtoggle" x="0" y="-9.5" width="70.796875" height="19" style="fill: rgb(0, 0, 0); fill-opacity: 0;"/></g><g class="traces" transform="translate(0,109.5)" style="opacity: 1;"><text class="legendtext" text-anchor="start" x="40" y="4.680000000000001" style="font-family: 'Open Sans', verdana, arial, sans-serif; font-size: 12px; fill: rgb(42, 63, 95); fill-opacity: 1; white-space: pre;">True</text><g class="layers" style="opacity: 1;"><g class="legendfill"/><g class="legendlines"/><g class="legendsymbols"><g class="legendpoints"><path class="legendbox" d="M6,6H-6V-6H6Z" transform="translate(20,0)" style="stroke-width: 2px; fill: rgb(51, 0, 255); fill-opacity: 0.5; stroke: rgb(51, 0, 255); stroke-opacity: 1;"/></g></g></g><rect class="legendtoggle" x="0" y="-9.5" width="70.796875" height="19" style="fill: rgb(0, 0, 0); fill-opacity: 0;"/></g></g><g class="groups" transform="translate(0,10)"><g class="traces" transform="translate(0,128.5)" style="opacity: 1;"><text class="legendtext" text-anchor="start" x="40" y="4.680000000000001" style="font-family: 'Open Sans', verdana, arial, sans-serif; font-size: 12px; fill: rgb(42, 63, 95); fill-opacity: 1; white-space: pre;">False</text><g class="layers" style="opacity: 1;"><g class="legendfill"/><g class="legendlines"/><g class="legendsymbols"><g class="legendpoints"><path class="legendbox" d="M6,6H-6V-6H6Z" transform="translate(20,0)" style="stroke-width: 2px; fill: rgb(144, 238, 144); fill-opacity: 0.5; stroke: rgb(144, 238, 144); stroke-opacity: 1;"/></g></g></g><rect class="legendtoggle" x="0" y="-9.5" width="70.796875" height="19" style="fill: rgb(0, 0, 0); fill-opacity: 0;"/></g><g class="traces" transform="translate(0,147.5)" style="opacity: 1;"><text class="legendtext" text-anchor="start" x="40" y="4.680000000000001" style="font-family: 'Open Sans', verdana, arial, sans-serif; font-size: 12px; fill: rgb(42, 63, 95); fill-opacity: 1; white-space: pre;">False</text><g class="layers" style="opacity: 1;"><g class="legendfill"/><g class="legendlines"/><g class="legendsymbols"><g class="legendpoints"><path class="legendbox" d="M6,6H-6V-6H6Z" transform="translate(20,0)" style="stroke-width: 2px; fill: rgb(144, 238, 144); fill-opacity: 0.5; stroke: rgb(144, 238, 144); stroke-opacity: 1;"/></g></g></g><rect class="legendtoggle" x="0" y="-9.5" width="70.796875" height="19" style="fill: rgb(0, 0, 0); fill-opacity: 0;"/></g><g class="traces" transform="translate(0,166.5)" style="opacity: 1;"><text class="legendtext" text-anchor="start" x="40" y="4.680000000000001" style="font-family: 'Open Sans', verdana, arial, sans-serif; font-size: 12px; fill: rgb(42, 63, 95); fill-opacity: 1; white-space: pre;">False</text><g class="layers" style="opacity: 1;"><g class="legendfill"/><g class="legendlines"/><g class="legendsymbols"><g class="legendpoints"><path class="legendbox" d="M6,6H-6V-6H6Z" transform="translate(20,0)" style="stroke-width: 2px; fill: rgb(144, 238, 144); fill-opacity: 0.5; stroke: rgb(144, 238, 144); stroke-opacity: 1;"/></g></g></g><rect class="legendtoggle" x="0" y="-9.5" width="70.796875" height="19" style="fill: rgb(0, 0, 0); fill-opacity: 0;"/></g><g class="traces" transform="translate(0,185.5)" style="opacity: 1;"><text class="legendtext" text-anchor="start" x="40" y="4.680000000000001" style="font-family: 'Open Sans', verdana, arial, sans-serif; font-size: 12px; fill: rgb(42, 63, 95); fill-opacity: 1; white-space: pre;">False</text><g class="layers" style="opacity: 1;"><g class="legendfill"/><g class="legendlines"/><g class="legendsymbols"><g class="legendpoints"><path class="legendbox" d="M6,6H-6V-6H6Z" transform="translate(20,0)" style="stroke-width: 2px; fill: rgb(144, 238, 144); fill-opacity: 0.5; stroke: rgb(144, 238, 144); stroke-opacity: 1;"/></g></g></g><rect class="legendtoggle" x="0" y="-9.5" width="70.796875" height="19" style="fill: rgb(0, 0, 0); fill-opacity: 0;"/></g><g class="traces" transform="translate(0,204.5)" style="opacity: 1;"><text class="legendtext" text-anchor="start" x="40" y="4.680000000000001" style="font-family: 'Open Sans', verdana, arial, sans-serif; font-size: 12px; fill: rgb(42, 63, 95); fill-opacity: 1; white-space: pre;">False</text><g class="layers" style="opacity: 1;"><g class="legendfill"/><g class="legendlines"/><g class="legendsymbols"><g class="legendpoints"><path class="legendbox" d="M6,6H-6V-6H6Z" transform="translate(20,0)" style="stroke-width: 2px; fill: rgb(144, 238, 144); fill-opacity: 0.5; stroke: rgb(144, 238, 144); stroke-opacity: 1;"/></g></g></g><rect class="legendtoggle" x="0" y="-9.5" width="70.796875" height="19" style="fill: rgb(0, 0, 0); fill-opacity: 0;"/></g><g class="traces" transform="translate(0,223.5)" style="opacity: 1;"><text class="legendtext" text-anchor="start" x="40" y="4.680000000000001" style="font-family: 'Open Sans', verdana, arial, sans-serif; font-size: 12px; fill: rgb(42, 63, 95); fill-opacity: 1; white-space: pre;">False</text><g class="layers" style="opacity: 1;"><g class="legendfill"/><g class="legendlines"/><g class="legendsymbols"><g class="legendpoints"><path class="legendbox" d="M6,6H-6V-6H6Z" transform="translate(20,0)" style="stroke-width: 2px; fill: rgb(144, 238, 144); fill-opacity: 0.5; stroke: rgb(144, 238, 144); stroke-opacity: 1;"/></g></g></g><rect class="legendtoggle" x="0" y="-9.5" width="70.796875" height="19" style="fill: rgb(0, 0, 0); fill-opacity: 0;"/></g></g></g><rect class="scrollbar" rx="20" ry="3" width="0" height="0" x="0" y="0" style="fill: rgb(128, 139, 164); fill-opacity: 1;"/></g><g class="g-gtitle"><text class="gtitle" x="45" y="50" text-anchor="start" dy="0em" style="font-family: 'Open Sans', verdana, arial, sans-serif; font-size: 17px; fill: rgb(42, 63, 95); opacity: 1; font-weight: normal; white-space: pre;">Box Plots by noise_factor</text></g><g class="g-xtitle"><text class="xtitle" x="129.86111111111111" y="329.8" text-anchor="middle" style="font-family: 'Open Sans', verdana, arial, sans-serif; font-size: 14px; fill: rgb(42, 63, 95); opacity: 1; font-weight: normal; white-space: pre;">Noise Factor</text></g><g class="g-x2title"><text class="x2title" x="253.51666666666668" y="329.8" text-anchor="middle" style="font-family: 'Open Sans', verdana, arial, sans-serif; font-size: 14px; fill: rgb(42, 63, 95); opacity: 1; font-weight: normal; white-space: pre;">Noise Factor</text></g><g class="g-x3title"><text class="x3title" x="377.1722222222222" y="329.8" text-anchor="middle" style="font-family: 'Open Sans', verdana, arial, sans-serif; font-size: 14px; fill: rgb(42, 63, 95); opacity: 1; font-weight: normal; white-space: pre;">Noise Factor</text></g><g class="g-x4title"><text class="x4title" x="500.82777777777784" y="329.8" text-anchor="middle" style="font-family: 'Open Sans', verdana, arial, sans-serif; font-size: 14px; fill: rgb(42, 63, 95); opacity: 1; font-weight: normal; white-space: pre;">Noise Factor</text></g><g class="g-x5title"><text class="x5title" x="624.4833333333333" y="329.8" text-anchor="middle" style="font-family: 'Open Sans', verdana, arial, sans-serif; font-size: 14px; fill: rgb(42, 63, 95); opacity: 1; font-weight: normal; white-space: pre;">Noise Factor</text></g><g class="g-x6title"><text class="x6title" x="748.1388888888888" y="329.8" text-anchor="middle" style="font-family: 'Open Sans', verdana, arial, sans-serif; font-size: 14px; fill: rgb(42, 63, 95); opacity: 1; font-weight: normal; white-space: pre;">Noise Factor</text></g><g class="g-ytitle"><text class="ytitle" transform="rotate(-90,27.434375000000003,195)" x="27.434375000000003" y="195" text-anchor="middle" style="font-family: 'Open Sans', verdana, arial, sans-serif; font-size: 14px; fill: rgb(42, 63, 95); opacity: 1; font-weight: normal; white-space: pre;">Normalized RMSD, Geodesic Regression, geodesic resisiduals</text></g><g class="g-y2title"/><g class="g-y3title"/><g class="g-y4title"/><g class="g-y5title"/><g class="g-y6title"/></g></svg>