<svg class="main-svg" xmlns="http://www.w3.org/2000/svg" xmlns:xlink="http://www.w3.org/1999/xlink" width="900" height="370" style="" viewBox="0 0 900 370"><rect x="0" y="0" width="900" height="370" style="fill: rgb(255, 255, 255); fill-opacity: 1;"/><defs id="defs-f7cca4"><g class="clips"><clipPath id="clipf7cca4xyplot" class="plotclip"><rect width="84.98775510204081" height="190"/></clipPath><clipPath id="clipf7cca4x2y2plot" class="plotclip"><rect width="84.9877551020408" height="190"/></clipPath><clipPath id="clipf7cca4x3y3plot" class="plotclip"><rect width="84.9877551020408" height="190"/></clipPath><clipPath id="clipf7cca4x4y4plot" class="plotclip"><rect width="84.9877551020408" height="190"/></clipPath><clipPath id="clipf7cca4x5y5plot" class="plotclip"><rect width="84.9877551020408" height="190"/></clipPath><clipPath id="clipf7cca4x6y6plot" class="plotclip"><rect width="84.9877551020408" height="190"/></clipPath><clipPath class="axesclip" id="clipf7cca4x"><rect x="80" y="0" width="84.98775510204081" height="370"/></clipPath><clipPath class="axesclip" id="clipf7cca4y"><rect x="0" y="100" width="900" height="190"/></clipPath><clipPath class="axesclip" id="clipf7cca4xy"><rect x="80" y="100" width="84.98775510204081" height="190"/></clipPath><clipPath class="axesclip" id="clipf7cca4y2"><rect x="0" y="100" width="900" height="190"/></clipPath><clipPath class="axesclip" id="clipf7cca4xy2"><rect x="80" y="100" width="84.98775510204081" height="190"/></clipPath><clipPath class="axesclip" id="clipf7cca4y3"><rect x="0" y="100" width="900" height="190"/></clipPath><clipPath class="axesclip" id="clipf7cca4xy3"><rect x="80" y="100" width="84.98775510204081" height="190"/></clipPath><clipPath class="axesclip" id="clipf7cca4y4"><rect x="0" y="100" width="900" height="190"/></clipPath><clipPath class="axesclip" id="clipf7cca4xy4"><rect x="80" y="100" width="84.98775510204081" height="190"/></clipPath><clipPath class="axesclip" id="clipf7cca4y5"><rect x="0" y="100" width="900" height="190"/></clipPath><clipPath class="axesclip" id="clipf7cca4xy5"><rect x="80" y="100" width="84.98775510204081" height="190"/></clipPath><clipPath class="axesclip" id="clipf7cca4y6"><rect x="0" y="100" width="900" height="190"/></clipPath><clipPath class="axesclip" id="clipf7cca4xy6"><rect x="80" y="100" width="84.98775510204081" height="190"/></clipPath><clipPath class="axesclip" id="clipf7cca4x2"><rect x="185.5020408163265" y="0" width="84.9877551020408" height="370"/></clipPath><clipPath class="axesclip" id="clipf7cca4x2y"><rect x="185.5020408163265" y="100" width="84.9877551020408" height="190"/></clipPath><clipPath class="axesclip" id="clipf7cca4x2y2"><rect x="185.5020408163265" y="100" width="84.9877551020408" height="190"/></clipPath><clipPath class="axesclip" id="clipf7cca4x2y3"><rect x="185.5020408163265" y="100" width="84.9877551020408" height="190"/></clipPath><clipPath class="axesclip" id="clipf7cca4x2y4"><rect x="185.5020408163265" y="100" width="84.9877551020408" height="190"/></clipPath><clipPath class="axesclip" id="clipf7cca4x2y5"><rect x="185.5020408163265" y="100" width="84.9877551020408" height="190"/></clipPath><clipPath class="axesclip" id="clipf7cca4x2y6"><rect x="185.5020408163265" y="100" width="84.9877551020408" height="190"/></clipPath><clipPath class="axesclip" id="clipf7cca4x3"><rect x="291.004081632653" y="0" width="84.9877551020408" height="370"/></clipPath><clipPath class="axesclip" id="clipf7cca4x3y"><rect x="291.004081632653" y="100" width="84.9877551020408" height="190"/></clipPath><clipPath class="axesclip" id="clipf7cca4x3y2"><rect x="291.004081632653" y="100" width="84.9877551020408" height="190"/></clipPath><clipPath class="axesclip" id="clipf7cca4x3y3"><rect x="291.004081632653" y="100" width="84.9877551020408" height="190"/></clipPath><clipPath class="axesclip" id="clipf7cca4x3y4"><rect x="291.004081632653" y="100" width="84.9877551020408" height="190"/></clipPath><clipPath class="axesclip" id="clipf7cca4x3y5"><rect x="291.004081632653" y="100" width="84.9877551020408" height="190"/></clipPath><clipPath class="axesclip" id="clipf7cca4x3y6"><rect x="291.004081632653" y="100" width="84.9877551020408" height="190"/></clipPath><clipPath class="axesclip" id="clipf7cca4x4"><rect x="396.50612244897957" y="0" width="84.9877551020408" height="370"/></clipPath><clipPath class="axesclip" id="clipf7cca4x4y"><rect x="396.50612244897957" y="100" width="84.9877551020408" height="190"/></clipPath><clipPath class="axesclip" id="clipf7cca4x4y2"><rect x="396.50612244897957" y="100" width="84.9877551020408" height="190"/></clipPath><clipPath class="axesclip" id="clipf7cca4x4y3"><rect x="396.50612244897957" y="100" width="84.9877551020408" height="190"/></clipPath><clipPath class="axesclip" id="clipf7cca4x4y4"><rect x="396.50612244897957" y="100" width="84.9877551020408" height="190"/></clipPath><clipPath class="axesclip" id="clipf7cca4x4y5"><rect x="396.50612244897957" y="100" width="84.9877551020408" height="190"/></clipPath><clipPath class="axesclip" id="clipf7cca4x4y6"><rect x="396.50612244897957" y="100" width="84.9877551020408" height="190"/></clipPath><clipPath class="axesclip" id="clipf7cca4x5"><rect x="502.00816326530605" y="0" width="84.9877551020408" height="370"/></clipPath><clipPath class="axesclip" id="clipf7cca4x5y"><rect x="502.00816326530605" y="100" width="84.9877551020408" height="190"/></clipPath><clipPath class="axesclip" id="clipf7cca4x5y2"><rect x="502.00816326530605" y="100" width="84.9877551020408" height="190"/></clipPath><clipPath class="axesclip" id="clipf7cca4x5y3"><rect x="502.00816326530605" y="100" width="84.9877551020408" height="190"/></clipPath><clipPath class="axesclip" id="clipf7cca4x5y4"><rect x="502.00816326530605" y="100" width="84.9877551020408" height="190"/></clipPath><clipPath class="axesclip" id="clipf7cca4x5y5"><rect x="502.00816326530605" y="100" width="84.9877551020408" height="190"/></clipPath><clipPath class="axesclip" id="clipf7cca4x5y6"><rect x="502.00816326530605" y="100" width="84.9877551020408" height="190"/></clipPath><clipPath class="axesclip" id="clipf7cca4x6"><rect x="607.5102040816327" y="0" width="84.9877551020408" height="370"/></clipPath><clipPath class="axesclip" id="clipf7cca4x6y"><rect x="607.5102040816327" y="100" width="84.9877551020408" height="190"/></clipPath><clipPath class="axesclip" id="clipf7cca4x6y2"><rect x="607.5102040816327" y="100" width="84.9877551020408" height="190"/></clipPath><clipPath class="axesclip" id="clipf7cca4x6y3"><rect x="607.5102040816327" y="100" width="84.9877551020408" height="190"/></clipPath><clipPath class="axesclip" id="clipf7cca4x6y4"><rect x="607.5102040816327" y="100" width="84.9877551020408" height="190"/></clipPath><clipPath class="axesclip" id="clipf7cca4x6y5"><rect x="607.5102040816327" y="100" width="84.9877551020408" height="190"/></clipPath><clipPath class="axesclip" id="clipf7cca4x6y6"><rect x="607.5102040816327" y="100" width="84.9877551020408" height="190"/></clipPath></g><g class="gradients"/><g class="patterns"/></defs><g class="bglayer"><rect class="bg" x="80" y="100" width="84.98775510204081" height="190" style="fill: rgb(229, 236, 246); fill-opacity: 1; stroke-width: 0;"/><rect class="bg" x="185.5020408163265" y="100" width="84.9877551020408" height="190" style="fill: rgb(229, 236, 246); fill-opacity: 1; stroke-width: 0;"/><rect class="bg" x="291.004081632653" y="100" width="84.9877551020408" height="190" style="fill: rgb(229, 236, 246); fill-opacity: 1; stroke-width: 0;"/><rect class="bg" x="396.50612244897957" y="100" width="84.9877551020408" height="190" style="fill: rgb(229, 236, 246); fill-opacity: 1; stroke-width: 0;"/><rect class="bg" x="502.00816326530605" y="100" width="84.9877551020408" height="190" style="fill: rgb(229, 236, 246); fill-opacity: 1; stroke-width: 0;"/><rect class="bg" x="607.5102040816327" y="100" width="84.9877551020408" height="190" style="fill: rgb(229, 236, 246); fill-opacity: 1; stroke-width: 0;"/></g><g class="layer-below"><g class="imagelayer"/><g class="shapelayer"/></g><g class="cartesianlayer"><g class="subplot xy"><g class="layer-subplot"><g class="shapelayer"/><g class="imagelayer"/></g><g class="minor-gridlayer"><g class="x"/><g class="y"/></g><g class="gridlayer"><g class="x"/><g class="y"><path class="ygrid crisp" transform="translate(0,218.97)" d="M80,0h84.98775510204081" style="stroke: rgb(255, 255, 255); stroke-opacity: 1; stroke-width: 1px;"/><path class="ygrid crisp" transform="translate(0,155.16)" d="M80,0h84.98775510204081" style="stroke: rgb(255, 255, 255); stroke-opacity: 1; stroke-width: 1px;"/></g></g><g class="zerolinelayer"><path class="yzl zl crisp" transform="translate(0,282.78)" d="M80,0h84.98775510204081" style="stroke: rgb(255, 255, 255); stroke-opacity: 1; stroke-width: 2px;"/></g><path class="xlines-below"/><path class="ylines-below"/><g class="overlines-below"/><g class="xaxislayer-below"/><g class="yaxislayer-below"/><g class="overaxes-below"/><g class="plot" transform="translate(80,100)" clip-path="url(#clipf7cca4xyplot)"><g class="boxlayer mlayer"><g class="trace boxes" style="opacity: 1;"><path class="box" d="M21.67,174.26H63.32M21.67,177.22H63.32V169.22H21.67ZM42.49,177.22V178.99M42.49,169.22V158.71M32.08,178.99H52.9M32.08,158.71H52.9" style="vector-effect: none; stroke-width: 2px; stroke: rgb(51, 0, 255); stroke-opacity: 1; fill: rgb(51, 0, 255); fill-opacity: 0.5;"/><g class="points"><path class="point" transform="translate(42.49,154.47)" d="M3,0A3,3 0 1,1 0,-3A3,3 0 0,1 3,0Z" style="opacity: 1; stroke-width: 0px; fill: rgb(51, 0, 255); fill-opacity: 1;"/></g></g><g class="trace boxes" style="opacity: 1;"><path class="box" d="M21.67,173.21H63.32M21.67,175.89H63.32V170.06H21.67ZM42.49,175.89V178.33M42.49,170.06V164.51M32.08,178.33H52.9M32.08,164.51H52.9" style="vector-effect: none; stroke-width: 2px; stroke: rgb(144, 238, 144); stroke-opacity: 1; fill: rgb(144, 238, 144); fill-opacity: 0.5;"/><g class="points"><path class="point" transform="translate(42.49,160.33)" d="M3,0A3,3 0 1,1 0,-3A3,3 0 0,1 3,0Z" style="opacity: 1; stroke-width: 0px; fill: rgb(144, 238, 144); fill-opacity: 1;"/><path class="point" transform="translate(42.49,159.19)" d="M3,0A3,3 0 1,1 0,-3A3,3 0 0,1 3,0Z" style="opacity: 1; stroke-width: 0px; fill: rgb(144, 238, 144); fill-opacity: 1;"/><path class="point" transform="translate(42.49,149.94)" d="M3,0A3,3 0 1,1 0,-3A3,3 0 0,1 3,0Z" style="opacity: 1; stroke-width: 0px; fill: rgb(144, 238, 144); fill-opacity: 1;"/><path class="point" transform="translate(42.49,146.88)" d="M3,0A3,3 0 1,1 0,-3A3,3 0 0,1 3,0Z" style="opacity: 1; stroke-width: 0px; fill: rgb(144, 238, 144); fill-opacity: 1;"/><path class="point" transform="translate(42.49,9.5)" d="M3,0A3,3 0 1,1 0,-3A3,3 0 0,1 3,0Z" style="opacity: 1; stroke-width: 0px; fill: rgb(144, 238, 144); fill-opacity: 1;"/></g></g></g></g><g class="overplot"/><path class="xlines-above crisp" d="M0,0" style="fill: none;"/><path class="ylines-above crisp" d="M0,0" style="fill: none;"/><g class="overlines-above"/><g class="xaxislayer-above"><g class="xtick"><text text-anchor="middle" x="0" y="303" transform="translate(122.49000000000001,0)" style="font-family: 'Open Sans', verdana, arial, sans-serif; font-size: 12px; fill: rgb(42, 63, 95); fill-opacity: 1; white-space: pre; opacity: 1;">0.2</text></g></g><g class="yaxislayer-above"><g class="ytick"><text text-anchor="end" x="79" y="4.199999999999999" transform="translate(0,282.78)" style="font-family: 'Open Sans', verdana, arial, sans-serif; font-size: 12px; fill: rgb(42, 63, 95); fill-opacity: 1; white-space: pre; opacity: 1;">0</text></g><g class="ytick"><text text-anchor="end" x="79" y="4.199999999999999" style="font-family: 'Open Sans', verdana, arial, sans-serif; font-size: 12px; fill: rgb(42, 63, 95); fill-opacity: 1; white-space: pre; opacity: 1;" transform="translate(0,218.97)">2</text></g><g class="ytick"><text text-anchor="end" x="79" y="4.199999999999999" style="font-family: 'Open Sans', verdana, arial, sans-serif; font-size: 12px; fill: rgb(42, 63, 95); fill-opacity: 1; white-space: pre; opacity: 1;" transform="translate(0,155.16)">4</text></g></g><g class="overaxes-above"/></g><g class="subplot x2y2"><g class="layer-subplot"><g class="shapelayer"/><g class="imagelayer"/></g><g class="minor-gridlayer"><g class="x2"/><g class="y2"/></g><g class="gridlayer"><g class="x2"/><g class="y2"><path class="y2grid crisp" transform="translate(0,218.97)" d="M185.5020408163265,0h84.9877551020408" style="stroke: rgb(255, 255, 255); stroke-opacity: 1; stroke-width: 1px;"/><path class="y2grid crisp" transform="translate(0,155.16)" d="M185.5020408163265,0h84.9877551020408" style="stroke: rgb(255, 255, 255); stroke-opacity: 1; stroke-width: 1px;"/></g></g><g class="zerolinelayer"><path class="y2zl zl crisp" transform="translate(0,282.78)" d="M185.5020408163265,0h84.9877551020408" style="stroke: rgb(255, 255, 255); stroke-opacity: 1; stroke-width: 2px;"/></g><path class="xlines-below"/><path class="ylines-below"/><g class="overlines-below"/><g class="xaxislayer-below"/><g class="yaxislayer-below"/><g class="overaxes-below"/><g class="plot" transform="translate(185.5020408163265,100)" clip-path="url(#clipf7cca4x2y2plot)"><g class="boxlayer mlayer"><g class="trace boxes" style="opacity: 1;"><path class="box" d="M21.67,176.59H63.32M21.67,178.87H63.32V174.88H21.67ZM42.49,178.87V179.54M42.49,174.88V170.86M32.08,179.54H52.9M32.08,170.86H52.9" style="vector-effect: none; stroke-width: 2px; stroke: rgb(51, 0, 255); stroke-opacity: 1; fill: rgb(51, 0, 255); fill-opacity: 0.5;"/><g class="points"><path class="point" transform="translate(42.49,160.43)" d="M3,0A3,3 0 1,1 0,-3A3,3 0 0,1 3,0Z" style="opacity: 1; stroke-width: 0px; fill: rgb(51, 0, 255); fill-opacity: 1;"/><path class="point" transform="translate(42.49,154.24)" d="M3,0A3,3 0 1,1 0,-3A3,3 0 0,1 3,0Z" style="opacity: 1; stroke-width: 0px; fill: rgb(51, 0, 255); fill-opacity: 1;"/></g></g><g class="trace boxes" style="opacity: 1;"><path class="box" d="M21.67,175.42H63.32M21.67,177.76H63.32V173.58H21.67ZM42.49,177.76V179.32M42.49,173.58V167.69M32.08,179.32H52.9M32.08,167.69H52.9" style="vector-effect: none; stroke-width: 2px; stroke: rgb(144, 238, 144); stroke-opacity: 1; fill: rgb(144, 238, 144); fill-opacity: 0.5;"/><g class="points"/></g></g></g><g class="overplot"/><path class="xlines-above crisp" d="M0,0" style="fill: none;"/><path class="ylines-above crisp" d="M0,0" style="fill: none;"/><g class="overlines-above"/><g class="xaxislayer-above"><g class="x2tick"><text text-anchor="middle" x="0" y="303" transform="translate(227.99204081632652,0)" style="font-family: 'Open Sans', verdana, arial, sans-serif; font-size: 12px; fill: rgb(42, 63, 95); fill-opacity: 1; white-space: pre; opacity: 1;">0.1</text></g></g><g class="yaxislayer-above"/><g class="overaxes-above"/></g><g class="subplot x3y3"><g class="layer-subplot"><g class="shapelayer"/><g class="imagelayer"/></g><g class="minor-gridlayer"><g class="x3"/><g class="y3"/></g><g class="gridlayer"><g class="x3"/><g class="y3"><path class="y3grid crisp" transform="translate(0,218.97)" d="M291.004081632653,0h84.9877551020408" style="stroke: rgb(255, 255, 255); stroke-opacity: 1; stroke-width: 1px;"/><path class="y3grid crisp" transform="translate(0,155.16)" d="M291.004081632653,0h84.9877551020408" style="stroke: rgb(255, 255, 255); stroke-opacity: 1; stroke-width: 1px;"/></g></g><g class="zerolinelayer"><path class="y3zl zl crisp" transform="translate(0,282.78)" d="M291.004081632653,0h84.9877551020408" style="stroke: rgb(255, 255, 255); stroke-opacity: 1; stroke-width: 2px;"/></g><path class="xlines-below"/><path class="ylines-below"/><g class="overlines-below"/><g class="xaxislayer-below"/><g class="yaxislayer-below"/><g class="overaxes-below"/><g class="plot" transform="translate(291.004081632653,100)" clip-path="url(#clipf7cca4x3y3plot)"><g class="boxlayer mlayer"><g class="trace boxes" style="opacity: 1;"><path class="box" d="M21.67,177.74H63.32M21.67,180.14H63.32V176.74H21.67ZM42.49,180.14V180.43M42.49,176.74V174.49M32.08,180.43H52.9M32.08,174.49H52.9" style="vector-effect: none; stroke-width: 2px; stroke: rgb(51, 0, 255); stroke-opacity: 1; fill: rgb(51, 0, 255); fill-opacity: 0.5;"/><g class="points"><path class="point" transform="translate(42.49,161.43)" d="M3,0A3,3 0 1,1 0,-3A3,3 0 0,1 3,0Z" style="opacity: 1; stroke-width: 0px; fill: rgb(51, 0, 255); fill-opacity: 1;"/></g></g><g class="trace boxes" style="opacity: 1;"><path class="box" d="M21.67,176.94H63.32M21.67,178.92H63.32V175.78H21.67ZM42.49,178.92V180.46M42.49,175.78V171.78M32.08,180.46H52.9M32.08,171.78H52.9" style="vector-effect: none; stroke-width: 2px; stroke: rgb(144, 238, 144); stroke-opacity: 1; fill: rgb(144, 238, 144); fill-opacity: 0.5;"/><g class="points"/></g></g></g><g class="overplot"/><path class="xlines-above crisp" d="M0,0" style="fill: none;"/><path class="ylines-above crisp" d="M0,0" style="fill: none;"/><g class="overlines-above"/><g class="xaxislayer-above"><g class="x3tick"><text text-anchor="middle" x="0" y="303" transform="translate(333.49408163265304,0)" style="font-family: 'Open Sans', verdana, arial, sans-serif; font-size: 12px; fill: rgb(42, 63, 95); fill-opacity: 1; white-space: pre; opacity: 1;">0.01</text></g></g><g class="yaxislayer-above"/><g class="overaxes-above"/></g><g class="subplot x4y4"><g class="layer-subplot"><g class="shapelayer"/><g class="imagelayer"/></g><g class="minor-gridlayer"><g class="x4"/><g class="y4"/></g><g class="gridlayer"><g class="x4"/><g class="y4"><path class="y4grid crisp" transform="translate(0,218.97)" d="M396.50612244897957,0h84.9877551020408" style="stroke: rgb(255, 255, 255); stroke-opacity: 1; stroke-width: 1px;"/><path class="y4grid crisp" transform="translate(0,155.16)" d="M396.50612244897957,0h84.9877551020408" style="stroke: rgb(255, 255, 255); stroke-opacity: 1; stroke-width: 1px;"/></g></g><g class="zerolinelayer"><path class="y4zl zl crisp" transform="translate(0,282.78)" d="M396.50612244897957,0h84.9877551020408" style="stroke: rgb(255, 255, 255); stroke-opacity: 1; stroke-width: 2px;"/></g><path class="xlines-below"/><path class="ylines-below"/><g class="overlines-below"/><g class="xaxislayer-below"/><g class="yaxislayer-below"/><g class="overaxes-below"/><g class="plot" transform="translate(396.50612244897957,100)" clip-path="url(#clipf7cca4x4y4plot)"><g class="boxlayer mlayer"><g class="trace boxes" style="opacity: 1;"><path class="box" d="M21.67,177.84H63.32M21.67,180.13H63.32V176.84H21.67ZM42.49,180.13V180.47M42.49,176.84V174.77M32.08,180.47H52.9M32.08,174.77H52.9" style="vector-effect: none; stroke-width: 2px; stroke: rgb(51, 0, 255); stroke-opacity: 1; fill: rgb(51, 0, 255); fill-opacity: 0.5;"/><g class="points"><path class="point" transform="translate(42.49,171.77)" d="M3,0A3,3 0 1,1 0,-3A3,3 0 0,1 3,0Z" style="opacity: 1; stroke-width: 0px; fill: rgb(51, 0, 255); fill-opacity: 1;"/></g></g><g class="trace boxes" style="opacity: 1;"><path class="box" d="M21.67,176.98H63.32M21.67,178.79H63.32V175.81H21.67ZM42.49,178.79V180.47M42.49,175.81V171.7M32.08,180.47H52.9M32.08,171.7H52.9" style="vector-effect: none; stroke-width: 2px; stroke: rgb(144, 238, 144); stroke-opacity: 1; fill: rgb(144, 238, 144); fill-opacity: 0.5;"/><g class="points"/></g></g></g><g class="overplot"/><path class="xlines-above crisp" d="M0,0" style="fill: none;"/><path class="ylines-above crisp" d="M0,0" style="fill: none;"/><g class="overlines-above"/><g class="xaxislayer-above"><g class="x4tick"><text text-anchor="middle" x="0" y="303" transform="translate(438.9961224489796,0)" style="font-family: 'Open Sans', verdana, arial, sans-serif; font-size: 12px; fill: rgb(42, 63, 95); fill-opacity: 1; white-space: pre; opacity: 1;">0</text></g></g><g class="yaxislayer-above"/><g class="overaxes-above"/></g><g class="subplot x5y5"><g class="layer-subplot"><g class="shapelayer"/><g class="imagelayer"/></g><g class="minor-gridlayer"><g class="x5"/><g class="y5"/></g><g class="gridlayer"><g class="x5"/><g class="y5"><path class="y5grid crisp" transform="translate(0,218.97)" d="M502.00816326530605,0h84.9877551020408" style="stroke: rgb(255, 255, 255); stroke-opacity: 1; stroke-width: 1px;"/><path class="y5grid crisp" transform="translate(0,155.16)" d="M502.00816326530605,0h84.9877551020408" style="stroke: rgb(255, 255, 255); stroke-opacity: 1; stroke-width: 1px;"/></g></g><g class="zerolinelayer"><path class="y5zl zl crisp" transform="translate(0,282.78)" d="M502.00816326530605,0h84.9877551020408" style="stroke: rgb(255, 255, 255); stroke-opacity: 1; stroke-width: 2px;"/></g><path class="xlines-below"/><path class="ylines-below"/><g class="overlines-below"/><g class="xaxislayer-below"/><g class="yaxislayer-below"/><g class="overaxes-below"/><g class="plot" transform="translate(502.00816326530605,100)" clip-path="url(#clipf7cca4x5y5plot)"><g class="boxlayer mlayer"><g class="trace boxes" style="opacity: 1;"><path class="box" d="M21.67,177.78H63.32M21.67,180.13H63.32V176.78H21.67ZM42.49,180.13V180.5M42.49,176.78V174.51M32.08,180.5H52.9M32.08,174.51H52.9" style="vector-effect: none; stroke-width: 2px; stroke: rgb(51, 0, 255); stroke-opacity: 1; fill: rgb(51, 0, 255); fill-opacity: 0.5;"/><g class="points"><path class="point" transform="translate(42.49,170.2)" d="M3,0A3,3 0 1,1 0,-3A3,3 0 0,1 3,0Z" style="opacity: 1; stroke-width: 0px; fill: rgb(51, 0, 255); fill-opacity: 1;"/><path class="point" transform="translate(42.49,169.63)" d="M3,0A3,3 0 1,1 0,-3A3,3 0 0,1 3,0Z" style="opacity: 1; stroke-width: 0px; fill: rgb(51, 0, 255); fill-opacity: 1;"/></g></g><g class="trace boxes" style="opacity: 1;"><path class="box" d="M21.67,176.62H63.32M21.67,178.79H63.32V174.74H21.67ZM42.49,178.79V180.47M42.49,174.74V171.7M32.08,180.47H52.9M32.08,171.7H52.9" style="vector-effect: none; stroke-width: 2px; stroke: rgb(144, 238, 144); stroke-opacity: 1; fill: rgb(144, 238, 144); fill-opacity: 0.5;"/><g class="points"><path class="point" transform="translate(42.49,166.26)" d="M3,0A3,3 0 1,1 0,-3A3,3 0 0,1 3,0Z" style="opacity: 1; stroke-width: 0px; fill: rgb(144, 238, 144); fill-opacity: 1;"/><path class="point" transform="translate(42.49,160.94)" d="M3,0A3,3 0 1,1 0,-3A3,3 0 0,1 3,0Z" style="opacity: 1; stroke-width: 0px; fill: rgb(144, 238, 144); fill-opacity: 1;"/></g></g></g></g><g class="overplot"/><path class="xlines-above crisp" d="M0,0" style="fill: none;"/><path class="ylines-above crisp" d="M0,0" style="fill: none;"/><g class="overlines-above"/><g class="xaxislayer-above"><g class="x5tick"><text text-anchor="middle" x="0" y="303" transform="translate(544.4981632653061,0)" style="font-family: 'Open Sans', verdana, arial, sans-serif; font-size: 12px; fill: rgb(42, 63, 95); fill-opacity: 1; white-space: pre; opacity: 1;">0</text></g></g><g class="yaxislayer-above"/><g class="overaxes-above"/></g><g class="subplot x6y6"><g class="layer-subplot"><g class="shapelayer"/><g class="imagelayer"/></g><g class="minor-gridlayer"><g class="x6"/><g class="y6"/></g><g class="gridlayer"><g class="x6"/><g class="y6"><path class="y6grid crisp" transform="translate(0,218.97)" d="M607.5102040816327,0h84.9877551020408" style="stroke: rgb(255, 255, 255); stroke-opacity: 1; stroke-width: 1px;"/><path class="y6grid crisp" transform="translate(0,155.16)" d="M607.5102040816327,0h84.9877551020408" style="stroke: rgb(255, 255, 255); stroke-opacity: 1; stroke-width: 1px;"/></g></g><g class="zerolinelayer"><path class="y6zl zl crisp" transform="translate(0,282.78)" d="M607.5102040816327,0h84.9877551020408" style="stroke: rgb(255, 255, 255); stroke-opacity: 1; stroke-width: 2px;"/></g><path class="xlines-below"/><path class="ylines-below"/><g class="overlines-below"/><g class="xaxislayer-below"/><g class="yaxislayer-below"/><g class="overaxes-below"/><g class="plot" transform="translate(607.5102040816327,100)" clip-path="url(#clipf7cca4x6y6plot)"><g class="boxlayer mlayer"><g class="trace boxes" style="opacity: 1;"><path class="box" d="M21.67,180.13H63.32M21.67,180.36H63.32V179.45H21.67ZM42.49,180.36V180.5M42.49,179.45V179.41M32.08,180.5H52.9M32.08,179.41H52.9" style="vector-effect: none; stroke-width: 2px; stroke: rgb(51, 0, 255); stroke-opacity: 1; fill: rgb(51, 0, 255); fill-opacity: 0.5;"/><g class="points"><path class="point" transform="translate(42.49,177.99)" d="M3,0A3,3 0 1,1 0,-3A3,3 0 0,1 3,0Z" style="opacity: 1; stroke-width: 0px; fill: rgb(51, 0, 255); fill-opacity: 1;"/><path class="point" transform="translate(42.49,177.99)" d="M3,0A3,3 0 1,1 0,-3A3,3 0 0,1 3,0Z" style="opacity: 1; stroke-width: 0px; fill: rgb(51, 0, 255); fill-opacity: 1;"/><path class="point" transform="translate(42.49,177.98)" d="M3,0A3,3 0 1,1 0,-3A3,3 0 0,1 3,0Z" style="opacity: 1; stroke-width: 0px; fill: rgb(51, 0, 255); fill-opacity: 1;"/><path class="point" transform="translate(42.49,177.98)" d="M3,0A3,3 0 1,1 0,-3A3,3 0 0,1 3,0Z" style="opacity: 1; stroke-width: 0px; fill: rgb(51, 0, 255); fill-opacity: 1;"/><path class="point" transform="translate(42.49,177.96)" d="M3,0A3,3 0 1,1 0,-3A3,3 0 0,1 3,0Z" style="opacity: 1; stroke-width: 0px; fill: rgb(51, 0, 255); fill-opacity: 1;"/><path class="point" transform="translate(42.49,177.96)" d="M3,0A3,3 0 1,1 0,-3A3,3 0 0,1 3,0Z" style="opacity: 1; stroke-width: 0px; fill: rgb(51, 0, 255); fill-opacity: 1;"/><path class="point" transform="translate(42.49,176.55)" d="M3,0A3,3 0 1,1 0,-3A3,3 0 0,1 3,0Z" style="opacity: 1; stroke-width: 0px; fill: rgb(51, 0, 255); fill-opacity: 1;"/><path class="point" transform="translate(42.49,176.55)" d="M3,0A3,3 0 1,1 0,-3A3,3 0 0,1 3,0Z" style="opacity: 1; stroke-width: 0px; fill: rgb(51, 0, 255); fill-opacity: 1;"/></g></g><g class="trace boxes" style="opacity: 1;"><path class="box" d="M21.67,178.67H63.32M21.67,179.67H63.32V175.65H21.67ZM42.49,179.67V180.47M42.49,175.65V171.7M32.08,180.47H52.9M32.08,171.7H52.9" style="vector-effect: none; stroke-width: 2px; stroke: rgb(144, 238, 144); stroke-opacity: 1; fill: rgb(144, 238, 144); fill-opacity: 0.5;"/><g class="points"/></g></g></g><g class="overplot"/><path class="xlines-above crisp" d="M0,0" style="fill: none;"/><path class="ylines-above crisp" d="M0,0" style="fill: none;"/><g class="overlines-above"/><g class="xaxislayer-above"><g class="x6tick"><text text-anchor="middle" x="0" y="303" transform="translate(650.0002040816327,0)" style="font-family: 'Open Sans', verdana, arial, sans-serif; font-size: 12px; fill: rgb(42, 63, 95); fill-opacity: 1; white-space: pre; opacity: 1;">0</text></g></g><g class="yaxislayer-above"/><g class="overaxes-above"/></g></g><g class="polarlayer"/><g class="smithlayer"/><g class="ternarylayer"/><g class="geolayer"/><g class="funnelarealayer"/><g class="pielayer"/><g class="iciclelayer"/><g class="treemaplayer"/><g class="sunburstlayer"/><g class="glimages"/><defs id="topdefs-f7cca4"><g class="clips"/><clipPath id="legendf7cca4"><rect width="76" height="190" x="0" y="0"/></clipPath></defs><g class="layer-above"><g class="imagelayer"/><g class="shapelayer"/></g><g class="infolayer"><g class="legend" pointer-events="all" transform="translate(812.36,100)"><rect class="bg" shape-rendering="crispEdges" width="76" height="190" x="0" y="0" style="stroke: rgb(68, 68, 68); stroke-opacity: 1; fill: rgb(255, 255, 255); fill-opacity: 1; stroke-width: 0px;"/><g class="scrollbox" transform="" clip-path="url(#legendf7cca4)"><g class="groups" transform=""><g class="traces" transform="translate(0,14.5)" style="opacity: 1;"><text class="legendtext" text-anchor="start" x="40" y="4.680000000000001" style="font-family: 'Open Sans', verdana, arial, sans-serif; font-size: 12px; fill: rgb(42, 63, 95); fill-opacity: 1; white-space: pre;">True</text><g class="layers" style="opacity: 1;"><g class="legendfill"/><g class="legendlines"/><g class="legendsymbols"><g class="legendpoints"><path class="legendbox" d="M6,6H-6V-6H6Z" transform="translate(20,0)" style="stroke-width: 2px; fill: rgb(51, 0, 255); fill-opacity: 0.5; stroke: rgb(51, 0, 255); stroke-opacity: 1;"/></g></g></g><rect class="legendtoggle" x="0" y="-9.5" width="70.796875" height="19" style="fill: rgb(0, 0, 0); fill-opacity: 0;"/></g><g class="traces" transform="translate(0,33.5)" style="opacity: 1;"><text class="legendtext" text-anchor="start" x="40" y="4.680000000000001" style="font-family: 'Open Sans', verdana, arial, sans-serif; font-size: 12px; fill: rgb(42, 63, 95); fill-opacity: 1; white-space: pre;">True</text><g class="layers" style="opacity: 1;"><g class="legendfill"/><g class="legendlines"/><g class="legendsymbols"><g class="legendpoints"><path class="legendbox" d="M6,6H-6V-6H6Z" transform="translate(20,0)" style="stroke-width: 2px; fill: rgb(51, 0, 255); fill-opacity: 0.5; stroke: rgb(51, 0, 255); stroke-opacity: 1;"/></g></g></g><rect class="legendtoggle" x="0" y="-9.5" width="70.796875" height="19" style="fill: rgb(0, 0, 0); fill-opacity: 0;"/></g><g class="traces" transform="translate(0,52.5)" style="opacity: 1;"><text class="legendtext" text-anchor="start" x="40" y="4.680000000000001" style="font-family: 'Open Sans', verdana, arial, sans-serif; font-size: 12px; fill: rgb(42, 63, 95); fill-opacity: 1; white-space: pre;">True</text><g class="layers" style="opacity: 1;"><g class="legendfill"/><g class="legendlines"/><g class="legendsymbols"><g class="legendpoints"><path class="legendbox" d="M6,6H-6V-6H6Z" transform="translate(20,0)" style="stroke-width: 2px; fill: rgb(51, 0, 255); fill-opacity: 0.5; stroke: rgb(51, 0, 255); stroke-opacity: 1;"/></g></g></g><rect class="legendtoggle" x="0" y="-9.5" width="70.796875" height="19" style="fill: rgb(0, 0, 0); fill-opacity: 0;"/></g><g class="traces" transform="translate(0,71.5)" style="opacity: 1;"><text class="legendtext" text-anchor="start" x="40" y="4.680000000000001" style="font-family: 'Open Sans', verdana, arial, sans-serif; font-size: 12px; fill: rgb(42, 63, 95); fill-opacity: 1; white-space: pre;">True</text><g class="layers" style="opacity: 1;"><g class="legendfill"/><g class="legendlines"/><g class="legendsymbols"><g class="legendpoints"><path class="legendbox" d="M6,6H-6V-6H6Z" transform="translate(20,0)" style="stroke-width: 2px; fill: rgb(51, 0, 255); fill-opacity: 0.5; stroke: rgb(51, 0, 255); stroke-opacity: 1;"/></g></g></g><rect class="legendtoggle" x="0" y="-9.5" width="70.796875" height="19" style="fill: rgb(0, 0, 0); fill-opacity: 0;"/></g><g class="traces" transform="translate(0,90.5)" style="opacity: 1;"><text class="legendtext" text-anchor="start" x="40" y="4.680000000000001" style="font-family: 'Open Sans', verdana, arial, sans-serif; font-size: 12px; fill: rgb(42, 63, 95); fill-opacity: 1; white-space: pre;">True</text><g class="layers" style="opacity: 1;"><g class="legendfill"/><g class="legendlines"/><g class="legendsymbols"><g class="legendpoints"><path class="legendbox" d="M6,6H-6V-6H6Z" transform="translate(20,0)" style="stroke-width: 2px; fill: rgb(51, 0, 255); fill-opacity: 0.5; stroke: rgb(51, 0, 255); stroke-opacity: 1;"/></g></g></g><rect class="legendtoggle" x="0" y="-9.5" width="70.796875" height="19" style="fill: rgb(0, 0, 0); fill-opacity: 0;"/></g><g class="traces" transform="translate(0,109.5)" style="opacity: 1;"><text class="legendtext" text-anchor="start" x="40" y="4.680000000000001" style="font-family: 'Open Sans', verdana, arial, sans-serif; font-size: 12px; fill: rgb(42, 63, 95); fill-opacity: 1; white-space: pre;">True</text><g class="layers" style="opacity: 1;"><g class="legendfill"/><g class="legendlines"/><g class="legendsymbols"><g class="legendpoints"><path class="legendbox" d="M6,6H-6V-6H6Z" transform="translate(20,0)" style="stroke-width: 2px; fill: rgb(51, 0, 255); fill-opacity: 0.5; stroke: rgb(51, 0, 255); stroke-opacity: 1;"/></g></g></g><rect class="legendtoggle" x="0" y="-9.5" width="70.796875" height="19" style="fill: rgb(0, 0, 0); fill-opacity: 0;"/></g></g><g class="groups" transform="translate(0,10)"><g class="traces" transform="translate(0,128.5)" style="opacity: 1;"><text class="legendtext" text-anchor="start" x="40" y="4.680000000000001" style="font-family: 'Open Sans', verdana, arial, sans-serif; font-size: 12px; fill: rgb(42, 63, 95); fill-opacity: 1; white-space: pre;">False</text><g class="layers" style="opacity: 1;"><g class="legendfill"/><g class="legendlines"/><g class="legendsymbols"><g class="legendpoints"><path class="legendbox" d="M6,6H-6V-6H6Z" transform="translate(20,0)" style="stroke-width: 2px; fill: rgb(144, 238, 144); fill-opacity: 0.5; stroke: rgb(144, 238, 144); stroke-opacity: 1;"/></g></g></g><rect class="legendtoggle" x="0" y="-9.5" width="70.796875" height="19" style="fill: rgb(0, 0, 0); fill-opacity: 0;"/></g><g class="traces" transform="translate(0,147.5)" style="opacity: 1;"><text class="legendtext" text-anchor="start" x="40" y="4.680000000000001" style="font-family: 'Open Sans', verdana, arial, sans-serif; font-size: 12px; fill: rgb(42, 63, 95); fill-opacity: 1; white-space: pre;">False</text><g class="layers" style="opacity: 1;"><g class="legendfill"/><g class="legendlines"/><g class="legendsymbols"><g class="legendpoints"><path class="legendbox" d="M6,6H-6V-6H6Z" transform="translate(20,0)" style="stroke-width: 2px; fill: rgb(144, 238, 144); fill-opacity: 0.5; stroke: rgb(144, 238, 144); stroke-opacity: 1;"/></g></g></g><rect class="legendtoggle" x="0" y="-9.5" width="70.796875" height="19" style="fill: rgb(0, 0, 0); fill-opacity: 0;"/></g><g class="traces" transform="translate(0,166.5)" style="opacity: 1;"><text class="legendtext" text-anchor="start" x="40" y="4.680000000000001" style="font-family: 'Open Sans', verdana, arial, sans-serif; font-size: 12px; fill: rgb(42, 63, 95); fill-opacity: 1; white-space: pre;">False</text><g class="layers" style="opacity: 1;"><g class="legendfill"/><g class="legendlines"/><g class="legendsymbols"><g class="legendpoints"><path class="legendbox" d="M6,6H-6V-6H6Z" transform="translate(20,0)" style="stroke-width: 2px; fill: rgb(144, 238, 144); fill-opacity: 0.5; stroke: rgb(144, 238, 144); stroke-opacity: 1;"/></g></g></g><rect class="legendtoggle" x="0" y="-9.5" width="70.796875" height="19" style="fill: rgb(0, 0, 0); fill-opacity: 0;"/></g><g class="traces" transform="translate(0,185.5)" style="opacity: 1;"><text class="legendtext" text-anchor="start" x="40" y="4.680000000000001" style="font-family: 'Open Sans', verdana, arial, sans-serif; font-size: 12px; fill: rgb(42, 63, 95); fill-opacity: 1; white-space: pre;">False</text><g class="layers" style="opacity: 1;"><g class="legendfill"/><g class="legendlines"/><g class="legendsymbols"><g class="legendpoints"><path class="legendbox" d="M6,6H-6V-6H6Z" transform="translate(20,0)" style="stroke-width: 2px; fill: rgb(144, 238, 144); fill-opacity: 0.5; stroke: rgb(144, 238, 144); stroke-opacity: 1;"/></g></g></g><rect class="legendtoggle" x="0" y="-9.5" width="70.796875" height="19" style="fill: rgb(0, 0, 0); fill-opacity: 0;"/></g><g class="traces" transform="translate(0,204.5)" style="opacity: 1;"><text class="legendtext" text-anchor="start" x="40" y="4.680000000000001" style="font-family: 'Open Sans', verdana, arial, sans-serif; font-size: 12px; fill: rgb(42, 63, 95); fill-opacity: 1; white-space: pre;">False</text><g class="layers" style="opacity: 1;"><g class="legendfill"/><g class="legendlines"/><g class="legendsymbols"><g class="legendpoints"><path class="legendbox" d="M6,6H-6V-6H6Z" transform="translate(20,0)" style="stroke-width: 2px; fill: rgb(144, 238, 144); fill-opacity: 0.5; stroke: rgb(144, 238, 144); stroke-opacity: 1;"/></g></g></g><rect class="legendtoggle" x="0" y="-9.5" width="70.796875" height="19" style="fill: rgb(0, 0, 0); fill-opacity: 0;"/></g><g class="traces" transform="translate(0,223.5)" style="opacity: 1;"><text class="legendtext" text-anchor="start" x="40" y="4.680000000000001" style="font-family: 'Open Sans', verdana, arial, sans-serif; font-size: 12px; fill: rgb(42, 63, 95); fill-opacity: 1; white-space: pre;">False</text><g class="layers" style="opacity: 1;"><g class="legendfill"/><g class="legendlines"/><g class="legendsymbols"><g class="legendpoints"><path class="legendbox" d="M6,6H-6V-6H6Z" transform="translate(20,0)" style="stroke-width: 2px; fill: rgb(144, 238, 144); fill-opacity: 0.5; stroke: rgb(144, 238, 144); stroke-opacity: 1;"/></g></g></g><rect class="legendtoggle" x="0" y="-9.5" width="70.796875" height="19" style="fill: rgb(0, 0, 0); fill-opacity: 0;"/></g></g></g><rect class="scrollbar" rx="20" ry="3" width="0" height="0" x="0" y="0" style="fill: rgb(128, 139, 164); fill-opacity: 1;"/></g><g class="g-gtitle"><text class="gtitle" x="45" y="50" text-anchor="start" dy="0em" style="font-family: 'Open Sans', verdana, arial, sans-serif; font-size: 17px; fill: rgb(42, 63, 95); opacity: 1; font-weight: normal; white-space: pre;">Box Plots by noise_factor</text></g><g class="g-xtitle"><text class="xtitle" x="122.4938775510204" y="329.8" text-anchor="middle" style="font-family: 'Open Sans', verdana, arial, sans-serif; font-size: 14px; fill: rgb(42, 63, 95); opacity: 1; font-weight: normal; white-space: pre;">Noise Factor</text></g><g class="g-x2title"><text class="x2title" x="227.99591836734692" y="329.8" text-anchor="middle" style="font-family: 'Open Sans', verdana, arial, sans-serif; font-size: 14px; fill: rgb(42, 63, 95); opacity: 1; font-weight: normal; white-space: pre;">Noise Factor</text></g><g class="g-x3title"><text class="x3title" x="333.4979591836734" y="329.8" text-anchor="middle" style="font-family: 'Open Sans', verdana, arial, sans-serif; font-size: 14px; fill: rgb(42, 63, 95); opacity: 1; font-weight: normal; white-space: pre;">Noise Factor</text></g><g class="g-x4title"><text class="x4title" x="438.99999999999994" y="329.8" text-anchor="middle" style="font-family: 'Open Sans', verdana, arial, sans-serif; font-size: 14px; fill: rgb(42, 63, 95); opacity: 1; font-weight: normal; white-space: pre;">Noise Factor</text></g><g class="g-x5title"><text class="x5title" x="544.5020408163265" y="329.8" text-anchor="middle" style="font-family: 'Open Sans', verdana, arial, sans-serif; font-size: 14px; fill: rgb(42, 63, 95); opacity: 1; font-weight: normal; white-space: pre;">Noise Factor</text></g><g class="g-x6title"><text class="x6title" x="650.0040816326531" y="329.8" text-anchor="middle" style="font-family: 'Open Sans', verdana, arial, sans-serif; font-size: 14px; fill: rgb(42, 63, 95); opacity: 1; font-weight: normal; white-space: pre;">Noise Factor</text></g><g class="g-ytitle"><text class="ytitle" transform="rotate(-90,47.059375,195)" x="47.059375" y="195" text-anchor="middle" style="font-family: 'Open Sans', verdana, arial, sans-serif; font-size: 14px; fill: rgb(42, 63, 95); opacity: 1; font-weight: normal; white-space: pre;">Normalized RMSD, Geodesic Regression</text></g><g class="g-y2title"/><g class="g-y3title"/><g class="g-y4title"/><g class="g-y5title"/><g class="g-y6title"/></g></svg>