<?xml version="1.0" encoding="utf-8"?>
<!-- Generator: Adobe Illustrator 26.4.1, SVG Export Plug-In . SVG Version: 6.00 Build 0)  -->
<svg version="1.1" id="Layer_1" xmlns="http://www.w3.org/2000/svg" xmlns:xlink="http://www.w3.org/1999/xlink" x="0px" y="0px"
	 viewBox="0 0 900 370" style="enable-background:new 0 0 900 370;" xml:space="preserve">
<style type="text/css">
	.st0{fill:#E5ECF6;}
	.st1{stroke:#FFFFFF;}
	.st2{stroke:#FFFFFF;stroke-width:2;}
	.st3{fill:none;}
	.st4{fill:#3300FF;fill-opacity:0.5;stroke:#3300FF;stroke-width:2;}
	.st5{fill:#90EE90;fill-opacity:0.5;stroke:#90EE90;stroke-width:2;}
	.st6{fill:#2A3F5F;}
	.st7{font-family:'Verdana';}
	.st8{font-size:12px;}
	.st9{fill:#3300FF;}
	.st10{fill:#90EE90;}
	.st11{fill:#808BA4;}
	.st12{font-size:17px;}
	.st13{font-size:14px;}
</style>
<rect x="80" y="100" class="st0" width="152.6" height="190"/>
<rect x="456.7" y="100.6" class="st0" width="152.6" height="190"/>
<rect x="262" y="100.7" class="st0" width="152.6" height="190"/>
<rect x="645.4" y="100" class="st0" width="152.6" height="190"/>
<g>
	<g>
		<path class="st1" d="M80,241.4h152.6"/>
		<path class="st1" d="M80,202.2h152.6"/>
		<path class="st1" d="M80,162.9h152.6"/>
		<path class="st1" d="M80,123.7h152.6"/>
	</g>
</g>
<g>
	<path class="st2" d="M80,280.7h152.6"/>
</g>
<path class="st2" d="M0,0"/>
<path class="st2" d="M0,0"/>
<rect x="80" y="100" class="st3" width="152.6" height="190"/>
<path class="st4" d="M118.9,212.1h74.8 M118.9,230.5h74.8v-54.8h-74.8V230.5z M156.3,230.5v20.7 M156.3,175.8v-66.2 M137.6,251.3
	H175 M137.6,109.5H175"/>
<path class="st5" d="M118.9,211.8h74.8 M118.9,223h74.8v-17.6h-74.8V223z M156.3,223v3.9 M156.3,205.4v-11.4 M137.6,227H175
	 M137.6,194.1H175"/>
<path class="st3" d="M0,0"/>
<path class="st3" d="M0,0"/>
<g>
	<g>
		<text transform="matrix(1 0 0 1 146.4785 303)" class="st6 st7 st8">0.2</text>
	</g>
</g>
<g>
	<g>
		<text transform="matrix(1 0 0 1 71.3711 284.88)" class="st6 st7 st8">0</text>
	</g>
	<g>
		<text transform="matrix(1 0 0 1 59.377 245.63)" class="st6 st7 st8">0.1</text>
	</g>
	<g>
		<text transform="matrix(1 0 0 1 59.377 206.37)" class="st6 st7 st8">0.2</text>
	</g>
	<g>
		<text transform="matrix(1 0 0 1 59.377 167.12)" class="st6 st7 st8">0.3</text>
	</g>
	<g>
		<text transform="matrix(1 0 0 1 59.377 127.86)" class="st6 st7 st8">0.4</text>
	</g>
</g>
<g>
	<g>
		<path class="st1" d="M456.7,242h152.6"/>
		<path class="st1" d="M456.7,202.7h152.6"/>
		<path class="st1" d="M456.7,163.5h152.6"/>
		<path class="st1" d="M456.7,124.2h152.6"/>
	</g>
</g>
<g>
	<path class="st2" d="M456.7,281.2h152.6"/>
</g>
<path class="st2" d="M0,0"/>
<path class="st2" d="M0,0"/>
<path class="st4" d="M495.6,278.2h74.8 M495.6,278.6h74.8v-1.2h-74.8V278.6z M533,278.6v0.9 M533,277.4v-0.1 M514.3,279.5h37.4
	 M514.3,277.3h37.4"/>
<rect x="456.7" y="100.6" class="st3" width="152.6" height="190"/>
<path class="st5" d="M495.6,277.6h74.8 M495.6,278h74.8v-0.7h-74.8V278z M533,278v0.4 M533,277.3L533,277.3 M514.3,278.5h37.4
	 M514.3,277.3h37.4"/>
<path class="st3" d="M0,0"/>
<path class="st3" d="M0,0"/>
<g>
	<g>
		<text transform="matrix(1 0 0 1 519.3527 303.5564)" class="st6 st7 st8">0.01</text>
	</g>
</g>
<g>
	<g>
		<path class="st1" d="M262,242.1h152.6"/>
		<path class="st1" d="M262,202.8h152.6"/>
		<path class="st1" d="M262,163.6h152.6"/>
		<path class="st1" d="M262,124.3h152.6"/>
	</g>
</g>
<g>
	<path class="st2" d="M262,281.3h152.6"/>
</g>
<path class="st2" d="M0,0"/>
<path class="st2" d="M0,0"/>
<rect x="262" y="100.7" class="st3" width="152.6" height="190"/>
<path class="st4" d="M300.9,244.4h74.8 M300.9,249h74.8v-5.7h-74.8V249z M338.2,249v7.8 M338.2,243.4v-0.1 M319.6,256.8h37.4
	 M319.6,243.3h37.4"/>
<g>
	<path class="st9" d="M341.2,224c0,1.7-1.3,3-3,3s-3-1.3-3-3s1.3-3,3-3S341.2,222.3,341.2,224z"/>
</g>
<path class="st3" d="M0,0"/>
<path class="st3" d="M0,0"/>
<g>
	<g>
		<text transform="matrix(1 0 0 1 328.4285 303.67)" class="st6 st7 st8">0.1</text>
	</g>
</g>
<g>
	<g>
		<path class="st1" d="M645.4,241.4H798"/>
		<path class="st1" d="M645.4,202.2H798"/>
		<path class="st1" d="M645.4,162.9H798"/>
		<path class="st1" d="M645.4,123.7H798"/>
	</g>
</g>
<g>
	<path class="st2" d="M645.4,280.7H798"/>
</g>
<path class="st2" d="M0,0"/>
<path class="st2" d="M0,0"/>
<rect x="645.4" y="100" class="st3" width="152.6" height="190"/>
<path class="st4" d="M684.3,280.5h74.8 M684.3,280.5h74.8v0L684.3,280.5L684.3,280.5z M721.7,280.5L721.7,280.5 M721.7,280.5
	L721.7,280.5 M703,280.5h37.4 M703,280.5h37.4"/>
<path class="st5" d="M684.3,280.5h74.8 M684.3,280.5h74.8v0L684.3,280.5L684.3,280.5z M721.7,280.5L721.7,280.5 M721.7,280.5
	L721.7,280.5 M703,280.5h37.4 M703,280.5h37.4"/>
<g>
	<path class="st9" d="M724.7,280.4c0,1.7-1.3,3-3,3s-3-1.3-3-3s1.3-3,3-3S724.7,278.7,724.7,280.4z"/>
	<path class="st9" d="M724.7,280.4c0,1.7-1.3,3-3,3s-3-1.3-3-3s1.3-3,3-3S724.7,278.7,724.7,280.4z"/>
</g>
<g>
	<path class="st10" d="M724.7,280.4c0,1.7-1.3,3-3,3s-3-1.3-3-3s1.3-3,3-3S724.7,278.7,724.7,280.4z"/>
	<path class="st10" d="M724.7,280.4c0,1.7-1.3,3-3,3s-3-1.3-3-3s1.3-3,3-3S724.7,278.7,724.7,280.4z"/>
</g>
<path class="st3" d="M0,0"/>
<path class="st3" d="M0,0"/>
<g>
	<g>
		<text transform="matrix(1 0 0 1 717.9006 303)" class="st6 st7 st8">0</text>
	</g>
</g>
<polygon class="st11" points="812.4,100 812.4,100 812.4,100 812.4,100 812.4,100 812.4,100 812.4,100 812.4,100 "/>
<text transform="matrix(1 0 0 1 289.0981 70.4814)" class="st6 st7 st12">2D Hypersphere, Linear Noise, Projected</text>
<text transform="matrix(1 0 0 1 489.7661 330.3564)" class="st6 st7 st13">Noise Factor</text>
<text transform="matrix(6.123234e-17 -1 1 6.123234e-17 35.075 253.4561)" class="st6 st7 st13">Normalized RMSD</text>
<path class="st5" d="M300.9,243.7h74.8 M300.9,254.9h74.8v-13.6h-74.8V254.9z M338.2,254.9v5.2 M338.2,241.3v-4.2 M319.6,260.1h37.4
	 M319.6,237.1h37.4"/>
</svg>
