<svg class="main-svg" xmlns="http://www.w3.org/2000/svg" xmlns:xlink="http://www.w3.org/1999/xlink" width="1170" height="555" style="" viewBox="0 0 1170 555"><rect x="0" y="0" width="1170" height="555" style="fill: rgb(255, 255, 255); fill-opacity: 1;"/><defs id="defs-3a2832"><g class="clips"><clipPath id="clip3a2832xyplot" class="plotclip"><rect width="760" height="409"/></clipPath><clipPath class="axesclip" id="clip3a2832x"><rect x="80" y="0" width="760" height="555"/></clipPath><clipPath class="axesclip" id="clip3a2832y"><rect x="0" y="60" width="1170" height="409"/></clipPath><clipPath class="axesclip" id="clip3a2832xy"><rect x="80" y="60" width="760" height="409"/></clipPath></g><g class="gradients"/><g class="patterns"/></defs><g class="bglayer"><rect class="bg" x="80" y="60" width="760" height="409" style="fill: rgb(229, 236, 246); fill-opacity: 1; stroke-width: 0;"/></g><g class="layer-below"><g class="imagelayer"/><g class="shapelayer"/></g><g class="cartesianlayer"><g class="subplot xy"><g class="layer-subplot"><g class="shapelayer"/><g class="imagelayer"/></g><g class="minor-gridlayer"><g class="x"/><g class="y"/></g><g class="gridlayer"><g class="x"><path class="xgrid crisp" transform="translate(240.33,0)" d="M0,60v409" style="stroke: rgb(255, 255, 255); stroke-opacity: 1; stroke-width: 1px;"/><path class="xgrid crisp" transform="translate(350.17,0)" d="M0,60v409" style="stroke: rgb(255, 255, 255); stroke-opacity: 1; stroke-width: 1px;"/><path class="xgrid crisp" transform="translate(460,0)" d="M0,60v409" style="stroke: rgb(255, 255, 255); stroke-opacity: 1; stroke-width: 1px;"/><path class="xgrid crisp" transform="translate(569.8299999999999,0)" d="M0,60v409" style="stroke: rgb(255, 255, 255); stroke-opacity: 1; stroke-width: 1px;"/><path class="xgrid crisp" transform="translate(679.67,0)" d="M0,60v409" style="stroke: rgb(255, 255, 255); stroke-opacity: 1; stroke-width: 1px;"/><path class="xgrid crisp" transform="translate(789.5,0)" d="M0,60v409" style="stroke: rgb(255, 255, 255); stroke-opacity: 1; stroke-width: 1px;"/></g><g class="y"><path class="ygrid crisp" transform="translate(0,372.75)" d="M80,0h760" style="stroke: rgb(255, 255, 255); stroke-opacity: 1; stroke-width: 1px;"/><path class="ygrid crisp" transform="translate(0,302.34000000000003)" d="M80,0h760" style="stroke: rgb(255, 255, 255); stroke-opacity: 1; stroke-width: 1px;"/><path class="ygrid crisp" transform="translate(0,231.92)" d="M80,0h760" style="stroke: rgb(255, 255, 255); stroke-opacity: 1; stroke-width: 1px;"/><path class="ygrid crisp" transform="translate(0,161.51)" d="M80,0h760" style="stroke: rgb(255, 255, 255); stroke-opacity: 1; stroke-width: 1px;"/><path class="ygrid crisp" transform="translate(0,91.09)" d="M80,0h760" style="stroke: rgb(255, 255, 255); stroke-opacity: 1; stroke-width: 1px;"/></g></g><g class="zerolinelayer"><path class="xzl zl crisp" transform="translate(130.5,0)" d="M0,60v409" style="stroke: rgb(255, 255, 255); stroke-opacity: 1; stroke-width: 2px;"/><path class="yzl zl crisp" transform="translate(0,443.17)" d="M80,0h760" style="stroke: rgb(255, 255, 255); stroke-opacity: 1; stroke-width: 2px;"/></g><path class="xlines-below"/><path class="ylines-below"/><g class="overlines-below"/><g class="xaxislayer-below"/><g class="yaxislayer-below"/><g class="overaxes-below"/><g class="plot" transform="translate(80,60)" clip-path="url(#clip3a2832xyplot)"><g class="scatterlayer mlayer"><g class="trace scatter tracec7e65a" style="stroke-miterlimit: 2; opacity: 1;"><g class="fills"/><g class="errorbars"/><g class="lines"/><g class="points"><path class="point" transform="translate(61.48,168.39)" d="M0,0L20,-10V10Z" style="opacity: 0.5; stroke-width: 0px; fill: rgb(255, 20, 147); fill-opacity: 1;"/><path class="point" transform="translate(61.48,365.19)" d="M0,0L20,-10V10Z" style="opacity: 0.5; stroke-width: 0px; fill: rgb(255, 20, 147); fill-opacity: 1;"/><path class="point" transform="translate(61.48,375.93)" d="M0,0L20,-10V10Z" style="opacity: 0.5; stroke-width: 0px; fill: rgb(255, 20, 147); fill-opacity: 1;"/><path class="point" transform="translate(50.5,167.48)" d="M0,0L20,-10V10Z" style="opacity: 0.5; stroke-width: 0px; fill: rgb(255, 20, 147); fill-opacity: 1;"/><path class="point" transform="translate(50.5,375.97)" d="M0,0L20,-10V10Z" style="opacity: 0.5; stroke-width: 0px; fill: rgb(255, 20, 147); fill-opacity: 1;"/><path class="point" transform="translate(50.5,376.05)" d="M0,0L20,-10V10Z" style="opacity: 0.5; stroke-width: 0px; fill: rgb(255, 20, 147); fill-opacity: 1;"/><path class="point" transform="translate(50.5,365.64)" d="M0,0L20,-10V10Z" style="opacity: 0.5; stroke-width: 0px; fill: rgb(255, 20, 147); fill-opacity: 1;"/><path class="point" transform="translate(50.5,179.62)" d="M0,0L20,-10V10Z" style="opacity: 0.5; stroke-width: 0px; fill: rgb(255, 20, 147); fill-opacity: 1;"/><path class="point" transform="translate(160.33,370.88)" d="M0,0L20,-10V10Z" style="opacity: 0.5; stroke-width: 0px; fill: rgb(255, 20, 147); fill-opacity: 1;"/><path class="point" transform="translate(61.48,178.97)" d="M0,0L20,-10V10Z" style="opacity: 0.5; stroke-width: 0px; fill: rgb(255, 20, 147); fill-opacity: 1;"/><path class="point" transform="translate(61.48,365.66)" d="M0,0L20,-10V10Z" style="opacity: 0.5; stroke-width: 0px; fill: rgb(255, 20, 147); fill-opacity: 1;"/><path class="point" transform="translate(61.48,375.95)" d="M0,0L20,-10V10Z" style="opacity: 0.5; stroke-width: 0px; fill: rgb(255, 20, 147); fill-opacity: 1;"/><path class="point" transform="translate(50.5,365.31)" d="M0,0L20,-10V10Z" style="opacity: 0.5; stroke-width: 0px; fill: rgb(255, 20, 147); fill-opacity: 1;"/><path class="point" transform="translate(160.33,358.86)" d="M0,0L20,-10V10Z" style="opacity: 0.5; stroke-width: 0px; fill: rgb(255, 20, 147); fill-opacity: 1;"/><path class="point" transform="translate(160.33,370.14)" d="M0,0L20,-10V10Z" style="opacity: 0.5; stroke-width: 0px; fill: rgb(255, 20, 147); fill-opacity: 1;"/><path class="point" transform="translate(61.48,32.95)" d="M0,0L20,-10V10Z" style="opacity: 0.5; stroke-width: 0px; fill: rgb(255, 20, 147); fill-opacity: 1;"/><path class="point" transform="translate(61.48,361.5)" d="M0,0L20,-10V10Z" style="opacity: 0.5; stroke-width: 0px; fill: rgb(255, 20, 147); fill-opacity: 1;"/><path class="point" transform="translate(61.48,374.72)" d="M0,0L20,-10V10Z" style="opacity: 0.5; stroke-width: 0px; fill: rgb(255, 20, 147); fill-opacity: 1;"/><path class="point" transform="translate(50.5,36.38)" d="M0,0L20,-10V10Z" style="opacity: 0.5; stroke-width: 0px; fill: rgb(255, 20, 147); fill-opacity: 1;"/><path class="point" transform="translate(50.5,361.55)" d="M0,0L20,-10V10Z" style="opacity: 0.5; stroke-width: 0px; fill: rgb(255, 20, 147); fill-opacity: 1;"/><path class="point" transform="translate(50.5,374.98)" d="M0,0L20,-10V10Z" style="opacity: 0.5; stroke-width: 0px; fill: rgb(255, 20, 147); fill-opacity: 1;"/><path class="point" transform="translate(270.17,361.91)" d="M0,0L20,-10V10Z" style="opacity: 0.5; stroke-width: 0px; fill: rgb(255, 20, 147); fill-opacity: 1;"/><path class="point" transform="translate(50.5,375.69)" d="M0,0L20,-10V10Z" style="opacity: 0.5; stroke-width: 0px; fill: rgb(255, 20, 147); fill-opacity: 1;"/><path class="point" transform="translate(160.33,351.38)" d="M0,0L20,-10V10Z" style="opacity: 0.5; stroke-width: 0px; fill: rgb(255, 20, 147); fill-opacity: 1;"/><path class="point" transform="translate(160.33,374.9)" d="M0,0L20,-10V10Z" style="opacity: 0.5; stroke-width: 0px; fill: rgb(255, 20, 147); fill-opacity: 1;"/><path class="point" transform="translate(61.48,129.42)" d="M0,0L20,-10V10Z" style="opacity: 0.5; stroke-width: 0px; fill: rgb(255, 20, 147); fill-opacity: 1;"/><path class="point" transform="translate(61.48,364.05)" d="M0,0L20,-10V10Z" style="opacity: 0.5; stroke-width: 0px; fill: rgb(255, 20, 147); fill-opacity: 1;"/><path class="point" transform="translate(61.48,375.6)" d="M0,0L20,-10V10Z" style="opacity: 0.5; stroke-width: 0px; fill: rgb(255, 20, 147); fill-opacity: 1;"/><path class="point" transform="translate(50.5,127.97)" d="M0,0L20,-10V10Z" style="opacity: 0.5; stroke-width: 0px; fill: rgb(255, 20, 147); fill-opacity: 1;"/><path class="point" transform="translate(50.5,364.22)" d="M0,0L20,-10V10Z" style="opacity: 0.5; stroke-width: 0px; fill: rgb(255, 20, 147); fill-opacity: 1;"/></g><g class="text"/></g><g class="trace scatter tracee6626e" style="stroke-miterlimit: 2; opacity: 1;"><g class="fills"/><g class="errorbars"/><g class="lines"/><g class="points"><path class="point" transform="translate(61.48,354.5)" d="M10,0A10,10 0 1,1 0,-10A10,10 0 0,1 10,0Z" style="opacity: 0.5; stroke-width: 0px; fill: rgb(51, 0, 255); fill-opacity: 1;"/><path class="point" transform="translate(50.5,366.01)" d="M10,0A10,10 0 1,1 0,-10A10,10 0 0,1 10,0Z" style="opacity: 0.5; stroke-width: 0px; fill: rgb(51, 0, 255); fill-opacity: 1;"/><path class="point" transform="translate(50.5,354.43)" d="M10,0A10,10 0 1,1 0,-10A10,10 0 0,1 10,0Z" style="opacity: 0.5; stroke-width: 0px; fill: rgb(51, 0, 255); fill-opacity: 1;"/><path class="point" transform="translate(50.5,291.07)" d="M10,0A10,10 0 1,1 0,-10A10,10 0 0,1 10,0Z" style="opacity: 0.5; stroke-width: 0px; fill: rgb(51, 0, 255); fill-opacity: 1;"/><path class="point" transform="translate(50.5,271.83)" d="M10,0A10,10 0 1,1 0,-10A10,10 0 0,1 10,0Z" style="opacity: 0.5; stroke-width: 0px; fill: rgb(51, 0, 255); fill-opacity: 1;"/><path class="point" transform="translate(61.48,366.44)" d="M10,0A10,10 0 1,1 0,-10A10,10 0 0,1 10,0Z" style="opacity: 0.5; stroke-width: 0px; fill: rgb(51, 0, 255); fill-opacity: 1;"/><path class="point" transform="translate(61.48,291.45)" d="M10,0A10,10 0 1,1 0,-10A10,10 0 0,1 10,0Z" style="opacity: 0.5; stroke-width: 0px; fill: rgb(51, 0, 255); fill-opacity: 1;"/><path class="point" transform="translate(50.5,282.94)" d="M10,0A10,10 0 1,1 0,-10A10,10 0 0,1 10,0Z" style="opacity: 0.5; stroke-width: 0px; fill: rgb(51, 0, 255); fill-opacity: 1;"/><path class="point" transform="translate(61.48,300.06)" d="M10,0A10,10 0 1,1 0,-10A10,10 0 0,1 10,0Z" style="opacity: 0.5; stroke-width: 0px; fill: rgb(51, 0, 255); fill-opacity: 1;"/><path class="point" transform="translate(61.48,357.92)" d="M10,0A10,10 0 1,1 0,-10A10,10 0 0,1 10,0Z" style="opacity: 0.5; stroke-width: 0px; fill: rgb(51, 0, 255); fill-opacity: 1;"/><path class="point" transform="translate(50.5,368.55)" d="M10,0A10,10 0 1,1 0,-10A10,10 0 0,1 10,0Z" style="opacity: 0.5; stroke-width: 0px; fill: rgb(51, 0, 255); fill-opacity: 1;"/><path class="point" transform="translate(50.5,358.31)" d="M10,0A10,10 0 1,1 0,-10A10,10 0 0,1 10,0Z" style="opacity: 0.5; stroke-width: 0px; fill: rgb(51, 0, 255); fill-opacity: 1;"/><path class="point" transform="translate(50.5,299.99)" d="M10,0A10,10 0 1,1 0,-10A10,10 0 0,1 10,0Z" style="opacity: 0.5; stroke-width: 0px; fill: rgb(51, 0, 255); fill-opacity: 1;"/><path class="point" transform="translate(50.5,282.03)" d="M10,0A10,10 0 1,1 0,-10A10,10 0 0,1 10,0Z" style="opacity: 0.5; stroke-width: 0px; fill: rgb(51, 0, 255); fill-opacity: 1;"/><path class="point" transform="translate(160.33,354.46)" d="M10,0A10,10 0 1,1 0,-10A10,10 0 0,1 10,0Z" style="opacity: 0.5; stroke-width: 0px; fill: rgb(51, 0, 255); fill-opacity: 1;"/><path class="point" transform="translate(160.33,363.95)" d="M10,0A10,10 0 1,1 0,-10A10,10 0 0,1 10,0Z" style="opacity: 0.5; stroke-width: 0px; fill: rgb(51, 0, 255); fill-opacity: 1;"/><path class="point" transform="translate(61.48,284.34)" d="M10,0A10,10 0 1,1 0,-10A10,10 0 0,1 10,0Z" style="opacity: 0.5; stroke-width: 0px; fill: rgb(51, 0, 255); fill-opacity: 1;"/><path class="point" transform="translate(61.48,358.48)" d="M10,0A10,10 0 1,1 0,-10A10,10 0 0,1 10,0Z" style="opacity: 0.5; stroke-width: 0px; fill: rgb(51, 0, 255); fill-opacity: 1;"/><path class="point" transform="translate(61.48,368.75)" d="M10,0A10,10 0 1,1 0,-10A10,10 0 0,1 10,0Z" style="opacity: 0.5; stroke-width: 0px; fill: rgb(51, 0, 255); fill-opacity: 1;"/><path class="point" transform="translate(61.48,368.04)" d="M10,0A10,10 0 1,1 0,-10A10,10 0 0,1 10,0Z" style="opacity: 0.5; stroke-width: 0px; fill: rgb(51, 0, 255); fill-opacity: 1;"/><path class="point" transform="translate(50.5,299.76)" d="M10,0A10,10 0 1,1 0,-10A10,10 0 0,1 10,0Z" style="opacity: 0.5; stroke-width: 0px; fill: rgb(51, 0, 255); fill-opacity: 1;"/><path class="point" transform="translate(61.48,367.13)" d="M10,0A10,10 0 1,1 0,-10A10,10 0 0,1 10,0Z" style="opacity: 0.5; stroke-width: 0px; fill: rgb(51, 0, 255); fill-opacity: 1;"/><path class="point" transform="translate(50.5,297.99)" d="M10,0A10,10 0 1,1 0,-10A10,10 0 0,1 10,0Z" style="opacity: 0.5; stroke-width: 0px; fill: rgb(51, 0, 255); fill-opacity: 1;"/><path class="point" transform="translate(50.5,356.75)" d="M10,0A10,10 0 1,1 0,-10A10,10 0 0,1 10,0Z" style="opacity: 0.5; stroke-width: 0px; fill: rgb(51, 0, 255); fill-opacity: 1;"/><path class="point" transform="translate(50.5,367.58)" d="M10,0A10,10 0 1,1 0,-10A10,10 0 0,1 10,0Z" style="opacity: 0.5; stroke-width: 0px; fill: rgb(51, 0, 255); fill-opacity: 1;"/><path class="point" transform="translate(50.5,357.93)" d="M10,0A10,10 0 1,1 0,-10A10,10 0 0,1 10,0Z" style="opacity: 0.5; stroke-width: 0px; fill: rgb(51, 0, 255); fill-opacity: 1;"/><path class="point" transform="translate(50.5,263.15)" d="M10,0A10,10 0 1,1 0,-10A10,10 0 0,1 10,0Z" style="opacity: 0.5; stroke-width: 0px; fill: rgb(51, 0, 255); fill-opacity: 1;"/><path class="point" transform="translate(160.33,348.56)" d="M10,0A10,10 0 1,1 0,-10A10,10 0 0,1 10,0Z" style="opacity: 0.5; stroke-width: 0px; fill: rgb(51, 0, 255); fill-opacity: 1;"/><path class="point" transform="translate(61.48,357.06)" d="M10,0A10,10 0 1,1 0,-10A10,10 0 0,1 10,0Z" style="opacity: 0.5; stroke-width: 0px; fill: rgb(51, 0, 255); fill-opacity: 1;"/><path class="point" transform="translate(160.33,366.5)" d="M10,0A10,10 0 1,1 0,-10A10,10 0 0,1 10,0Z" style="opacity: 0.5; stroke-width: 0px; fill: rgb(51, 0, 255); fill-opacity: 1;"/><path class="point" transform="translate(50.5,368.32)" d="M10,0A10,10 0 1,1 0,-10A10,10 0 0,1 10,0Z" style="opacity: 0.5; stroke-width: 0px; fill: rgb(51, 0, 255); fill-opacity: 1;"/><path class="point" transform="translate(160.33,276.65)" d="M10,0A10,10 0 1,1 0,-10A10,10 0 0,1 10,0Z" style="opacity: 0.5; stroke-width: 0px; fill: rgb(51, 0, 255); fill-opacity: 1;"/></g><g class="text"/></g><g class="trace scatter traceb6ed40" style="stroke-miterlimit: 2; opacity: 1;"><g class="fills"/><g class="errorbars"/><g class="lines"/><g class="points"><path class="point" transform="translate(50.5,341.01)" d="M10,10H-10V-10H10Z" style="opacity: 0.5; stroke-width: 0px; fill: rgb(44, 160, 44); fill-opacity: 1;"/><path class="point" transform="translate(50.5,246.57)" d="M10,10H-10V-10H10Z" style="opacity: 0.5; stroke-width: 0px; fill: rgb(44, 160, 44); fill-opacity: 1;"/><path class="point" transform="translate(61.48,337.12)" d="M10,10H-10V-10H10Z" style="opacity: 0.5; stroke-width: 0px; fill: rgb(44, 160, 44); fill-opacity: 1;"/><path class="point" transform="translate(61.48,271.2)" d="M10,10H-10V-10H10Z" style="opacity: 0.5; stroke-width: 0px; fill: rgb(44, 160, 44); fill-opacity: 1;"/><path class="point" transform="translate(160.33,320.46)" d="M10,10H-10V-10H10Z" style="opacity: 0.5; stroke-width: 0px; fill: rgb(44, 160, 44); fill-opacity: 1;"/><path class="point" transform="translate(50.5,246.04)" d="M10,10H-10V-10H10Z" style="opacity: 0.5; stroke-width: 0px; fill: rgb(44, 160, 44); fill-opacity: 1;"/><path class="point" transform="translate(61.48,327.96)" d="M10,10H-10V-10H10Z" style="opacity: 0.5; stroke-width: 0px; fill: rgb(44, 160, 44); fill-opacity: 1;"/><path class="point" transform="translate(61.48,255.63)" d="M10,10H-10V-10H10Z" style="opacity: 0.5; stroke-width: 0px; fill: rgb(44, 160, 44); fill-opacity: 1;"/><path class="point" transform="translate(270.17,235.35)" d="M10,10H-10V-10H10Z" style="opacity: 0.5; stroke-width: 0px; fill: rgb(44, 160, 44); fill-opacity: 1;"/><path class="point" transform="translate(50.5,284.09)" d="M10,10H-10V-10H10Z" style="opacity: 0.5; stroke-width: 0px; fill: rgb(44, 160, 44); fill-opacity: 1;"/><path class="point" transform="translate(61.48,345.07)" d="M10,10H-10V-10H10Z" style="opacity: 0.5; stroke-width: 0px; fill: rgb(44, 160, 44); fill-opacity: 1;"/><path class="point" transform="translate(61.48,283.75)" d="M10,10H-10V-10H10Z" style="opacity: 0.5; stroke-width: 0px; fill: rgb(44, 160, 44); fill-opacity: 1;"/><path class="point" transform="translate(160.33,344.6)" d="M10,10H-10V-10H10Z" style="opacity: 0.5; stroke-width: 0px; fill: rgb(44, 160, 44); fill-opacity: 1;"/><path class="point" transform="translate(50.5,343.61)" d="M10,10H-10V-10H10Z" style="opacity: 0.5; stroke-width: 0px; fill: rgb(44, 160, 44); fill-opacity: 1;"/><path class="point" transform="translate(61.48,294.61)" d="M10,10H-10V-10H10Z" style="opacity: 0.5; stroke-width: 0px; fill: rgb(44, 160, 44); fill-opacity: 1;"/><path class="point" transform="translate(50.5,338.58)" d="M10,10H-10V-10H10Z" style="opacity: 0.5; stroke-width: 0px; fill: rgb(44, 160, 44); fill-opacity: 1;"/><path class="point" transform="translate(50.5,283.05)" d="M10,10H-10V-10H10Z" style="opacity: 0.5; stroke-width: 0px; fill: rgb(44, 160, 44); fill-opacity: 1;"/><path class="point" transform="translate(61.48,341.95)" d="M10,10H-10V-10H10Z" style="opacity: 0.5; stroke-width: 0px; fill: rgb(44, 160, 44); fill-opacity: 1;"/><path class="point" transform="translate(160.33,341.33)" d="M10,10H-10V-10H10Z" style="opacity: 0.5; stroke-width: 0px; fill: rgb(44, 160, 44); fill-opacity: 1;"/><path class="point" transform="translate(50.5,332.29)" d="M10,10H-10V-10H10Z" style="opacity: 0.5; stroke-width: 0px; fill: rgb(44, 160, 44); fill-opacity: 1;"/></g><g class="text"/></g></g></g><g class="overplot"/><path class="xlines-above crisp" d="M0,0" style="fill: none;"/><path class="ylines-above crisp" d="M0,0" style="fill: none;"/><g class="overlines-above"/><g class="xaxislayer-above"><g class="xtick"><text text-anchor="middle" x="0" y="500" transform="translate(130.5,0)" style="font-family: CMU; font-size: 30px; fill: rgb(42, 63, 95); fill-opacity: 1; white-space: pre; opacity: 1;">0</text></g><g class="xtick"><text text-anchor="middle" x="0" y="500" style="font-family: CMU; font-size: 30px; fill: rgb(42, 63, 95); fill-opacity: 1; white-space: pre; opacity: 1;" transform="translate(240.33,0)">0.1</text></g><g class="xtick"><text text-anchor="middle" x="0" y="500" style="font-family: CMU; font-size: 30px; fill: rgb(42, 63, 95); fill-opacity: 1; white-space: pre; opacity: 1;" transform="translate(350.17,0)">0.2</text></g><g class="xtick"><text text-anchor="middle" x="0" y="500" style="font-family: CMU; font-size: 30px; fill: rgb(42, 63, 95); fill-opacity: 1; white-space: pre; opacity: 1;" transform="translate(460,0)">0.3</text></g><g class="xtick"><text text-anchor="middle" x="0" y="500" style="font-family: CMU; font-size: 30px; fill: rgb(42, 63, 95); fill-opacity: 1; white-space: pre; opacity: 1;" transform="translate(569.8299999999999,0)">0.4</text></g><g class="xtick"><text text-anchor="middle" x="0" y="500" style="font-family: CMU; font-size: 30px; fill: rgb(42, 63, 95); fill-opacity: 1; white-space: pre; opacity: 1;" transform="translate(679.67,0)">0.5</text></g><g class="xtick"><text text-anchor="middle" x="0" y="500" style="font-family: CMU; font-size: 30px; fill: rgb(42, 63, 95); fill-opacity: 1; white-space: pre; opacity: 1;" transform="translate(789.5,0)">0.6</text></g></g><g class="yaxislayer-above"><g class="ytick"><text text-anchor="end" x="79" y="10.5" transform="translate(0,443.17)" style="font-family: CMU; font-size: 30px; fill: rgb(42, 63, 95); fill-opacity: 1; white-space: pre; opacity: 1;">0</text></g><g class="ytick"><text text-anchor="end" x="79" y="10.5" style="font-family: CMU; font-size: 30px; fill: rgb(42, 63, 95); fill-opacity: 1; white-space: pre; opacity: 1;" transform="translate(0,372.75)">2</text></g><g class="ytick"><text text-anchor="end" x="79" y="10.5" style="font-family: CMU; font-size: 30px; fill: rgb(42, 63, 95); fill-opacity: 1; white-space: pre; opacity: 1;" transform="translate(0,302.34000000000003)">4</text></g><g class="ytick"><text text-anchor="end" x="79" y="10.5" style="font-family: CMU; font-size: 30px; fill: rgb(42, 63, 95); fill-opacity: 1; white-space: pre; opacity: 1;" transform="translate(0,231.92)">6</text></g><g class="ytick"><text text-anchor="end" x="79" y="10.5" style="font-family: CMU; font-size: 30px; fill: rgb(42, 63, 95); fill-opacity: 1; white-space: pre; opacity: 1;" transform="translate(0,161.51)">8</text></g><g class="ytick"><text text-anchor="end" x="79" y="10.5" style="font-family: CMU; font-size: 30px; fill: rgb(42, 63, 95); fill-opacity: 1; white-space: pre; opacity: 1;" transform="translate(0,91.09)">10</text></g></g><g class="overaxes-above"/></g></g><g class="polarlayer"/><g class="smithlayer"/><g class="ternarylayer"/><g class="geolayer"/><g class="funnelarealayer"/><g class="pielayer"/><g class="iciclelayer"/><g class="treemaplayer"/><g class="sunburstlayer"/><g class="glimages"/><defs id="topdefs-3a2832"><g class="clips"/><clipPath id="legend3a2832"><rect width="303" height="183" x="0" y="0"/></clipPath></defs><g class="layer-above"><g class="imagelayer"/><g class="shapelayer"/></g><g class="infolayer"><g class="legend" pointer-events="all" transform="translate(855.2,60)"><rect class="bg" shape-rendering="crispEdges" width="303" height="183" x="0" y="0" style="stroke: rgb(68, 68, 68); stroke-opacity: 1; fill: rgb(255, 255, 255); fill-opacity: 1; stroke-width: 0px;"/><g class="scrollbox" transform="" clip-path="url(#legend3a2832)"><text class="legendtitletext" text-anchor="start" x="2" y="46.800000000000004" style="font-family: CMU; font-size: 36px; fill: rgb(42, 63, 95); fill-opacity: 1; white-space: pre;">Estimator, Estimator</text><g class="groups" transform=""><g class="traces" transform="translate(0,72.80000000000001)" style="opacity: 1;"><text class="legendtext" text-anchor="start" x="40" y="11.7" style="font-family: CMU; font-size: 30px; fill: rgb(42, 63, 95); fill-opacity: 1; white-space: pre;">Lin2015, Lin2015</text><g class="layers" style="opacity: 1;"><g class="legendfill"/><g class="legendlines"/><g class="legendsymbols"><g class="legendpoints"><path class="scatterpts" transform="translate(20,0)" d="M0,0L16,-8V8Z" style="opacity: 0.5; stroke-width: 0px; fill: rgb(255, 20, 147); fill-opacity: 1;"/></g></g></g><rect class="legendtoggle" x="0" y="-21" width="258.328125" height="42" style="fill: rgb(0, 0, 0); fill-opacity: 0;"/></g></g><g class="groups" transform=""><g class="traces" transform="translate(0,114.80000000000001)" style="opacity: 1;"><text class="legendtext" text-anchor="start" x="40" y="11.7" style="font-family: CMU; font-size: 30px; fill: rgb(42, 63, 95); fill-opacity: 1; white-space: pre;">LR, LR</text><g class="layers" style="opacity: 1;"><g class="legendfill"/><g class="legendlines"/><g class="legendsymbols"><g class="legendpoints"><path class="scatterpts" transform="translate(20,0)" d="M8,0A8,8 0 1,1 0,-8A8,8 0 0,1 8,0Z" style="opacity: 0.5; stroke-width: 0px; fill: rgb(51, 0, 255); fill-opacity: 1;"/></g></g></g><rect class="legendtoggle" x="0" y="-21" width="258.328125" height="42" style="fill: rgb(0, 0, 0); fill-opacity: 0;"/></g></g><g class="groups" transform=""><g class="traces" transform="translate(0,156.8)" style="opacity: 1;"><text class="legendtext" text-anchor="start" x="40" y="11.7" style="font-family: CMU; font-size: 30px; fill: rgb(42, 63, 95); fill-opacity: 1; white-space: pre;">LLS, LLS</text><g class="layers" style="opacity: 1;"><g class="legendfill"/><g class="legendlines"/><g class="legendsymbols"><g class="legendpoints"><path class="scatterpts" transform="translate(20,0)" d="M8,8H-8V-8H8Z" style="opacity: 0.5; stroke-width: 0px; fill: rgb(44, 160, 44); fill-opacity: 1;"/></g></g></g><rect class="legendtoggle" x="0" y="-21" width="258.328125" height="42" style="fill: rgb(0, 0, 0); fill-opacity: 0;"/></g></g></g><rect class="scrollbar" rx="20" ry="3" width="0" height="0" x="0" y="0" style="fill: rgb(128, 139, 164); fill-opacity: 1;"/></g><g class="g-gtitle"><text class="gtitle" x="58.5" y="30" text-anchor="start" dy="0em" style="font-family: CMU; font-size: 30px; fill: rgb(42, 63, 95); opacity: 1; font-weight: normal; white-space: pre;">model_2 rmsd_geodesic hyperboloid</text></g><g class="g-xtitle"><text class="xtitle" x="460" y="542" text-anchor="middle" style="font-family: CMU; font-size: 30px; fill: rgb(42, 63, 95); opacity: 1; font-weight: normal; white-space: pre;">Noise Factor</text></g><g class="g-ytitle" transform="translate(13,0)"><text class="ytitle" transform="rotate(-90,13.5,264.5)" x="13.5" y="264.5" text-anchor="middle" style="font-family: CMU; font-size: 30px; fill: rgb(42, 63, 95); opacity: 1; font-weight: normal; white-space: pre;">RMSD, geod dist</text></g></g></svg>