<svg class="main-svg" xmlns="http://www.w3.org/2000/svg" xmlns:xlink="http://www.w3.org/1999/xlink" width="900" height="370" style="" viewBox="0 0 900 370"><rect x="0" y="0" width="900" height="370" style="fill: rgb(255, 255, 255); fill-opacity: 1;"/><defs id="defs-4e0518"><g class="clips"><clipPath id="clip4e0518xyplot" class="plotclip"><rect width="99.72222222222223" height="190"/></clipPath><clipPath id="clip4e0518x2y2plot" class="plotclip"><rect width="99.72222222222223" height="190"/></clipPath><clipPath id="clip4e0518x3y3plot" class="plotclip"><rect width="99.72222222222223" height="190"/></clipPath><clipPath id="clip4e0518x4y4plot" class="plotclip"><rect width="99.72222222222227" height="190"/></clipPath><clipPath id="clip4e0518x5y5plot" class="plotclip"><rect width="99.72222222222219" height="190"/></clipPath><clipPath id="clip4e0518x6y6plot" class="plotclip"><rect width="99.72222222222227" height="190"/></clipPath><clipPath class="axesclip" id="clip4e0518x"><rect x="80" y="0" width="99.72222222222223" height="370"/></clipPath><clipPath class="axesclip" id="clip4e0518y"><rect x="0" y="100" width="900" height="190"/></clipPath><clipPath class="axesclip" id="clip4e0518xy"><rect x="80" y="100" width="99.72222222222223" height="190"/></clipPath><clipPath class="axesclip" id="clip4e0518y2"><rect x="0" y="100" width="900" height="190"/></clipPath><clipPath class="axesclip" id="clip4e0518xy2"><rect x="80" y="100" width="99.72222222222223" height="190"/></clipPath><clipPath class="axesclip" id="clip4e0518y3"><rect x="0" y="100" width="900" height="190"/></clipPath><clipPath class="axesclip" id="clip4e0518xy3"><rect x="80" y="100" width="99.72222222222223" height="190"/></clipPath><clipPath class="axesclip" id="clip4e0518y4"><rect x="0" y="100" width="900" height="190"/></clipPath><clipPath class="axesclip" id="clip4e0518xy4"><rect x="80" y="100" width="99.72222222222223" height="190"/></clipPath><clipPath class="axesclip" id="clip4e0518y5"><rect x="0" y="100" width="900" height="190"/></clipPath><clipPath class="axesclip" id="clip4e0518xy5"><rect x="80" y="100" width="99.72222222222223" height="190"/></clipPath><clipPath class="axesclip" id="clip4e0518y6"><rect x="0" y="100" width="900" height="190"/></clipPath><clipPath class="axesclip" id="clip4e0518xy6"><rect x="80" y="100" width="99.72222222222223" height="190"/></clipPath><clipPath class="axesclip" id="clip4e0518x2"><rect x="203.65555555555557" y="0" width="99.72222222222223" height="370"/></clipPath><clipPath class="axesclip" id="clip4e0518x2y"><rect x="203.65555555555557" y="100" width="99.72222222222223" height="190"/></clipPath><clipPath class="axesclip" id="clip4e0518x2y2"><rect x="203.65555555555557" y="100" width="99.72222222222223" height="190"/></clipPath><clipPath class="axesclip" id="clip4e0518x2y3"><rect x="203.65555555555557" y="100" width="99.72222222222223" height="190"/></clipPath><clipPath class="axesclip" id="clip4e0518x2y4"><rect x="203.65555555555557" y="100" width="99.72222222222223" height="190"/></clipPath><clipPath class="axesclip" id="clip4e0518x2y5"><rect x="203.65555555555557" y="100" width="99.72222222222223" height="190"/></clipPath><clipPath class="axesclip" id="clip4e0518x2y6"><rect x="203.65555555555557" y="100" width="99.72222222222223" height="190"/></clipPath><clipPath class="axesclip" id="clip4e0518x3"><rect x="327.31111111111113" y="0" width="99.72222222222223" height="370"/></clipPath><clipPath class="axesclip" id="clip4e0518x3y"><rect x="327.31111111111113" y="100" width="99.72222222222223" height="190"/></clipPath><clipPath class="axesclip" id="clip4e0518x3y2"><rect x="327.31111111111113" y="100" width="99.72222222222223" height="190"/></clipPath><clipPath class="axesclip" id="clip4e0518x3y3"><rect x="327.31111111111113" y="100" width="99.72222222222223" height="190"/></clipPath><clipPath class="axesclip" id="clip4e0518x3y4"><rect x="327.31111111111113" y="100" width="99.72222222222223" height="190"/></clipPath><clipPath class="axesclip" id="clip4e0518x3y5"><rect x="327.31111111111113" y="100" width="99.72222222222223" height="190"/></clipPath><clipPath class="axesclip" id="clip4e0518x3y6"><rect x="327.31111111111113" y="100" width="99.72222222222223" height="190"/></clipPath><clipPath class="axesclip" id="clip4e0518x4"><rect x="450.9666666666667" y="0" width="99.72222222222227" height="370"/></clipPath><clipPath class="axesclip" id="clip4e0518x4y"><rect x="450.9666666666667" y="100" width="99.72222222222227" height="190"/></clipPath><clipPath class="axesclip" id="clip4e0518x4y2"><rect x="450.9666666666667" y="100" width="99.72222222222227" height="190"/></clipPath><clipPath class="axesclip" id="clip4e0518x4y3"><rect x="450.9666666666667" y="100" width="99.72222222222227" height="190"/></clipPath><clipPath class="axesclip" id="clip4e0518x4y4"><rect x="450.9666666666667" y="100" width="99.72222222222227" height="190"/></clipPath><clipPath class="axesclip" id="clip4e0518x4y5"><rect x="450.9666666666667" y="100" width="99.72222222222227" height="190"/></clipPath><clipPath class="axesclip" id="clip4e0518x4y6"><rect x="450.9666666666667" y="100" width="99.72222222222227" height="190"/></clipPath><clipPath class="axesclip" id="clip4e0518x5"><rect x="574.6222222222223" y="0" width="99.72222222222219" height="370"/></clipPath><clipPath class="axesclip" id="clip4e0518x5y"><rect x="574.6222222222223" y="100" width="99.72222222222219" height="190"/></clipPath><clipPath class="axesclip" id="clip4e0518x5y2"><rect x="574.6222222222223" y="100" width="99.72222222222219" height="190"/></clipPath><clipPath class="axesclip" id="clip4e0518x5y3"><rect x="574.6222222222223" y="100" width="99.72222222222219" height="190"/></clipPath><clipPath class="axesclip" id="clip4e0518x5y4"><rect x="574.6222222222223" y="100" width="99.72222222222219" height="190"/></clipPath><clipPath class="axesclip" id="clip4e0518x5y5"><rect x="574.6222222222223" y="100" width="99.72222222222219" height="190"/></clipPath><clipPath class="axesclip" id="clip4e0518x5y6"><rect x="574.6222222222223" y="100" width="99.72222222222219" height="190"/></clipPath><clipPath class="axesclip" id="clip4e0518x6"><rect x="698.2777777777777" y="0" width="99.72222222222227" height="370"/></clipPath><clipPath class="axesclip" id="clip4e0518x6y"><rect x="698.2777777777777" y="100" width="99.72222222222227" height="190"/></clipPath><clipPath class="axesclip" id="clip4e0518x6y2"><rect x="698.2777777777777" y="100" width="99.72222222222227" height="190"/></clipPath><clipPath class="axesclip" id="clip4e0518x6y3"><rect x="698.2777777777777" y="100" width="99.72222222222227" height="190"/></clipPath><clipPath class="axesclip" id="clip4e0518x6y4"><rect x="698.2777777777777" y="100" width="99.72222222222227" height="190"/></clipPath><clipPath class="axesclip" id="clip4e0518x6y5"><rect x="698.2777777777777" y="100" width="99.72222222222227" height="190"/></clipPath><clipPath class="axesclip" id="clip4e0518x6y6"><rect x="698.2777777777777" y="100" width="99.72222222222227" height="190"/></clipPath></g><g class="gradients"/><g class="patterns"/></defs><g class="bglayer"><rect class="bg" x="80" y="100" width="99.72222222222223" height="190" style="fill: rgb(229, 236, 246); fill-opacity: 1; stroke-width: 0;"/><rect class="bg" x="203.65555555555557" y="100" width="99.72222222222223" height="190" style="fill: rgb(229, 236, 246); fill-opacity: 1; stroke-width: 0;"/><rect class="bg" x="327.31111111111113" y="100" width="99.72222222222223" height="190" style="fill: rgb(229, 236, 246); fill-opacity: 1; stroke-width: 0;"/><rect class="bg" x="450.9666666666667" y="100" width="99.72222222222227" height="190" style="fill: rgb(229, 236, 246); fill-opacity: 1; stroke-width: 0;"/><rect class="bg" x="574.6222222222223" y="100" width="99.72222222222219" height="190" style="fill: rgb(229, 236, 246); fill-opacity: 1; stroke-width: 0;"/><rect class="bg" x="698.2777777777777" y="100" width="99.72222222222227" height="190" style="fill: rgb(229, 236, 246); fill-opacity: 1; stroke-width: 0;"/></g><g class="layer-below"><g class="imagelayer"/><g class="shapelayer"/></g><g class="cartesianlayer"><g class="subplot xy"><g class="layer-subplot"><g class="shapelayer"/><g class="imagelayer"/></g><g class="minor-gridlayer"><g class="x"/><g class="y"/></g><g class="gridlayer"><g class="x"/><g class="y"><path class="ygrid crisp" transform="translate(0,265.11)" d="M80,0h99.72222222222223" style="stroke: rgb(255, 255, 255); stroke-opacity: 1; stroke-width: 1px;"/><path class="ygrid crisp" transform="translate(0,226.36)" d="M80,0h99.72222222222223" style="stroke: rgb(255, 255, 255); stroke-opacity: 1; stroke-width: 1px;"/><path class="ygrid crisp" transform="translate(0,187.61)" d="M80,0h99.72222222222223" style="stroke: rgb(255, 255, 255); stroke-opacity: 1; stroke-width: 1px;"/><path class="ygrid crisp" transform="translate(0,148.86)" d="M80,0h99.72222222222223" style="stroke: rgb(255, 255, 255); stroke-opacity: 1; stroke-width: 1px;"/><path class="ygrid crisp" transform="translate(0,110.11)" d="M80,0h99.72222222222223" style="stroke: rgb(255, 255, 255); stroke-opacity: 1; stroke-width: 1px;"/></g></g><g class="zerolinelayer"/><path class="xlines-below"/><path class="ylines-below"/><g class="overlines-below"/><g class="xaxislayer-below"/><g class="yaxislayer-below"/><g class="overaxes-below"/><g class="plot" transform="translate(80,100)" clip-path="url(#clip4e0518xyplot)"><g class="boxlayer mlayer"><g class="trace boxes" style="opacity: 1;"><path class="box" d="M25.43,173.69H74.29M25.43,176.99H74.29V163.05H25.43ZM49.86,176.99V179.24M49.86,163.05V163.05M37.65,179.24H62.08M37.65,163.05H62.08" style="vector-effect: none; stroke-width: 2px; stroke: rgb(51, 0, 255); stroke-opacity: 1; fill: rgb(51, 0, 255); fill-opacity: 0.5;"/><g class="points"><path class="point" transform="translate(49.86,140.56)" d="M3,0A3,3 0 1,1 0,-3A3,3 0 0,1 3,0Z" style="opacity: 1; stroke-width: 0px; fill: rgb(51, 0, 255); fill-opacity: 1;"/><path class="point" transform="translate(49.86,139.08)" d="M3,0A3,3 0 1,1 0,-3A3,3 0 0,1 3,0Z" style="opacity: 1; stroke-width: 0px; fill: rgb(51, 0, 255); fill-opacity: 1;"/></g></g><g class="trace boxes" style="opacity: 1;"><path class="box" d="M25.43,178.13H74.29M25.43,179.13H74.29V172.92H25.43ZM49.86,179.13V180.16M49.86,172.92V172.92M37.65,180.16H62.08M37.65,172.92H62.08" style="vector-effect: none; stroke-width: 2px; stroke: rgb(255, 20, 147); stroke-opacity: 1; fill: rgb(255, 20, 147); fill-opacity: 0.5;"/><g class="points"><path class="point" transform="translate(49.86,161.88)" d="M3,0A3,3 0 1,1 0,-3A3,3 0 0,1 3,0Z" style="opacity: 1; stroke-width: 0px; fill: rgb(255, 20, 147); fill-opacity: 1;"/><path class="point" transform="translate(49.86,161.29)" d="M3,0A3,3 0 1,1 0,-3A3,3 0 0,1 3,0Z" style="opacity: 1; stroke-width: 0px; fill: rgb(255, 20, 147); fill-opacity: 1;"/></g></g></g></g><g class="overplot"/><path class="xlines-above crisp" d="M0,0" style="fill: none;"/><path class="ylines-above crisp" d="M0,0" style="fill: none;"/><g class="overlines-above"/><g class="xaxislayer-above"><g class="xtick"><text text-anchor="middle" x="0" y="303" transform="translate(129.86,0)" style="font-family: 'Open Sans', verdana, arial, sans-serif; font-size: 12px; fill: rgb(42, 63, 95); fill-opacity: 1; white-space: pre; opacity: 1;">0</text></g></g><g class="yaxislayer-above"><g class="ytick"><text text-anchor="end" x="79" y="4.199999999999999" transform="translate(0,265.11)" style="font-family: 'Open Sans', verdana, arial, sans-serif; font-size: 12px; fill: rgb(42, 63, 95); fill-opacity: 1; white-space: pre; opacity: 1;">0.1</text></g><g class="ytick"><text text-anchor="end" x="79" y="4.199999999999999" style="font-family: 'Open Sans', verdana, arial, sans-serif; font-size: 12px; fill: rgb(42, 63, 95); fill-opacity: 1; white-space: pre; opacity: 1;" transform="translate(0,226.36)">0.15</text></g><g class="ytick"><text text-anchor="end" x="79" y="4.199999999999999" style="font-family: 'Open Sans', verdana, arial, sans-serif; font-size: 12px; fill: rgb(42, 63, 95); fill-opacity: 1; white-space: pre; opacity: 1;" transform="translate(0,187.61)">0.2</text></g><g class="ytick"><text text-anchor="end" x="79" y="4.199999999999999" style="font-family: 'Open Sans', verdana, arial, sans-serif; font-size: 12px; fill: rgb(42, 63, 95); fill-opacity: 1; white-space: pre; opacity: 1;" transform="translate(0,148.86)">0.25</text></g><g class="ytick"><text text-anchor="end" x="79" y="4.199999999999999" style="font-family: 'Open Sans', verdana, arial, sans-serif; font-size: 12px; fill: rgb(42, 63, 95); fill-opacity: 1; white-space: pre; opacity: 1;" transform="translate(0,110.11)">0.3</text></g></g><g class="overaxes-above"/></g><g class="subplot x2y2"><g class="layer-subplot"><g class="shapelayer"/><g class="imagelayer"/></g><g class="minor-gridlayer"><g class="x2"/><g class="y2"/></g><g class="gridlayer"><g class="x2"/><g class="y2"><path class="y2grid crisp" transform="translate(0,265.11)" d="M203.65555555555557,0h99.72222222222223" style="stroke: rgb(255, 255, 255); stroke-opacity: 1; stroke-width: 1px;"/><path class="y2grid crisp" transform="translate(0,226.36)" d="M203.65555555555557,0h99.72222222222223" style="stroke: rgb(255, 255, 255); stroke-opacity: 1; stroke-width: 1px;"/><path class="y2grid crisp" transform="translate(0,187.61)" d="M203.65555555555557,0h99.72222222222223" style="stroke: rgb(255, 255, 255); stroke-opacity: 1; stroke-width: 1px;"/><path class="y2grid crisp" transform="translate(0,148.86)" d="M203.65555555555557,0h99.72222222222223" style="stroke: rgb(255, 255, 255); stroke-opacity: 1; stroke-width: 1px;"/><path class="y2grid crisp" transform="translate(0,110.11)" d="M203.65555555555557,0h99.72222222222223" style="stroke: rgb(255, 255, 255); stroke-opacity: 1; stroke-width: 1px;"/></g></g><g class="zerolinelayer"/><path class="xlines-below"/><path class="ylines-below"/><g class="overlines-below"/><g class="xaxislayer-below"/><g class="yaxislayer-below"/><g class="overaxes-below"/><g class="plot" transform="translate(203.65555555555557,100)" clip-path="url(#clip4e0518x2y2plot)"><g class="boxlayer mlayer"><g class="trace boxes" style="opacity: 1;"><path class="box" d="M25.43,173.69H74.29M25.43,176.99H74.29V163.04H25.43ZM49.86,176.99V179.23M49.86,163.04V163.04M37.65,179.23H62.08M37.65,163.04H62.08" style="vector-effect: none; stroke-width: 2px; stroke: rgb(51, 0, 255); stroke-opacity: 1; fill: rgb(51, 0, 255); fill-opacity: 0.5;"/><g class="points"><path class="point" transform="translate(49.86,140.57)" d="M3,0A3,3 0 1,1 0,-3A3,3 0 0,1 3,0Z" style="opacity: 1; stroke-width: 0px; fill: rgb(51, 0, 255); fill-opacity: 1;"/><path class="point" transform="translate(49.86,139.08)" d="M3,0A3,3 0 1,1 0,-3A3,3 0 0,1 3,0Z" style="opacity: 1; stroke-width: 0px; fill: rgb(51, 0, 255); fill-opacity: 1;"/></g></g><g class="trace boxes" style="opacity: 1;"><path class="box" d="M25.43,178.14H74.29M25.43,179.14H74.29V172.92H25.43ZM49.86,179.14V180.16M49.86,172.92V172.92M37.65,180.16H62.08M37.65,172.92H62.08" style="vector-effect: none; stroke-width: 2px; stroke: rgb(255, 20, 147); stroke-opacity: 1; fill: rgb(255, 20, 147); fill-opacity: 0.5;"/><g class="points"><path class="point" transform="translate(49.86,161.87)" d="M3,0A3,3 0 1,1 0,-3A3,3 0 0,1 3,0Z" style="opacity: 1; stroke-width: 0px; fill: rgb(255, 20, 147); fill-opacity: 1;"/><path class="point" transform="translate(49.86,161.28)" d="M3,0A3,3 0 1,1 0,-3A3,3 0 0,1 3,0Z" style="opacity: 1; stroke-width: 0px; fill: rgb(255, 20, 147); fill-opacity: 1;"/></g></g></g></g><g class="overplot"/><path class="xlines-above crisp" d="M0,0" style="fill: none;"/><path class="ylines-above crisp" d="M0,0" style="fill: none;"/><g class="overlines-above"/><g class="xaxislayer-above"><g class="x2tick"><text text-anchor="middle" x="0" y="303" transform="translate(253.51555555555558,0)" style="font-family: 'Open Sans', verdana, arial, sans-serif; font-size: 12px; fill: rgb(42, 63, 95); fill-opacity: 1; white-space: pre; opacity: 1;">0</text></g></g><g class="yaxislayer-above"/><g class="overaxes-above"/></g><g class="subplot x3y3"><g class="layer-subplot"><g class="shapelayer"/><g class="imagelayer"/></g><g class="minor-gridlayer"><g class="x3"/><g class="y3"/></g><g class="gridlayer"><g class="x3"/><g class="y3"><path class="y3grid crisp" transform="translate(0,265.11)" d="M327.31111111111113,0h99.72222222222223" style="stroke: rgb(255, 255, 255); stroke-opacity: 1; stroke-width: 1px;"/><path class="y3grid crisp" transform="translate(0,226.36)" d="M327.31111111111113,0h99.72222222222223" style="stroke: rgb(255, 255, 255); stroke-opacity: 1; stroke-width: 1px;"/><path class="y3grid crisp" transform="translate(0,187.61)" d="M327.31111111111113,0h99.72222222222223" style="stroke: rgb(255, 255, 255); stroke-opacity: 1; stroke-width: 1px;"/><path class="y3grid crisp" transform="translate(0,148.86)" d="M327.31111111111113,0h99.72222222222223" style="stroke: rgb(255, 255, 255); stroke-opacity: 1; stroke-width: 1px;"/><path class="y3grid crisp" transform="translate(0,110.11)" d="M327.31111111111113,0h99.72222222222223" style="stroke: rgb(255, 255, 255); stroke-opacity: 1; stroke-width: 1px;"/></g></g><g class="zerolinelayer"/><path class="xlines-below"/><path class="ylines-below"/><g class="overlines-below"/><g class="xaxislayer-below"/><g class="yaxislayer-below"/><g class="overaxes-below"/><g class="plot" transform="translate(327.31111111111113,100)" clip-path="url(#clip4e0518x3y3plot)"><g class="boxlayer mlayer"><g class="trace boxes" style="opacity: 1;"><path class="box" d="M25.43,173.59H74.29M25.43,176.99H74.29V162.85H25.43ZM49.86,176.99V179.31M49.86,162.85V162.85M37.65,179.31H62.08M37.65,162.85H62.08" style="vector-effect: none; stroke-width: 2px; stroke: rgb(51, 0, 255); stroke-opacity: 1; fill: rgb(51, 0, 255); fill-opacity: 0.5;"/><g class="points"><path class="point" transform="translate(49.86,140.84)" d="M3,0A3,3 0 1,1 0,-3A3,3 0 0,1 3,0Z" style="opacity: 1; stroke-width: 0px; fill: rgb(51, 0, 255); fill-opacity: 1;"/><path class="point" transform="translate(49.86,138.57)" d="M3,0A3,3 0 1,1 0,-3A3,3 0 0,1 3,0Z" style="opacity: 1; stroke-width: 0px; fill: rgb(51, 0, 255); fill-opacity: 1;"/></g></g><g class="trace boxes" style="opacity: 1;"><path class="box" d="M25.43,178.08H74.29M25.43,179.08H74.29V172.98H25.43ZM49.86,179.08V180.18M49.86,172.98V172.98M37.65,180.18H62.08M37.65,172.98H62.08" style="vector-effect: none; stroke-width: 2px; stroke: rgb(255, 20, 147); stroke-opacity: 1; fill: rgb(255, 20, 147); fill-opacity: 0.5;"/><g class="points"><path class="point" transform="translate(49.86,161.85)" d="M3,0A3,3 0 1,1 0,-3A3,3 0 0,1 3,0Z" style="opacity: 1; stroke-width: 0px; fill: rgb(255, 20, 147); fill-opacity: 1;"/><path class="point" transform="translate(49.86,161.09)" d="M3,0A3,3 0 1,1 0,-3A3,3 0 0,1 3,0Z" style="opacity: 1; stroke-width: 0px; fill: rgb(255, 20, 147); fill-opacity: 1;"/></g></g></g></g><g class="overplot"/><path class="xlines-above crisp" d="M0,0" style="fill: none;"/><path class="ylines-above crisp" d="M0,0" style="fill: none;"/><g class="overlines-above"/><g class="xaxislayer-above"><g class="x3tick"><text text-anchor="middle" x="0" y="303" transform="translate(377.17111111111114,0)" style="font-family: 'Open Sans', verdana, arial, sans-serif; font-size: 12px; fill: rgb(42, 63, 95); fill-opacity: 1; white-space: pre; opacity: 1;">0</text></g></g><g class="yaxislayer-above"/><g class="overaxes-above"/></g><g class="subplot x4y4"><g class="layer-subplot"><g class="shapelayer"/><g class="imagelayer"/></g><g class="minor-gridlayer"><g class="x4"/><g class="y4"/></g><g class="gridlayer"><g class="x4"/><g class="y4"><path class="y4grid crisp" transform="translate(0,265.11)" d="M450.9666666666667,0h99.72222222222227" style="stroke: rgb(255, 255, 255); stroke-opacity: 1; stroke-width: 1px;"/><path class="y4grid crisp" transform="translate(0,226.36)" d="M450.9666666666667,0h99.72222222222227" style="stroke: rgb(255, 255, 255); stroke-opacity: 1; stroke-width: 1px;"/><path class="y4grid crisp" transform="translate(0,187.61)" d="M450.9666666666667,0h99.72222222222227" style="stroke: rgb(255, 255, 255); stroke-opacity: 1; stroke-width: 1px;"/><path class="y4grid crisp" transform="translate(0,148.86)" d="M450.9666666666667,0h99.72222222222227" style="stroke: rgb(255, 255, 255); stroke-opacity: 1; stroke-width: 1px;"/><path class="y4grid crisp" transform="translate(0,110.11)" d="M450.9666666666667,0h99.72222222222227" style="stroke: rgb(255, 255, 255); stroke-opacity: 1; stroke-width: 1px;"/></g></g><g class="zerolinelayer"/><path class="xlines-below"/><path class="ylines-below"/><g class="overlines-below"/><g class="xaxislayer-below"/><g class="yaxislayer-below"/><g class="overaxes-below"/><g class="plot" transform="translate(450.9666666666667,100)" clip-path="url(#clip4e0518x4y4plot)"><g class="boxlayer mlayer"><g class="trace boxes" style="opacity: 1;"><path class="box" d="M25.43,172.62H74.29M25.43,177.57H74.29V161.53H25.43ZM49.86,177.57V179.89M49.86,161.53V138.79M37.65,179.89H62.08M37.65,138.79H62.08" style="vector-effect: none; stroke-width: 2px; stroke: rgb(51, 0, 255); stroke-opacity: 1; fill: rgb(51, 0, 255); fill-opacity: 0.5;"/><g class="points"><path class="point" transform="translate(49.86,134.8)" d="M3,0A3,3 0 1,1 0,-3A3,3 0 0,1 3,0Z" style="opacity: 1; stroke-width: 0px; fill: rgb(51, 0, 255); fill-opacity: 1;"/></g></g><g class="trace boxes" style="opacity: 1;"><path class="box" d="M25.43,177.99H74.29M25.43,179.98H74.29V172.36H25.43ZM49.86,179.98V180.5M49.86,172.36V161.9M37.65,180.5H62.08M37.65,161.9H62.08" style="vector-effect: none; stroke-width: 2px; stroke: rgb(255, 20, 147); stroke-opacity: 1; fill: rgb(255, 20, 147); fill-opacity: 0.5;"/><g class="points"/></g></g></g><g class="overplot"/><path class="xlines-above crisp" d="M0,0" style="fill: none;"/><path class="ylines-above crisp" d="M0,0" style="fill: none;"/><g class="overlines-above"/><g class="xaxislayer-above"><g class="x4tick"><text text-anchor="middle" x="0" y="303" transform="translate(500.8266666666667,0)" style="font-family: 'Open Sans', verdana, arial, sans-serif; font-size: 12px; fill: rgb(42, 63, 95); fill-opacity: 1; white-space: pre; opacity: 1;">0.01</text></g></g><g class="yaxislayer-above"/><g class="overaxes-above"/></g><g class="subplot x5y5"><g class="layer-subplot"><g class="shapelayer"/><g class="imagelayer"/></g><g class="minor-gridlayer"><g class="x5"/><g class="y5"/></g><g class="gridlayer"><g class="x5"/><g class="y5"><path class="y5grid crisp" transform="translate(0,265.11)" d="M574.6222222222223,0h99.72222222222219" style="stroke: rgb(255, 255, 255); stroke-opacity: 1; stroke-width: 1px;"/><path class="y5grid crisp" transform="translate(0,226.36)" d="M574.6222222222223,0h99.72222222222219" style="stroke: rgb(255, 255, 255); stroke-opacity: 1; stroke-width: 1px;"/><path class="y5grid crisp" transform="translate(0,187.61)" d="M574.6222222222223,0h99.72222222222219" style="stroke: rgb(255, 255, 255); stroke-opacity: 1; stroke-width: 1px;"/><path class="y5grid crisp" transform="translate(0,148.86)" d="M574.6222222222223,0h99.72222222222219" style="stroke: rgb(255, 255, 255); stroke-opacity: 1; stroke-width: 1px;"/><path class="y5grid crisp" transform="translate(0,110.11)" d="M574.6222222222223,0h99.72222222222219" style="stroke: rgb(255, 255, 255); stroke-opacity: 1; stroke-width: 1px;"/></g></g><g class="zerolinelayer"/><path class="xlines-below"/><path class="ylines-below"/><g class="overlines-below"/><g class="xaxislayer-below"/><g class="yaxislayer-below"/><g class="overaxes-below"/><g class="plot" transform="translate(574.6222222222223,100)" clip-path="url(#clip4e0518x5y5plot)"><g class="boxlayer mlayer"><g class="trace boxes" style="opacity: 1;"><path class="box" d="M25.43,157.28H74.29M25.43,164.5H74.29V138.83H25.43ZM49.86,164.5V177.82M49.86,138.83V108.78M37.65,177.82H62.08M37.65,108.78H62.08" style="vector-effect: none; stroke-width: 2px; stroke: rgb(51, 0, 255); stroke-opacity: 1; fill: rgb(51, 0, 255); fill-opacity: 0.5;"/><g class="points"/></g><g class="trace boxes" style="opacity: 1;"><path class="box" d="M25.43,164.09H74.29M25.43,168.14H74.29V160.4H25.43ZM49.86,168.14V169.69M49.86,160.4V156.34M37.65,169.69H62.08M37.65,156.34H62.08" style="vector-effect: none; stroke-width: 2px; stroke: rgb(255, 20, 147); stroke-opacity: 1; fill: rgb(255, 20, 147); fill-opacity: 0.5;"/><g class="points"><path class="point" transform="translate(49.86,144.62)" d="M3,0A3,3 0 1,1 0,-3A3,3 0 0,1 3,0Z" style="opacity: 1; stroke-width: 0px; fill: rgb(255, 20, 147); fill-opacity: 1;"/></g></g></g></g><g class="overplot"/><path class="xlines-above crisp" d="M0,0" style="fill: none;"/><path class="ylines-above crisp" d="M0,0" style="fill: none;"/><g class="overlines-above"/><g class="xaxislayer-above"><g class="x5tick"><text text-anchor="middle" x="0" y="303" transform="translate(624.4822222222223,0)" style="font-family: 'Open Sans', verdana, arial, sans-serif; font-size: 12px; fill: rgb(42, 63, 95); fill-opacity: 1; white-space: pre; opacity: 1;">0.1</text></g></g><g class="yaxislayer-above"/><g class="overaxes-above"/></g><g class="subplot x6y6"><g class="layer-subplot"><g class="shapelayer"/><g class="imagelayer"/></g><g class="minor-gridlayer"><g class="x6"/><g class="y6"/></g><g class="gridlayer"><g class="x6"/><g class="y6"><path class="y6grid crisp" transform="translate(0,265.11)" d="M698.2777777777777,0h99.72222222222227" style="stroke: rgb(255, 255, 255); stroke-opacity: 1; stroke-width: 1px;"/><path class="y6grid crisp" transform="translate(0,226.36)" d="M698.2777777777777,0h99.72222222222227" style="stroke: rgb(255, 255, 255); stroke-opacity: 1; stroke-width: 1px;"/><path class="y6grid crisp" transform="translate(0,187.61)" d="M698.2777777777777,0h99.72222222222227" style="stroke: rgb(255, 255, 255); stroke-opacity: 1; stroke-width: 1px;"/><path class="y6grid crisp" transform="translate(0,148.86)" d="M698.2777777777777,0h99.72222222222227" style="stroke: rgb(255, 255, 255); stroke-opacity: 1; stroke-width: 1px;"/><path class="y6grid crisp" transform="translate(0,110.11)" d="M698.2777777777777,0h99.72222222222227" style="stroke: rgb(255, 255, 255); stroke-opacity: 1; stroke-width: 1px;"/></g></g><g class="zerolinelayer"/><path class="xlines-below"/><path class="ylines-below"/><g class="overlines-below"/><g class="xaxislayer-below"/><g class="yaxislayer-below"/><g class="overaxes-below"/><g class="plot" transform="translate(698.2777777777777,100)" clip-path="url(#clip4e0518x6y6plot)"><g class="boxlayer mlayer"><g class="trace boxes" style="opacity: 1;"><path class="box" d="M25.43,120.66H74.29M25.43,130.26H74.29V102.02H25.43ZM49.86,130.26V159.68M49.86,102.02V97.96M37.65,159.68H62.08M37.65,97.96H62.08" style="vector-effect: none; stroke-width: 2px; stroke: rgb(51, 0, 255); stroke-opacity: 1; fill: rgb(51, 0, 255); fill-opacity: 0.5;"/><g class="points"/></g><g class="trace boxes" style="opacity: 1;"><path class="box" d="M25.43,133.77H74.29M25.43,134.77H74.29V127.8H25.43ZM49.86,134.77V138.21M49.86,127.8V118.43M37.65,138.21H62.08M37.65,118.43H62.08" style="vector-effect: none; stroke-width: 2px; stroke: rgb(255, 20, 147); stroke-opacity: 1; fill: rgb(255, 20, 147); fill-opacity: 0.5;"/><g class="points"><path class="point" transform="translate(49.86,145.3)" d="M3,0A3,3 0 1,1 0,-3A3,3 0 0,1 3,0Z" style="opacity: 1; stroke-width: 0px; fill: rgb(255, 20, 147); fill-opacity: 1;"/><path class="point" transform="translate(49.86,9.5)" d="M3,0A3,3 0 1,1 0,-3A3,3 0 0,1 3,0Z" style="opacity: 1; stroke-width: 0px; fill: rgb(255, 20, 147); fill-opacity: 1;"/></g></g></g></g><g class="overplot"/><path class="xlines-above crisp" d="M0,0" style="fill: none;"/><path class="ylines-above crisp" d="M0,0" style="fill: none;"/><g class="overlines-above"/><g class="xaxislayer-above"><g class="x6tick"><text text-anchor="middle" x="0" y="303" transform="translate(748.1377777777777,0)" style="font-family: 'Open Sans', verdana, arial, sans-serif; font-size: 12px; fill: rgb(42, 63, 95); fill-opacity: 1; white-space: pre; opacity: 1;">0.2</text></g></g><g class="yaxislayer-above"/><g class="overaxes-above"/></g></g><g class="polarlayer"/><g class="smithlayer"/><g class="ternarylayer"/><g class="geolayer"/><g class="funnelarealayer"/><g class="pielayer"/><g class="iciclelayer"/><g class="treemaplayer"/><g class="sunburstlayer"/><g class="glimages"/><defs id="topdefs-4e0518"><g class="clips"/><clipPath id="legend4e0518"><rect width="76" height="190" x="0" y="0"/></clipPath></defs><g class="layer-above"><g class="imagelayer"/><g class="shapelayer"/></g><g class="infolayer"><g class="legend" pointer-events="all" transform="translate(812.36,100)"><rect class="bg" shape-rendering="crispEdges" style="stroke: rgb(68, 68, 68); stroke-opacity: 1; fill: rgb(255, 255, 255); fill-opacity: 1; stroke-width: 0px;" width="76" height="190" x="0" y="0"/><g class="scrollbox" transform="" clip-path="url(#legend4e0518)"><g class="groups" transform=""><g class="traces" transform="translate(0,14.5)" style="opacity: 1;"><text class="legendtext" text-anchor="start" x="40" y="4.680000000000001" style="font-family: 'Open Sans', verdana, arial, sans-serif; font-size: 12px; fill: rgb(42, 63, 95); fill-opacity: 1; white-space: pre;">False</text><g class="layers" style="opacity: 1;"><g class="legendfill"/><g class="legendlines"/><g class="legendsymbols"><g class="legendpoints"><path class="legendbox" d="M6,6H-6V-6H6Z" transform="translate(20,0)" style="stroke-width: 2px; fill: rgb(51, 0, 255); fill-opacity: 0.5; stroke: rgb(51, 0, 255); stroke-opacity: 1;"/></g></g></g><rect class="legendtoggle" x="0" y="-9.5" width="70.796875" height="19" style="fill: rgb(0, 0, 0); fill-opacity: 0;"/></g><g class="traces" transform="translate(0,33.5)" style="opacity: 1;"><text class="legendtext" text-anchor="start" x="40" y="4.680000000000001" style="font-family: 'Open Sans', verdana, arial, sans-serif; font-size: 12px; fill: rgb(42, 63, 95); fill-opacity: 1; white-space: pre;">False</text><g class="layers" style="opacity: 1;"><g class="legendfill"/><g class="legendlines"/><g class="legendsymbols"><g class="legendpoints"><path class="legendbox" d="M6,6H-6V-6H6Z" transform="translate(20,0)" style="stroke-width: 2px; fill: rgb(51, 0, 255); fill-opacity: 0.5; stroke: rgb(51, 0, 255); stroke-opacity: 1;"/></g></g></g><rect class="legendtoggle" x="0" y="-9.5" width="70.796875" height="19" style="fill: rgb(0, 0, 0); fill-opacity: 0;"/></g><g class="traces" transform="translate(0,52.5)" style="opacity: 1;"><text class="legendtext" text-anchor="start" x="40" y="4.680000000000001" style="font-family: 'Open Sans', verdana, arial, sans-serif; font-size: 12px; fill: rgb(42, 63, 95); fill-opacity: 1; white-space: pre;">False</text><g class="layers" style="opacity: 1;"><g class="legendfill"/><g class="legendlines"/><g class="legendsymbols"><g class="legendpoints"><path class="legendbox" d="M6,6H-6V-6H6Z" transform="translate(20,0)" style="stroke-width: 2px; fill: rgb(51, 0, 255); fill-opacity: 0.5; stroke: rgb(51, 0, 255); stroke-opacity: 1;"/></g></g></g><rect class="legendtoggle" x="0" y="-9.5" width="70.796875" height="19" style="fill: rgb(0, 0, 0); fill-opacity: 0;"/></g><g class="traces" transform="translate(0,71.5)" style="opacity: 1;"><text class="legendtext" text-anchor="start" x="40" y="4.680000000000001" style="font-family: 'Open Sans', verdana, arial, sans-serif; font-size: 12px; fill: rgb(42, 63, 95); fill-opacity: 1; white-space: pre;">False</text><g class="layers" style="opacity: 1;"><g class="legendfill"/><g class="legendlines"/><g class="legendsymbols"><g class="legendpoints"><path class="legendbox" d="M6,6H-6V-6H6Z" transform="translate(20,0)" style="stroke-width: 2px; fill: rgb(51, 0, 255); fill-opacity: 0.5; stroke: rgb(51, 0, 255); stroke-opacity: 1;"/></g></g></g><rect class="legendtoggle" x="0" y="-9.5" width="70.796875" height="19" style="fill: rgb(0, 0, 0); fill-opacity: 0;"/></g><g class="traces" transform="translate(0,90.5)" style="opacity: 1;"><text class="legendtext" text-anchor="start" x="40" y="4.680000000000001" style="font-family: 'Open Sans', verdana, arial, sans-serif; font-size: 12px; fill: rgb(42, 63, 95); fill-opacity: 1; white-space: pre;">False</text><g class="layers" style="opacity: 1;"><g class="legendfill"/><g class="legendlines"/><g class="legendsymbols"><g class="legendpoints"><path class="legendbox" d="M6,6H-6V-6H6Z" transform="translate(20,0)" style="stroke-width: 2px; fill: rgb(51, 0, 255); fill-opacity: 0.5; stroke: rgb(51, 0, 255); stroke-opacity: 1;"/></g></g></g><rect class="legendtoggle" x="0" y="-9.5" width="70.796875" height="19" style="fill: rgb(0, 0, 0); fill-opacity: 0;"/></g><g class="traces" transform="translate(0,109.5)" style="opacity: 1;"><text class="legendtext" text-anchor="start" x="40" y="4.680000000000001" style="font-family: 'Open Sans', verdana, arial, sans-serif; font-size: 12px; fill: rgb(42, 63, 95); fill-opacity: 1; white-space: pre;">False</text><g class="layers" style="opacity: 1;"><g class="legendfill"/><g class="legendlines"/><g class="legendsymbols"><g class="legendpoints"><path class="legendbox" d="M6,6H-6V-6H6Z" transform="translate(20,0)" style="stroke-width: 2px; fill: rgb(51, 0, 255); fill-opacity: 0.5; stroke: rgb(51, 0, 255); stroke-opacity: 1;"/></g></g></g><rect class="legendtoggle" x="0" y="-9.5" width="70.796875" height="19" style="fill: rgb(0, 0, 0); fill-opacity: 0;"/></g></g><g class="groups" transform="translate(0,10)"><g class="traces" transform="translate(0,128.5)" style="opacity: 1;"><text class="legendtext" text-anchor="start" x="40" y="4.680000000000001" style="font-family: 'Open Sans', verdana, arial, sans-serif; font-size: 12px; fill: rgb(42, 63, 95); fill-opacity: 1; white-space: pre;">True</text><g class="layers" style="opacity: 1;"><g class="legendfill"/><g class="legendlines"/><g class="legendsymbols"><g class="legendpoints"><path class="legendbox" d="M6,6H-6V-6H6Z" transform="translate(20,0)" style="stroke-width: 2px; fill: rgb(255, 20, 147); fill-opacity: 0.5; stroke: rgb(255, 20, 147); stroke-opacity: 1;"/></g></g></g><rect class="legendtoggle" x="0" y="-9.5" width="70.796875" height="19" style="fill: rgb(0, 0, 0); fill-opacity: 0;"/></g><g class="traces" transform="translate(0,147.5)" style="opacity: 1;"><text class="legendtext" text-anchor="start" x="40" y="4.680000000000001" style="font-family: 'Open Sans', verdana, arial, sans-serif; font-size: 12px; fill: rgb(42, 63, 95); fill-opacity: 1; white-space: pre;">True</text><g class="layers" style="opacity: 1;"><g class="legendfill"/><g class="legendlines"/><g class="legendsymbols"><g class="legendpoints"><path class="legendbox" d="M6,6H-6V-6H6Z" transform="translate(20,0)" style="stroke-width: 2px; fill: rgb(255, 20, 147); fill-opacity: 0.5; stroke: rgb(255, 20, 147); stroke-opacity: 1;"/></g></g></g><rect class="legendtoggle" x="0" y="-9.5" width="70.796875" height="19" style="fill: rgb(0, 0, 0); fill-opacity: 0;"/></g><g class="traces" transform="translate(0,166.5)" style="opacity: 1;"><text class="legendtext" text-anchor="start" x="40" y="4.680000000000001" style="font-family: 'Open Sans', verdana, arial, sans-serif; font-size: 12px; fill: rgb(42, 63, 95); fill-opacity: 1; white-space: pre;">True</text><g class="layers" style="opacity: 1;"><g class="legendfill"/><g class="legendlines"/><g class="legendsymbols"><g class="legendpoints"><path class="legendbox" d="M6,6H-6V-6H6Z" transform="translate(20,0)" style="stroke-width: 2px; fill: rgb(255, 20, 147); fill-opacity: 0.5; stroke: rgb(255, 20, 147); stroke-opacity: 1;"/></g></g></g><rect class="legendtoggle" x="0" y="-9.5" width="70.796875" height="19" style="fill: rgb(0, 0, 0); fill-opacity: 0;"/></g><g class="traces" transform="translate(0,185.5)" style="opacity: 1;"><text class="legendtext" text-anchor="start" x="40" y="4.680000000000001" style="font-family: 'Open Sans', verdana, arial, sans-serif; font-size: 12px; fill: rgb(42, 63, 95); fill-opacity: 1; white-space: pre;">True</text><g class="layers" style="opacity: 1;"><g class="legendfill"/><g class="legendlines"/><g class="legendsymbols"><g class="legendpoints"><path class="legendbox" d="M6,6H-6V-6H6Z" transform="translate(20,0)" style="stroke-width: 2px; fill: rgb(255, 20, 147); fill-opacity: 0.5; stroke: rgb(255, 20, 147); stroke-opacity: 1;"/></g></g></g><rect class="legendtoggle" x="0" y="-9.5" width="70.796875" height="19" style="fill: rgb(0, 0, 0); fill-opacity: 0;"/></g><g class="traces" transform="translate(0,204.5)" style="opacity: 1;"><text class="legendtext" text-anchor="start" x="40" y="4.680000000000001" style="font-family: 'Open Sans', verdana, arial, sans-serif; font-size: 12px; fill: rgb(42, 63, 95); fill-opacity: 1; white-space: pre;">True</text><g class="layers" style="opacity: 1;"><g class="legendfill"/><g class="legendlines"/><g class="legendsymbols"><g class="legendpoints"><path class="legendbox" d="M6,6H-6V-6H6Z" transform="translate(20,0)" style="stroke-width: 2px; fill: rgb(255, 20, 147); fill-opacity: 0.5; stroke: rgb(255, 20, 147); stroke-opacity: 1;"/></g></g></g><rect class="legendtoggle" x="0" y="-9.5" width="70.796875" height="19" style="fill: rgb(0, 0, 0); fill-opacity: 0;"/></g><g class="traces" transform="translate(0,223.5)" style="opacity: 1;"><text class="legendtext" text-anchor="start" x="40" y="4.680000000000001" style="font-family: 'Open Sans', verdana, arial, sans-serif; font-size: 12px; fill: rgb(42, 63, 95); fill-opacity: 1; white-space: pre;">True</text><g class="layers" style="opacity: 1;"><g class="legendfill"/><g class="legendlines"/><g class="legendsymbols"><g class="legendpoints"><path class="legendbox" d="M6,6H-6V-6H6Z" transform="translate(20,0)" style="stroke-width: 2px; fill: rgb(255, 20, 147); fill-opacity: 0.5; stroke: rgb(255, 20, 147); stroke-opacity: 1;"/></g></g></g><rect class="legendtoggle" x="0" y="-9.5" width="70.796875" height="19" style="fill: rgb(0, 0, 0); fill-opacity: 0;"/></g></g></g><rect class="scrollbar" rx="20" ry="3" width="0" height="0" style="fill: rgb(128, 139, 164); fill-opacity: 1;" x="0" y="0"/></g><g class="g-gtitle"><text class="gtitle" x="45" y="50" text-anchor="start" dy="0em" style="font-family: 'Open Sans', verdana, arial, sans-serif; font-size: 17px; fill: rgb(42, 63, 95); opacity: 1; font-weight: normal; white-space: pre;">2D hyperboloid, GRGR-Loss vs GRLR-Loss, linear noise, projected = False</text></g><g class="g-xtitle"><text class="xtitle" x="129.86111111111111" y="329.8" text-anchor="middle" style="font-family: 'Open Sans', verdana, arial, sans-serif; font-size: 14px; fill: rgb(42, 63, 95); opacity: 1; font-weight: normal; white-space: pre;">Noise Factor</text></g><g class="g-x2title"><text class="x2title" x="253.51666666666668" y="329.8" text-anchor="middle" style="font-family: 'Open Sans', verdana, arial, sans-serif; font-size: 14px; fill: rgb(42, 63, 95); opacity: 1; font-weight: normal; white-space: pre;">Noise Factor</text></g><g class="g-x3title"><text class="x3title" x="377.1722222222222" y="329.8" text-anchor="middle" style="font-family: 'Open Sans', verdana, arial, sans-serif; font-size: 14px; fill: rgb(42, 63, 95); opacity: 1; font-weight: normal; white-space: pre;">Noise Factor</text></g><g class="g-x4title"><text class="x4title" x="500.82777777777784" y="329.8" text-anchor="middle" style="font-family: 'Open Sans', verdana, arial, sans-serif; font-size: 14px; fill: rgb(42, 63, 95); opacity: 1; font-weight: normal; white-space: pre;">Noise Factor</text></g><g class="g-x5title"><text class="x5title" x="624.4833333333333" y="329.8" text-anchor="middle" style="font-family: 'Open Sans', verdana, arial, sans-serif; font-size: 14px; fill: rgb(42, 63, 95); opacity: 1; font-weight: normal; white-space: pre;">Noise Factor</text></g><g class="g-x6title"><text class="x6title" x="748.1388888888888" y="329.8" text-anchor="middle" style="font-family: 'Open Sans', verdana, arial, sans-serif; font-size: 14px; fill: rgb(42, 63, 95); opacity: 1; font-weight: normal; white-space: pre;">Noise Factor</text></g><g class="g-ytitle"><text class="ytitle" transform="rotate(-90,27.434375000000003,195)" x="27.434375000000003" y="195" text-anchor="middle" style="font-family: 'Open Sans', verdana, arial, sans-serif; font-size: 14px; fill: rgb(42, 63, 95); opacity: 1; font-weight: normal; white-space: pre;">NRMSD</text></g><g class="g-y2title"/><g class="g-y3title"/><g class="g-y4title"/><g class="g-y5title"/><g class="g-y6title"/></g></svg>