<?xml version="1.0" encoding="utf-8"?>
<!-- Generator: Adobe Illustrator 26.4.1, SVG Export Plug-In . SVG Version: 6.00 Build 0)  -->
<svg version="1.1" id="Layer_1" xmlns="http://www.w3.org/2000/svg" xmlns:xlink="http://www.w3.org/1999/xlink" x="0px" y="0px"
	 viewBox="0 0 900 370" style="enable-background:new 0 0 900 370;" xml:space="preserve">
<style type="text/css">
	.st0{fill:#E5ECF6;}
	.st1{stroke:#FFFFFF;}
	.st2{stroke:#FFFFFF;stroke-width:2;}
	.st3{clip-path:url(#SVGID_00000085224513576471004950000016110709686048903314_);}
	.st4{fill:#90EE90;fill-opacity:0.5;stroke:#90EE90;stroke-width:2;}
	.st5{fill:#3300FF;fill-opacity:0.5;stroke:#3300FF;stroke-width:2;}
	.st6{fill:none;}
	.st7{fill:#2A3F5F;}
	.st8{font-family:'Verdana';}
	.st9{font-size:12px;}
	.st10{enable-background:new    ;}
	.st11{font-size:17px;}
	.st12{font-size:14px;}
</style>
<rect x="80" y="100" class="st0" width="152.6" height="190"/>
<rect x="460.3" y="100" class="st0" width="152.6" height="190"/>
<rect x="268.5" y="101" class="st0" width="152.6" height="190"/>
<rect x="645.4" y="100" class="st0" width="152.6" height="190"/>
<g>
	<g>
		<g>
			<path class="st1" d="M80,233.6h152.6"/>
			<path class="st1" d="M80,186.8h152.6"/>
			<path class="st1" d="M80,139.9h152.6"/>
		</g>
	</g>
	<g>
		<path class="st2" d="M80,280.5h152.6"/>
	</g>
	<path class="st2" d="M0,0"/>
	<path class="st2" d="M0,0"/>
	<g>
		<defs>
			<rect id="SVGID_1_" x="80" y="100" width="152.6" height="190"/>
		</defs>
		<clipPath id="SVGID_00000168085098213680565490000011014441787553378444_">
			<use xlink:href="#SVGID_1_"  style="overflow:visible;"/>
		</clipPath>
		<g transform="translate(80,100)" style="clip-path:url(#SVGID_00000168085098213680565490000011014441787553378444_);">
			<g>
				<g>
					<path class="st4" d="M38.9,9.5h74.8 M38.9,9.5h74.8l0,0H38.9z M76.3,9.5L76.3,9.5 M76.3,9.5L76.3,9.5 M57.6,9.5H95 M57.6,9.5
						H95"/>
				</g>
				<g>
					<path class="st5" d="M38.9,27.7h74.8 M38.9,27.7h74.8l0,0H38.9z M76.3,27.7L76.3,27.7 M76.3,27.7L76.3,27.7 M57.6,27.7H95
						 M57.6,27.7H95"/>
				</g>
			</g>
		</g>
	</g>
	<path class="st6" d="M0,0"/>
	<path class="st6" d="M0,0"/>
	<g>
		<g>
			<text transform="matrix(1 0 0 1 146.4785 303)" class="st7 st8 st9">0.2</text>
		</g>
	</g>
	<g>
		<g>
			<text transform="matrix(1 0 0 1 71.3711 284.7)" class="st7 st8 st9">0</text>
		</g>
		<g>
			<text transform="matrix(1 0 0 1 51.748 237.85)" class="st7 st8 st9">0.01</text>
		</g>
		<g>
			<text transform="matrix(1 0 0 1 51.748 191)" class="st7 st8 st9">0.02</text>
		</g>
		<g>
			<text transform="matrix(1 0 0 1 51.748 144.15)" class="st7 st8 st9">0.03</text>
		</g>
	</g>
</g>
<g>
	<g>
		<path class="st1" d="M460.3,233.6h152.6"/>
		<path class="st1" d="M460.3,186.8h152.6"/>
		<path class="st1" d="M460.3,139.9h152.6"/>
	</g>
</g>
<g>
	<path class="st2" d="M460.3,280.5h152.6"/>
</g>
<path class="st2" d="M0,0"/>
<path class="st2" d="M0,0"/>
<rect x="460.3" y="100" class="st6" width="152.6" height="190"/>
<rect x="499.2" y="250.5" class="st5" width="74.8" height="16.2"/>
<line class="st5" x1="536.6" y1="250.5" x2="536.6" y2="239.4"/>
<line class="st5" x1="499.2" y1="264.2" x2="574" y2="264.2"/>
<line class="st5" x1="517.9" y1="266.7" x2="555.3" y2="266.7"/>
<g>
	<line class="st4" x1="499.2" y1="261.7" x2="574" y2="261.7"/>
	<rect x="499.2" y="244.9" class="st4" width="74.8" height="20.5"/>
	<line class="st4" x1="536.6" y1="265.5" x2="536.6" y2="266.7"/>
	<line class="st4" x1="536.6" y1="244.9" x2="536.6" y2="239.4"/>
	<line class="st4" x1="517.9" y1="266.7" x2="555.3" y2="266.7"/>
	<line class="st4" x1="517.9" y1="239.4" x2="555.3" y2="239.4"/>
</g>
<line class="st5" x1="536.6" y1="266.7" x2="536.6" y2="266.7"/>
<line class="st5" x1="517.9" y1="239.4" x2="555.3" y2="239.4"/>
<path class="st6" d="M0,0"/>
<path class="st6" d="M0,0"/>
<g>
	<g>
		<text transform="matrix(1 0 0 1 522.9559 303)" class="st7 st8 st9">0.01</text>
	</g>
</g>
<g>
	<g>
		<path class="st1" d="M268.5,234.6h152.6"/>
		<path class="st1" d="M268.5,187.8h152.6"/>
		<path class="st1" d="M268.5,140.9h152.6"/>
	</g>
</g>
<g>
	<path class="st2" d="M268.5,281.5h152.6"/>
</g>
<path class="st2" d="M0,0"/>
<path class="st2" d="M0,0"/>
<rect x="268.5" y="101" class="st6" width="152.6" height="190"/>
<path class="st5" d="M307.4,177.3h74.8 M307.4,218.2h74.8v-50.6h-74.8V218.2z M344.8,218.2v13.6 M344.8,167.6v-3.2 M326.1,231.8
	h37.4 M326.1,164.3h37.4"/>
<path class="st4" d="M307.4,177.3h74.8 M307.4,218.7h74.8v-52.8h-74.8V218.7z M344.8,218.7v13.8 M344.8,165.9v-3.8 M326.1,232.5
	h37.4 M326.1,162.1h37.4"/>
<path class="st6" d="M0,0"/>
<path class="st6" d="M0,0"/>
<g>
	<g>
		<text transform="matrix(1 0 0 1 334.9534 304)" class="st7 st8 st9">0.1</text>
	</g>
</g>
<g>
	<g>
		<path class="st1" d="M645.4,233.6H798"/>
		<path class="st1" d="M645.4,186.8H798"/>
		<path class="st1" d="M645.4,139.9H798"/>
	</g>
</g>
<g>
	<path class="st2" d="M645.4,280.5H798"/>
</g>
<path class="st2" d="M0,0"/>
<path class="st2" d="M0,0"/>
<rect x="645.4" y="100" class="st6" width="152.6" height="190"/>
<path class="st5" d="M684.3,269.8h74.8 M684.3,277.8h74.8v-26.4h-74.8V277.8z M721.7,277.8v2.7 M721.7,251.5v-6.1 M703,280.5h37.4
	 M703,245.4h37.4"/>
<path class="st4" d="M684.3,269.8h74.8 M684.3,277.8h74.8v-26.4h-74.8V277.8z M721.7,277.8v2.7 M721.7,251.5v-6.1 M703,280.5h37.4
	 M703,245.4h37.4"/>
<path class="st6" d="M0,0"/>
<path class="st6" d="M0,0"/>
<g>
	<g>
		<text transform="matrix(1 0 0 1 717.9006 303)" class="st7 st8 st9">0</text>
	</g>
</g>
<g>
	<text transform="matrix(1 0 0 1 319.1577 29.417)" class="st10"><tspan x="0" y="0" class="st7 st8 st11">Synthetic Mesh RMSD, Linear Noise, </tspan><tspan x="0" y="20.4" class="st7 st8 st11">Quotient Projection GRGR in Green</tspan><tspan x="0" y="40.8" class="st7 st8 st11">No Projection in Blue</tspan></text>
</g>
<text transform="matrix(1 0 0 1 493.3694 329.8)" class="st7 st8 st12">Noise Factor</text>
<g>
	<text transform="matrix(6.123234e-17 -1 1 6.123234e-17 32.0056 268.4814)" class="st7 st8 st12">Normalized RMSD</text>
</g>
</svg>
